<?xml version="1.0" encoding="utf-8"?>
<!-- Generator: Adobe Illustrator 15.1.0, SVG Export Plug-In  -->
<!DOCTYPE svg PUBLIC "-//W3C//DTD SVG 1.1//EN" "http://www.w3.org/Graphics/SVG/1.1/DTD/svg11.dtd" [
	<!ENTITY ns_flows "http://ns.adobe.com/Flows/1.0/">
]>
<svg version="1.1"
	 xmlns="http://www.w3.org/2000/svg" xmlns:xlink="http://www.w3.org/1999/xlink" xmlns:a="http://ns.adobe.com/AdobeSVGViewerExtensions/3.0/"
	 x="0px" y="0px" width="1146px" height="1122px" viewBox="-25.666 -34.794 1146 1122"
	 overflow="visible" enable-background="new -25.666 -34.794 1146 1122" xml:space="preserve">
<defs>
</defs>
<g>
	<g>
		<path fill="none" stroke="#EC008C" stroke-width="6" stroke-miterlimit="10" d="M546.123,180.857
			c214.106,0,387.672,173.566,387.672,387.674c0,214.104-173.565,387.672-387.672,387.672
			c-199.291,0-359.476-98.518-380.689-284.815"/>
		<g>
			<polygon fill="#EC008C" points="196.185,678.103 162.885,628.401 136.488,682.092 			"/>
		</g>
	</g>
</g>
<circle fill="#FFFFFF" stroke="#000000" stroke-miterlimit="10" cx="546.123" cy="179.445" r="178.945"/>
<circle fill="#FFFFFF" stroke="#000000" stroke-miterlimit="10" cx="916.801" cy="448.445" r="178.945"/>
<circle fill="#FFFFFF" stroke="#000000" stroke-miterlimit="10" cx="776.123" cy="884.517" r="178.945"/>
<circle fill="#FFFFFF" stroke="#000000" stroke-miterlimit="10" cx="314.123" cy="884.517" r="178.945"/>
<circle fill="#FFFFFF" stroke="#000000" stroke-miterlimit="10" cx="179.445" cy="449.445" r="178.945"/>
<path fill="#FFFFFF" stroke="#000000" stroke-miterlimit="10" d="M506.907,110.697c0,0.66-0.658,1.195-1.467,1.195h-56.682
	c-0.812,0-1.467-0.535-1.467-1.195V77.886c0-0.658,0.655-1.194,1.467-1.194h56.682c0.809,0,1.467,0.536,1.467,1.194V110.697z"/>
<path fill="#A7A9AC" stroke="#000000" stroke-miterlimit="10" d="M506.907,110.697c0,0.66-0.658,1.195-1.467,1.195h-56.682
	c-0.812,0-1.467-0.535-1.467-1.195V77.886c0-0.658,0.655-1.194,1.467-1.194h56.682c0.809,0,1.467,0.536,1.467,1.194V110.697z
	 M508.397,77.064c0-0.692-0.69-1.253-1.541-1.253h-59.515c-0.851,0-1.541,0.561-1.541,1.253v34.452c0,0.693,0.69,1.254,1.541,1.254
	h59.515c0.851,0,1.541-0.561,1.541-1.254V77.064z"/>
<path fill="#D1D3D4" stroke="#000000" stroke-miterlimit="10" d="M511.378,113.158c0,0.757-0.756,1.374-1.687,1.374h-65.186
	c-0.93,0-1.686-0.616-1.686-1.374V75.424c0-0.757,0.756-1.373,1.686-1.373h65.186c0.931,0,1.687,0.616,1.687,1.373V113.158z
	 M508.397,77.064c0-0.692-0.69-1.253-1.541-1.253h-59.515c-0.851,0-1.541,0.561-1.541,1.253v34.452c0,0.693,0.69,1.254,1.541,1.254
	h59.515c0.851,0,1.541-0.561,1.541-1.254V77.064z"/>
<line stroke="#000000" stroke-miterlimit="10" x1="477.1" y1="82.001" x2="477.1" y2="94.292"/>
<line stroke="#000000" stroke-miterlimit="10" x1="482.104" y1="85.864" x2="477.1" y2="94.292"/>
<line stroke="#000000" stroke-width="2" stroke-miterlimit="10" x1="605.869" y1="74.051" x2="605.869" y2="199.552"/>
<line stroke="#000000" stroke-width="2" stroke-miterlimit="10" x1="605.869" y1="199.704" x2="442.82" y2="200.565"/>
<line stroke="#000000" stroke-width="2" stroke-miterlimit="10" x1="631.277" y1="251.737" x2="605.223" y2="198.776"/>
<path fill="#00AEEF" stroke="#000000" stroke-miterlimit="10" d="M866.575,377.136c0,0.456-0.456,0.827-1.018,0.827h-39.296
	c-0.562,0-1.017-0.371-1.017-0.827v-22.748c0-0.458,0.454-0.83,1.017-0.83h39.296c0.562,0,1.018,0.371,1.018,0.83V377.136z"/>
<path fill="#A7A9AC" stroke="#000000" stroke-miterlimit="10" d="M866.575,377.136c0,0.456-0.456,0.827-1.018,0.827h-39.296
	c-0.562,0-1.017-0.371-1.017-0.827v-22.748c0-0.458,0.454-0.83,1.017-0.83h39.296c0.562,0,1.018,0.371,1.018,0.83V377.136z
	 M867.607,353.818c0-0.48-0.479-0.868-1.066-0.868h-41.262c-0.591,0-1.068,0.388-1.068,0.868v23.886
	c0,0.479,0.478,0.868,1.068,0.868h41.262c0.588,0,1.066-0.389,1.066-0.868V353.818z"/>
<path fill="#D1D3D4" stroke="#000000" stroke-miterlimit="10" d="M869.674,378.841c0,0.526-0.524,0.951-1.169,0.951h-45.191
	c-0.646,0-1.168-0.425-1.168-0.951V352.68c0-0.524,0.522-0.951,1.168-0.951h45.191c0.645,0,1.169,0.426,1.169,0.951V378.841z
	 M867.607,353.818c0-0.48-0.479-0.868-1.066-0.868h-41.262c-0.591,0-1.068,0.388-1.068,0.868v23.886
	c0,0.479,0.478,0.868,1.068,0.868h41.262c0.588,0,1.066-0.389,1.066-0.868V353.818z"/>
<ellipse stroke="#000000" stroke-miterlimit="10" cx="836.887" cy="363.155" rx="4.259" ry="3.466"/>
<rect x="841.146" y="367.565" stroke="#000000" stroke-miterlimit="10" width="9.526" height="5.554"/>
<ellipse stroke="#000000" stroke-miterlimit="10" cx="854.932" cy="363.155" rx="4.259" ry="3.466"/>
<line stroke="#000000" stroke-width="2" stroke-miterlimit="10" x1="969.146" y1="371.32" x2="969.146" y2="486.078"/>
<line stroke="#000000" stroke-width="2" stroke-miterlimit="10" x1="970.733" y1="486.939" x2="821.642" y2="487.462"/>
<line stroke="#000000" stroke-width="2" stroke-miterlimit="10" x1="1008.733" y1="539.823" x2="969.074" y2="486.317"/>
<circle stroke="#FFFFFF" stroke-miterlimit="10" cx="892.453" cy="446.184" r="8.675"/>
<rect x="888.118" y="456.516" transform="matrix(0.996 0.0894 -0.0894 0.996 44.4404 -77.7035)" stroke="#FFFFFF" stroke-miterlimit="10" width="3.918" height="1.959"/>
<polygon stroke="#FFFFFF" stroke-miterlimit="10" points="889.259,466.666 891.435,464.335 891.866,459.497 887.962,459.15 
	887.53,463.988 "/>
<path stroke="#FFFFFF" stroke-miterlimit="10" d="M933.798,445.613c-0.838-1.665-2.866-2.334-4.531-1.499l-15.141,7.154
	l-12.783,4.555c-0.334,0.079-0.669,0.153-1.002,0.228l0.288,0.024l-11.527,12.345l-8.31-12.879c-1.245-0.431-2.48-0.947-3.692-1.573
	c0,0-7.942-4.263-11.048-7.146c-2.595-2.41-12.246-11.12-12.246-11.12c-1.366-1.269-3.502-1.189-4.771,0.174
	c-1.269,1.367-1.191,3.502,0.176,4.774l12.431,13.788l14.865,12.927c0,0.951-2.787,23.87-0.828,42.675
	c0.209,2.018,1.552,7.212,3.462,10.591l7.674,11.074c1.355,1.47,3.325,2.094,4.977,1.353l0.556,7.053c0,2.432,1.972,4.4,4.4,4.4
	c2.431,0,4.401-1.969,4.401-4.4c0,0-0.021-29.25-0.001-40.256c0.015-8.525,1.443-25.017,2.742-29.779
	c1.177-4.31,12.62-10.158,12.62-10.158l15.787-9.771C933.964,449.31,934.635,447.281,933.798,445.613z M888.701,472.911
	c0.605,0.053,1.054,0.589,1,1.194c-0.055,0.608-0.591,1.054-1.196,1.001c-0.607-0.055-1.055-0.589-1-1.198
	C887.559,473.304,888.095,472.856,888.701,472.911z M886.975,479.835c0.055-0.604,0.59-1.053,1.196-0.999
	c0.607,0.055,1.055,0.589,1,1.196c-0.054,0.605-0.589,1.051-1.194,0.999C887.37,480.978,886.922,480.442,886.975,479.835z
	 M887.825,511.069l1.395-10.657l1.439,18.275L887.825,511.069z"/>
<path fill="#F7941E" stroke="#000000" stroke-miterlimit="10" d="M684.218,813.263c0,0.348-0.347,0.628-0.773,0.628h-29.906
	c-0.427,0-0.771-0.28-0.771-0.628v-17.312c0-0.348,0.345-0.63,0.771-0.63h29.906c0.427,0,0.773,0.282,0.773,0.63V813.263z"/>
<path fill="#A7A9AC" stroke="#000000" stroke-miterlimit="10" d="M684.218,813.263c0,0.348-0.347,0.628-0.773,0.628h-29.906
	c-0.427,0-0.771-0.28-0.771-0.628v-17.312c0-0.348,0.345-0.63,0.771-0.63h29.906c0.427,0,0.773,0.282,0.773,0.63V813.263z
	 M685.004,795.519c0-0.367-0.364-0.663-0.812-0.663h-31.4c-0.449,0-0.813,0.296-0.813,0.663v18.176c0,0.365,0.364,0.663,0.813,0.663
	h31.4c0.448,0,0.812-0.298,0.812-0.663V795.519z"/>
<path fill="#D1D3D4" stroke="#000000" stroke-miterlimit="10" d="M686.576,814.561c0,0.399-0.397,0.726-0.889,0.726h-34.393
	c-0.491,0-0.889-0.326-0.889-0.726v-19.908c0-0.399,0.397-0.726,0.889-0.726h34.393c0.491,0,0.889,0.326,0.889,0.726V814.561z
	 M685.004,795.519c0-0.367-0.364-0.663-0.812-0.663h-31.4c-0.449,0-0.813,0.296-0.813,0.663v18.176c0,0.365,0.364,0.663,0.813,0.663
	h31.4c0.448,0,0.812-0.298,0.812-0.663V795.519z"/>
<rect x="656.023" y="801.57" stroke="#000000" stroke-miterlimit="10" width="10.32" height="2.82"/>
<rect x="670.638" y="801.57" stroke="#000000" stroke-miterlimit="10" width="10.323" height="2.82"/>
<rect x="664.866" y="805.802" stroke="#000000" stroke-miterlimit="10" width="7.249" height="4.229"/>
<circle cx="667.555" cy="884.95" r="6.986"/>
<path stroke="#FFFFFF" stroke-miterlimit="10" d="M677.895,902.142l8.791-9.836c1.379-0.784,1.414-3.041,0.591-5.064l-4.717-13.211
	c-0.442-1.435-1.965-2.239-3.398-1.797c-1.436,0.441-2.241,1.964-1.799,3.401l3.15,12.075l-8.822,5.025
	c-3.748,1.663-8.832,5.382-7.198,12.229c0.798,3.337,4.366,15.32,5.787,18.96l4.35,15.983l-7.146,14.554
	c-0.938,1.716-0.311,3.87,1.409,4.809c1.717,0.938,3.87,0.306,4.81-1.407l9.468-15.646c0.677-1.236,1.951-4.892,1.479-7.416
	l-1.421-10.1L677.895,902.142z"/>
<path d="M678.072,873.694l-3.039,2.192l-0.197-0.276l-1.071,0.772l2.084,2.893l1.071-0.775l-0.198-0.275l3.04-2.191
	c0.848-0.611,2.428,0.352,3.999-0.782l10.309-7.436l-3.688-5.107l-10.305,7.438C678.504,871.278,678.921,873.081,678.072,873.694z
	 M687.271,866.281l2.426,3.361l-4.649,3.354l-2.425-3.361L687.271,866.281z"/>
<path d="M754.74,878.895c-3.567-1.468-7.649,0.235-9.118,3.801c-1.469,3.57,0.233,7.651,3.802,9.119
	c3.566,1.47,7.648-0.233,9.116-3.802C760.01,884.449,758.307,880.362,754.74,878.895z"/>
<path stroke="#FFFFFF" stroke-miterlimit="10" d="M741.742,902.547l-8.791-9.837c-1.378-0.781-1.412-3.038-0.589-5.064l4.717-13.21
	c0.441-1.433,1.964-2.237,3.398-1.795c1.436,0.439,2.241,1.961,1.799,3.398l-3.15,12.078l8.822,5.025
	c3.747,1.663,8.832,5.382,7.197,12.227c-0.797,3.34-4.366,15.323-5.786,18.963l-4.35,15.981l7.146,14.553
	c0.938,1.719,0.309,3.871-1.409,4.81c-1.717,0.938-3.87,0.308-4.811-1.408l-9.469-15.644c-0.675-1.238-1.95-4.893-1.478-7.418
	l1.421-10.097L741.742,902.547z"/>
<path d="M739.562,870.55l-10.306-7.438l-3.687,5.109l10.308,7.436c1.572,1.134,3.151,0.171,3.999,0.781l3.041,2.192l-0.198,0.275
	l1.071,0.772l2.084-2.89l-1.071-0.772l-0.197,0.273l-3.039-2.192C740.716,873.485,741.133,871.685,739.562,870.55z M737.016,870.039
	l-2.427,3.362l-4.647-3.354l2.424-3.359L737.016,870.039z"/>
<polygon points="834.453,911.269 811.8,911.269 804.349,889.245 808.191,887.944 814.711,907.209 834.453,907.209 "/>
<polygon points="851.836,913.662 805.001,913.662 805.001,955.932 833.113,955.932 833.113,917.006 851.836,917.006 "/>
<path d="M845.075,891.144c4.07,2.299,9.239,0.861,11.537-3.21c2.3-4.074,0.865-9.235-3.209-11.537
	c-4.07-2.299-9.235-0.864-11.538,3.208C839.568,883.676,841.005,888.843,845.075,891.144z"/>
<path d="M852.431,911.557l6.519-4.311l6.39,9.475l-11.187,0.861c-5.451,0.573-8.033,4.588-6.6,10.325l6.23,21.128
	c0.679,2.164,2.792,3.82,5.165,3.249c2.312-0.556,3.725-2.555,3.348-4.764l-3.016-17.851h12.371
	c6.598,0.573,14.057-6.927,8.605-16.967c-0.136-0.166-9.466-16.062-9.466-16.062c-3.442-5.74-10.328-6.025-15.204-0.861
	l-5.737,6.311l-1.5-6.299c-0.371-1.899-2.209-3.12-4.104-2.733c-1.893,0.388-2.989,2.223-2.752,4.146l1.471,10.908
	C843.73,913.148,848.701,914.136,852.431,911.557z"/>
<circle cx="869.176" cy="954.209" r="1.722"/>
<circle cx="889.181" cy="954.209" r="1.721"/>
<circle cx="879.141" cy="954.209" r="1.721"/>
<path d="M899.265,903.265c-1.379-0.351-2.787,0.483-3.139,1.866l-5.486,21.555c-0.423,1.606-1.078,2.853-2.062,3.918
	c-1.124,1.217-2.769,1.887-4.635,1.887h-17.196c-1.425,0-2.582,1.157-2.582,2.579c0,1.428,1.157,2.585,2.582,2.585h10.368v10.022
	h-5.444c-2.009,0-3.642,1.631-3.642,3.64v0.578h2.295v-0.578c0-0.74,0.604-1.346,1.347-1.346h6.446v1.798h1.912v-1.798h6.544
	c0.741,0,1.347,0.605,1.347,1.346v0.578h2.294v-0.578c0-2.009-1.634-3.64-3.641-3.64h-5.442v-10.022h2.812
	c3.275,0,6.348-1.294,8.429-3.548c1.559-1.688,2.624-3.687,3.269-6.127l5.49-21.577
	C901.481,905.022,900.647,903.617,899.265,903.265z"/>
<line stroke="#000000" stroke-width="2" stroke-miterlimit="10" x1="790.286" y1="805.375" x2="790.286" y2="966.384"/>
<polygon points="728.585,851.913 727.647,852.26 719.059,830.462 720.936,829.77 "/>
<polygon points="757.016,856.402 757.802,857.02 772.689,838.926 771.117,837.69 "/>
<polygon points="691.054,853.224 691.991,853.572 700.58,831.771 698.703,831.081 "/>
<polygon points="662.622,857.71 661.837,858.331 646.949,840.235 648.521,839 "/>
<path fill="none" stroke="#000000" stroke-width="2" stroke-miterlimit="10" d="M846.608,862.559
	c-1.867,6.301-8.253,2.877-10.781-0.986c1.281,7.488-4.354,9.805-9.946,5.708c3.229,1.581,6.593,5.077,5.706,8.93
	c-3.039,0.827-6.175,2.104-9.289,2.479c3.521-0.104,11.667,1.465,5.196,4.776"/>
<circle stroke="#FFFFFF" stroke-miterlimit="10" cx="406.506" cy="875.56" r="6.598"/>
<path stroke="#FFFFFF" stroke-miterlimit="10" d="M420.55,922.583c-0.712-1.525-2.527-2.183-4.054-1.471l-4.876,1.774l-6.555-15.348
	l5.544-13.909l11.324-5.55c2.422-1.489,3.763-4.284,0.188-8.865l-6.683-8.084c-0.945-0.995-2.556-1.028-3.6-0.074
	c-1.043,0.951-1.125,2.534-0.182,3.529l4.616,7.536c0,0-5.044,3.51-14.38,1.227c-3.208-0.784-4.917-2.346-5.812-3.912l-1.229-3.127
	l6.647-3.12c1.152-0.739,1.451-2.296,0.665-3.472c-0.786-1.175-2.284-1.456-3.512-0.784l-9.275,3.574
	c-2.013,0.56-1.851,2.993-1.393,4.502l3.516,11.816c0,0-4.248,8.604-7.936,18.215c-3.574,8.716-5.995,18.031-5.995,18.031
	c-0.78,2.171-0.837,4.023,0.887,5.286c1.726,1.265,4.127,0.949,5.362-0.707l10.369-14.961l12.049,14.788
	c0.452,0.804,1.003,1.076,1.826,1.368c0.994,0.512,2.206,0.578,3.297,0.066l7.721-4.275
	C420.606,925.923,421.264,924.109,420.55,922.583z"/>
<path d="M401.337,904.375c0,0,2.965-2.104,3.593-2.536c0.846-0.581,0.739-1.954,0.317-2.377L401.337,904.375z"/>
<polygon points="354.979,872.965 354.508,872.125 373.957,860.682 374.897,862.363 "/>
<polygon points="354.979,900.686 354.508,901.526 373.957,912.971 374.897,911.291 "/>
<line stroke="#000000" stroke-width="2" stroke-miterlimit="10" x1="345.482" y1="776.234" x2="345.482" y2="930.562"/>
<rect x="320.419" y="903.632" width="14.239" height="4.555"/>
<rect x="326.622" y="895.154" width="1.421" height="12.529"/>
<path d="M290.74,889.997l0.546-6.857c-1.572,1.057-3.402,2.288-3.402,2.288c-0.307,0.215-0.584,0.442-0.796,0.677l-6.138,7.904
	c-0.782,0.916-0.67,2.293,0.245,3.075c0.917,0.779,2.293,0.669,3.075-0.246l6.455-6.836L290.74,889.997z"/>
<path d="M329.069,891.646l-7.112-10.836c-0.46-0.505-1.396-1.093-2.044-1.246c0,0-5.273-1.855-11.568-2.027l-4.684,9.772
	l-7.433-6.186l0.339,6.453c0.898,0.555,2.069,2.862,2.383,4.325c0.379,1.77,0.843,6.324-1.288,8.16l-8.17,7.257
	c-1.395,1.16-1.764,3.346-0.617,4.893l8.422,9.667c0.84,1.136,2.444,1.375,3.578,0.533c1.135-0.842,1.373-2.446,0.532-3.58
	l-4.989-8.074c0,0,8.381-5.263,8.563-5.416c0.199-0.169,0.521-0.215,0.736,0.135c0.027,0.088,6.646,8.951,6.646,8.951l-1.401,13.142
	c-0.255,1.55,0.792,3.013,2.342,3.269c1.548,0.256,3.012-0.791,3.268-2.341l3.024-14.354c0.13-0.794-0.129-1.487-0.459-2.374
	l-3.863-8.605l-2.348-17.137c0,0-0.184-0.65,0.323-0.834l4.557,0.38l7.186,9.012c0.811,1.124,2.38,1.38,3.505,0.569
	C329.626,894.34,329.881,892.772,329.069,891.646z M303.736,890.998c-0.085-0.382,0.16-0.763,0.544-0.846
	c0.385-0.084,0.763,0.16,0.848,0.543c0.083,0.385-0.162,0.765-0.544,0.849C304.2,891.626,303.82,891.383,303.736,890.998z
	 M305.403,895.299c-0.384,0.084-0.764-0.16-0.848-0.545c-0.083-0.385,0.16-0.763,0.545-0.847c0.383-0.086,0.763,0.16,0.847,0.543
	C306.03,894.835,305.787,895.216,305.403,895.299z"/>
<polygon points="295.005,872.379 296.208,890.73 293.766,894.056 291.677,891.588 292.854,872.759 "/>
<path d="M302.719,866.217c-1.297-0.923-2.942-1.36-4.637-1.09c-1.941,0.306-3.528,1.47-4.447,3.044L302.719,866.217z"/>
<path d="M303.457,866.834l-10.254,2.204c-0.359,0.914-0.512,1.918-0.407,2.951l12.18-2.831
	C304.645,868.262,304.118,867.478,303.457,866.834z"/>
<path d="M305.295,870.373c-0.026-0.164-0.065-0.324-0.103-0.484l-9.44,2.194l0.252,4.787c1.186,0.662,2.595,0.946,4.043,0.717
	C303.489,877.044,305.838,873.814,305.295,870.373z"/>
<circle cx="230.901" cy="883.72" r="5.332"/>
<path d="M238.748,871.417l3.738-9.263l-4.588-1.853l-3.738,9.263c-0.569,1.411,0.46,2.437,0.154,3.199l-1.104,2.73l-0.248-0.098
	l-0.386,0.961l2.595,1.047l0.39-0.963l-0.246-0.099l1.102-2.73C236.726,872.85,238.178,872.829,238.748,871.417z M238.659,869.378
	l-3.019-1.222l1.686-4.178l3.019,1.22L238.659,869.378z"/>
<rect x="238.301" y="885.232" transform="matrix(-0.7642 0.645 -0.645 -0.7642 993.8917 1408.2963)" width="2.409" height="1.205"/>
<polygon points="243.154,890.162 241.237,889.754 239.311,887.474 241.152,885.921 243.077,888.206 "/>
<path d="M230.237,914.201c1.098,0.325,2.253-0.302,2.58-1.398l3.496-10.117l1.352-3.906c0.974,0.819,5.577,5.631,5.539,6.278
	c-0.039,0.723-3.963,14.611-3.963,14.611l-8.062,9.866c-0.962,0.944-0.973,2.483-0.032,3.442s2.483,0.974,3.442,0.034
	c0,0,10.647-8.752,11.012-9.67c0.295-0.431,0.407-0.727,0.673-1.389c0,0,4.042-9.086,4.264-9.799
	c0.219-0.713,0.529-0.604,0.814-0.045l5.356,8.903l-2.875,12.336c-0.391,1.284,0.336,2.646,1.62,3.039
	c1.286,0.392,2.647-0.338,3.037-1.621c0,0,4.667-12.039,5.118-13.599c0.183-1.073,0.281-1.737-0.035-2.85
	c-2.5-8.835-12.317-28.807-16.096-32.312l4.854-5.973c0.956-1.03,0.834-2.577-0.134-3.596c-0.357-0.376-7.925-7.082-7.925-7.082
	c-0.81-0.812-2.125-0.807-2.934,0.007c-0.807,0.811-0.804,2.125,0.007,2.934l5.514,5.994l-3.369,3.323l0.364,9.376l-8.764-1.851
	c-0.659,1.093-1.224,2.47-1.708,4.304l-1.946,7.792l-2.597,10.387C228.515,912.718,229.14,913.873,230.237,914.201z M247.997,895.9
	c0.286-0.239,0.714-0.203,0.955,0.083c0.241,0.287,0.204,0.713-0.081,0.954c-0.287,0.242-0.712,0.203-0.954-0.081
	C247.674,896.572,247.711,896.141,247.997,895.9z M245.639,893.105c0.286-0.242,0.711-0.204,0.953,0.081
	c0.243,0.284,0.205,0.712-0.08,0.954c-0.287,0.243-0.713,0.205-0.954-0.079C245.316,893.772,245.351,893.346,245.639,893.105z"/>
<path fill="#F15A29" stroke="#000000" stroke-miterlimit="10" d="M251.253,794.171c0,0.419-0.34,0.758-0.759,0.758h-29.317
	c-0.418,0-0.758-0.339-0.758-0.758v-20.85c0-0.42,0.34-0.759,0.758-0.759h29.317c0.419,0,0.759,0.339,0.759,0.759V794.171z"/>
<path fill="#A7A9AC" stroke="#000000" stroke-miterlimit="10" d="M251.253,794.171c0,0.419-0.34,0.758-0.759,0.758h-29.317
	c-0.418,0-0.758-0.339-0.758-0.758v-20.85c0-0.42,0.34-0.759,0.758-0.759h29.317c0.419,0,0.759,0.339,0.759,0.759V794.171z
	 M252.024,772.799c0-0.441-0.357-0.798-0.799-0.798h-30.782c-0.439,0-0.797,0.356-0.797,0.798v21.891
	c0,0.441,0.358,0.798,0.797,0.798h30.782c0.441,0,0.799-0.356,0.799-0.798V772.799z"/>
<path fill="#D1D3D4" stroke="#000000" stroke-miterlimit="10" d="M253.565,795.735c0,0.48-0.391,0.873-0.873,0.873h-33.716
	c-0.48,0-0.87-0.393-0.87-0.873v-23.98c0-0.479,0.39-0.869,0.87-0.869h33.716c0.481,0,0.873,0.39,0.873,0.869V795.735z
	 M252.024,772.799c0-0.441-0.357-0.798-0.799-0.798h-30.782c-0.439,0-0.797,0.356-0.797,0.798v21.891
	c0,0.441,0.358,0.798,0.797,0.798h30.782c0.441,0,0.799-0.356,0.799-0.798V772.799z"/>
<path d="M237.714,780.663c0.593,2.218,2.875,3.535,5.093,2.94c2.219-0.595,3.535-2.874,2.939-5.093L237.714,780.663z"/>
<rect x="232.282" y="785.622" width="7.106" height="5.09"/>
<path d="M225.924,778.51c-0.594,2.219,0.722,4.498,2.94,5.093c2.219,0.595,4.499-0.723,5.093-2.94L225.924,778.51z"/>
<path fill="none" stroke="#000000" stroke-width="2" stroke-miterlimit="10" d="M303.57,854.417
	c-1.798,6.068-7.948,2.771-10.383-0.949c1.234,7.212-4.193,9.442-9.58,5.497c3.111,1.523,6.349,4.89,5.496,8.601
	c-2.926,0.796-5.946,2.025-8.946,2.387c3.391-0.101,11.236,1.41,5.004,4.6"/>
<path fill="#27AAE1" d="M422.272,889.551c-2.717-2.719-7.124-2.719-9.841,0c-2.717-2.719-7.125-2.719-9.844,0
	c-2.718,2.719-2.718,7.125,0,9.844c2.718,2.717,4.28,2.773,9.844,8.034c5.564-5.261,7.124-5.317,9.841-8.034
	C424.991,896.676,424.991,892.27,422.272,889.551z"/>
<rect x="405.009" y="893.932" fill="#FFFFFF" width="14.844" height="4.466"/>
<path fill="none" stroke="#000000" stroke-width="5" stroke-miterlimit="10" d="M406.152,879.447
	c-0.131-1.172,0.978-2.857,1.918-3.395"/>
<path fill="none" stroke="#000000" stroke-width="5" stroke-miterlimit="10" d="M405.119,879.889
	c0.676-0.538,0.225-1.946,0.853-2.841c0.61-0.872,1.528-1.219,2.395-1.587"/>
<polygon points="264.864,791.651 265.214,789.881 309.678,819.346 308.976,822.887 "/>
<polygon points="228.278,806.691 226.734,806.384 221.84,844.92 224.928,845.533 "/>
<polygon points="250.138,805.732 248.452,805.95 268.286,849.483 271.657,849.045 "/>
<path d="M67.531,467.329l13.579-11.639l12.308-10.02c0.708-1.222,2.571-2.806,7.569-2.554l7.542,0.095l-4.76-11.354
	c-0.889-1.888-0.128-4.165,1.702-5.085c1.828-0.92,4.031-0.131,4.92,1.76l9.05,17.252c0.304,0.646,0.447,1.329,0.451,2
	c0,0.009,0.002,0.017,0.002,0.025c0,0.027-0.002,0.053-0.002,0.081c0,0.062,0,0.122-0.001,0.184
	c-0.057,2.454-1.959,4.468-4.366,4.546l-8.639,0.948c-1.146,2.927-12.174,33.236-12.174,33.236l-3.914,42.827
	c0.135,2.38-1.901,4.438-4.547,4.599c-2.648,0.159-4.902-1.643-5.038-4.022l-1.617-38.472c0-1.769-0.105-3.203-0.113-4.454
	c-0.013-2.917,0.738-5.812,1.523-8.564c0.55-1.931,4.105-13.318,4.629-14.957l-14.278,9.275c-1.339,0.956-3.112,0.775-4.242-0.347
	c-0.16-0.16-0.306-0.338-0.437-0.534c-0.132-0.193-0.241-0.399-0.327-0.61C65.735,470.059,66.193,468.285,67.531,467.329
	C67.531,467.329,66.193,468.285,67.531,467.329z"/>
<path d="M112.1,427.62c-0.941-1.955-2.906-3.216-5.023-3.216c-0.855,0-1.676,0.195-2.448,0.581
	c-2.765,1.394-3.928,4.837-2.609,7.696l2.635,6.288c-1.593-0.171-3.167-0.752-4.559-1.791c-4.234-3.161-5.189-9.27-2.127-13.645
	c3.061-4.374,8.976-5.358,13.211-2.198c3.447,2.569,4.72,7.099,3.423,11.054L112.1,427.62z"/>
<path d="M71.872,421.774c0.442-1.264,1.794-1.922,3.022-1.465c1.226,0.456,3.447,3.734,3.402,3.86s-3.779,1.184-5.004,0.725
	C72.065,424.438,71.431,423.039,71.872,421.774z"/>
<path d="M74.524,408.608c1.013-1.021,2.64-0.999,3.628,0.05c0.987,1.053,1.648,5.349,1.549,5.45
	c-0.104,0.103-4.242-0.703-5.229-1.752C73.483,411.308,73.505,409.63,74.524,408.608z"/>
<path d="M87.814,419.7c0.798,0.505,1.886,3.146,1.835,3.228c-0.047,0.083-2.821,0.252-3.616-0.254
	c-0.796-0.509-1.041-1.586-0.549-2.409C85.976,419.445,87.02,419.19,87.814,419.7z"/>
<polygon points="109.205,456.523 109.205,479.701 106.321,477.76 106.321,464.073 "/>
<path d="M244.124,437.435c0,4.542-3.566,8.227-7.963,8.227c-4.402,0-7.968-3.684-7.968-8.227c0-4.545,3.566-8.226,7.968-8.226
	C240.558,429.209,244.124,432.89,244.124,437.435z"/>
<path d="M259.637,432.641c-0.676-7.806-8.368-18.815-23.477-19.14c-15.112,0.325-22.802,11.334-23.479,19.14
	c-1.083,12.543,7.912,22.876,9.624,25.085c1.081,1.394,1.62,3.446,1.667,5.041c0.233,7.979,2.501,68.062,2.501,68.062
	c0,2.305,1.81,4.174,4.041,4.174s4.042-1.869,4.042-4.174l0.915-21.516l0.689-16.125l0.687,16.125l0.917,21.516
	c0,2.305,1.81,4.174,4.042,4.174s4.04-1.869,4.04-4.174c0,0,2.268-60.082,2.5-68.062c0.049-1.595,0.588-3.647,1.667-5.041
	C251.726,455.517,260.721,445.184,259.637,432.641z M236.16,447.802c-11.156,0-14.394-7.356-14.394-13.49
	c0-8.732,7.377-14.124,14.394-14.124c7.016,0,14.392,5.391,14.392,14.124C250.552,440.445,247.313,447.802,236.16,447.802z"/>
<path fill="#ED328F" d="M271.617,453.248c-4.187-4.326-10.981-4.326-15.171,0c-4.19-4.326-10.985-4.326-15.172,0
	c-4.19,4.327-4.19,11.342,0,15.673c4.188,4.327,6.594,4.417,15.172,12.794c8.577-8.378,10.985-8.468,15.171-12.794
	C275.81,464.59,275.81,457.574,271.617,453.248z"/>
<path fill="#FFFFFF" stroke="#000000" stroke-width="2" stroke-miterlimit="10" d="M225.206,381.578
	c0-16.762,15.344-22.751,34.273-22.751c18.928,0,34.271,6.786,34.271,22.751c0,16.764-15.343,22.75-34.271,22.75
	c-1.627,0-3.212-0.076-4.782-0.19c-2.191,3.004-6.453,7.457-12.486,7.457c0,0,4.128-2.148,4.943-8.346
	c-0.41-0.07-0.797-0.213-1.168-0.384C233.768,400,225.206,392.904,225.206,381.578z"/>
<path fill="#8DC63F" stroke="#000000" stroke-miterlimit="10" d="M242.623,392.347c0,0.47,0.37,0.856,0.83,0.856h32.054
	c0.458,0,0.828-0.386,0.828-0.856v-23.549c0-0.472-0.37-0.855-0.828-0.855h-32.054c-0.46,0-0.83,0.383-0.83,0.855V392.347z"/>
<path fill="#A7A9AC" stroke="#000000" stroke-miterlimit="10" d="M242.623,368.798c0-0.472,0.37-0.855,0.83-0.855h32.054
	c0.458,0,0.828,0.383,0.828,0.855v23.549c0,0.47-0.37,0.856-0.828,0.856h-32.054c-0.46,0-0.83-0.386-0.83-0.856V368.798z
	 M241.778,392.935c0,0.499,0.392,0.898,0.872,0.898h33.659c0.481,0,0.869-0.4,0.869-0.898v-24.727c0-0.495-0.388-0.897-0.869-0.897
	h-33.659c-0.479,0-0.872,0.402-0.872,0.897V392.935z"/>
<path fill="#D1D3D4" stroke="#000000" stroke-miterlimit="10" d="M240.093,367.033c0-0.545,0.427-0.984,0.954-0.984h36.864
	c0.527,0,0.954,0.439,0.954,0.984v27.079c0,0.544-0.427,0.984-0.954,0.984h-36.864c-0.527,0-0.954-0.44-0.954-0.984V367.033z
	 M241.778,392.935c0,0.499,0.392,0.898,0.872,0.898h33.659c0.481,0,0.869-0.4,0.869-0.898v-24.727c0-0.495-0.388-0.897-0.869-0.897
	h-33.659c-0.479,0-0.872,0.402-0.872,0.897V392.935z"/>
<ellipse stroke="#000000" stroke-miterlimit="10" cx="265.13" cy="377.279" rx="3.475" ry="3.588"/>
<path stroke="#000000" stroke-miterlimit="10" d="M257.728,377.237c0,1.983-1.557,3.591-3.477,3.591
	c-1.918,0-3.473-1.608-3.473-3.591c0-1.98,1.555-3.586,3.473-3.586C256.171,373.651,257.728,375.257,257.728,377.237z"/>
<path fill="none" stroke="#000000" stroke-miterlimit="10" d="M252.398,382.91c0,2.026,3.169,3.67,7.081,3.67
	c3.911,0,7.081-1.644,7.081-3.67"/>
<path fill="#FFFFFF" stroke="#000000" stroke-width="2" stroke-miterlimit="10" d="M92.602,384.529
	c-0.045-15.927,14.518-21.661,32.505-21.717c17.985-0.053,32.585,6.35,32.629,21.522c0.045,15.926-14.52,21.657-32.504,21.714
	c-1.546,0.002-3.056-0.062-4.546-0.166c-2.073,2.863-6.112,7.105-11.842,7.125c0,0,3.916-2.055,4.675-7.949
	c-0.392-0.068-0.759-0.202-1.112-0.361C100.787,402.012,92.634,395.295,92.602,384.529z"/>
<path fill="#92278F" stroke="#000000" stroke-miterlimit="10" d="M141.431,395.821c0,0.454-0.356,0.816-0.792,0.816h-30.624
	c-0.437,0-0.791-0.363-0.791-0.816v-22.495c0-0.453,0.354-0.819,0.791-0.819h30.624c0.436,0,0.792,0.366,0.792,0.819V395.821z"/>
<path fill="#A7A9AC" stroke="#000000" stroke-miterlimit="10" d="M141.431,395.821c0,0.454-0.356,0.816-0.792,0.816h-30.624
	c-0.437,0-0.791-0.363-0.791-0.816v-22.495c0-0.453,0.354-0.819,0.791-0.819h30.624c0.436,0,0.792,0.366,0.792,0.819V395.821z
	 M142.234,372.764c0-0.476-0.373-0.858-0.832-0.858h-32.154c-0.458,0-0.83,0.383-0.83,0.858v23.623c0,0.469,0.373,0.855,0.83,0.855
	h32.154c0.459,0,0.832-0.386,0.832-0.855V372.764z"/>
<path fill="#D1D3D4" stroke="#000000" stroke-miterlimit="10" d="M143.844,397.51c0,0.518-0.407,0.941-0.91,0.941h-35.215
	c-0.504,0-0.913-0.423-0.913-0.941V371.64c0-0.519,0.409-0.939,0.913-0.939h35.215c0.502,0,0.91,0.42,0.91,0.939V397.51z
	 M142.234,372.764c0-0.476-0.373-0.858-0.832-0.858h-32.154c-0.458,0-0.83,0.383-0.83,0.858v23.623c0,0.469,0.373,0.855,0.83,0.855
	h32.154c0.459,0,0.832-0.386,0.832-0.855V372.764z"/>
<path fill="none" stroke="#000000" stroke-miterlimit="10" d="M131.934,391.229c0-1.936-3.029-3.507-6.764-3.507
	c-3.738,0-6.765,1.572-6.765,3.507"/>
<path fill="none" stroke="#000000" stroke-miterlimit="10" d="M136.438,377.942c0,1.061-1.659,1.921-3.709,1.921
	c-2.047,0-3.707-0.861-3.707-1.921"/>
<path fill="none" stroke="#000000" stroke-miterlimit="10" d="M121.317,377.92c0,1.063-1.662,1.922-3.707,1.922
	c-2.051,0-3.71-0.859-3.71-1.922"/>
<path stroke="#300505" stroke-miterlimit="10" d="M134.371,380.603c0,0-4.523,6.422,0,7.747
	C134.371,388.35,138.769,386.879,134.371,380.603z"/>
<path d="M430.238,258.346v1.008h-6.752v-1.008H430.238z M429.662,265.692v5.294h-4.285v0.846h-1.062v-6.14H429.662z
	 M440.304,269.906v1.134h-7.923v1.026h-1.152v-10.749c-0.414,0.63-0.864,1.206-1.332,1.71c-0.162-0.27-0.54-0.684-0.757-0.9
	c0.108-0.108,0.198-0.216,0.307-0.342h-5.114v-0.99h5.294v0.774c1.44-1.783,2.611-4.249,3.223-6.284l1.495,0.45
	c-0.036,0.126-0.181,0.18-0.396,0.18c-0.324,0.937-0.774,1.981-1.332,3.043h2.61c0.54-1.008,1.135-2.467,1.459-3.493l1.476,0.468
	c-0.054,0.108-0.18,0.18-0.396,0.18c-0.342,0.81-0.847,1.926-1.351,2.845h3.601v1.116h-3.564v2.449h3.241v1.099h-3.241v2.502h3.241
	v1.117h-3.241v2.665H440.304z M429.626,263.244v0.991h-5.294v-0.991H429.626z M429.572,255.952v0.99h-5.168v-0.99H429.572z
	 M428.582,266.719h-3.205v3.241h3.205V266.719z M435.298,262.523v-2.449h-2.917v2.449H435.298z M435.298,266.125v-2.502h-2.917
	v2.502H435.298z M432.381,267.241v2.665h2.917v-2.665H432.381z"/>
<path d="M452.092,265.17c-1.152,0.126-2.791,0.216-4.304,0.216c-0.054,0.63-0.108,1.332-0.108,1.674
	c0,2.881,1.909,3.115,3.583,3.115c2.827,0,4.231-0.81,4.231-2.467c0-0.936-0.504-2.106-1.477-3.313
	c0.343-0.108,0.864-0.306,1.152-0.45c1.099,1.422,1.657,2.791,1.657,3.961c0,3.025-3.386,3.475-5.564,3.475
	c-1.729,0-4.825-0.126-4.825-4.321c0-0.81,0.072-1.404,0.108-1.71c-1.513-0.054-3.943-0.144-3.943-1.999
	c0-0.811,0.468-1.567,1.53-2.323l0.954,0.558c-0.792,0.486-1.26,1.08-1.26,1.566c0,0.954,1.44,0.99,2.809,1.026
	c0.126-1.207,0.288-2.629,0.45-4.033c-1.297-0.144-2.791-0.504-3.781-0.99l0.324-1.17c0.99,0.468,2.251,0.81,3.601,0.972
	c0.145-1.134,0.271-2.287,0.396-3.241l1.873,0.234c-0.055,0.216-0.253,0.342-0.576,0.36c-0.127,0.756-0.271,1.747-0.414,2.773
	c0.521,0.036,1.08,0.054,1.656,0.054c0.684,0,1.386-0.018,2.034-0.072l-0.054,1.188c-0.54,0.036-1.152,0.054-1.765,0.054
	c-0.702,0-1.404-0.018-2.034-0.054c-0.181,1.351-0.343,2.737-0.469,3.961c1.423,0,3.007-0.09,4.195-0.252L452.092,265.17z"/>
<path d="M462.583,257.734c-0.036,0.162-0.234,0.27-0.486,0.288c-0.216,1.35-0.342,2.971-0.342,4.483c0,0.666,0.036,1.314,0.072,1.89
	c0.216,3.061,1.458,4.916,2.845,4.897c0.72,0,1.656-1.836,2.305-3.853c0.252,0.252,0.738,0.594,1.044,0.774
	c-0.828,2.431-1.872,4.411-3.367,4.447c-2.286,0.036-3.871-2.737-4.123-6.194c-0.054-0.684-0.072-1.44-0.072-2.25
	c0-1.585,0.091-3.313,0.271-4.844L462.583,257.734z M474.521,266.106c-0.504-3.151-2.106-5.419-4.537-6.77l0.792-0.973
	c2.629,1.404,4.556,3.997,5.078,7.328L474.521,266.106z"/>
<path d="M484.49,255.826c-0.054,0.144-0.234,0.288-0.558,0.306c-0.127,0.792-0.289,1.729-0.45,2.431
	c1.764-0.108,3.727-0.414,5.293-0.882l0.198,1.224c-1.675,0.415-3.655,0.703-5.726,0.864c-0.864,3.457-2.053,6.266-3.817,8.859
	l-1.206-0.486c1.639-2.358,2.881-5.059,3.655-8.336h-3.583v-1.17h2.143c0.558,0,1.134-0.018,1.656-0.018
	c0.216-0.954,0.378-1.98,0.504-3.042L484.49,255.826z M489.279,263.496c0.019,1.458,0.126,2.449,0.234,3.691
	c1.152,0.45,2.646,1.224,3.835,2.088l-0.647,1.152c-0.991-0.756-2.215-1.458-3.188-1.89c0,1.8-0.72,3.205-3.367,3.205
	c-1.998,0-3.528-0.9-3.511-2.593c0-1.8,1.891-2.665,3.547-2.665c0.648,0,1.314,0.126,2.035,0.324
	c-0.072-1.152-0.162-2.323-0.162-3.169L489.279,263.496z M488.289,267.997c-0.738-0.288-1.494-0.414-2.143-0.414
	c-1.08,0-2.358,0.432-2.376,1.549c0,1.026,1.008,1.512,2.412,1.512c1.297,0,2.125-0.63,2.125-1.818
	C488.308,268.538,488.308,268.268,488.289,267.997z M493.223,261.642c-2.034,0.018-4.501,0.342-6.374,0.882l-0.197-1.134
	c2.052-0.594,4.537-0.972,6.5-0.972L493.223,261.642z"/>
<path d="M498.583,257.734c-0.036,0.162-0.234,0.27-0.486,0.288c-0.216,1.35-0.342,2.971-0.342,4.483c0,0.666,0.036,1.314,0.072,1.89
	c0.216,3.061,1.458,4.916,2.845,4.897c0.72,0,1.656-1.836,2.305-3.853c0.252,0.252,0.738,0.594,1.044,0.774
	c-0.828,2.431-1.872,4.411-3.367,4.447c-2.286,0.036-3.871-2.737-4.123-6.194c-0.054-0.684-0.072-1.44-0.072-2.25
	c0-1.585,0.091-3.313,0.271-4.844L498.583,257.734z M510.521,266.106c-0.504-3.151-2.106-5.419-4.537-6.77l0.792-0.973
	c2.629,1.404,4.556,3.997,5.078,7.328L510.521,266.106z"/>
<path d="M527.584,261.695c-0.035,0.018-0.09,0.018-0.144,0.018c-0.126,0-0.271-0.036-0.378-0.108
	c-5.348,1.566-10.191,3.925-10.173,6.338c0,1.729,1.908,2.323,4.825,2.323c2.898,0,5.113-0.216,6.374-0.415l0.107,1.314
	c-1.656,0.216-4.339,0.324-6.445,0.324c-3.565,0-6.158-0.828-6.176-3.475c-0.019-1.926,1.908-3.619,4.735-5.078
	c-0.612-1.098-0.828-3.187-0.828-7.256l1.98,0.162c-0.019,0.234-0.198,0.378-0.559,0.432c-0.018,3.151,0.09,5.113,0.595,6.085
	c1.692-0.792,3.637-1.512,5.617-2.16L527.584,261.695z"/>
<path d="M546.971,261.75c-1.62,0.558-3.583,0.9-5.438,1.116c0.559,0.972,1.656,2.323,2.971,2.827l-0.72,1.026
	c-0.252-0.126-0.721-0.342-1.045-0.54c-0.396-0.144-1.278-0.27-2.124-0.27c-0.252,0-0.505,0.018-0.738,0.036l-0.252-0.991
	c0.612-0.036,1.494,0,2.017,0.072c-0.486-0.522-1.062-1.296-1.423-2.035c-1.206,0.126-2.539,0.18-4.825,0.18
	c-0.883,0-1.873,0-2.683-0.018l-0.019-1.134c0.811,0.018,1.854,0.036,2.755,0.036c1.477,0,2.935,0,4.394-0.126
	c-0.198-0.559-0.486-1.585-0.702-2.395c-0.721,0.072-1.53,0.108-2.269,0.108c-0.973,0-2.215,0-3.062-0.036v-1.117
	c1.081,0.054,2.269,0.054,3.043,0.054c0.648,0,1.387-0.036,2.071-0.09c-0.162-0.829-0.343-1.819-0.486-2.827l1.854,0.018
	c0,0.216-0.162,0.342-0.486,0.396c0.108,0.774,0.234,1.603,0.378,2.305c1.692-0.162,3.512-0.522,4.825-1.044l0.307,1.116
	c-1.314,0.486-3.097,0.828-4.897,1.026c0.234,0.954,0.468,1.8,0.684,2.358c1.909-0.198,3.979-0.612,5.618-1.188L546.971,261.75z
	 M543.802,271.274c-0.99,0.072-2.179,0.108-3.961,0.108c-2.917-0.018-5.186-0.955-5.149-2.989c0.018-1.062,0.954-2.197,2.124-2.845
	l0.811,0.829c-1.044,0.558-1.656,1.314-1.656,1.999c0,1.278,1.584,1.836,3.871,1.854c1.351,0,2.772-0.072,3.997-0.162
	L543.802,271.274z"/>
<path d="M551.305,271.022c-0.558-1.296-0.774-3.979-0.774-6.338c0-2.395,0.378-5.401,0.973-8.408l1.746,0.342
	c-0.036,0.18-0.216,0.306-0.468,0.324c-0.648,2.467-1.044,5.672-1.044,7.76c0,1.369,0.018,2.737,0.162,3.403
	c0.396-1.081,1.116-2.809,1.494-3.655l0.811,0.756c-0.595,1.224-1.855,3.961-1.855,4.807c0,0.252,0.055,0.522,0.181,0.864
	L551.305,271.022z M555.878,260.417c1.513,0.018,3.025,0.036,4.537-0.072c-0.071-1.548-0.126-2.881-0.162-4.213l1.819,0.054
	c-0.019,0.18-0.181,0.324-0.469,0.378c0.019,1.152,0.055,2.323,0.091,3.691c1.422-0.144,2.574-0.396,3.528-0.72l0.162,1.26
	c-0.864,0.271-2.106,0.522-3.637,0.648c0.072,1.999,0.162,4.105,0.216,5.257c1.368,0.558,2.737,1.44,3.673,2.287l-0.702,1.152
	c-0.738-0.738-1.801-1.53-2.917-2.052c-0.018,1.53-0.306,3.241-3.007,3.241c-2.106,0-3.511-1.008-3.511-2.593
	c0-1.836,1.854-2.646,3.511-2.646c0.559,0,1.152,0.072,1.711,0.234c-0.054-1.134-0.162-3.025-0.252-4.79
	c-0.559,0.036-1.314,0.054-1.837,0.054h-2.736L555.878,260.417z M560.812,267.493c-0.576-0.18-1.188-0.324-1.782-0.324
	c-1.099,0-2.413,0.396-2.413,1.53c0,1.009,1.08,1.513,2.395,1.513c1.333,0,1.818-0.648,1.818-2.089L560.812,267.493z"/>
<path d="M578.632,259.247c-1.531,0.54-3.565,0.882-5.528,1.026c-0.756,4.123-1.854,8.229-3.295,11.253l-1.296-0.486
	c1.477-2.899,2.557-6.626,3.259-10.713c-0.36,0.018-2.772,0.036-3.313,0.018l-0.018-1.224c0.288,0.018,0.666,0.018,1.08,0.018
	c0.162,0,1.963,0,2.431-0.018c0.181-1.152,0.36-2.413,0.469-3.511l1.854,0.18c-0.019,0.198-0.271,0.342-0.522,0.36
	c-0.108,0.792-0.288,1.764-0.45,2.863c1.765-0.162,3.547-0.468,5.042-1.008L578.632,259.247z M583.421,271.238
	c-0.54,0.018-1.099,0.036-1.656,0.036c-1.692,0-3.295-0.126-4.268-0.396c-1.278-0.36-2.017-1.296-1.998-2.484
	c0.018-0.792,0.359-1.693,1.116-2.611l1.08,0.468c-0.63,0.738-0.937,1.44-0.937,1.999c0,1.422,1.368,1.782,4.646,1.782
	c0.666,0,1.351-0.018,2.017-0.072V271.238z M576.398,262.56c1.854-0.594,4.412-0.972,6.536-0.918v1.224
	c-2.034-0.054-4.393,0.234-6.229,0.81L576.398,262.56z"/>
<path d="M596.632,259.247c-1.531,0.54-3.565,0.882-5.528,1.026c-0.756,4.123-1.854,8.229-3.295,11.253l-1.296-0.486
	c1.477-2.899,2.557-6.626,3.259-10.713c-0.36,0.018-2.772,0.036-3.313,0.018l-0.018-1.224c0.288,0.018,0.666,0.018,1.08,0.018
	c0.162,0,1.963,0,2.431-0.018c0.181-1.152,0.36-2.413,0.469-3.511l1.854,0.18c-0.019,0.198-0.271,0.342-0.522,0.36
	c-0.108,0.792-0.288,1.764-0.45,2.863c1.765-0.162,3.547-0.468,5.042-1.008L596.632,259.247z M601.438,271.148
	c-0.702,0.054-1.458,0.09-2.196,0.09c-1.458,0-2.881-0.126-3.745-0.36c-1.278-0.36-2.017-1.296-1.998-2.484
	c0.018-0.792,0.359-1.693,1.116-2.611l1.08,0.468c-0.63,0.738-0.937,1.44-0.937,1.999c0,1.422,1.368,1.747,4.304,1.747
	c0.792,0,1.62-0.036,2.341-0.108L601.438,271.148z M594.398,262.56c1.854-0.594,4.412-0.972,6.536-0.918v1.224
	c-2.034-0.054-4.393,0.234-6.229,0.81L594.398,262.56z M597.567,256.312c0.883,0.648,1.945,1.693,2.503,2.449l-0.666,0.576
	c-0.522-0.774-1.656-1.891-2.431-2.467L597.567,256.312z M599.891,255.124c0.882,0.648,1.944,1.656,2.484,2.431l-0.666,0.576
	c-0.504-0.702-1.566-1.801-2.413-2.449L599.891,255.124z"/>
<path d="M612.921,258.581c-0.072,0.162-0.216,0.288-0.45,0.288c-0.648,5.6-2.521,10.479-5.51,10.479
	c-1.512,0-2.881-1.513-2.881-4.357c0-4.321,3.367-7.94,8.103-7.94c5.204,0,7.454,3.295,7.454,6.806c0,4.285-2.484,6.356-6.842,7.364
	c-0.162-0.288-0.468-0.774-0.756-1.098c4.141-0.792,6.266-2.809,6.266-6.212c0-2.971-1.908-5.672-6.122-5.672
	c-0.18,0-0.378,0.018-0.54,0.036L612.921,258.581z M611.192,258.346c-3.637,0.45-5.888,3.457-5.888,6.608
	c0,1.927,0.828,3.133,1.692,3.133C609.176,268.087,610.742,263.28,611.192,258.346z"/>
<path d="M627.284,256.492v11.919h-3.961v1.458h-1.152v-13.378H627.284z M626.149,257.608h-2.826v4.231h2.826V257.608z
	 M623.323,267.295h2.826v-4.357h-2.826V267.295z M633.496,261.101h4.735v1.099h-10.623v-1.099h4.699v-2.467h-3.926v-1.08h3.926
	v-2.233l1.548,0.09c-0.018,0.126-0.126,0.216-0.359,0.252v1.891h4.015v1.08h-4.015V261.101z M636.358,262.704
	c-0.018,0.126-0.107,0.216-0.342,0.234v1.549h2.179v1.08h-2.179v5.042c0,0.738-0.162,1.081-0.721,1.26
	c-0.54,0.18-1.458,0.198-2.952,0.198c-0.055-0.324-0.234-0.81-0.414-1.134c0.684,0.018,1.332,0.036,1.8,0.036
	c1.009,0,1.099,0,1.099-0.378v-5.023h-7.148v-1.08h7.148v-1.873L636.358,262.704z M631.228,270.176
	c-0.414-0.9-1.423-2.269-2.359-3.241l0.973-0.576c0.954,0.936,1.998,2.269,2.431,3.169L631.228,270.176z"/>
<path d="M646.688,258.346v1.008h-7.202v-1.008H646.688z M645.95,265.692v5.294h-4.537v0.846h-1.081v-6.14H645.95z M640.351,261.785
	v-0.99h5.653v0.99H640.351z M640.351,264.234v-0.991h5.653v0.991H640.351z M646.004,255.952v0.99h-5.563v-0.99H646.004z
	 M644.852,266.719h-3.438v3.241h3.438V266.719z M656.447,261.569v1.188h-4.177v9.272h-1.225v-9.272h-4.357v-1.188h4.357v-6.23
	l1.584,0.108c-0.018,0.126-0.107,0.216-0.359,0.252v5.87H656.447z"/>
<path d="M842.513,554.036c0,0.144-0.144,0.234-0.378,0.27l-0.036,0.522c0.198,2.539,1.278,10.947,8.139,14.062
	c-0.342,0.252-0.721,0.684-0.918,1.008c-4.862-2.305-6.879-7.202-7.725-10.929h-0.019c-0.756,3.654-2.61,8.336-7.49,10.911
	c-0.216-0.288-0.594-0.666-0.972-0.919c7.508-3.763,7.562-12.621,7.688-15.052L842.513,554.036z"/>
<path d="M858.244,554.198c-0.036,0.216-0.252,0.306-0.594,0.324c-0.198,1.008-0.522,2.755-0.738,3.835
	c0.81-0.09,1.548-0.162,1.998-0.162c2.737-0.036,3.673,1.782,3.673,4.483c0,1.351-0.252,2.953-0.611,4.033
	c-0.559,1.836-1.711,2.719-3.205,2.719c-0.738,0-1.711-0.307-3.259-1.566c0.197-0.324,0.342-0.721,0.485-1.099
	c1.44,1.116,2.197,1.368,2.755,1.368c1.026,0,1.639-0.647,1.999-1.8c0.378-1.116,0.576-2.773,0.576-3.691
	c-0.019-2.053-0.685-3.277-2.484-3.259c-0.541,0-1.279,0.072-2.197,0.18c-0.9,3.673-1.963,6.824-3.691,9.723l-1.188-0.576
	c1.746-2.79,2.736-5.581,3.583-9.002c-0.919,0.107-2.233,0.27-3.205,0.432l-0.108-1.26c0.883-0.108,2.358-0.271,3.565-0.415
	c0.27-1.313,0.558-2.935,0.774-4.519L858.244,554.198z M862.422,553.639c0.864,0.666,1.89,1.747,2.412,2.521l-0.702,0.505
	c-0.504-0.774-1.584-1.909-2.377-2.503L862.422,553.639z M866.455,564.119c-0.595-2.593-2.017-4.771-3.674-6.14l1.045-0.702
	c1.782,1.494,3.331,3.745,3.925,6.355L866.455,564.119z M865.141,552.937c0.882,0.648,1.908,1.729,2.431,2.503l-0.702,0.522
	c-0.505-0.774-1.585-1.927-2.377-2.521L865.141,552.937z"/>
<path d="M873.669,560.805c0,3.602-0.323,6.86-3.061,9.291c-0.18-0.252-0.594-0.612-0.882-0.792c2.557-2.232,2.845-5.204,2.845-8.499
	v-7.436l1.458,0.09c-0.018,0.126-0.107,0.216-0.36,0.252V560.805z M871.364,555.872c-0.018,0.108-0.107,0.198-0.342,0.217v8.444
	h-1.026v-8.751L871.364,555.872z M874.569,560.193h10.966v2.863H884.4v-1.872h-8.732v1.872h-1.099V560.193z M884.167,553.981v5.222
	h-8.625v-0.936h7.49v-1.225h-6.698v-0.918h6.698v-1.188h-7.274v-0.955H884.167z M884.257,563.02v4.411
	c0,1.171-0.54,1.207-2.467,1.207c-0.055-0.307-0.198-0.702-0.342-0.99c0.342,0,0.666,0.018,0.918,0.018c0.684,0,0.756,0,0.756-0.234
	v-3.385h-2.646v6.032h-1.135v-6.032h-2.521v4.718h-1.099v-5.744h3.619v-1.404l1.495,0.108c-0.019,0.126-0.108,0.216-0.36,0.233
	v1.062H884.257z"/>
<path d="M889.167,560.446c0.324-0.072,0.99-0.253,1.603-0.433c2.232-0.666,4.843-1.278,6.518-1.278c2.431,0,4.609,1.297,4.609,4.231
	c0,3.961-3.925,5.419-8.732,5.798c-0.072-0.271-0.252-0.883-0.36-1.099c4.231-0.306,7.814-1.53,7.814-4.627
	c0-2.251-1.603-3.224-3.511-3.205c-1.44,0.018-3.764,0.54-6.032,1.314c-0.414,0.144-0.864,0.306-1.152,0.396
	c-0.036,0.145-0.162,0.271-0.288,0.307L889.167,560.446z"/>
<path d="M906.104,555.764c1.351-0.055,12.441-0.847,14.782-0.864l0.019,1.351c-0.234-0.019-0.45-0.019-0.667-0.019
	c-1.044,0-1.927,0.181-3.079,0.919c-2.7,1.62-5.312,4.519-5.312,6.842c0,2.521,1.765,4.015,6.23,4.591l-0.595,1.261
	c-5.113-0.738-7.021-2.646-7.021-5.852c0-2.539,2.503-5.618,5.798-7.688c-1.909,0.126-7.293,0.54-9.615,0.756
	c-0.054,0.145-0.252,0.271-0.396,0.288L906.104,555.764z"/>
<path d="M934.619,569.917c-1.818-2.125-4.627-4.79-7.058-6.698c-0.9-0.721-1.225-1.225-1.225-1.873c0-0.521,0.288-1.026,0.954-1.638
	c1.639-1.513,4.718-4.43,6.446-6.194l1.53,1.009c-0.036,0.035-0.162,0.18-0.396,0.18c-0.072,0-0.145-0.018-0.217-0.036
	c-1.801,1.729-4.609,4.178-6.086,5.563c-0.432,0.414-0.773,0.774-0.773,1.062c0,0.307,0.323,0.666,0.954,1.135
	c2.376,1.836,4.915,4.159,7.112,6.535L934.619,569.917z"/>
<path d="M947.397,561.238c1.188-0.612,3.043-1.045,4.466-1.045c2.863,0,4.663,1.675,4.663,4.321c0,3.26-2.862,5.06-6.481,5.06
	c-2.341,0-3.943-0.936-3.943-2.521c0-1.332,1.314-2.412,2.953-2.412c2.034,0,3.402,1.62,3.673,3.259
	c1.44-0.54,2.484-1.692,2.484-3.367c0-1.944-1.44-3.188-3.709-3.188c-2.7,0-5.348,1.207-6.536,2.359
	c-0.54,0.504-1.242,1.26-1.729,1.818l-0.918-0.918c1.62-1.692,6.771-6.608,9.219-8.896c-1.044,0.145-4.646,0.289-6.698,0.36
	c-0.054,0.126-0.233,0.234-0.378,0.271l-0.144-1.53c2.431-0.019,7.076-0.198,8.391-0.396l0.27-0.126l0.954,1.17
	c-0.09,0.072-0.252,0.145-0.432,0.162c-1.278,1.045-4.699,4.25-6.104,5.6V561.238z M949.883,568.44c0.54,0,1.17-0.072,1.639-0.181
	c-0.198-1.386-1.225-2.557-2.557-2.557c-0.937,0-1.765,0.505-1.765,1.333C947.2,568.133,948.694,568.44,949.883,568.44z"/>
<path d="M973.338,559.725c-0.035,0.018-0.09,0.018-0.144,0.018c-0.126,0-0.271-0.035-0.378-0.107
	c-5.348,1.566-10.191,3.925-10.173,6.338c0,1.729,1.908,2.322,4.825,2.322c2.898,0,5.113-0.216,6.374-0.414l0.107,1.314
	c-1.656,0.216-4.339,0.324-6.445,0.324c-3.565,0-6.158-0.828-6.176-3.475c-0.019-1.927,1.908-3.619,4.735-5.078
	c-0.612-1.098-0.828-3.187-0.828-7.256l1.98,0.162c-0.019,0.234-0.198,0.378-0.559,0.432c-0.018,3.151,0.09,5.114,0.595,6.086
	c1.692-0.792,3.637-1.512,5.617-2.16L973.338,559.725z"/>
<path d="M982.21,564.029v3.745c1.116,0.485,2.557,0.647,4.429,0.647c0.792,0,6.5,0,7.545-0.036
	c-0.198,0.289-0.433,0.847-0.505,1.188h-7.004c-4.033,0-6.212-0.647-7.508-3.295c-0.234,1.566-0.576,2.936-1.171,3.89
	c-0.216-0.181-0.647-0.414-0.937-0.559c1.026-1.656,1.261-4.753,1.333-8.03l1.458,0.181c-0.036,0.144-0.144,0.216-0.342,0.233
	c-0.036,0.721-0.072,1.44-0.126,2.143c0.396,1.333,0.937,2.287,1.692,2.936v-6.734h-3.763v-1.099h3.745v-2.557h-3.188v-1.099h3.188
	v-2.269l1.494,0.09c-0.018,0.127-0.108,0.217-0.342,0.253v1.926h2.952v1.099h-2.952v2.557h3.331v1.099h-3.331v2.61h2.988v1.081
	H982.21z M991.771,559.329v-4.087h-5.779v-1.099h6.949v6.896h-1.17v-0.63h-4.105v4.789c0,0.576,0.181,0.685,1.08,0.685h3.151
	c0.792,0,0.937-0.343,1.026-2.593c0.252,0.198,0.756,0.396,1.08,0.485c-0.162,2.575-0.504,3.224-2.034,3.224h-3.331
	c-1.639,0-2.143-0.36-2.143-1.801v-5.87H991.771z"/>
<path d="M1011.139,557.636l0.63,0.036c-0.018,0.108-0.018,0.271-0.018,0.396c-0.216,7.922-0.414,10.461-0.99,11.235
	c-0.486,0.666-1.062,0.666-1.873,0.666c-0.432,0-0.954-0.018-1.458-0.036c-0.036-0.342-0.162-0.846-0.342-1.152
	c0.918,0.072,1.71,0.072,2.106,0.072c0.234,0,0.396-0.054,0.54-0.271c0.433-0.54,0.666-2.988,0.847-9.812h-2.684
	c0,3.709-0.396,8.156-3.871,11.343c-0.216-0.216-0.647-0.576-0.936-0.756c0.342-0.306,0.647-0.63,0.936-0.973
	c-2.971,0.396-6.086,0.757-8.048,0.991c-0.036,0.126-0.145,0.216-0.252,0.252l-0.433-1.297c1.08-0.09,2.485-0.233,4.016-0.396
	v-1.711h-3.493v-0.954h3.493v-1.225h-3.385v-5.329h3.385v-1.279h-4.016v-0.954h4.016v-1.278c-1.171,0.126-2.395,0.217-3.512,0.271
	c-0.054-0.252-0.197-0.63-0.306-0.9c2.683-0.162,5.96-0.54,7.725-1.009l0.9,0.919c-0.036,0.036-0.091,0.036-0.162,0.036
	c-0.055,0-0.108,0-0.181-0.019c-0.81,0.216-1.891,0.396-3.061,0.54c-0.054,0.055-0.145,0.09-0.288,0.108v1.332h4.033v0.954h-4.033
	v1.279h3.565v5.329h-3.565v1.225h3.691v0.954h-3.691v1.584c1.225-0.126,2.503-0.252,3.745-0.396l0.018,0.774
	c2.305-2.881,2.557-6.464,2.557-9.417h-2.269v-1.135h2.269v-4.159l1.495,0.108c-0.019,0.126-0.108,0.198-0.343,0.234v3.816H1011.139
	z M996.969,559.599v1.332h2.341v-1.332H996.969z M996.969,563.165h2.341v-1.369h-2.341V563.165z M1002.91,559.599h-2.484v1.332
	h2.484V559.599z M1002.91,563.165v-1.369h-2.484v1.369H1002.91z"/>
<path d="M691.315,972.987l0.757,0.432c-0.019,0.072-0.09,0.126-0.145,0.162c-0.414,1.368-1.026,3.223-1.584,4.735
	c1.548,1.891,1.656,3.223,1.656,3.997c0,2.467-1.494,2.396-2.683,2.341c-0.019-0.288-0.126-0.738-0.307-1.026
	c0.253,0.036,0.486,0.055,0.685,0.055c0.63,0,1.242,0,1.242-1.531c-0.018-1.026-0.432-2.232-1.656-3.709
	c0.504-1.386,0.99-3.043,1.332-4.303h-2.34v14.854h-1.062v-15.953h3.907L691.315,972.987z M701.363,982.565v2.72h1.818v0.99h-1.818
	v2.7h-1.081v-2.7h-4.051v-0.99h1.53v-2.72h-0.666v-0.828c-0.036,0.036-0.054,0.055-0.09,0.072c-0.738,3.709-2.467,5.96-4.826,7.185
	c-0.144-0.217-0.504-0.576-0.756-0.721c1.188-0.576,2.232-1.422,3.025-2.574c-0.379-0.414-0.937-0.883-1.44-1.243l0.576-0.63
	c0.468,0.307,0.972,0.702,1.368,1.062c0.378-0.721,0.702-1.549,0.937-2.484h-1.945c-0.521,1.008-1.188,1.908-1.927,2.538
	c-0.18-0.162-0.504-0.45-0.737-0.594c1.188-0.973,2.143-2.665,2.628-4.556l1.243,0.324c-0.036,0.108-0.145,0.18-0.36,0.18
	c-0.108,0.379-0.234,0.757-0.396,1.135h1.927l0.198-0.054l0.576,0.27v-0.072h3.187v-1.765l1.423,0.091
	c-0.019,0.126-0.108,0.216-0.342,0.233v1.44h1.602v0.99H701.363z M692.018,975.471h4.771v-3.223l1.477,0.107
	c-0.018,0.108-0.107,0.198-0.342,0.234v2.881h5.096v1.044h-4.178c1.099,1.135,2.827,2.125,4.447,2.593
	c-0.252,0.217-0.594,0.595-0.756,0.9c-1.656-0.63-3.439-1.8-4.609-3.114v3.276h-1.135v-3.241c-1.188,1.333-2.952,2.539-4.591,3.17
	c-0.162-0.271-0.504-0.667-0.738-0.883c1.566-0.522,3.277-1.549,4.375-2.701h-3.817V975.471z M693.891,972.663
	c0.594,0.666,1.188,1.584,1.404,2.232l-0.954,0.486c-0.216-0.648-0.774-1.585-1.351-2.287L693.891,972.663z M698.716,985.285h1.566
	v-2.72h-1.566V985.285z M702.083,973.13c-0.054,0.108-0.198,0.162-0.36,0.162c-0.414,0.576-1.044,1.44-1.566,2.035
	c-0.018,0-0.846-0.396-0.846-0.396c0.504-0.63,1.17-1.639,1.512-2.322L702.083,973.13z"/>
<path d="M713.709,972.951c0,0.144-0.144,0.234-0.378,0.27l-0.036,0.522c0.198,2.539,1.278,10.947,8.139,14.062
	c-0.342,0.252-0.721,0.684-0.918,1.008c-4.862-2.305-6.879-7.202-7.725-10.929h-0.019c-0.756,3.654-2.61,8.336-7.49,10.911
	c-0.216-0.288-0.594-0.666-0.972-0.919c7.508-3.763,7.562-12.621,7.688-15.052L713.709,972.951z"/>
<path d="M729.44,973.113c-0.036,0.216-0.252,0.306-0.594,0.324c-0.198,1.008-0.522,2.755-0.738,3.835
	c0.81-0.09,1.548-0.162,1.998-0.162c2.737-0.036,3.673,1.782,3.673,4.483c0,1.351-0.252,2.953-0.611,4.033
	c-0.559,1.836-1.711,2.719-3.205,2.719c-0.738,0-1.711-0.307-3.259-1.566c0.197-0.324,0.342-0.721,0.485-1.099
	c1.44,1.116,2.197,1.368,2.755,1.368c1.026,0,1.639-0.647,1.999-1.8c0.378-1.116,0.576-2.773,0.576-3.691
	c-0.019-2.053-0.685-3.277-2.484-3.259c-0.541,0-1.279,0.072-2.197,0.18c-0.9,3.673-1.963,6.824-3.691,9.723l-1.188-0.576
	c1.746-2.79,2.736-5.581,3.583-9.002c-0.919,0.107-2.233,0.27-3.205,0.432l-0.108-1.26c0.883-0.108,2.358-0.271,3.565-0.415
	c0.27-1.313,0.558-2.935,0.774-4.519L729.44,973.113z M733.618,972.554c0.864,0.666,1.89,1.747,2.412,2.521l-0.702,0.505
	c-0.504-0.774-1.584-1.909-2.377-2.503L733.618,972.554z M737.651,983.034c-0.595-2.593-2.017-4.771-3.674-6.14l1.045-0.702
	c1.782,1.494,3.331,3.745,3.925,6.355L737.651,983.034z M736.337,971.852c0.882,0.648,1.908,1.729,2.431,2.503l-0.702,0.522
	c-0.505-0.774-1.585-1.927-2.377-2.521L736.337,971.852z"/>
<path d="M741.967,983.574c-0.09,1.62-0.27,3.367-0.99,4.357l-0.702-0.414c0.63-0.919,0.847-2.539,0.918-4.088L741.967,983.574z
	 M746.99,981.305l0.216-0.019l0.576,0.055c0,0.107-0.018,0.252-0.018,0.378c-0.18,4.699-0.36,6.284-0.774,6.806
	c-0.324,0.396-0.612,0.469-1.656,0.469c-0.288,0-0.595,0-0.918-0.019c-0.019-0.306-0.127-0.72-0.271-0.972
	c0.648,0.035,1.225,0.054,1.477,0.054c0.234,0,0.378-0.019,0.486-0.198c0.18-0.234,0.324-0.9,0.45-2.413L746,985.68
	c-0.18-0.666-0.63-1.656-1.044-2.413l0.594-0.216c0.396,0.666,0.792,1.53,1.009,2.161h0.018c0.036-0.757,0.09-1.711,0.126-2.899
	h-4.339v0.469h-1.026v-9.777h6.266v1.044h-2.377v1.729h2.089v0.991h-2.089v1.746h2.089v0.99h-2.089v1.801H746.99z M744.218,974.048
	h-1.854v1.729h1.854V974.048z M744.218,978.514v-1.746h-1.854v1.746H744.218z M742.363,979.504v1.801h1.854v-1.801H742.363z
	 M742.741,987.121c0.036-0.918-0.072-2.286-0.271-3.367l0.666-0.071c0.217,1.062,0.324,2.448,0.307,3.349L742.741,987.121z
	 M744.38,983.429c0.378,0.937,0.666,2.161,0.756,2.936l-0.666,0.162c-0.09-0.793-0.378-2.017-0.721-2.953L744.38,983.429z
	 M756.425,973.239c-0.018,0.072-0.09,0.126-0.126,0.18c-0.612,1.53-1.62,2.773-2.845,3.764c1.171,0.684,2.521,1.206,3.979,1.494
	c-0.252,0.234-0.595,0.702-0.738,1.008c-1.549-0.359-2.971-0.99-4.195-1.8c-1.314,0.846-2.809,1.477-4.357,1.872
	c-0.107-0.288-0.378-0.738-0.594-0.972c1.404-0.307,2.809-0.847,4.033-1.585c-0.99-0.828-1.801-1.801-2.377-2.917l0.846-0.27h-1.584
	v-1.062h7.022l0.197-0.036L756.425,973.239z M755.146,986.941c-0.359-0.45-0.72-0.9-1.08-1.297l0.883-0.486
	c0.954,1.009,1.998,2.377,2.466,3.295l-0.936,0.559c-0.162-0.342-0.396-0.738-0.685-1.17c-2.701,0.216-5.455,0.396-7.274,0.504
	c-0.018,0.144-0.126,0.216-0.252,0.234l-0.432-1.314c1.098-0.036,2.521-0.091,4.069-0.162v-2.485h-3.35v-4.123h3.35v-1.765
	l1.494,0.09c-0.019,0.127-0.126,0.217-0.36,0.253v1.422h3.476v4.123h-3.476v2.431L755.146,986.941z M749.583,983.627h2.323v-2.143
	h-2.323V983.627z M750.249,974.013c0.522,0.972,1.314,1.818,2.269,2.557c0.937-0.721,1.711-1.566,2.251-2.557H750.249z
	 M755.435,981.485h-2.395v2.143h2.395V981.485z"/>
<path d="M761.533,974.679c-0.036,0.162-0.234,0.27-0.486,0.288c-0.216,1.351-0.342,2.971-0.342,4.483
	c0,0.666,0.036,1.314,0.072,1.891c0.216,3.061,1.458,4.915,2.845,4.897c0.72,0,1.656-1.837,2.305-3.854
	c0.252,0.252,0.738,0.595,1.044,0.774c-0.828,2.431-1.872,4.411-3.367,4.447c-2.286,0.036-3.871-2.737-4.123-6.194
	c-0.054-0.684-0.072-1.44-0.072-2.25c0-1.585,0.091-3.313,0.271-4.844L761.533,974.679z M773.471,983.051
	c-0.504-3.15-2.106-5.419-4.537-6.77l0.792-0.973c2.629,1.404,4.556,3.997,5.078,7.328L773.471,983.051z"/>
<path d="M777.301,974.679c1.351-0.055,12.441-0.847,14.782-0.864l0.019,1.351c-0.234-0.019-0.45-0.019-0.667-0.019
	c-1.044,0-1.927,0.181-3.079,0.919c-2.7,1.62-5.312,4.519-5.312,6.842c0,2.521,1.765,4.015,6.23,4.591l-0.595,1.261
	c-5.113-0.738-7.021-2.646-7.021-5.852c0-2.539,2.503-5.618,5.798-7.688c-1.981,0.144-7.293,0.54-9.615,0.756
	c-0.054,0.145-0.252,0.271-0.396,0.288L777.301,974.679z M788.968,978.226c0.864,0.648,1.891,1.711,2.449,2.484l-0.685,0.559
	c-0.504-0.792-1.603-1.908-2.377-2.503L788.968,978.226z M790.913,976.642c0.882,0.647,1.926,1.692,2.448,2.484l-0.684,0.54
	c-0.486-0.72-1.531-1.837-2.377-2.484L790.913,976.642z"/>
<path d="M797.533,974.679c-0.036,0.162-0.234,0.27-0.486,0.288c-0.216,1.351-0.342,2.971-0.342,4.483
	c0,0.666,0.036,1.314,0.072,1.891c0.216,3.061,1.458,4.915,2.845,4.897c0.72,0,1.656-1.837,2.305-3.854
	c0.252,0.252,0.738,0.595,1.044,0.774c-0.828,2.431-1.872,4.411-3.367,4.447c-2.286,0.036-3.871-2.737-4.123-6.194
	c-0.054-0.684-0.072-1.44-0.072-2.25c0-1.585,0.091-3.313,0.271-4.844L797.533,974.679z M809.471,983.051
	c-0.504-3.15-2.106-5.419-4.537-6.77l0.792-0.973c2.629,1.404,4.556,3.997,5.078,7.328L809.471,983.051z"/>
<path d="M818.594,980.153c1.188-0.612,3.043-1.045,4.466-1.045c2.863,0,4.663,1.675,4.663,4.321c0,3.26-2.862,5.06-6.481,5.06
	c-2.341,0-3.943-0.936-3.943-2.521c0-1.332,1.314-2.412,2.953-2.412c2.034,0,3.402,1.62,3.673,3.259
	c1.44-0.54,2.484-1.692,2.484-3.367c0-1.944-1.44-3.188-3.709-3.188c-2.7,0-5.348,1.207-6.536,2.359
	c-0.54,0.504-1.242,1.26-1.729,1.818l-0.918-0.918c1.62-1.692,6.771-6.608,9.219-8.896c-1.044,0.145-4.646,0.289-6.698,0.36
	c-0.054,0.126-0.233,0.234-0.378,0.271l-0.144-1.53c2.431-0.019,7.076-0.198,8.391-0.396l0.27-0.126l0.954,1.17
	c-0.09,0.072-0.252,0.145-0.432,0.162c-1.278,1.045-4.699,4.25-6.104,5.6V980.153z M821.079,987.355c0.54,0,1.17-0.072,1.639-0.181
	c-0.198-1.386-1.225-2.557-2.557-2.557c-0.937,0-1.765,0.505-1.765,1.333C818.396,987.048,819.891,987.355,821.079,987.355z"/>
<path d="M844.534,978.64c-0.035,0.018-0.09,0.018-0.144,0.018c-0.126,0-0.271-0.035-0.378-0.107
	c-5.348,1.566-10.191,3.925-10.173,6.338c0,1.729,1.908,2.322,4.825,2.322c2.898,0,5.113-0.216,6.374-0.414l0.107,1.314
	c-1.656,0.216-4.339,0.324-6.445,0.324c-3.565,0-6.158-0.828-6.176-3.475c-0.019-1.927,1.908-3.619,4.735-5.078
	c-0.612-1.098-0.828-3.187-0.828-7.256l1.98,0.162c-0.019,0.234-0.198,0.378-0.559,0.432c-0.018,3.151,0.09,5.114,0.595,6.086
	c1.692-0.792,3.637-1.512,5.617-2.16L844.534,978.64z"/>
<path d="M689.821,1017.684c0,1.152,0.378,1.44,2.413,1.44h7.4c1.782,0,2.07-0.504,2.286-2.79c0.307,0.216,0.828,0.396,1.188,0.468
	c-0.288,2.665-0.811,3.457-3.475,3.457h-7.293c-2.862,0-3.745-0.486-3.745-2.593v-8.211c-0.45,0.396-0.918,0.793-1.422,1.152
	c-0.198-0.27-0.595-0.666-0.9-0.864c2.557-1.764,4.447-4.177,5.456-6.05l1.602,0.271c-0.035,0.126-0.162,0.216-0.396,0.234
	c-0.145,0.252-0.307,0.504-0.486,0.773h4.771l0.198-0.071l0.954,0.594c-0.054,0.072-0.162,0.126-0.288,0.145
	c-0.414,0.81-1.026,1.782-1.656,2.61h5.257v6.59h-1.224v-0.846h-10.642V1017.684z M689.821,1009.366v3.512h4.537v-3.512H689.821z
	 M694.989,1008.25c0.521-0.612,1.062-1.44,1.458-2.196h-4.753c-0.54,0.72-1.152,1.458-1.837,2.196H694.989z M700.463,1012.877
	v-3.512h-4.88v3.512H700.463z"/>
<path d="M718.534,1010.14c-0.035,0.018-0.09,0.018-0.144,0.018c-0.126,0-0.271-0.035-0.378-0.107
	c-5.348,1.566-10.191,3.925-10.173,6.338c0,1.729,1.908,2.322,4.825,2.322c2.898,0,5.113-0.216,6.374-0.414l0.107,1.314
	c-1.656,0.216-4.339,0.324-6.445,0.324c-3.565,0-6.158-0.828-6.176-3.475c-0.019-1.927,1.908-3.619,4.735-5.078
	c-0.612-1.098-0.828-3.187-0.828-7.256l1.98,0.162c-0.019,0.234-0.198,0.378-0.559,0.432c-0.018,3.151,0.09,5.114,0.595,6.086
	c1.692-0.792,3.637-1.512,5.617-2.16L718.534,1010.14z"/>
<path d="M724.363,1010.861v2.881c0,1.908-0.198,4.627-1.242,6.481c-0.181-0.234-0.648-0.63-0.883-0.756
	c0.937-1.692,1.026-3.997,1.026-5.744v-3.925h5.132l-0.721-0.234c0.271-0.738,0.612-1.891,0.757-2.683l1.386,0.36
	c-0.054,0.107-0.18,0.162-0.378,0.18c-0.198,0.685-0.504,1.675-0.792,2.377h2.16v1.062H724.363z M730.629,1005.801v1.044h-7.868
	v-1.044h3.402v-2.053l1.531,0.09c-0.019,0.126-0.108,0.216-0.343,0.252v1.711H730.629z M725.083,1007.061
	c0.343,0.792,0.666,1.818,0.738,2.449l-1.062,0.27c-0.071-0.647-0.342-1.71-0.684-2.503L725.083,1007.061z M730.917,1016.658
	c-0.036,0.091-0.145,0.145-0.306,0.162c-1.081,1.531-3.188,2.899-5.582,3.691c-0.162-0.27-0.433-0.63-0.702-0.846
	c2.251-0.648,4.303-1.891,5.312-3.422L730.917,1016.658z M729.729,1011.725c-0.054,0.09-0.144,0.144-0.288,0.144
	c-0.937,0.792-2.575,1.639-4.015,2.161c-0.181-0.234-0.469-0.541-0.738-0.738c1.368-0.433,2.988-1.207,3.871-1.999L729.729,1011.725
	z M730.215,1014.173c-0.036,0.108-0.145,0.162-0.307,0.162c-0.99,0.973-2.754,2.017-4.339,2.646c-0.18-0.233-0.468-0.558-0.72-0.738
	c1.494-0.558,3.24-1.512,4.177-2.484L730.215,1014.173z M734.248,1018.063c-0.054,0.071-0.162,0.126-0.342,0.126
	c-0.703,0.81-2.233,1.8-3.548,2.358c-0.18-0.234-0.558-0.595-0.828-0.811c1.351-0.54,2.827-1.494,3.529-2.286L734.248,1018.063z
	 M731.385,1007.566h2.557c0.145-0.576,0.288-1.261,0.379-1.855h-3.512v-1.08h8.427v1.08h-3.728
	c-0.107,0.541-0.287,1.243-0.468,1.855h3.619v9.506h-7.274V1007.566z M737.543,1010.411v-1.873h-5.077v1.873H737.543z
	 M737.543,1013.237v-1.891h-5.077v1.891H737.543z M737.543,1016.082v-1.908h-5.077v1.908H737.543z M738.533,1020.511
	c-0.612-0.666-1.873-1.675-2.881-2.395l0.9-0.595c1.008,0.648,2.305,1.657,2.935,2.323L738.533,1020.511z"/>
<path d="M747.44,1004.613c-0.036,0.216-0.252,0.306-0.594,0.324c-0.198,1.008-0.522,2.755-0.738,3.835
	c0.81-0.09,1.548-0.162,1.998-0.162c2.737-0.036,3.673,1.782,3.673,4.483c0,1.351-0.252,2.953-0.611,4.033
	c-0.559,1.836-1.711,2.719-3.205,2.719c-0.738,0-1.711-0.307-3.259-1.566c0.197-0.324,0.342-0.721,0.485-1.099
	c1.44,1.116,2.197,1.368,2.755,1.368c1.026,0,1.639-0.647,1.999-1.8c0.378-1.116,0.576-2.773,0.576-3.691
	c-0.019-2.053-0.685-3.277-2.484-3.259c-0.541,0-1.279,0.072-2.197,0.18c-0.9,3.673-1.963,6.824-3.691,9.723l-1.188-0.576
	c1.746-2.79,2.736-5.581,3.583-9.002c-0.919,0.107-2.233,0.27-3.205,0.432l-0.108-1.26c0.883-0.108,2.358-0.271,3.565-0.415
	c0.27-1.313,0.558-2.935,0.774-4.519L747.44,1004.613z M751.618,1004.054c0.864,0.666,1.89,1.747,2.412,2.521l-0.702,0.505
	c-0.504-0.774-1.584-1.909-2.377-2.503L751.618,1004.054z M755.651,1014.534c-0.595-2.593-2.017-4.771-3.674-6.14l1.045-0.702
	c1.782,1.494,3.331,3.745,3.925,6.355L755.651,1014.534z M754.337,1003.352c0.882,0.648,1.908,1.729,2.431,2.503l-0.702,0.522
	c-0.505-0.774-1.585-1.927-2.377-2.521L754.337,1003.352z"/>
<path d="M763.118,1008.177c-0.055,0.108-0.181,0.181-0.36,0.181c-0.666,1.098-2.035,2.503-3.35,3.367
	c-0.216-0.217-0.611-0.541-0.846-0.721c1.278-0.774,2.574-2.089,3.15-3.241L763.118,1008.177z M771.364,1013.328l0.882,0.54
	c-0.035,0.09-0.144,0.144-0.252,0.18c-0.936,1.513-2.269,2.719-3.871,3.655c1.98,0.882,4.394,1.44,7.076,1.692
	c-0.27,0.271-0.558,0.792-0.72,1.134c-2.936-0.323-5.51-1.044-7.599-2.16c-2.251,1.062-4.915,1.746-7.67,2.16
	c-0.09-0.306-0.379-0.828-0.612-1.08c2.557-0.306,5.041-0.882,7.147-1.765c-1.044-0.702-1.944-1.53-2.664-2.484
	c-0.919,0.648-2.017,1.278-3.259,1.837c-0.162-0.288-0.522-0.702-0.793-0.9c2.81-1.116,4.826-2.719,5.853-4.178l1.548,0.271
	c-0.036,0.126-0.162,0.216-0.396,0.216c-0.253,0.307-0.522,0.612-0.829,0.937h5.942L771.364,1013.328z M765.963,1006.755
	c0,1.746-0.126,4.321-3.224,6.176c-0.18-0.252-0.594-0.63-0.864-0.828c2.701-1.566,2.936-3.691,2.936-5.24v-0.107h-5.942v-1.135
	h7.328v-1.872l1.585,0.107c-0.018,0.126-0.108,0.217-0.342,0.234v1.53h7.399v1.135h-5.005v4.159c0,1.296-0.504,1.332-3.151,1.332
	c-0.054-0.324-0.198-0.756-0.342-1.08c0.954,0.018,1.765,0.018,2.017,0.018c0.252-0.018,0.306-0.071,0.306-0.288v-4.141H765.963z
	 M764.126,1014.389l-0.198,0.162c0.738,1.009,1.765,1.854,3.007,2.557c1.369-0.72,2.539-1.62,3.367-2.719H764.126z
	 M774.137,1011.886c-0.647-1.008-2.053-2.557-3.276-3.654l0.954-0.559c1.206,1.062,2.665,2.557,3.331,3.565L774.137,1011.886z"/>
<path d="M780.974,1004.199l1.818,0.18c-0.054,0.216-0.216,0.307-0.521,0.342c-0.072,0.847-0.126,1.837-0.162,2.575
	c0.107,0.054,0.288,0.126,0.647,0.271c-0.216,0.432-0.576,1.404-0.738,2.178c-0.018,0.36-0.035,0.486-0.054,0.774
	c1.944-1.422,3.979-2.179,5.888-2.179c3.151,0,4.808,2.143,4.808,5.168c0,3.781-2.971,5.491-7.832,5.924
	c-0.108-0.378-0.271-0.811-0.45-1.152c4.465-0.414,6.986-1.675,6.986-4.754c0-2.196-1.135-3.997-3.602-3.997
	c-1.891,0-3.781,0.738-5.815,2.377c0,2.593,0,5.708,0.018,8.103h-1.26c0.018-1.08,0-6.374,0.018-7.562
	c-0.594,1.08-1.999,2.917-3.421,4.178l-0.666-1.062c1.422-1.278,3.312-3.421,4.104-5.348l0.055-1.477
	c-0.702,0.126-2.125,0.27-3.547,0.306l-0.036-1.242c1.26,0,2.736-0.072,3.654-0.27L780.974,1004.199z"/>
<path d="M796.363,1010.861c0.324-0.072,0.99-0.253,1.603-0.433c2.232-0.666,4.843-1.278,6.518-1.278
	c2.431,0,4.609,1.297,4.609,4.231c0,3.961-3.925,5.419-8.732,5.798c-0.072-0.271-0.252-0.883-0.36-1.099
	c4.231-0.306,7.814-1.53,7.814-4.627c0-2.251-1.603-3.224-3.511-3.205c-1.44,0.018-3.764,0.54-6.032,1.314
	c-0.414,0.144-0.864,0.306-1.152,0.396c-0.036,0.145-0.162,0.271-0.288,0.307L796.363,1010.861z"/>
<path d="M813.301,1006.179c1.351-0.055,12.441-0.847,14.782-0.864l0.019,1.351c-0.234-0.019-0.45-0.019-0.667-0.019
	c-1.044,0-1.927,0.181-3.079,0.919c-2.7,1.62-5.312,4.519-5.312,6.842c0,2.521,1.765,4.015,6.23,4.591l-0.595,1.261
	c-5.113-0.738-7.021-2.646-7.021-5.852c0-2.539,2.503-5.618,5.798-7.688c-1.909,0.126-7.293,0.54-9.615,0.756
	c-0.054,0.145-0.252,0.271-0.396,0.288L813.301,1006.179z"/>
<path d="M841.815,1020.332c-1.818-2.125-4.627-4.79-7.058-6.698c-0.9-0.721-1.225-1.225-1.225-1.873
	c0-0.521,0.288-1.026,0.954-1.638c1.639-1.513,4.718-4.43,6.446-6.194l1.53,1.009c-0.036,0.035-0.162,0.18-0.396,0.18
	c-0.072,0-0.145-0.018-0.217-0.036c-1.801,1.729-4.609,4.178-6.086,5.563c-0.432,0.414-0.773,0.774-0.773,1.062
	c0,0.307,0.323,0.666,0.954,1.135c2.376,1.836,4.915,4.159,7.112,6.535L841.815,1020.332z"/>
<path d="M854.594,1011.653c1.188-0.612,3.043-1.045,4.466-1.045c2.863,0,4.663,1.675,4.663,4.321c0,3.26-2.862,5.06-6.481,5.06
	c-2.341,0-3.943-0.936-3.943-2.521c0-1.332,1.314-2.412,2.953-2.412c2.034,0,3.402,1.62,3.673,3.259
	c1.44-0.54,2.484-1.692,2.484-3.367c0-1.944-1.44-3.188-3.709-3.188c-2.7,0-5.348,1.207-6.536,2.359
	c-0.54,0.504-1.242,1.26-1.729,1.818l-0.918-0.918c1.62-1.692,6.771-6.608,9.219-8.896c-1.044,0.145-4.646,0.289-6.698,0.36
	c-0.054,0.126-0.233,0.234-0.378,0.271l-0.144-1.53c2.431-0.019,7.076-0.198,8.391-0.396l0.27-0.126l0.954,1.17
	c-0.09,0.072-0.252,0.145-0.432,0.162c-1.278,1.045-4.699,4.25-6.104,5.6V1011.653z M857.079,1018.855
	c0.54,0,1.17-0.072,1.639-0.181c-0.198-1.386-1.225-2.557-2.557-2.557c-0.937,0-1.765,0.505-1.765,1.333
	C854.396,1018.548,855.891,1018.855,857.079,1018.855z"/>
<path d="M186.546,951.696h16.673v1.333h-16.673V951.696z"/>
<path d="M213.441,955.279v3.926c0.955,0.18,1.999,0.233,3.133,0.233c0.63,0,3.799,0,4.627-0.018
	c-0.198,0.306-0.415,0.864-0.468,1.225h-4.213c-3.871,0-6.68-0.667-8.354-3.89c-0.648,1.765-1.566,3.241-2.827,4.231
	c-0.198-0.234-0.63-0.595-0.918-0.792c1.98-1.459,3.025-4.214,3.439-7.58l1.548,0.252c-0.036,0.126-0.144,0.216-0.36,0.216
	c-0.108,0.72-0.252,1.422-0.414,2.106c0.756,2.017,1.98,3.097,3.565,3.673v-7.922h-4.591v-1.152h10.587v1.152h-4.753v3.187h5.528
	v1.152H213.441z M206.491,947.519v2.719h-1.188v-3.871h6.878v-2.215l1.639,0.107c-0.018,0.127-0.126,0.217-0.378,0.253v1.854h6.95
	v3.871h-1.242v-2.719H206.491z"/>
<path d="M224.725,960.933v-10.336c-0.648,1.099-1.333,2.107-2.053,2.953c-0.144-0.288-0.432-0.864-0.63-1.134
	c1.656-1.873,3.277-5.006,4.285-8.121l1.422,0.469c-0.036,0.126-0.18,0.198-0.396,0.18c-0.432,1.206-0.937,2.413-1.513,3.565
	l0.414,0.126c-0.018,0.107-0.126,0.198-0.36,0.233v12.064H224.725z M239.292,958.898v1.08h-10.227v0.9h-1.134v-11.163l1.477,0.09
	c-0.018,0.126-0.108,0.216-0.342,0.252v8.841H239.292z M230.775,948.815h2.106c0.072-0.486,0.144-1.044,0.198-1.639h-4.987v-1.08
	h5.095c0.054-0.666,0.108-1.332,0.144-1.908l1.549,0.107c-0.018,0.126-0.126,0.217-0.36,0.234c-0.036,0.468-0.09,1.009-0.144,1.566
	h4.717v1.08h-4.843c-0.072,0.576-0.144,1.152-0.216,1.639h4.016v8.57h-7.274V948.815z M236.879,951.354v-1.585h-4.952v1.585H236.879
	z M236.879,953.875v-1.603h-4.952v1.603H236.879z M236.879,956.431v-1.639h-4.952v1.639H236.879z"/>
<path d="M256.355,951.894c-0.036,0.018-0.072,0.036-0.108,0.036c-0.108,0-0.198-0.054-0.27-0.108
	c-1.368,0.45-3.367,1.188-4.861,1.837c0.036,0.414,0.054,0.882,0.054,1.404c0,0.576-0.018,1.225-0.054,1.927l-1.314,0.072
	c0.054-0.648,0.09-1.477,0.09-2.179c0-0.271,0-0.522-0.018-0.721c-2.035,0.99-3.691,2.196-3.691,3.277
	c0,1.044,1.242,1.548,3.727,1.548c1.747,0,3.367-0.035,4.52-0.18l0.018,1.206c-1.062,0.108-2.683,0.145-4.538,0.145
	c-3.457,0-4.987-0.828-4.987-2.665c0-1.584,2.088-3.115,4.79-4.465c-0.108-1.135-0.612-1.693-1.333-1.693
	c-1.314,0-2.683,0.738-4.303,2.539c-0.504,0.559-1.207,1.261-1.981,1.963l-0.882-0.883c1.801-1.584,3.493-3.097,4.538-6.644
	l-1.008,0.018h-3.007v-1.17c1.098,0.018,2.376,0.018,3.115,0.018l1.225-0.018c0.198-0.828,0.36-1.603,0.486-2.575l1.765,0.217
	c-0.036,0.18-0.18,0.288-0.45,0.324c-0.126,0.72-0.288,1.35-0.45,1.998c1.225-0.018,3.854-0.306,6.194-1.044l0.216,1.206
	c-2.251,0.702-4.97,0.954-6.752,1.008c-0.432,1.351-0.882,2.432-1.296,3.043h0.018c0.792-0.702,1.98-1.17,2.898-1.17
	c1.225,0,1.999,0.882,2.233,2.341c1.512-0.685,3.421-1.423,4.861-1.98L256.355,951.894z"/>
<path d="M263.156,954.865v3.673c1.152,0.559,2.665,0.738,4.664,0.738c0.81,0,6.536,0,7.562-0.036
	c-0.198,0.289-0.414,0.847-0.486,1.188h-7.058c-4.069,0-6.248-0.647-7.544-3.331c-0.216,1.566-0.558,2.936-1.098,3.907
	c-0.216-0.162-0.612-0.378-0.882-0.504c0.918-1.692,1.152-4.808,1.224-8.066l1.422,0.198c-0.036,0.144-0.144,0.198-0.342,0.216
	c-0.036,0.685-0.054,1.368-0.108,2.053c0.36,1.278,0.864,2.215,1.548,2.881v-6.59h-3.529v-1.099h3.493v-2.557h-2.989v-1.099h2.989
	v-2.269l1.495,0.09c-0.018,0.127-0.126,0.217-0.36,0.253v1.926h2.899v1.099h-2.899v2.557h3.259v0.828
	c1.657-0.936,2.539-2.61,2.863-4.951h-2.683v-1.062h7.13l0.252-0.018l0.648,0.072c0,0.107-0.018,0.252-0.036,0.396
	c-0.162,3.385-0.342,4.663-0.756,5.113c-0.36,0.396-0.666,0.45-1.873,0.45c-0.342,0-0.738,0-1.152-0.018
	c-0.036-0.324-0.144-0.774-0.324-1.062c0.792,0.072,1.531,0.072,1.801,0.072s0.45-0.019,0.558-0.162
	c0.252-0.288,0.414-1.261,0.558-3.781h-2.935c-0.36,2.772-1.476,4.789-3.493,5.87c-0.162-0.181-0.468-0.45-0.738-0.648h-3.079v2.593
	h2.899v1.08H263.156z M274.193,958.448h-1.152v-0.882h-4.681v0.9h-1.134v-6.5h6.968V958.448z M268.359,956.521h4.681v-3.511h-4.681
	V956.521z"/>
<path d="M284.019,954.307c0.612-0.307,1.207-0.414,1.783-0.414c0.918,0,1.584,0.702,1.584,1.836c0,0.469-0.054,1.026-0.054,1.459
	c0,1.836,1.081,1.836,2.629,1.836c0.792,0,1.692-0.054,2.341-0.162c0,0.811,0.054,1.278,0.054,1.278
	c-0.702,0.072-1.548,0.108-2.34,0.108c-0.738,0-1.405-0.036-1.873-0.108c-1.296-0.197-2.035-1.152-2.053-2.214
	c0-0.415,0.036-1.225,0.036-1.765c0-0.757-0.288-1.188-0.918-1.188c-0.864,0-2.197,0.504-3.223,1.494
	c-1.044,1.026-3.007,3.007-3.619,3.728c0,0-0.198-0.252-0.972-0.955c1.71-1.746,7.364-7.237,9.201-9.021
	c-1.314,0.126-5.401,0.36-7.454,0.469c-0.054,0.107-0.144,0.18-0.288,0.198l-0.108-1.441c2.521-0.071,7.256-0.306,9.075-0.468
	l0.27-0.162l1.044,0.954c-0.108,0.091-0.234,0.126-0.432,0.145c-1.134,1.062-3.349,3.097-4.682,4.375V954.307z M288.538,947.105
	c-1.927-0.559-5.312-1.099-7.707-1.207l0.271-1.206c2.484,0.108,5.726,0.594,7.778,1.188L288.538,947.105z"/>
<path d="M300.614,952.092c1.188-0.612,3.043-1.045,4.465-1.045c2.863,0,4.664,1.675,4.664,4.321c0,3.26-2.863,5.06-6.482,5.06
	c-2.341,0-3.943-0.936-3.943-2.521c0-1.332,1.314-2.412,2.953-2.412c2.034,0,3.403,1.62,3.673,3.259
	c1.44-0.54,2.485-1.692,2.485-3.367c0-1.944-1.44-3.188-3.709-3.188c-2.701,0-5.347,1.207-6.536,2.359
	c-0.54,0.504-1.243,1.26-1.729,1.818l-0.918-0.918c1.621-1.692,6.77-6.608,9.219-8.896c-1.044,0.145-4.646,0.289-6.698,0.36
	c-0.054,0.126-0.234,0.234-0.378,0.271l-0.144-1.53c2.431-0.019,7.076-0.198,8.391-0.396l0.27-0.126l0.955,1.17
	c-0.09,0.072-0.252,0.145-0.432,0.162c-1.278,1.045-4.7,4.25-6.104,5.6V952.092z M303.099,959.294c0.54,0,1.17-0.072,1.638-0.181
	c-0.198-1.386-1.224-2.557-2.557-2.557c-0.936,0-1.765,0.505-1.765,1.333C300.416,958.988,301.911,959.294,303.099,959.294z"/>
<path d="M326.555,950.58c-0.036,0.018-0.09,0.018-0.144,0.018c-0.126,0-0.27-0.035-0.378-0.107
	c-5.348,1.566-10.191,3.925-10.173,6.338c0,1.729,1.909,2.322,4.826,2.322c2.898,0,5.113-0.216,6.374-0.414l0.108,1.314
	c-1.657,0.216-4.339,0.324-6.446,0.324c-3.565,0-6.158-0.828-6.176-3.475c-0.018-1.927,1.909-3.619,4.735-5.078
	c-0.612-1.098-0.828-3.187-0.828-7.256l1.98,0.162c-0.018,0.234-0.198,0.378-0.558,0.432c-0.018,3.151,0.09,5.114,0.594,6.086
	c1.692-0.792,3.637-1.512,5.618-2.16L326.555,950.58z"/>
<path d="M334.129,955.855c-0.378,1.675-1.08,3.277-2.593,4.178l-0.954-0.702c1.386-0.811,2.143-2.251,2.485-3.8L334.129,955.855z
	 M338.181,946.546c-0.018,0.072-0.072,0.145-0.126,0.18c-0.342,1.891-0.918,3.422-1.674,4.628c0.63,0.378,1.188,0.738,1.603,1.08
	l-0.685,0.973c-0.396-0.36-0.954-0.738-1.584-1.116c-0.99,1.206-2.25,2.053-3.709,2.629c-0.18-0.253-0.612-0.703-0.882-0.883
	c1.422-0.504,2.647-1.242,3.601-2.322c-0.738-0.396-1.53-0.774-2.287-1.081l-0.342,0.811l-1.008-0.432
	c0.414-0.955,0.937-2.251,1.44-3.583h-1.854v-1.099h2.251c0.27-0.757,0.522-1.495,0.738-2.143l1.422,0.233
	c-0.036,0.127-0.144,0.198-0.378,0.198c-0.18,0.522-0.378,1.099-0.612,1.711h3.169l0.216-0.036L338.181,946.546z M333.697,947.429
	c-0.288,0.756-0.594,1.53-0.882,2.25c0.847,0.307,1.747,0.721,2.575,1.152c0.612-0.918,1.062-2.053,1.368-3.402H333.697z
	 M336.614,958.844c0,0.468,0.162,0.558,1.044,0.558h3.079c0.756,0,0.9-0.27,0.973-2.232c0.27,0.198,0.756,0.378,1.098,0.469
	c-0.144,2.322-0.522,2.862-1.962,2.862h-3.277c-1.692,0-2.143-0.342-2.143-1.639v-3.24l1.548,0.107
	c-0.018,0.126-0.108,0.216-0.36,0.252V958.844z M339.891,956.99c-0.702-0.792-2.214-1.818-3.565-2.395l0.774-0.793
	c1.332,0.559,2.863,1.513,3.601,2.341L339.891,956.99z M345.347,945.142l0.792,0.324c-0.018,0.09-0.09,0.162-0.144,0.216
	c-0.576,2.196-1.566,4.033-2.827,5.474c1.098,1.152,2.448,2.053,4.015,2.611c-0.27,0.252-0.63,0.72-0.811,1.044
	c-1.566-0.63-2.917-1.585-4.033-2.809c-1.044,0.972-2.197,1.729-3.439,2.269c-0.144-0.288-0.468-0.702-0.702-0.937
	c1.207-0.486,2.359-1.242,3.385-2.215c-0.972-1.278-1.729-2.791-2.269-4.483l1.081-0.288c0.468,1.44,1.134,2.755,1.999,3.89
	c0.918-1.099,1.674-2.431,2.161-3.943h-6.032v-1.099h6.626L345.347,945.142z M346.031,959.997c-0.558-1.242-1.999-2.989-3.403-4.195
	l1.008-0.576c1.422,1.17,2.899,2.881,3.493,4.142L346.031,959.997z"/>
<path d="M350.383,951.3c0.324-0.072,0.991-0.253,1.603-0.433c2.233-0.666,4.844-1.278,6.518-1.278c2.431,0,4.609,1.297,4.609,4.231
	c0,3.961-3.925,5.419-8.732,5.798c-0.072-0.271-0.252-0.883-0.36-1.099c4.231-0.306,7.814-1.53,7.814-4.627
	c0-2.251-1.603-3.224-3.511-3.205c-1.44,0.018-3.763,0.54-6.032,1.314c-0.414,0.144-0.864,0.306-1.152,0.396
	c-0.036,0.145-0.162,0.271-0.288,0.307L350.383,951.3z"/>
<path d="M377.602,948.131c-1.53,0.54-3.565,0.882-5.527,1.026c-0.756,4.123-1.854,8.228-3.295,11.253l-1.296-0.486
	c1.476-2.898,2.557-6.626,3.259-10.713c-0.36,0.018-2.773,0.036-3.313,0.018l-0.018-1.224c0.288,0.018,0.666,0.018,1.081,0.018
	c0.162,0,1.962,0,2.431-0.018c0.18-1.152,0.36-2.413,0.468-3.512l1.854,0.181c-0.018,0.197-0.271,0.342-0.522,0.359
	c-0.108,0.793-0.288,1.765-0.45,2.863c1.765-0.162,3.547-0.468,5.042-1.009L377.602,948.131z M382.391,960.123
	c-0.54,0.018-1.098,0.036-1.656,0.036c-1.693,0-3.295-0.126-4.268-0.396c-1.278-0.36-2.017-1.296-1.999-2.484
	c0.018-0.792,0.36-1.692,1.116-2.611l1.081,0.469c-0.63,0.738-0.937,1.44-0.937,1.998c0,1.423,1.369,1.783,4.646,1.783
	c0.666,0,1.351-0.019,2.017-0.072V960.123z M375.369,951.444c1.854-0.594,4.411-0.973,6.536-0.918v1.224
	c-2.034-0.054-4.393,0.234-6.229,0.811L375.369,951.444z"/>
<path d="M386.383,951.3v2.881c0,1.908-0.198,4.627-1.242,6.481c-0.18-0.234-0.648-0.63-0.882-0.756
	c0.937-1.692,1.026-3.997,1.026-5.744v-3.925h5.131l-0.72-0.234c0.271-0.738,0.612-1.891,0.756-2.683l1.386,0.36
	c-0.054,0.107-0.18,0.162-0.378,0.18c-0.198,0.685-0.504,1.675-0.792,2.377h2.161v1.062H386.383z M392.649,946.241v1.044h-7.868
	v-1.044h3.403v-2.053l1.53,0.09c-0.018,0.126-0.108,0.216-0.342,0.252v1.711H392.649z M387.103,947.5
	c0.342,0.792,0.667,1.818,0.738,2.449l-1.062,0.27c-0.072-0.647-0.342-1.71-0.685-2.503L387.103,947.5z M392.937,957.097
	c-0.036,0.091-0.144,0.145-0.306,0.162c-1.081,1.531-3.187,2.899-5.582,3.691c-0.162-0.27-0.432-0.63-0.702-0.846
	c2.25-0.648,4.303-1.891,5.312-3.422L392.937,957.097z M391.749,952.165c-0.054,0.09-0.144,0.144-0.288,0.144
	c-0.936,0.792-2.575,1.639-4.015,2.161c-0.18-0.234-0.468-0.541-0.738-0.738c1.369-0.433,2.989-1.207,3.871-1.999L391.749,952.165z
	 M392.235,954.613c-0.036,0.108-0.144,0.162-0.306,0.162c-0.99,0.973-2.755,2.017-4.339,2.646c-0.18-0.233-0.468-0.558-0.72-0.738
	c1.495-0.558,3.241-1.512,4.177-2.484L392.235,954.613z M396.268,958.502c-0.054,0.071-0.162,0.126-0.342,0.126
	c-0.702,0.81-2.232,1.8-3.547,2.358c-0.18-0.234-0.558-0.595-0.829-0.811c1.351-0.54,2.827-1.494,3.529-2.286L396.268,958.502z
	 M393.405,948.005h2.557c0.144-0.576,0.288-1.261,0.378-1.855h-3.511v-1.08h8.426v1.08h-3.727c-0.108,0.541-0.288,1.243-0.468,1.855
	h3.619v9.506h-7.274V948.005z M399.563,950.85v-1.873h-5.078v1.873H399.563z M399.563,953.676v-1.891h-5.078v1.891H399.563z
	 M399.563,956.521v-1.908h-5.078v1.908H399.563z M400.553,960.951c-0.612-0.666-1.873-1.675-2.881-2.395l0.9-0.595
	c1.008,0.648,2.305,1.657,2.935,2.323L400.553,960.951z"/>
<path d="M406.58,945.52c-0.054,0.198-0.234,0.307-0.594,0.288c-0.63,2.935-0.954,6.158-0.954,8.103c0,1.351,0.054,2.719,0.234,3.565
	c0.342-0.883,1.116-2.773,1.369-3.403l0.756,0.792c-0.738,1.818-1.279,2.845-1.531,3.655c-0.09,0.306-0.144,0.594-0.144,0.847
	c0,0.197,0.036,0.378,0.09,0.558l-1.278,0.234c-0.576-1.711-0.792-3.8-0.792-6.194c0-2.358,0.378-5.653,0.954-8.769L406.58,945.52z
	 M418.049,958.682c-0.648,0.036-1.314,0.054-1.981,0.054c-1.278,0-2.485-0.072-3.349-0.198c-2.214-0.323-3.241-1.548-3.241-2.988
	c0-1.242,0.684-2.287,1.692-3.476l1.17,0.505c-0.9,0.936-1.53,1.8-1.53,2.826c0,2.089,3.061,2.089,4.934,2.089
	c0.756,0,1.566-0.036,2.322-0.09L418.049,958.682z M409.712,947.681c2.323-0.055,5.456-0.271,7.851-0.685l0.108,1.261
	c-2.232,0.378-5.852,0.611-7.922,0.666L409.712,947.681z"/>
<path d="M427.46,944.709c-0.054,0.145-0.234,0.288-0.558,0.307c-0.126,0.792-0.288,1.729-0.45,2.431
	c1.765-0.108,3.727-0.414,5.293-0.883l0.198,1.225c-1.674,0.414-3.655,0.702-5.726,0.864c-0.864,3.457-2.053,6.267-3.817,8.858
	l-1.206-0.485c1.638-2.359,2.881-5.06,3.655-8.337h-3.583v-1.17h2.143c0.558,0,1.134-0.019,1.657-0.019
	c0.216-0.954,0.378-1.98,0.504-3.043L427.46,944.709z M432.25,952.38c0.018,1.458,0.126,2.448,0.234,3.691
	c1.152,0.449,2.647,1.224,3.835,2.088l-0.648,1.152c-0.99-0.756-2.214-1.458-3.187-1.891c0,1.801-0.72,3.205-3.367,3.205
	c-1.999,0-3.529-0.9-3.511-2.593c0-1.801,1.891-2.665,3.547-2.665c0.648,0,1.314,0.127,2.035,0.324
	c-0.072-1.152-0.162-2.322-0.162-3.169L432.25,952.38z M431.26,956.881c-0.738-0.288-1.495-0.414-2.143-0.414
	c-1.081,0-2.359,0.433-2.377,1.549c0,1.026,1.008,1.513,2.413,1.513c1.296,0,2.125-0.631,2.125-1.819
	C431.278,957.421,431.278,957.152,431.26,956.881z M436.193,950.526c-2.034,0.018-4.501,0.342-6.374,0.882l-0.198-1.134
	c2.053-0.595,4.538-0.973,6.5-0.973L436.193,950.526z"/>
<path d="M442.273,954.811c-0.342-0.973-0.504-2.377-0.522-3.385c0-1.692,0.18-3.655,0.612-5.942l1.8,0.307
	c-0.072,0.233-0.288,0.288-0.522,0.306c-0.36,1.494-0.612,3.781-0.612,5.239c0,0.396,0.018,0.721,0.054,0.973
	c0.36-0.882,1.026-2.106,1.404-2.791c0.162,0.234,0.522,0.612,0.702,0.793c-1.333,2.395-1.729,3.078-1.729,3.835
	c0,0.144,0.018,0.288,0.054,0.45L442.273,954.811z M451.924,945.016c-0.018,0.216-0.162,0.306-0.468,0.396
	c0.126,1.567,0.306,4.178,0.306,6.248c-0.018,3.476-1.278,6.608-6.698,8.859c-0.198-0.288-0.63-0.774-0.9-1.045
	c4.916-1.872,6.23-4.844,6.23-7.796c0-2.215-0.216-4.825-0.414-6.752L451.924,945.016z"/>
<path d="M199.853,978.911c-0.072,0.108-0.198,0.162-0.396,0.162c-0.342,0.774-0.9,1.872-1.405,2.629h4.988v1.116H186.69v-1.116h4.79
	c-0.144-0.811-0.612-1.98-1.152-2.863l1.152-0.27c0.558,0.864,1.044,2.053,1.206,2.826l-1.134,0.307h6.176
	c-0.271-0.09-0.594-0.216-0.774-0.288c0.468-0.774,1.044-2.053,1.351-2.935h-10.533v-1.099h6.428v-1.711l1.603,0.108
	c-0.018,0.126-0.108,0.216-0.36,0.252v1.351h6.626v1.099h-3.619L199.853,978.911z M189.463,992.433v-7.959h11.019v7.904h-1.224
	v-0.647h-8.606v0.702H189.463z M199.258,985.519h-8.606v2.053h8.606V985.519z M190.652,990.686h8.606v-2.124h-8.606V990.686z"/>
<path d="M205.321,978.119c1.35-0.055,12.441-0.847,14.782-0.864l0.018,1.351c-0.234-0.019-0.45-0.019-0.666-0.019
	c-1.044,0-1.927,0.181-3.079,0.919c-2.701,1.62-5.312,4.519-5.312,6.842c0,2.521,1.765,4.015,6.23,4.591l-0.594,1.261
	c-5.114-0.738-7.022-2.646-7.022-5.852c0-2.539,2.502-5.618,5.797-7.688c-1.98,0.144-7.292,0.54-9.615,0.756
	c-0.054,0.145-0.252,0.271-0.396,0.288L205.321,978.119z M216.988,981.666c0.864,0.648,1.891,1.711,2.449,2.484l-0.685,0.559
	c-0.504-0.792-1.602-1.908-2.376-2.503L216.988,981.666z M218.933,980.082c0.882,0.647,1.927,1.692,2.449,2.484l-0.684,0.54
	c-0.486-0.72-1.53-1.837-2.376-2.484L218.933,980.082z"/>
<path d="M223.987,987.013c-0.09,1.62-0.27,3.367-0.99,4.357l-0.702-0.414c0.63-0.919,0.846-2.539,0.918-4.088L223.987,987.013z
	 M229.01,984.745l0.216-0.019l0.576,0.055c0,0.107-0.018,0.252-0.018,0.378c-0.18,4.699-0.36,6.284-0.774,6.806
	c-0.324,0.396-0.612,0.469-1.656,0.469c-0.288,0-0.594,0-0.918-0.019c-0.018-0.306-0.126-0.72-0.27-0.972
	c0.648,0.035,1.225,0.054,1.477,0.054c0.234,0,0.378-0.019,0.486-0.198c0.18-0.234,0.324-0.9,0.45-2.413l-0.558,0.234
	c-0.18-0.666-0.63-1.656-1.044-2.413l0.594-0.216c0.396,0.666,0.792,1.53,1.008,2.161h0.018c0.036-0.757,0.09-1.711,0.126-2.899
	h-4.339v0.469h-1.026v-9.777h6.266v1.044h-2.377v1.729h2.089v0.991h-2.089v1.746h2.089v0.99h-2.089v1.801H229.01z M226.238,977.488
	h-1.855v1.729h1.855V977.488z M226.238,981.954v-1.746h-1.855v1.746H226.238z M224.383,982.944v1.801h1.855v-1.801H224.383z
	 M224.761,990.56c0.036-0.918-0.072-2.286-0.27-3.367l0.666-0.071c0.216,1.062,0.324,2.448,0.306,3.349L224.761,990.56z
	 M226.399,986.869c0.378,0.937,0.667,2.161,0.756,2.936l-0.666,0.162c-0.09-0.793-0.378-2.017-0.72-2.953L226.399,986.869z
	 M238.445,976.678c-0.018,0.072-0.09,0.126-0.126,0.18c-0.612,1.53-1.621,2.773-2.845,3.764c1.17,0.684,2.521,1.206,3.979,1.494
	c-0.252,0.234-0.594,0.702-0.738,1.008c-1.548-0.359-2.971-0.99-4.195-1.8c-1.314,0.846-2.809,1.477-4.357,1.872
	c-0.108-0.288-0.378-0.738-0.594-0.972c1.405-0.307,2.809-0.847,4.033-1.585c-0.99-0.828-1.8-1.801-2.376-2.917l0.846-0.27h-1.584
	v-1.062h7.022l0.198-0.036L238.445,976.678z M237.167,990.38c-0.36-0.45-0.72-0.9-1.081-1.297l0.882-0.486
	c0.954,1.009,1.999,2.377,2.467,3.295l-0.937,0.559c-0.162-0.342-0.396-0.738-0.684-1.17c-2.701,0.216-5.456,0.396-7.274,0.504
	c-0.018,0.144-0.126,0.216-0.252,0.234l-0.432-1.314c1.099-0.036,2.521-0.091,4.069-0.162v-2.485h-3.349v-4.123h3.349v-1.765
	l1.495,0.09c-0.018,0.127-0.126,0.217-0.36,0.253v1.422h3.475v4.123h-3.475v2.431L237.167,990.38z M231.603,987.067h2.323v-2.143
	h-2.323V987.067z M232.27,977.453c0.522,0.972,1.314,1.818,2.269,2.557c0.936-0.721,1.71-1.566,2.25-2.557H232.27z M237.455,984.924
	h-2.395v2.143h2.395V984.924z"/>
<path d="M243.553,978.119c-0.036,0.162-0.234,0.27-0.486,0.288c-0.216,1.351-0.342,2.971-0.342,4.483
	c0,0.666,0.036,1.314,0.072,1.891c0.216,3.061,1.458,4.915,2.845,4.897c0.72,0,1.656-1.837,2.305-3.854
	c0.252,0.252,0.738,0.595,1.044,0.774c-0.828,2.431-1.872,4.411-3.367,4.447c-2.287,0.036-3.871-2.737-4.124-6.194
	c-0.054-0.684-0.072-1.44-0.072-2.25c0-1.585,0.09-3.313,0.27-4.844L243.553,978.119z M255.491,986.491
	c-0.504-3.15-2.106-5.419-4.537-6.77l0.792-0.973c2.629,1.404,4.556,3.997,5.078,7.328L255.491,986.491z"/>
<path d="M259.321,978.119c1.35-0.055,12.441-0.847,14.782-0.864l0.018,1.351c-0.234-0.019-0.45-0.019-0.666-0.019
	c-1.044,0-1.927,0.181-3.079,0.919c-2.701,1.62-5.312,4.519-5.312,6.842c0,2.521,1.765,4.015,6.23,4.591l-0.594,1.261
	c-5.114-0.738-7.022-2.646-7.022-5.852c0-2.539,2.502-5.618,5.797-7.688c-1.98,0.144-7.292,0.54-9.615,0.756
	c-0.054,0.145-0.252,0.271-0.396,0.288L259.321,978.119z M270.988,981.666c0.864,0.648,1.891,1.711,2.449,2.484l-0.685,0.559
	c-0.504-0.792-1.602-1.908-2.376-2.503L270.988,981.666z M272.933,980.082c0.882,0.647,1.927,1.692,2.449,2.484l-0.684,0.54
	c-0.486-0.72-1.53-1.837-2.376-2.484L272.933,980.082z"/>
<path d="M279.553,978.119c-0.036,0.162-0.234,0.27-0.486,0.288c-0.216,1.351-0.342,2.971-0.342,4.483
	c0,0.666,0.036,1.314,0.072,1.891c0.216,3.061,1.458,4.915,2.845,4.897c0.72,0,1.656-1.837,2.305-3.854
	c0.252,0.252,0.738,0.595,1.044,0.774c-0.828,2.431-1.872,4.411-3.367,4.447c-2.287,0.036-3.871-2.737-4.124-6.194
	c-0.054-0.684-0.072-1.44-0.072-2.25c0-1.585,0.09-3.313,0.27-4.844L279.553,978.119z M291.491,986.491
	c-0.504-3.15-2.106-5.419-4.537-6.77l0.792-0.973c2.629,1.404,4.556,3.997,5.078,7.328L291.491,986.491z"/>
<path d="M300.614,983.592c1.188-0.612,3.043-1.045,4.465-1.045c2.863,0,4.664,1.675,4.664,4.321c0,3.26-2.863,5.06-6.482,5.06
	c-2.341,0-3.943-0.936-3.943-2.521c0-1.332,1.314-2.412,2.953-2.412c2.034,0,3.403,1.62,3.673,3.259
	c1.44-0.54,2.485-1.692,2.485-3.367c0-1.944-1.44-3.188-3.709-3.188c-2.701,0-5.347,1.207-6.536,2.359
	c-0.54,0.504-1.243,1.26-1.729,1.818l-0.918-0.918c1.621-1.692,6.77-6.608,9.219-8.896c-1.044,0.145-4.646,0.289-6.698,0.36
	c-0.054,0.126-0.234,0.234-0.378,0.271l-0.144-1.53c2.431-0.019,7.076-0.198,8.391-0.396l0.27-0.126l0.955,1.17
	c-0.09,0.072-0.252,0.145-0.432,0.162c-1.278,1.045-4.7,4.25-6.104,5.6V983.592z M303.099,990.794c0.54,0,1.17-0.072,1.638-0.181
	c-0.198-1.386-1.224-2.557-2.557-2.557c-0.936,0-1.765,0.505-1.765,1.333C300.416,990.488,301.911,990.794,303.099,990.794z"/>
<path d="M326.843,990.56c-1.584,0.288-3.673,0.414-5.474,0.414c-1.513,0-2.827-0.09-3.529-0.234
	c-2.178-0.485-3.115-1.854-3.115-3.438c0-1.387,0.774-2.772,1.836-3.854l1.044,0.54c-1.008,1.045-1.584,2.197-1.584,3.205
	c0,1.045,0.702,1.999,2.25,2.341c0.63,0.145,1.693,0.216,2.935,0.216c1.747,0,3.835-0.144,5.545-0.485L326.843,990.56z
	 M318.758,981.467c0.937-0.72,2.215-1.603,3.187-2.089v-0.018c-1.369,0.162-4.501,0.234-6.5,0.216c0-0.342,0-0.937-0.018-1.26
	c0.396,0.018,7.31,0.126,10.263-0.576l0.144,1.332c-2.143,0.252-4.897,2.125-6.05,3.043L318.758,981.467z"/>
<path d="M344.555,982.08c-0.036,0.018-0.09,0.018-0.144,0.018c-0.126,0-0.27-0.035-0.378-0.107
	c-5.348,1.566-10.191,3.925-10.173,6.338c0,1.729,1.909,2.322,4.826,2.322c2.898,0,5.113-0.216,6.374-0.414l0.108,1.314
	c-1.657,0.216-4.339,0.324-6.446,0.324c-3.565,0-6.158-0.828-6.176-3.475c-0.018-1.927,1.909-3.619,4.735-5.078
	c-0.612-1.098-0.828-3.187-0.828-7.256l1.98,0.162c-0.018,0.234-0.198,0.378-0.558,0.432c-0.018,3.151,0.09,5.114,0.594,6.086
	c1.692-0.792,3.637-1.512,5.618-2.16L344.555,982.08z"/>
<path d="M364.355,983.394c-0.036,0.018-0.072,0.036-0.108,0.036c-0.108,0-0.198-0.054-0.27-0.108
	c-1.368,0.45-3.367,1.188-4.861,1.837c0.036,0.414,0.054,0.882,0.054,1.404c0,0.576-0.018,1.225-0.054,1.927l-1.314,0.072
	c0.054-0.648,0.09-1.477,0.09-2.179c0-0.271,0-0.522-0.018-0.721c-2.035,0.99-3.691,2.196-3.691,3.277
	c0,1.044,1.242,1.548,3.727,1.548c1.747,0,3.367-0.035,4.52-0.18l0.018,1.206c-1.062,0.108-2.683,0.145-4.538,0.145
	c-3.457,0-4.987-0.828-4.987-2.665c0-1.584,2.088-3.115,4.79-4.465c-0.108-1.135-0.612-1.693-1.333-1.693
	c-1.314,0-2.683,0.738-4.303,2.539c-0.504,0.559-1.207,1.261-1.981,1.963l-0.882-0.883c1.801-1.584,3.493-3.097,4.538-6.644
	l-1.008,0.018h-3.007v-1.17c1.098,0.018,2.376,0.018,3.115,0.018l1.225-0.018c0.198-0.828,0.36-1.603,0.486-2.575l1.765,0.217
	c-0.036,0.18-0.18,0.288-0.45,0.324c-0.126,0.72-0.288,1.35-0.45,1.998c1.225-0.018,3.854-0.306,6.194-1.044l0.216,1.206
	c-2.251,0.702-4.97,0.954-6.752,1.008c-0.432,1.351-0.882,2.432-1.296,3.043h0.018c0.792-0.702,1.98-1.17,2.898-1.17
	c1.225,0,1.999,0.882,2.233,2.341c1.512-0.685,3.421-1.423,4.861-1.98L364.355,983.394z"/>
<path d="M368.923,982.043c-0.685,1.135-1.44,2.143-2.197,3.007c-0.126-0.288-0.432-0.846-0.63-1.134
	c1.729-1.873,3.457-4.987,4.501-8.103l1.44,0.486c-0.072,0.126-0.198,0.18-0.414,0.162c-0.468,1.26-1.026,2.521-1.657,3.727
	l0.486,0.126c-0.036,0.108-0.126,0.198-0.36,0.216v11.938h-1.17V982.043z M380.104,986.13c1.386,1.783,2.827,4.178,3.367,5.744
	l-1.152,0.559c-0.144-0.469-0.378-1.009-0.667-1.603c-3.565,0.324-7.328,0.612-9.741,0.792c-0.036,0.144-0.144,0.216-0.27,0.252
	l-0.504-1.458l2.107-0.108c0.756-1.782,1.603-4.465,2.106-6.5h-4.015v-1.188h11.956v1.188h-6.518l0.252,0.072
	c-0.054,0.126-0.198,0.198-0.414,0.216c-0.504,1.801-1.35,4.304-2.125,6.14l6.644-0.414c-0.612-1.098-1.351-2.25-2.071-3.223
	L380.104,986.13z M382.283,977.146v1.152h-9.543v-1.152H382.283z"/>
<path d="M392.019,985.807c0.612-0.307,1.207-0.414,1.783-0.414c0.918,0,1.584,0.702,1.584,1.836c0,0.469-0.054,1.026-0.054,1.459
	c0,1.836,1.081,1.836,2.629,1.836c0.792,0,1.692-0.054,2.341-0.162c0,0.811,0.054,1.278,0.054,1.278
	c-0.702,0.072-1.548,0.108-2.34,0.108c-0.738,0-1.405-0.036-1.873-0.108c-1.296-0.197-2.035-1.152-2.053-2.214
	c0-0.415,0.036-1.225,0.036-1.765c0-0.757-0.288-1.188-0.918-1.188c-0.864,0-2.197,0.504-3.223,1.494
	c-1.044,1.026-3.007,3.007-3.619,3.728c0,0-0.198-0.252-0.972-0.955c1.71-1.746,7.364-7.237,9.201-9.021
	c-1.314,0.126-5.401,0.36-7.454,0.469c-0.054,0.107-0.144,0.18-0.288,0.198l-0.108-1.441c2.521-0.071,7.256-0.306,9.075-0.468
	l0.27-0.162l1.044,0.954c-0.108,0.091-0.234,0.126-0.432,0.145c-1.134,1.062-3.349,3.097-4.682,4.375V985.807z M396.538,978.605
	c-1.927-0.559-5.312-1.099-7.707-1.207l0.271-1.206c2.484,0.108,5.726,0.594,7.778,1.188L396.538,978.605z"/>
<path d="M408.614,983.592c1.188-0.612,3.043-1.045,4.465-1.045c2.863,0,4.664,1.675,4.664,4.321c0,3.26-2.863,5.06-6.482,5.06
	c-2.341,0-3.943-0.936-3.943-2.521c0-1.332,1.314-2.412,2.953-2.412c2.034,0,3.403,1.62,3.673,3.259
	c1.44-0.54,2.485-1.692,2.485-3.367c0-1.944-1.44-3.188-3.709-3.188c-2.701,0-5.347,1.207-6.536,2.359
	c-0.54,0.504-1.243,1.26-1.729,1.818l-0.918-0.918c1.621-1.692,6.77-6.608,9.219-8.896c-1.044,0.145-4.646,0.289-6.698,0.36
	c-0.054,0.126-0.234,0.234-0.378,0.271l-0.144-1.53c2.431-0.019,7.076-0.198,8.391-0.396l0.27-0.126l0.955,1.17
	c-0.09,0.072-0.252,0.145-0.432,0.162c-1.278,1.045-4.7,4.25-6.104,5.6V983.592z M411.099,990.794c0.54,0,1.17-0.072,1.638-0.181
	c-0.198-1.386-1.224-2.557-2.557-2.557c-0.936,0-1.765,0.505-1.765,1.333C408.416,990.488,409.911,990.794,411.099,990.794z"/>
<path d="M84.328,556.376v1.008h-5.419v-1.008H84.328z M83.968,563.722v5.275h-3.385v0.865h-0.99v-6.141H83.968z M83.932,558.825
	v0.99h-4.303v-0.99H83.932z M79.629,562.264v-0.991h4.303v0.991H79.629z M83.896,553.982v0.99h-4.159v-0.99H83.896z M82.96,564.73
	h-2.377v3.242h2.377V564.73z M89.82,555.188v6.554l1.026,0.378c-0.054,0.108-0.198,0.181-0.396,0.145
	c-0.198,0.378-0.396,0.737-0.63,1.099v5.329c0,1.278-0.684,1.386-2.935,1.386c-0.072-0.306-0.252-0.773-0.414-1.062
	c0.468,0.018,0.9,0.018,1.243,0.018c0.954,0,1.062,0,1.062-0.342v-3.835c-1.17,1.494-2.557,2.809-3.979,3.763
	c-0.162-0.233-0.504-0.647-0.72-0.864c1.422-0.9,2.845-2.232,3.997-3.763c-1.188,0.252-2.305,0.504-3.079,0.647
	c-0.018,0.127-0.108,0.234-0.234,0.271l-0.504-1.188l0.9-0.162v-8.372h1.422c0.216-0.595,0.415-1.351,0.522-1.872l1.386,0.342
	c-0.054,0.107-0.162,0.162-0.378,0.18c-0.108,0.378-0.27,0.883-0.45,1.351H89.82z M88.775,556.142h-2.611v1.621h2.611V556.142z
	 M88.775,560.337v-1.621h-2.611v1.621H88.775z M86.165,561.31v2.07c0.811-0.162,1.711-0.324,2.611-0.504v-1.566H86.165z
	 M95.726,557.907v1.152h-1.062v9.543c0,1.44-0.72,1.513-3.097,1.513c-0.054-0.307-0.216-0.811-0.378-1.152
	c0.468,0.018,0.9,0.018,1.261,0.018c1.062,0,1.098,0,1.098-0.36v-9.561h-3.349v-1.152h3.349v-4.43l1.458,0.091
	c-0.018,0.125-0.108,0.215-0.342,0.233v4.105H95.726z M91.584,560.679c0.576,1.404,1.008,3.223,1.116,4.43
	c-0.108,0.018-0.234,0.054-0.972,0.234c-0.09-1.207-0.522-3.043-1.044-4.447L91.584,560.679z"/>
<path d="M103.066,561.238c1.188-0.612,3.043-1.045,4.465-1.045c2.863,0,4.664,1.675,4.664,4.322c0,3.258-2.863,5.059-6.482,5.059
	c-2.341,0-3.943-0.936-3.943-2.521c0-1.332,1.314-2.413,2.953-2.413c2.034,0,3.403,1.621,3.673,3.26
	c1.44-0.541,2.485-1.693,2.485-3.367c0-1.945-1.44-3.188-3.709-3.188c-2.701,0-5.347,1.207-6.536,2.359
	c-0.54,0.504-1.243,1.26-1.729,1.818l-0.918-0.918c1.621-1.693,6.77-6.608,9.219-8.895c-1.044,0.144-4.646,0.287-6.698,0.359
	c-0.054,0.127-0.234,0.234-0.378,0.271l-0.144-1.53c2.431-0.019,7.076-0.198,8.391-0.396l0.27-0.126l0.955,1.171
	c-0.09,0.071-0.252,0.144-0.432,0.162c-1.278,1.043-4.7,4.248-6.104,5.6V561.238z M105.551,568.44c0.54,0,1.17-0.072,1.638-0.181
	c-0.198-1.386-1.224-2.557-2.557-2.557c-0.936,0-1.765,0.504-1.765,1.332C102.868,568.134,104.363,568.44,105.551,568.44z"/>
<path d="M125.154,561.688c0,1.026-0.829,1.854-1.854,1.854c-1.026,0-1.855-0.828-1.855-1.854s0.829-1.854,1.855-1.854
	C124.361,559.833,125.154,560.697,125.154,561.688z"/>
<path d="M140.111,556.376v1.008h-7.202v-1.008H140.111z M139.373,563.722v5.294h-4.538v0.847h-1.08v-6.141H139.373z
	 M133.773,559.815v-0.99h5.653v0.99H133.773z M133.773,562.264v-0.991h5.653v0.991H133.773z M139.426,553.982v0.99h-5.563v-0.99
	H139.426z M138.274,564.749h-3.439v3.241h3.439V564.749z M149.744,561.958v1.17h-4.123v6.932h-1.225v-6.932h-4.357v-1.17h4.357
	v-4.736h-1.891c-0.504,1.314-1.08,2.521-1.729,3.403c-0.216-0.198-0.684-0.486-0.972-0.63c1.116-1.531,2.071-4.142,2.629-6.698
	l1.494,0.378c-0.036,0.126-0.162,0.18-0.396,0.18c-0.18,0.738-0.396,1.495-0.63,2.232h6.392v1.135h-3.673v4.736H149.744z"/>
<path d="M159.839,556.304c-0.018-0.396-0.072-2.359-0.108-2.809l1.855,0.072c-0.018,0.144-0.144,0.324-0.468,0.377
	c0,0.217,0,0.433,0.036,2.323c2.214-0.071,4.537-0.126,5.888-0.144v1.242c-1.531-0.036-3.709,0-5.852,0.072
	c0.036,1.404,0.072,2.7,0.126,3.69c0.18,0.595,0.216,1.135,0.216,1.891c0,0.576-0.054,1.243-0.18,1.747
	c-0.468,2.106-2.017,3.961-5.186,5.221c-0.234-0.306-0.63-0.756-0.918-1.025c2.754-0.99,4.231-2.485,4.681-4.195h-0.018
	c-0.378,0.539-1.044,0.954-1.854,0.954c-1.603,0-3.025-1.314-3.025-3.151c-0.018-1.908,1.53-3.367,3.241-3.367
	c0.648,0,1.314,0.234,1.674,0.559c0-0.307-0.036-1.513-0.072-2.287c-1.873,0.036-7.562,0.234-8.301,0.271l-0.036-1.188l4.105-0.107
	L159.839,556.304z M160.181,562.625c0-0.703,0-2.342-1.836-2.342c-1.242,0.019-2.125,0.973-2.143,2.287
	c0,1.261,0.954,2.089,1.999,2.089C159.479,564.659,160.181,563.668,160.181,562.625z"/>
<path d="M174.094,561.742c-0.811,2.106-1.999,3.961-3.385,5.33l-1.044-0.685c1.351-1.261,2.521-2.989,3.259-5.077L174.094,561.742z
	 M177.947,558.968v8.518c0,1.963-1.386,1.963-4.267,1.963c-0.072-0.324-0.216-0.847-0.396-1.207
	c0.522,0.018,1.099,0.018,1.584,0.018h1.044c0.504,0,0.738-0.324,0.738-0.756v-8.535h-6.122v-1.205h6.122v-3.746l1.71,0.09
	c-0.018,0.181-0.144,0.307-0.414,0.343v3.313h6.086v1.205H177.947z M181.17,561.183c1.314,1.459,2.827,3.565,3.799,5.24
	l-1.152,0.666c-0.882-1.656-2.467-3.961-3.673-5.348L181.17,561.183z M180.954,553.855c0.81,0.721,1.729,1.818,2.25,2.629
	l-0.684,0.522c-0.522-0.792-1.476-1.962-2.25-2.61L180.954,553.855z M183.547,553.045c0.828,0.737,1.765,1.818,2.269,2.61
	l-0.684,0.541c-0.522-0.793-1.494-1.928-2.25-2.611L183.547,553.045z"/>
<path d="M201.259,556.88c-0.018,0.09-0.108,0.162-0.216,0.198c-0.667,2.232-1.567,4.285-2.647,5.96
	c0.774,0.449,1.656,1.008,2.323,1.494l-0.756,1.188c-0.648-0.505-1.566-1.099-2.323-1.567c-1.656,2.305-3.781,4.16-6.5,5.475
	c-0.198-0.307-0.666-0.738-0.99-0.937c2.629-1.225,4.735-3.043,6.374-5.186c-1.333-0.738-2.647-1.368-3.979-1.872l0.684-1.009
	c1.314,0.468,2.665,1.08,4.051,1.818c0.936-1.477,1.674-3.043,2.179-4.771h-6.104c-1.098,1.837-2.575,3.655-4.159,4.952
	c-0.234-0.217-0.72-0.613-1.026-0.811c2.359-1.801,4.591-5.041,5.672-8.121l1.71,0.396c-0.072,0.198-0.252,0.252-0.486,0.234
	c-0.252,0.594-0.666,1.477-1.008,2.143h5.978l0.252-0.072L201.259,556.88z"/>
<path d="M207.087,555.296c1.873,0.594,4.033,1.529,5.365,2.448l-0.684,1.134c-1.296-0.918-3.421-1.872-5.257-2.502L207.087,555.296z
	 M207.015,567.773c6.392-1.98,10.641-5.562,12.802-10.551c0.378,0.307,0.792,0.541,1.17,0.738
	c-2.25,4.934-6.644,8.769-12.748,10.803c-0.018,0.162-0.126,0.343-0.252,0.415L207.015,567.773z"/>
<path d="M238.807,561.04c-0.036,0.019-0.072,0.036-0.108,0.036c-0.108,0-0.198-0.055-0.27-0.108
	c-1.368,0.45-3.367,1.188-4.861,1.837c0.036,0.414,0.054,0.883,0.054,1.404c0,0.576-0.018,1.225-0.054,1.927l-1.314,0.071
	c0.054-0.647,0.09-1.477,0.09-2.178c0-0.271,0-0.522-0.018-0.721c-2.035,0.99-3.691,2.197-3.691,3.277
	c0,1.044,1.242,1.549,3.727,1.549c1.747,0,3.367-0.037,4.52-0.181l0.018,1.206c-1.062,0.108-2.683,0.145-4.538,0.145
	c-3.457,0-4.987-0.828-4.987-2.665c0-1.585,2.088-3.114,4.79-4.466c-0.108-1.134-0.612-1.691-1.333-1.691
	c-1.314,0-2.683,0.738-4.303,2.538c-0.504,0.558-1.207,1.261-1.981,1.963l-0.882-0.882c1.801-1.585,3.493-3.098,4.538-6.645
	l-1.008,0.018h-3.007v-1.17c1.098,0.018,2.376,0.018,3.115,0.018l1.225-0.018c0.198-0.828,0.36-1.603,0.486-2.574l1.765,0.215
	c-0.036,0.181-0.18,0.289-0.45,0.324c-0.126,0.721-0.288,1.352-0.45,1.999c1.225-0.019,3.854-0.306,6.194-1.044l0.216,1.206
	c-2.251,0.702-4.97,0.954-6.752,1.009c-0.432,1.35-0.882,2.43-1.296,3.043h0.018c0.792-0.703,1.98-1.171,2.898-1.171
	c1.225,0,1.999,0.882,2.233,2.341c1.512-0.685,3.421-1.422,4.861-1.98L238.807,561.04z"/>
<path d="M246.886,561.328l0.18,1.026c-0.72,0.271-1.458,0.522-2.161,0.774v5.401c0,1.351-0.612,1.548-2.971,1.513
	c-0.036-0.307-0.216-0.828-0.378-1.17c0.846,0.018,1.603,0.018,1.836,0.018c0.234,0,0.342-0.09,0.342-0.342v-5.006l-2.25,0.792
	c-0.018,0.144-0.108,0.234-0.234,0.288l-0.432-1.404l2.917-0.883v-4.177h-2.719v-1.134h2.719v-3.691l1.513,0.09
	c-0.018,0.126-0.108,0.216-0.342,0.252v3.35h2.071v1.134h-2.071v3.8L246.886,561.328z M247.661,554.162h9.345v10.389h-1.17v-0.863
	H252.9v6.355h-1.188v-6.355h-2.899v0.936h-1.152V554.162z M251.712,555.296h-2.899v3.043h2.899V555.296z M248.813,562.57h2.899
	v-3.115h-2.899V562.57z M255.835,558.339v-3.043H252.9v3.043H255.835z M252.9,562.57h2.935v-3.115H252.9V562.57z"/>
<path d="M267.839,556.304c-0.018-0.396-0.072-2.359-0.108-2.809l1.855,0.072c-0.018,0.144-0.144,0.324-0.468,0.377
	c0,0.217,0,0.433,0.036,2.323c2.214-0.071,4.537-0.126,5.888-0.144v1.242c-1.531-0.036-3.709,0-5.852,0.072
	c0.036,1.404,0.072,2.7,0.126,3.69c0.18,0.595,0.216,1.135,0.216,1.891c0,0.576-0.054,1.243-0.18,1.747
	c-0.468,2.106-2.017,3.961-5.186,5.221c-0.234-0.306-0.63-0.756-0.918-1.025c2.754-0.99,4.231-2.485,4.681-4.195h-0.018
	c-0.378,0.539-1.044,0.954-1.854,0.954c-1.603,0-3.025-1.314-3.025-3.151c-0.018-1.908,1.53-3.367,3.241-3.367
	c0.648,0,1.314,0.234,1.674,0.559c0-0.307-0.036-1.513-0.072-2.287c-1.873,0.036-7.562,0.234-8.301,0.271l-0.036-1.188l4.105-0.107
	L267.839,556.304z M268.181,562.625c0-0.703,0-2.342-1.836-2.342c-1.242,0.019-2.125,0.973-2.143,2.287
	c0,1.261,0.954,2.089,1.999,2.089C267.479,564.659,268.181,563.668,268.181,562.625z"/>
<path d="M281.968,567.54c0,1.386-1.135,2.521-2.521,2.521s-2.521-1.135-2.521-2.521c0-1.387,1.134-2.521,2.521-2.521
	C280.87,565.019,281.968,566.189,281.968,567.54z M281.32,567.54c0-1.044-0.828-1.872-1.873-1.872c-1.026,0-1.854,0.828-1.854,1.872
	c0,1.026,0.828,1.854,1.854,1.854C280.528,569.394,281.32,568.53,281.32,567.54z"/>
</svg>
