<?xml version="1.0" encoding="utf-8"?>
<!-- Generator: Adobe Illustrator 15.1.0, SVG Export Plug-In  -->
<!DOCTYPE svg PUBLIC "-//W3C//DTD SVG 1.1//EN" "http://www.w3.org/Graphics/SVG/1.1/DTD/svg11.dtd" [
	<!ENTITY ns_flows "http://ns.adobe.com/Flows/1.0/">
]>
<svg version="1.1"
	 xmlns="http://www.w3.org/2000/svg" xmlns:xlink="http://www.w3.org/1999/xlink" xmlns:a="http://ns.adobe.com/AdobeSVGViewerExtensions/3.0/"
	 x="0px" y="0px" width="842px" height="486px" viewBox="-96.044 -22.396 842 486"
	 overflow="visible" enable-background="new -96.044 -22.396 842 486" xml:space="preserve">
<defs>
</defs>
<path fill="#FFFFFF" stroke="#000000" stroke-miterlimit="10" d="M209.263,325.106c0,1.646-1.642,2.978-3.66,2.978H64.146
	c-2.02,0-3.659-1.332-3.659-2.978v-81.888c0-1.644,1.64-2.977,3.659-2.977h141.457c2.018,0,3.66,1.333,3.66,2.977V325.106z"/>
<path fill="#A7A9AC" stroke="#000000" stroke-miterlimit="10" d="M209.263,325.106c0,1.646-1.642,2.978-3.66,2.978H64.146
	c-2.02,0-3.659-1.332-3.659-2.978v-81.888c0-1.644,1.64-2.977,3.659-2.977h141.457c2.018,0,3.66,1.333,3.66,2.977V325.106z
	 M212.981,241.172c0-1.727-1.721-3.125-3.844-3.125H60.611c-2.122,0-3.843,1.399-3.843,3.125v85.98c0,1.728,1.721,3.129,3.843,3.129
	h148.526c2.123,0,3.844-1.401,3.844-3.129V241.172z"/>
<path fill="#D1D3D4" stroke="#000000" stroke-miterlimit="10" d="M220.419,331.249c0,1.89-1.886,3.425-4.208,3.425H53.537
	c-2.321,0-4.207-1.535-4.207-3.425v-94.17c0-1.892,1.886-3.425,4.207-3.425h162.675c2.322,0,4.208,1.533,4.208,3.425V331.249z
	 M212.981,241.172c0-1.727-1.721-3.125-3.844-3.125H60.611c-2.122,0-3.843,1.399-3.843,3.125v85.98c0,1.728,1.721,3.129,3.843,3.129
	h148.526c2.123,0,3.844-1.401,3.844-3.129V241.172z"/>
<line stroke="#000000" stroke-width="4" stroke-miterlimit="10" x1="134.875" y1="253.491" x2="134.875" y2="284.163"/>
<line stroke="#000000" stroke-width="4" stroke-miterlimit="10" x1="147.363" y1="263.131" x2="134.875" y2="284.163"/>
<path fill="#F7941E" stroke="#000000" stroke-miterlimit="10" d="M589.944,328.178c0,1.643-1.638,2.975-3.659,2.975H444.833
	c-2.022,0-3.66-1.332-3.66-2.975v-81.886c0-1.646,1.638-2.979,3.66-2.979h141.452c2.021,0,3.659,1.333,3.659,2.979V328.178z"/>
<path fill="#A7A9AC" stroke="#000000" stroke-miterlimit="10" d="M589.944,328.178c0,1.643-1.638,2.975-3.659,2.975H444.833
	c-2.022,0-3.66-1.332-3.66-2.975v-81.886c0-1.646,1.638-2.979,3.66-2.979h141.452c2.021,0,3.659,1.333,3.659,2.979V328.178z
	 M593.663,244.242c0-1.725-1.719-3.125-3.84-3.125h-148.53c-2.12,0-3.839,1.4-3.839,3.125v85.983c0,1.727,1.719,3.125,3.839,3.125
	h148.53c2.121,0,3.84-1.398,3.84-3.125V244.242z"/>
<path fill="#D1D3D4" stroke="#000000" stroke-miterlimit="10" d="M601.103,334.316c0,1.895-1.882,3.426-4.209,3.426h-162.67
	c-2.325,0-4.207-1.531-4.207-3.426V240.15c0-1.892,1.882-3.425,4.207-3.425h162.67c2.327,0,4.209,1.533,4.209,3.425V334.316z
	 M593.663,244.242c0-1.725-1.719-3.125-3.84-3.125h-148.53c-2.12,0-3.839,1.4-3.839,3.125v85.983c0,1.727,1.719,3.125,3.839,3.125
	h148.53c2.121,0,3.84-1.398,3.84-3.125V244.242z"/>
<rect x="456.583" y="272.861" stroke="#000000" stroke-miterlimit="10" width="48.819" height="13.347"/>
<rect x="525.716" y="272.861" stroke="#000000" stroke-miterlimit="10" width="48.818" height="13.347"/>
<rect x="498.415" y="292.893" stroke="#000000" stroke-miterlimit="10" width="34.286" height="19.99"/>
<path fill="#00AEEF" stroke="#000000" stroke-miterlimit="10" d="M399.576,325.082c0,1.643-1.639,2.977-3.659,2.977H254.462
	c-2.021,0-3.66-1.334-3.66-2.977v-81.886c0-1.645,1.639-2.978,3.66-2.978h141.455c2.021,0,3.659,1.333,3.659,2.978V325.082z"/>
<path fill="#A7A9AC" stroke="#000000" stroke-miterlimit="10" d="M399.576,325.082c0,1.643-1.639,2.977-3.659,2.977H254.462
	c-2.021,0-3.66-1.334-3.66-2.977v-81.886c0-1.645,1.639-2.978,3.66-2.978h141.455c2.021,0,3.659,1.333,3.659,2.978V325.082z
	 M403.294,241.147c0-1.726-1.722-3.125-3.84-3.125H250.925c-2.123,0-3.842,1.399-3.842,3.125v85.981
	c0,1.728,1.719,3.126,3.842,3.126h148.529c2.118,0,3.84-1.398,3.84-3.126V241.147z"/>
<path fill="#D1D3D4" stroke="#000000" stroke-miterlimit="10" d="M410.731,331.222c0,1.894-1.883,3.425-4.206,3.425H243.853
	c-2.324,0-4.207-1.531-4.207-3.425v-94.168c0-1.891,1.883-3.424,4.207-3.424h162.673c2.323,0,4.206,1.534,4.206,3.424V331.222z
	 M403.294,241.147c0-1.726-1.722-3.125-3.84-3.125H250.925c-2.123,0-3.842,1.399-3.842,3.125v85.981
	c0,1.728,1.719,3.126,3.842,3.126h148.529c2.118,0,3.84-1.398,3.84-3.126V241.147z"/>
<ellipse stroke="#000000" stroke-miterlimit="10" cx="292.712" cy="274.754" rx="15.334" ry="12.479"/>
<rect x="308.046" y="290.633" stroke="#000000" stroke-miterlimit="10" width="34.287" height="19.989"/>
<ellipse stroke="#000000" stroke-miterlimit="10" cx="357.667" cy="274.754" rx="15.334" ry="12.479"/>
<path fill="#F15A29" stroke="#000000" stroke-miterlimit="10" d="M209.262,442.691c0,1.643-1.64,2.974-3.659,2.974H64.146
	c-2.02,0-3.66-1.331-3.66-2.974v-81.887c0-1.646,1.641-2.978,3.66-2.978h141.457c2.02,0,3.659,1.332,3.659,2.978V442.691z"/>
<path fill="#A7A9AC" stroke="#000000" stroke-miterlimit="10" d="M209.262,442.691c0,1.643-1.64,2.974-3.659,2.974H64.146
	c-2.02,0-3.66-1.331-3.66-2.974v-81.887c0-1.646,1.641-2.978,3.66-2.978h141.457c2.02,0,3.659,1.332,3.659,2.978V442.691z
	 M212.98,358.754c0-1.724-1.721-3.124-3.844-3.124H60.611c-2.122,0-3.844,1.4-3.844,3.124v85.983c0,1.729,1.722,3.125,3.844,3.125
	h148.525c2.123,0,3.844-1.396,3.844-3.125V358.754z"/>
<path fill="#D1D3D4" stroke="#000000" stroke-miterlimit="10" d="M220.419,448.831c0,1.893-1.886,3.424-4.207,3.424H53.539
	c-2.323,0-4.209-1.531-4.209-3.424v-94.169c0-1.892,1.886-3.425,4.209-3.425h162.674c2.321,0,4.207,1.533,4.207,3.425V448.831z
	 M212.98,358.754c0-1.724-1.721-3.124-3.844-3.124H60.611c-2.122,0-3.844,1.4-3.844,3.124v85.983c0,1.729,1.722,3.125,3.844,3.125
	h148.525c2.123,0,3.844-1.396,3.844-3.125V358.754z"/>
<path stroke="#000000" stroke-miterlimit="10" d="M143.939,389.639c2.867,8.711,13.869,13.882,24.571,11.55
	c10.702-2.337,17.054-11.292,14.185-20.002L143.939,389.639z"/>
<rect x="117.731" y="409.116" stroke="#000000" stroke-miterlimit="10" width="34.286" height="19.986"/>
<path stroke="#000000" stroke-miterlimit="10" d="M87.052,381.187c-2.866,8.71,3.482,17.665,14.189,20.002
	c10.699,2.332,21.701-2.839,24.57-11.55L87.052,381.187z"/>
<path fill="#8DC63F" stroke="#000000" stroke-miterlimit="10" d="M589.942,442.691c0,1.643-1.639,2.979-3.659,2.979H444.831
	c-2.021,0-3.658-1.337-3.658-2.979v-81.883c0-1.648,1.637-2.98,3.658-2.98h141.452c2.021,0,3.659,1.332,3.659,2.98V442.691z"/>
<path fill="#A7A9AC" stroke="#000000" stroke-miterlimit="10" d="M589.942,442.691c0,1.643-1.639,2.979-3.659,2.979H444.831
	c-2.021,0-3.658-1.337-3.658-2.979v-81.883c0-1.648,1.637-2.98,3.658-2.98h141.452c2.021,0,3.659,1.332,3.659,2.98V442.691z
	 M593.661,358.758c0-1.729-1.722-3.126-3.838-3.126H441.292c-2.121,0-3.839,1.397-3.839,3.126v85.982
	c0,1.725,1.718,3.127,3.839,3.127h148.531c2.116,0,3.838-1.402,3.838-3.127V358.758z"/>
<path fill="#D1D3D4" stroke="#000000" stroke-miterlimit="10" d="M601.101,448.834c0,1.89-1.883,3.424-4.209,3.424h-162.67
	c-2.324,0-4.207-1.534-4.207-3.424v-94.17c0-1.894,1.883-3.425,4.207-3.425h162.67c2.326,0,4.209,1.531,4.209,3.425V448.834z
	 M593.661,358.758c0-1.729-1.722-3.126-3.838-3.126H441.292c-2.121,0-3.839,1.397-3.839,3.126v85.982
	c0,1.725,1.718,3.127,3.839,3.127h148.531c2.116,0,3.838-1.402,3.838-3.127V358.758z"/>
<ellipse stroke="#000000" stroke-width="4" stroke-miterlimit="10" cx="490.624" cy="390.299" rx="15.334" ry="12.481"/>
<ellipse stroke="#000000" stroke-width="4" stroke-miterlimit="10" cx="538.622" cy="390.154" rx="15.334" ry="12.482"/>
<path fill="none" stroke="#000000" stroke-width="4" stroke-miterlimit="10" d="M546.805,409.873
	c0,7.052-13.986,12.768-31.246,12.768c-17.261,0-31.247-5.716-31.247-12.768"/>
<path fill="#92278F" stroke="#000000" stroke-miterlimit="10" d="M399.589,442.524c0,1.645-1.638,2.973-3.654,2.973H254.568
	c-2.02,0-3.654-1.328-3.654-2.973v-81.832c0-1.645,1.635-2.979,3.654-2.979h141.367c2.017,0,3.654,1.335,3.654,2.979V442.524z"/>
<path fill="#A7A9AC" stroke="#000000" stroke-miterlimit="10" d="M399.589,442.524c0,1.645-1.638,2.973-3.654,2.973H254.568
	c-2.02,0-3.654-1.328-3.654-2.973v-81.832c0-1.645,1.635-2.979,3.654-2.979h141.367c2.017,0,3.654,1.335,3.654,2.979V442.524z
	 M403.304,358.646c0-1.727-1.722-3.125-3.838-3.125H251.033c-2.117,0-3.835,1.398-3.835,3.125v85.923
	c0,1.725,1.718,3.127,3.835,3.127h148.433c2.116,0,3.838-1.402,3.838-3.127V358.646z"/>
<path fill="#D1D3D4" stroke="#000000" stroke-miterlimit="10" d="M410.734,448.663c0,1.886-1.882,3.42-4.198,3.42H243.968
	c-2.321,0-4.206-1.534-4.206-3.42v-94.111c0-1.889,1.885-3.42,4.206-3.42h162.568c2.316,0,4.198,1.531,4.198,3.42V448.663z
	 M403.304,358.646c0-1.727-1.722-3.125-3.838-3.125H251.033c-2.117,0-3.835,1.398-3.835,3.125v85.923
	c0,1.725,1.718,3.127,3.835,3.127h148.433c2.116,0,3.838-1.402,3.838-3.127V358.646z"/>
<path fill="none" stroke="#000000" stroke-width="4" stroke-miterlimit="10" d="M355.751,425.813
	c0-7.043-13.982-12.757-31.225-12.757c-17.248,0-31.226,5.714-31.226,12.757"/>
<path fill="none" stroke="#000000" stroke-width="4" stroke-miterlimit="10" d="M376.551,377.481c0,3.859-7.668,6.99-17.122,6.99
	c-9.46,0-17.119-3.131-17.119-6.99"/>
<path fill="none" stroke="#000000" stroke-width="4" stroke-miterlimit="10" d="M306.741,377.401c0,3.861-7.667,6.992-17.117,6.992
	c-9.457,0-17.123-3.131-17.123-6.992"/>
<path stroke="#000000" stroke-width="4" stroke-miterlimit="10" d="M367.009,387.154c0,0-20.885,23.368,0,28.19
	C367.009,415.345,387.298,409.997,367.009,387.154z"/>
<polygon fill="#A97C50" stroke="#FFFFFF" stroke-width="12" stroke-miterlimit="10" points="470.153,81.294 496.743,74.188 
	496.743,156.485 470.153,150.525 "/>
<polyline fill="none" stroke="#FFFFFF" stroke-width="12" stroke-miterlimit="10" points="2.635,72.364 38.914,72.364 
	38.914,161.01 117.875,161.01 117.875,72.364 154.153,72.364 "/>
<polyline fill="none" stroke="#FFFFFF" stroke-width="12" stroke-miterlimit="10" points="154.153,72.364 190.433,72.364 
	190.433,161.01 269.391,161.01 269.391,72.364 309.941,72.364 410.241,72.364 "/>
<polyline fill="none" stroke="#FFFFFF" stroke-width="12" stroke-miterlimit="10" points="2.635,45.279 78.395,8.237 
	154.153,45.279 "/>
<polygon stroke="#FFF32A" stroke-width="8" stroke-miterlimit="10" points="273.518,6.392 296.669,11.312 296.669,27.478 
	312.508,27.478 312.508,40.133 324.693,49.977 299.109,49.977 299.109,36.618 285.705,38.727 285.705,20.451 "/>
<polyline fill="none" stroke="#FFFFFF" stroke-width="12" stroke-miterlimit="10" points="116.276,26.757 116.276,8.237 
	134.949,8.237 134.949,35.887 "/>
<polygon fill="none" stroke="#FFFFFF" stroke-width="12" stroke-miterlimit="10" points="500.325,157.319 410.241,137.054 
	410.241,95.675 500.325,73.596 500.325,116.688 "/>
<line fill="none" stroke="#FFFFFF" stroke-width="12" stroke-miterlimit="10" x1="309.941" y1="116.688" x2="410.241" y2="116.688"/>
<polyline fill="none" stroke="#FFFFFF" stroke-width="12" stroke-miterlimit="10" points="360.091,48.736 360.091,133.927 
	309.941,133.927 309.941,161.01 410.241,161.01 "/>
<polyline fill="none" stroke="#FFFFFF" stroke-width="12" stroke-miterlimit="10" points="500.325,116.688 539.171,116.688 
	539.171,157.319 581.845,157.319 581.425,137.002 594.466,121.136 "/>
<line fill="none" stroke="#FFFFFF" stroke-width="12" stroke-miterlimit="10" x1="465.702" y1="82.08" x2="465.954" y2="148.702"/>
<path fill="none" stroke="#FFFFFF" stroke-width="8" stroke-miterlimit="10" d="M491.788,114.225c0,3.817-2.352,6.917-5.252,6.917
	c-2.898,0-5.248-3.1-5.248-6.917c0-3.816,2.35-6.916,5.248-6.916C489.437,107.309,491.788,110.409,491.788,114.225z"/>
<ellipse fill="none" stroke="#FFFFFF" stroke-width="12" stroke-miterlimit="10" cx="594.882" cy="110.014" rx="11.172" ry="12.775"/>
<path fill="none" stroke="#FFFFFF" stroke-width="12" stroke-miterlimit="10" d="M647.866,110.014c0,7.054-5,12.775-11.174,12.775
	c-6.17,0-11.17-5.721-11.17-12.775c0-7.055,5-12.776,11.17-12.776C642.866,97.238,647.866,102.959,647.866,110.014z"/>
<polyline fill="none" stroke="#FFFFFF" stroke-width="12" stroke-miterlimit="10" points="636.692,124.532 635.853,140.879 
	635.007,157.319 581.845,157.319 "/>
<polygon fill="#ED1C24" stroke="#FFFFFF" stroke-width="12" stroke-miterlimit="10" points="614.526,74.887 601.442,63.51 
	596.411,56.221 596.411,43.778 601.948,39.716 609.493,43.503 614.526,46.881 619.056,43.503 627.608,39.233 633.142,43.965 
	633.142,57.06 628.11,63.51 "/>
<polygon stroke="#FFF32A" stroke-width="8" stroke-miterlimit="10" points="237.649,17.155 260.8,22.076 260.8,38.242 
	276.639,38.242 276.639,50.896 288.823,60.74 263.239,60.74 263.239,47.382 249.836,49.491 249.836,31.215 "/>
<path fill="#27AAE1" d="M476.813,171.571c-3.424-3.426-8.98-3.426-12.404,0c-3.426-3.426-8.98-3.426-12.406,0
	c-3.428,3.426-3.428,8.98,0,12.406c3.426,3.426,5.393,3.496,12.406,10.129c7.014-6.633,8.98-6.703,12.404-10.129
	C480.241,180.552,480.241,174.997,476.813,171.571z"/>
<rect x="455.056" y="177.092" fill="#FFFFFF" width="18.707" height="5.628"/>
<path fill="#ED328F" d="M583.853,171.517c-3.336-3.447-8.744-3.447-12.08,0c-3.334-3.447-8.742-3.447-12.076,0
	c-3.336,3.443-3.336,9.029,0,12.475c3.334,3.444,5.25,3.516,12.076,10.186c6.828-6.67,8.744-6.741,12.08-10.186
	C587.188,180.546,587.188,174.96,583.853,171.517z"/>
<g id="XMLID_1_">
	<g>
		<polygon fill="#FFFFFF" points="563.888,183.361 563.888,179.748 570.026,179.748 570.026,173.408 573.522,173.408 
			573.522,179.748 579.661,179.748 579.661,183.361 573.522,183.361 573.522,189.697 570.026,189.697 570.026,183.361 		"/>
	</g>
	<g>
		
			<line fill="none" stroke="#FFFFFF" stroke-width="0.5" stroke-linecap="round" stroke-linejoin="round" x1="570.026" y1="189.697" x2="573.522" y2="189.697"/>
		
			<line fill="none" stroke="#FFFFFF" stroke-width="0.5" stroke-linecap="round" stroke-linejoin="round" x1="570.026" y1="173.408" x2="573.522" y2="173.408"/>
		
			<line fill="none" stroke="#FFFFFF" stroke-width="0.5" stroke-linecap="round" stroke-linejoin="round" x1="563.888" y1="179.748" x2="570.026" y2="179.748"/>
		
			<line fill="none" stroke="#FFFFFF" stroke-width="0.5" stroke-linecap="round" stroke-linejoin="round" x1="563.888" y1="183.361" x2="570.026" y2="183.361"/>
		
			<line fill="none" stroke="#FFFFFF" stroke-width="0.5" stroke-linecap="round" stroke-linejoin="round" x1="570.026" y1="189.697" x2="570.026" y2="183.361"/>
		
			<line fill="none" stroke="#FFFFFF" stroke-width="0.5" stroke-linecap="round" stroke-linejoin="round" x1="570.026" y1="179.748" x2="570.026" y2="173.408"/>
		
			<line fill="none" stroke="#FFFFFF" stroke-width="0.5" stroke-linecap="round" stroke-linejoin="round" x1="573.522" y1="189.697" x2="573.522" y2="183.361"/>
		
			<line fill="none" stroke="#FFFFFF" stroke-width="0.5" stroke-linecap="round" stroke-linejoin="round" x1="573.522" y1="179.748" x2="573.522" y2="173.408"/>
		
			<line fill="none" stroke="#FFFFFF" stroke-width="0.5" stroke-linecap="round" stroke-linejoin="round" x1="573.522" y1="183.361" x2="579.661" y2="183.361"/>
		
			<line fill="none" stroke="#FFFFFF" stroke-width="0.5" stroke-linecap="round" stroke-linejoin="round" x1="573.522" y1="179.748" x2="579.661" y2="179.748"/>
		
			<line fill="none" stroke="#FFFFFF" stroke-width="0.5" stroke-linecap="round" stroke-linejoin="round" x1="579.661" y1="183.361" x2="579.661" y2="179.748"/>
		
			<line fill="none" stroke="#FFFFFF" stroke-width="0.5" stroke-linecap="round" stroke-linejoin="round" x1="563.888" y1="183.361" x2="563.888" y2="179.748"/>
	</g>
</g>
<path fill="#FFFFFF" d="M494.593,177.318c-0.055,0.122-0.162,0.217-0.338,0.217c-0.487,4.204-1.893,7.868-4.137,7.868
	c-1.136,0-2.163-1.136-2.163-3.271c0-3.245,2.527-5.962,6.083-5.962c3.907,0,5.598,2.474,5.598,5.11
	c0,3.217-1.866,4.771-5.138,5.529c-0.122-0.217-0.352-0.582-0.568-0.825c3.11-0.595,4.705-2.108,4.705-4.664
	c0-2.23-1.433-4.259-4.597-4.259c-0.135,0-0.284,0.014-0.405,0.027L494.593,177.318z M493.295,177.143
	c-2.731,0.339-4.421,2.596-4.421,4.962c0,1.446,0.622,2.353,1.271,2.353C491.78,184.457,492.957,180.848,493.295,177.143z"/>
<path fill="#FFFFFF" d="M509.975,181.794l0.527,0.216c-0.04,0.067-0.135,0.108-0.257,0.108c-0.148,0.189-0.365,0.446-0.581,0.689
	h3.799v0.662h-12.262v-0.662h3.812c-0.149-0.284-0.393-0.608-0.622-0.852l0.446-0.162h-2.231v-0.608
	c-0.324,0.189-0.662,0.365-1.014,0.5c-0.081-0.162-0.284-0.433-0.433-0.567c0.946-0.352,1.798-0.906,2.406-1.663
	c-0.771,0.095-1.5,0.176-2.014,0.229c-0.014,0.095-0.081,0.148-0.163,0.176l-0.338-0.852c0.271-0.014,0.568-0.041,0.893-0.067
	c0.257-0.271,0.527-0.595,0.798-0.934c-0.405-0.433-1.055-0.973-1.596-1.365l0.433-0.514c0.149,0.095,0.298,0.203,0.46,0.324
	c0.365-0.5,0.757-1.148,1-1.608l0.825,0.365c-0.041,0.081-0.148,0.108-0.271,0.095c-0.271,0.433-0.703,1.041-1.095,1.514
	c0.257,0.217,0.5,0.433,0.689,0.622c0.352-0.473,0.689-0.96,0.933-1.365l0.824,0.378c-0.04,0.081-0.135,0.108-0.27,0.108
	c-0.474,0.676-1.19,1.582-1.853,2.312l1.203-0.094c0.162-0.298,0.298-0.622,0.392-0.96l0.92,0.202
	c-0.027,0.095-0.108,0.136-0.243,0.136c-0.419,1.284-1.298,2.312-2.434,3.001h4.177v-0.824l1.136,0.067
	c-0.013,0.095-0.081,0.162-0.257,0.189v0.567h4.57v0.636H509.975z M503.215,187.432v-3.367h8.233v3.34h-0.865v-0.379h-6.529v0.406
	H503.215z M510.583,184.619h-6.529v0.662h6.529V184.619z M504.054,186.458h6.529v-0.663h-6.529V186.458z M504.838,179.712
	l0.621-0.055v-4.353h3.691v3.015h-2.947v1.257c0.595-0.054,1.257-0.121,1.946-0.202c-0.216-0.23-0.446-0.433-0.676-0.622
	l0.555-0.324c0.595,0.473,1.271,1.162,1.555,1.662l-0.581,0.365c-0.082-0.148-0.203-0.324-0.352-0.514
	c-1.244,0.176-2.502,0.324-3.312,0.419c-0.014,0.108-0.081,0.162-0.162,0.189L504.838,179.712z M508.758,182.808
	c0.217-0.284,0.514-0.689,0.703-1.014h-4.259c0.298,0.283,0.555,0.662,0.663,0.946l-0.176,0.067H508.758z M508.406,175.886h-2.203
	v0.636h2.203V175.886z M506.203,177.738h2.203v-0.649h-2.203V177.738z M513.07,175.264l0.501,0.284
	c-0.027,0.054-0.068,0.095-0.108,0.108c-0.298,0.527-0.689,1.176-1.082,1.784c1.122,0.879,1.163,1.42,1.163,1.689
	c0,1.19-1.163,1.19-1.649,1.19c-0.162,0-0.338,0-0.5-0.014c-0.014-0.203-0.122-0.486-0.257-0.662
	c0.243,0.013,0.473,0.026,0.676,0.026c0.5,0,1,0,1-0.622c-0.013-0.433-0.392-0.892-1.243-1.5c0.338-0.568,0.635-1.082,0.879-1.555
	h-1.704v4.935h-0.771v-5.624h2.961L513.07,175.264z"/>
<path fill="#FFFFFF" d="M526.168,179.698c-1.217,0.419-2.69,0.676-4.082,0.838c0.419,0.73,1.243,1.744,2.23,2.123l-0.541,0.771
	c-0.189-0.095-0.541-0.257-0.784-0.405c-0.298-0.108-0.96-0.203-1.596-0.203c-0.188,0-0.378,0.014-0.554,0.027l-0.189-0.744
	c0.46-0.027,1.122,0,1.515,0.055c-0.365-0.393-0.798-0.974-1.068-1.528c-0.906,0.095-1.906,0.136-3.623,0.136
	c-0.663,0-1.406,0-2.015-0.014l-0.014-0.852c0.608,0.013,1.393,0.026,2.068,0.026c1.109,0,2.204,0,3.299-0.095
	c-0.148-0.419-0.365-1.189-0.527-1.798c-0.54,0.055-1.148,0.081-1.703,0.081c-0.73,0-1.663,0-2.298-0.026v-0.839
	c0.811,0.041,1.703,0.041,2.284,0.041c0.486,0,1.041-0.027,1.555-0.067c-0.121-0.622-0.257-1.366-0.365-2.123l1.393,0.014
	c0,0.162-0.121,0.257-0.365,0.297c0.082,0.582,0.176,1.204,0.284,1.73c1.271-0.121,2.637-0.392,3.623-0.783l0.23,0.838
	c-0.987,0.365-2.325,0.622-3.678,0.771c0.176,0.717,0.352,1.352,0.514,1.771c1.434-0.148,2.988-0.459,4.218-0.892L526.168,179.698z
	 M523.789,186.85c-0.744,0.055-1.636,0.081-2.975,0.081c-2.189-0.014-3.894-0.716-3.866-2.244c0.014-0.797,0.717-1.649,1.595-2.136
	l0.608,0.622c-0.784,0.419-1.243,0.986-1.243,1.5c0,0.96,1.189,1.379,2.906,1.393c1.014,0,2.082-0.054,3.002-0.121L523.789,186.85z"
	/>
<path fill="#FFFFFF" d="M533.317,175.507c-0.027,0.162-0.189,0.23-0.446,0.244c-0.148,0.757-0.392,2.068-0.555,2.879
	c0.608-0.067,1.163-0.121,1.501-0.121c2.055-0.027,2.758,1.338,2.758,3.366c0,1.014-0.189,2.217-0.459,3.028
	c-0.42,1.379-1.285,2.041-2.407,2.041c-0.554,0-1.284-0.229-2.446-1.176c0.148-0.243,0.257-0.541,0.364-0.825
	c1.082,0.839,1.649,1.027,2.069,1.027c0.771,0,1.229-0.486,1.5-1.352c0.284-0.838,0.433-2.082,0.433-2.771
	c-0.014-1.541-0.514-2.46-1.865-2.447c-0.406,0-0.96,0.055-1.649,0.136c-0.676,2.758-1.474,5.124-2.771,7.3l-0.893-0.433
	c1.312-2.095,2.055-4.19,2.69-6.759c-0.689,0.081-1.677,0.202-2.406,0.324l-0.081-0.946c0.662-0.081,1.771-0.203,2.677-0.312
	c0.203-0.986,0.419-2.203,0.581-3.393L533.317,175.507z M539.577,182.01c-0.433-1.974-1.718-3.65-3.042-4.623l0.729-0.568
	c1.434,1.015,2.853,2.88,3.285,4.813L539.577,182.01z"/>
<path fill="#FFFFFF" d="M545.279,177.765c-0.055,0.136-0.162,0.203-0.352,0.23c-0.108,2-0.365,3.704-0.555,3.988h0.014
	c1.325-0.987,3.394-1.663,4.976-1.663c2.082,0,3.38,1.067,3.353,2.961c-0.041,2.487-2.096,3.596-7.327,3.812
	c-0.068-0.257-0.189-0.635-0.338-0.892c4.718-0.203,6.61-0.974,6.651-2.907c0.014-1.298-0.893-2.082-2.475-2.082
	c-2.501,0-4.759,1.501-5.137,2.163l-0.92-0.445c0.271-0.257,0.744-2.677,0.771-5.327L545.279,177.765z M545.509,175.143
	c1.839,0.216,3.921,0.635,5.246,1.189l-0.339,0.933c-1.392-0.595-3.406-0.987-5.191-1.23L545.509,175.143z"/>
<path fill="#FFFFFF" d="M597.7,176.756c-0.055,0.122-0.162,0.217-0.338,0.217c-0.487,4.204-1.893,7.868-4.137,7.868
	c-1.136,0-2.163-1.136-2.163-3.271c0-3.245,2.527-5.962,6.083-5.962c3.907,0,5.598,2.474,5.598,5.11
	c0,3.217-1.866,4.771-5.138,5.529c-0.122-0.217-0.352-0.582-0.568-0.825c3.11-0.595,4.705-2.108,4.705-4.664
	c0-2.23-1.433-4.259-4.597-4.259c-0.135,0-0.284,0.014-0.405,0.027L597.7,176.756z M596.402,176.58
	c-2.731,0.339-4.421,2.596-4.421,4.962c0,1.446,0.622,2.353,1.271,2.353C594.888,183.895,596.064,180.285,596.402,176.58z"/>
<path fill="#FFFFFF" d="M613.082,181.231l0.527,0.216c-0.04,0.067-0.135,0.108-0.257,0.108c-0.148,0.189-0.365,0.446-0.581,0.689
	h3.799v0.662h-12.262v-0.662h3.812c-0.149-0.284-0.393-0.608-0.622-0.852l0.446-0.162h-2.231v-0.608
	c-0.324,0.189-0.662,0.365-1.014,0.5c-0.081-0.162-0.284-0.433-0.433-0.567c0.946-0.352,1.798-0.906,2.406-1.663
	c-0.771,0.095-1.5,0.176-2.014,0.229c-0.014,0.095-0.081,0.148-0.163,0.176l-0.338-0.852c0.271-0.014,0.568-0.041,0.893-0.067
	c0.257-0.271,0.527-0.595,0.798-0.934c-0.405-0.433-1.055-0.973-1.596-1.365l0.433-0.514c0.149,0.095,0.298,0.203,0.46,0.324
	c0.365-0.5,0.757-1.148,1-1.608l0.825,0.365c-0.041,0.081-0.148,0.108-0.271,0.095c-0.271,0.433-0.703,1.041-1.095,1.514
	c0.257,0.217,0.5,0.433,0.689,0.622c0.352-0.473,0.689-0.96,0.933-1.365l0.824,0.378c-0.04,0.081-0.135,0.108-0.27,0.108
	c-0.474,0.676-1.19,1.582-1.853,2.312l1.203-0.094c0.162-0.298,0.298-0.622,0.392-0.96l0.92,0.202
	c-0.027,0.095-0.108,0.136-0.243,0.136c-0.419,1.284-1.298,2.312-2.434,3.001h4.177v-0.824l1.136,0.067
	c-0.013,0.095-0.081,0.162-0.257,0.189v0.567h4.57v0.636H613.082z M606.322,186.869v-3.367h8.233v3.34h-0.865v-0.379h-6.529v0.406
	H606.322z M613.69,184.057h-6.529v0.662h6.529V184.057z M607.161,185.896h6.529v-0.663h-6.529V185.896z M607.945,179.149
	l0.621-0.055v-4.353h3.691v3.015h-2.947v1.257c0.595-0.054,1.257-0.121,1.946-0.202c-0.216-0.23-0.446-0.433-0.676-0.622
	l0.555-0.324c0.595,0.473,1.271,1.162,1.555,1.662l-0.581,0.365c-0.082-0.148-0.203-0.324-0.352-0.514
	c-1.244,0.176-2.502,0.324-3.312,0.419c-0.014,0.108-0.081,0.162-0.162,0.189L607.945,179.149z M611.865,182.245
	c0.217-0.284,0.514-0.689,0.703-1.014h-4.259c0.298,0.283,0.555,0.662,0.663,0.946l-0.176,0.067H611.865z M611.514,175.323h-2.203
	v0.636h2.203V175.323z M609.311,177.176h2.203v-0.649h-2.203V177.176z M616.178,174.701l0.501,0.284
	c-0.027,0.054-0.068,0.095-0.108,0.108c-0.298,0.527-0.689,1.176-1.082,1.784c1.122,0.879,1.163,1.42,1.163,1.689
	c0,1.19-1.163,1.19-1.649,1.19c-0.162,0-0.338,0-0.5-0.014c-0.014-0.203-0.122-0.486-0.257-0.662
	c0.243,0.013,0.473,0.026,0.676,0.026c0.5,0,1,0,1-0.622c-0.013-0.433-0.392-0.892-1.243-1.5c0.338-0.568,0.635-1.082,0.879-1.555
	h-1.704v4.935h-0.771v-5.624h2.961L616.178,174.701z"/>
<path fill="#FFFFFF" d="M629.275,179.136c-1.217,0.419-2.69,0.676-4.082,0.838c0.419,0.73,1.243,1.744,2.23,2.123l-0.541,0.771
	c-0.189-0.095-0.541-0.257-0.784-0.405c-0.298-0.108-0.96-0.203-1.596-0.203c-0.188,0-0.378,0.014-0.554,0.027l-0.189-0.744
	c0.46-0.027,1.122,0,1.515,0.055c-0.365-0.393-0.798-0.974-1.068-1.528c-0.906,0.095-1.906,0.136-3.623,0.136
	c-0.663,0-1.406,0-2.015-0.014l-0.014-0.852c0.608,0.013,1.393,0.026,2.068,0.026c1.109,0,2.204,0,3.299-0.095
	c-0.148-0.419-0.365-1.189-0.527-1.798c-0.54,0.055-1.148,0.081-1.703,0.081c-0.73,0-1.663,0-2.298-0.026v-0.839
	c0.811,0.041,1.703,0.041,2.284,0.041c0.486,0,1.041-0.027,1.555-0.067c-0.121-0.622-0.257-1.366-0.365-2.123l1.393,0.014
	c0,0.162-0.121,0.257-0.365,0.297c0.082,0.582,0.176,1.204,0.284,1.73c1.271-0.121,2.637-0.392,3.623-0.783l0.23,0.838
	c-0.987,0.365-2.325,0.622-3.678,0.771c0.176,0.717,0.352,1.352,0.514,1.771c1.434-0.148,2.988-0.459,4.218-0.892L629.275,179.136z
	 M626.896,186.287c-0.744,0.055-1.636,0.081-2.975,0.081c-2.189-0.014-3.894-0.716-3.866-2.244c0.014-0.797,0.717-1.649,1.595-2.136
	l0.608,0.622c-0.784,0.419-1.243,0.986-1.243,1.5c0,0.96,1.189,1.379,2.906,1.393c1.014,0,2.082-0.054,3.002-0.121L626.896,186.287z
	"/>
<path fill="#FFFFFF" d="M631.192,180.744c0.568-0.54,1.961-2.014,2.677-2.784c1.041-1.149,1.555-1.406,2.231-1.406
	c0.811,0,1.393,0.514,2.596,1.946c0.96,1.163,3.177,3.637,5.097,5.395l-0.717,0.838c-1.853-1.676-4.056-4.204-4.867-5.218
	c-1.148-1.406-1.568-1.947-2.122-1.947c-0.541,0-0.96,0.446-1.785,1.379c-0.459,0.527-1.555,1.73-2.136,2.38
	c0.014,0.176-0.04,0.311-0.148,0.378L631.192,180.744z"/>
</svg>
