<?xml version="1.0" encoding="utf-8"?>
<!-- Generator: Adobe Illustrator 15.1.0, SVG Export Plug-In  -->
<!DOCTYPE svg PUBLIC "-//W3C//DTD SVG 1.1//EN" "http://www.w3.org/Graphics/SVG/1.1/DTD/svg11.dtd" [
	<!ENTITY ns_flows "http://ns.adobe.com/Flows/1.0/">
]>
<svg version="1.1"
	 xmlns="http://www.w3.org/2000/svg" xmlns:xlink="http://www.w3.org/1999/xlink" xmlns:a="http://ns.adobe.com/AdobeSVGViewerExtensions/3.0/"
	 x="0px" y="0px" width="355px" height="358px" viewBox="0 0 355 358" overflow="visible" enable-background="new 0 0 355 358"
	 xml:space="preserve">
<defs>
</defs>
<circle fill="#FFFFFF" cx="173.412" cy="173.412" r="173.412"/>
<path d="M116.51,162.103c2.712-0.144,5.4-0.552,6.721-0.96c0.84-0.264,1.296-0.504,1.848-0.889l1.224,1.152
	c-2.28,1.513-6.529,6.553-6.529,11.665c0,4.009,2.808,5.377,5.905,5.377c5.977,0,5.977-4.537,5.977-6.648
	c0-3.024-0.384-6.577-1.584-9.121l1.56-0.744c1.392,3.384,4.225,6.024,6.577,6.841l-0.696,1.68c-1.92-0.672-4.008-2.664-4.825-4.176
	h-0.024c0.48,2.136,0.624,4.464,0.624,6.24v0.768c-0.144,4.104-2.712,6.817-7.608,6.817c-4.201,0-7.561-2.064-7.561-6.913
	c0-3.312,1.68-7.345,4.608-10.44c-1.248,0.384-3.312,0.792-5.568,0.936c-0.072,0.192-0.216,0.36-0.432,0.384L116.51,162.103z"/>
<path d="M140.462,162.103c2.712-0.168,5.424-0.576,6.72-0.96c0.816-0.264,1.296-0.504,1.848-0.889l1.224,1.152
	c-2.28,1.513-6.528,6.553-6.528,11.665c0,4.009,2.808,5.377,5.904,5.377c5.977,0,5.977-4.513,5.977-6.457
	c0-3.024-0.432-6.601-1.632-9.192l1.536-0.744c1.464,3.48,4.368,6,6.648,6.816l-0.696,1.656c-1.92-0.672-4.032-2.616-4.848-4.129
	h-0.024c0.48,2.161,0.648,4.513,0.648,6.313v0.672c-0.144,4.056-2.76,6.721-7.609,6.721c-4.2,0-7.561-2.064-7.561-6.913
	c0-3.312,1.752-7.465,4.561-10.44c-1.248,0.384-3.264,0.792-5.521,0.936c-0.072,0.192-0.216,0.36-0.432,0.384L140.462,162.103z
	 M158.607,163.326c-0.672-1.056-1.896-2.424-3.145-3.384l0.84-0.72c1.32,1.031,2.544,2.28,3.24,3.384L158.607,163.326z
	 M161.8,162.175c-0.72-1.152-1.896-2.376-3.121-3.312l0.84-0.769c1.344,1.057,2.496,2.185,3.192,3.36L161.8,162.175z"/>
<path d="M184.12,167.335c-2.16,0.744-4.776,1.2-7.249,1.488c0.744,1.296,2.209,3.096,3.961,3.769l-0.961,1.368
	c-0.336-0.168-0.959-0.456-1.392-0.721c-0.528-0.191-1.704-0.359-2.832-0.359c-0.336,0-0.672,0.023-0.984,0.048l-0.336-1.32
	c0.816-0.048,1.992,0,2.688,0.096c-0.648-0.696-1.416-1.728-1.896-2.712c-1.608,0.168-3.384,0.24-6.433,0.24
	c-1.176,0-2.496,0-3.576-0.024l-0.024-1.512c1.08,0.023,2.472,0.048,3.672,0.048c1.968,0,3.912,0,5.856-0.168
	c-0.264-0.744-0.648-2.112-0.936-3.192c-0.96,0.096-2.041,0.144-3.024,0.144c-1.296,0-2.952,0-4.081-0.048v-1.488
	c1.44,0.072,3.024,0.072,4.057,0.072c0.864,0,1.848-0.048,2.76-0.12c-0.216-1.104-0.456-2.424-0.648-3.769l2.472,0.024
	c0,0.288-0.216,0.456-0.648,0.528c0.144,1.032,0.312,2.136,0.504,3.072c2.256-0.216,4.681-0.696,6.433-1.393l0.408,1.488
	c-1.752,0.648-4.129,1.104-6.529,1.368c0.312,1.272,0.624,2.4,0.912,3.145c2.544-0.265,5.304-0.816,7.489-1.584L184.12,167.335z
	 M179.896,180.032c-1.319,0.096-2.904,0.144-5.28,0.144c-3.889-0.023-6.913-1.271-6.865-3.984c0.024-1.416,1.272-2.928,2.833-3.792
	l1.08,1.104c-1.392,0.744-2.208,1.752-2.208,2.664c0,1.704,2.112,2.448,5.161,2.472c1.8,0,3.696-0.096,5.328-0.216L179.896,180.032z
	"/>
<path d="M199.527,180.849c-2.424-2.833-6.168-6.385-9.408-8.93c-1.201-0.96-1.633-1.632-1.633-2.496
	c0-0.695,0.385-1.368,1.271-2.184c2.186-2.017,6.289-5.905,8.594-8.257l2.04,1.344c-0.048,0.048-0.216,0.24-0.528,0.24
	c-0.096,0-0.191-0.024-0.288-0.048c-2.399,2.304-6.145,5.568-8.112,7.416c-0.576,0.553-1.032,1.032-1.032,1.417
	c0,0.407,0.433,0.888,1.272,1.512c3.168,2.448,6.553,5.545,9.48,8.713L199.527,180.849z"/>
<path d="M203.918,179.36c1.776-5.089,4.729-13.586,5.665-16.13c0.456-1.296,1.08-3.12,1.248-3.72l2.593,0.672
	c-0.121,0.336-0.457,0.456-0.938,0.456c-1.319,3.288-3.359,8.904-4.248,11.305h0.024c1.416-1.729,3.576-2.952,5.257-2.952
	c2.088,0,3.096,1.416,3.023,3.648l-0.072,2.856c-0.023,1.8,0.937,2.784,2.497,2.784c2.16,0,4.152-2.473,5.257-6.601
	c0.479,0.336,1.056,0.647,1.56,0.888c-1.32,4.584-3.696,7.465-6.889,7.465c-2.544,0-4.2-1.536-4.2-3.984
	c0-0.456,0.072-2.664,0.072-3.168c0-1.513-0.625-2.305-1.681-2.305c-2.761,0-5.544,4.009-6.145,5.568
	c-0.336,0.84-0.864,2.376-1.319,3.769L203.918,179.36z"/>
</svg>
