<?xml version="1.0" encoding="utf-8"?>
<!-- Generator: Adobe Illustrator 15.1.0, SVG Export Plug-In  -->
<!DOCTYPE svg PUBLIC "-//W3C//DTD SVG 1.1//EN" "http://www.w3.org/Graphics/SVG/1.1/DTD/svg11.dtd" [
	<!ENTITY ns_flows "http://ns.adobe.com/Flows/1.0/">
]>
<svg version="1.1"
	 xmlns="http://www.w3.org/2000/svg" xmlns:xlink="http://www.w3.org/1999/xlink" xmlns:a="http://ns.adobe.com/AdobeSVGViewerExtensions/3.0/"
	 x="0px" y="0px" width="355px" height="358px" viewBox="0 0 355 358" overflow="visible" enable-background="new 0 0 355 358"
	 xml:space="preserve">
<defs>
</defs>
<circle fill="#FFFFFF" cx="173.412" cy="173.412" r="173.412"/>
<path d="M136.342,162.967c-0.528-0.336-1.68-0.84-3.216-0.84c-2.544,0-3.504,1.56-3.504,2.88c0,1.8,1.104,2.712,3.552,3.744
	c2.952,1.248,4.464,2.761,4.464,5.377c0,2.904-2.112,5.136-6.049,5.136c-1.656,0-3.456-0.504-4.368-1.151l0.552-1.656
	c0.984,0.647,2.448,1.128,3.936,1.128c2.448,0,3.889-1.32,3.889-3.288c0-1.801-0.984-2.904-3.36-3.864
	c-2.76-1.032-4.632-2.641-4.632-5.161c0-2.784,2.256-4.824,5.592-4.824c1.728,0,3.048,0.433,3.744,0.864L136.342,162.967z"/>
<path d="M149.327,175.88c0,1.08,0.024,2.208,0.192,3.12h-1.824l-0.192-1.68h-0.072c-0.672,1.031-2.016,1.968-3.864,1.968
	c-2.496,0-3.816-1.824-3.816-3.721c0-3.144,2.736-4.848,7.585-4.824c0-1.104,0-3.601-2.977-3.601c-1.128,0-2.304,0.312-3.192,0.937
	l-0.48-1.368c1.056-0.696,2.521-1.104,3.984-1.104c3.696,0,4.657,2.616,4.657,5.209V175.88z M147.358,172.207
	c-2.472,0-5.568,0.36-5.568,3.121c0,1.68,1.056,2.424,2.256,2.424c1.944,0,3.312-1.488,3.312-3.072V172.207z"/>
<path d="M163.03,165.919l-3.48,9.265c-1.56,4.248-2.664,6.696-4.296,8.232c-1.104,1.009-2.184,1.416-2.664,1.536l-0.552-1.68
	c3.048-1.128,4.225-4.44,4.225-4.704c0-0.12-0.048-0.312-0.144-0.553l-4.632-12.097h2.184l2.856,7.944
	c0.336,0.912,0.624,1.944,0.84,2.736h0.072c0.216-0.792,0.528-1.776,0.84-2.784l2.64-7.896H163.03z"/>
<path d="M172.342,169.207c1.728,0.408,3.769,1.849,3.769,4.608c0,1.632-0.624,2.784-1.464,3.601c-1.224,1.2-3.192,1.728-5.953,1.728
	c-1.512,0-2.64-0.119-3.384-0.191v-17.978c1.008-0.216,2.448-0.384,3.937-0.384c2.256,0,3.744,0.432,4.824,1.344
	c0.864,0.744,1.368,1.8,1.368,3.168c0,1.801-1.224,3.36-3.096,4.032V169.207z M169.438,168.535c2.424,0,3.984-1.393,3.984-3.265
	v-0.023c0-2.16-1.584-3.097-4.08-3.097c-1.056,0-1.68,0.072-2.041,0.168v6.217H169.438z M167.301,177.439
	c0.456,0.097,1.104,0.12,1.944,0.12c2.52,0,4.776-0.983,4.776-3.744c0-2.736-2.376-3.744-4.8-3.744h-1.92V177.439z"/>
<path d="M190.27,172.352c0,4.872-3.216,6.937-6.12,6.937c-3.36,0-5.952-2.521-5.952-6.745c0-4.464,2.784-6.937,6.12-6.937
	C187.895,165.606,190.27,168.343,190.27,172.352z M184.246,167.167c-2.833,0-4.009,2.784-4.009,5.305
	c0,2.904,1.608,5.256,3.96,5.256c2.377,0,4.033-2.352,4.033-5.304C188.23,170.096,187.102,167.167,184.246,167.167z"/>
<path d="M204.406,172.352c0,4.872-3.217,6.937-6.121,6.937c-3.36,0-5.952-2.521-5.952-6.745c0-4.464,2.784-6.937,6.12-6.937
	C202.029,165.606,204.406,168.343,204.406,172.352z M198.381,167.167c-2.832,0-4.008,2.784-4.008,5.305
	c0,2.904,1.607,5.256,3.961,5.256c2.375,0,4.031-2.352,4.031-5.304C202.365,170.096,201.238,167.167,198.381,167.167z"/>
<path d="M217.894,179h-1.992v-7.729c0-2.137-0.769-4.009-3.048-4.009c-1.705,0-3.433,1.44-3.433,3.721V179h-1.992v-9.721
	c0-1.345-0.048-2.328-0.097-3.385h1.777l0.119,2.137h0.049c0.647-1.272,2.16-2.425,4.199-2.425c1.633,0,4.417,0.984,4.417,5.425V179
	z"/>
</svg>
