<?xml version="1.0" encoding="utf-8"?>
<!-- Generator: Adobe Illustrator 15.1.0, SVG Export Plug-In  -->
<!DOCTYPE svg PUBLIC "-//W3C//DTD SVG 1.1//EN" "http://www.w3.org/Graphics/SVG/1.1/DTD/svg11.dtd" [
	<!ENTITY ns_flows "http://ns.adobe.com/Flows/1.0/">
]>
<svg version="1.1"
	 xmlns="http://www.w3.org/2000/svg" xmlns:xlink="http://www.w3.org/1999/xlink" xmlns:a="http://ns.adobe.com/AdobeSVGViewerExtensions/3.0/"
	 x="0px" y="0px" width="842px" height="595px" viewBox="0 0 842 595" overflow="visible" enable-background="new 0 0 842 595"
	 xml:space="preserve">
<defs>
</defs>
<path fill="#FFFFFF" d="M841.89,583.28c0,6.628-5.372,12-12,12H12c-6.627,0-12-5.372-12-12V12C0,5.373,5.373,0,12,0h817.89
	c6.628,0,12,5.373,12,12V583.28z"/>
<path fill="#F15A22" stroke="#F15A22" stroke-width="3" stroke-linecap="round" stroke-linejoin="round" stroke-miterlimit="10" d="
	M288.662,457.295c-2.676,1.293-7.594,2.934-14.754,2.934c-13.717,0-21.914-9.66-21.914-23.727c0-14.752,8.283-25.363,20.965-25.363
	c14.495,0,18.204,13.287,18.204,21.482c0,1.639-0.087,2.848-0.173,3.969h-32.008c0.086,13.027,7.506,17.945,15.961,17.945
	c5.867,0,9.404-1.209,12.338-2.416L288.662,457.295z M284.089,431.238c0.087-6.383-2.589-14.664-11.819-14.664
	c-8.629,0-12.424,8.195-13.115,14.664H284.089z"/>
<path fill="#F15A22" stroke="#F15A22" stroke-width="3" stroke-linecap="round" stroke-linejoin="round" stroke-miterlimit="10" d="
	M337.315,412.262l-12.511,33.301c-5.606,15.27-9.576,24.068-15.442,29.592c-3.97,3.623-7.851,5.09-9.577,5.521l-1.984-6.039
	c10.957-4.055,15.184-15.961,15.184-16.908c0-0.434-0.172-1.123-0.517-1.986l-16.65-43.48h7.851l10.268,28.557
	c1.207,3.277,2.241,6.986,3.018,9.834h0.26c0.776-2.848,1.898-6.385,3.02-10.008l9.49-28.383H337.315z"/>
<path fill="#F15A22" stroke="#F15A22" stroke-width="3" stroke-linecap="round" stroke-linejoin="bevel" stroke-miterlimit="10" d="
	M396.51,335.059c10.432,2.463,22.746,11.156,22.746,27.818c0,9.854-3.766,16.809-8.838,21.732
	c-7.391,7.246-19.27,10.432-35.932,10.432c-9.131,0-15.939-0.723-20.43-1.158v-108.52c6.084-1.304,14.777-2.318,23.76-2.318
	c13.621,0,22.604,2.608,29.125,8.113c5.213,4.491,8.258,10.868,8.258,19.125c0,10.867-7.391,20.285-18.689,24.342V335.059z
	 M378.977,331.004c14.633,0,24.051-8.406,24.051-19.707v-0.146c0-13.037-9.561-18.687-24.629-18.687
	c-6.377,0-10.143,0.433-12.316,1.013v37.528H378.977z M366.082,384.756c2.752,0.578,6.664,0.723,11.734,0.723
	c15.215,0,28.834-5.939,28.834-22.602c0-16.516-14.344-22.602-28.979-22.602h-11.59V384.756z"/>
<path fill="#F15A22" stroke="#F15A22" stroke-width="3" stroke-linecap="round" stroke-linejoin="bevel" stroke-miterlimit="10" d="
	M504.734,354.039c0,29.414-19.418,41.873-36.947,41.873c-20.285,0-35.934-15.213-35.934-40.715
	c0-26.949,16.807-41.871,36.947-41.871C490.389,313.326,504.734,329.842,504.734,354.039z M468.365,322.744
	c-17.096,0-24.195,16.809-24.195,32.02c0,17.531,9.707,31.73,23.908,31.73c14.342,0,24.338-14.199,24.338-32.02
	C492.416,340.42,485.607,322.744,468.365,322.744z"/>
<path fill="#F15A22" stroke="#F15A22" stroke-width="3" stroke-linecap="round" stroke-linejoin="bevel" stroke-miterlimit="10" d="
	M590.066,354.039c0,29.414-19.416,41.873-36.945,41.873c-20.285,0-35.934-15.213-35.934-40.715
	c0-26.949,16.807-41.871,36.945-41.871C575.721,313.326,590.066,329.842,590.066,354.039z M553.699,322.744
	c-17.096,0-24.195,16.809-24.195,32.02c0,17.531,9.707,31.73,23.906,31.73c14.342,0,24.34-14.199,24.34-32.02
	C577.75,340.42,570.939,322.744,553.699,322.744z"/>
<path fill="#F15A22" stroke="#F15A22" stroke-miterlimit="10" d="M649.258,136.061c-0.709,4.466,2.338,8.655,6.805,9.36
	c4.463,0.707,8.652-2.34,9.359-6.804c0.707-4.465-2.342-8.654-6.803-9.36C654.154,128.552,649.961,131.595,649.258,136.061z"/>
<circle fill="#F15A22" stroke="#F15A22" stroke-miterlimit="10" cx="619.806" cy="131.401" r="8.181"/>
<path fill="#F15A22" stroke="#F15A22" stroke-miterlimit="10" d="M646.674,136.126l-16.535-2.616c0,0,1.854-11.132-8.627-12.885
	c-10.484-1.753-12.109,9.13-12.109,9.13l-3.158-0.5c0,0-3.082-2.202-2.666-4.231c0.416-2.027,1.637-6.121,3.871-10.623
	c2.236-4.505,5.279-8.688,6.982-10.419c1.701-1.729,10.014-7.938,17.023-7.688c7.006,0.251,14.943,0.651,18.834,3.741
	c3.891,3.094,6.154,6.214,7.309,8.583c1.146,2.373,2.65,6.706,2.65,6.706l10.115,1.695c0,0,6.246,2.035,7.312,7.348
	c1.062,5.309,0.232,11.178,0.232,11.178s-2.006,4.253-5.703,4.145c-3.697-0.11-4.348-0.211-4.348-0.211s1.363-11.02-8.828-12.825
	C648.838,124.852,646.674,136.126,646.674,136.126z"/>
<path fill="#FFFFFF" stroke="#F15A22" stroke-miterlimit="10" d="M652.605,114.877l-18.318-1.564l1.881-11.894l5.664,0.897
	c0,0,5.508,1.919,7.307,4.394C650.938,109.185,652.605,114.877,652.605,114.877z"/>
<path fill="#FFFFFF" stroke="#F15A22" stroke-miterlimit="10" d="M630.557,101.39l-1.824,11.52l-12.729-2.014
	c0,0,3.143-5.408,5.402-6.477C623.674,103.348,627.012,101.498,630.557,101.39z"/>
<path fill="#F15A22" stroke="#F15A22" stroke-miterlimit="10" d="M272.138,139.438l-32.383,8.72c0,0-1.942-7.153-8.792-5.31
	c-6.85,1.845-6.154,9.332-6.154,9.332l-17.282,4.654l-7.165-26.625c0,0,0.084-4.029,1.191-5.498
	c1.105-1.465,2.826-3.763,4.695-4.267c1.868-0.505,77.377-20.833,77.377-20.833s1.949-0.191,2.527,1.323
	c0.574,1.517,8.346,16.122,8.346,16.122l4.106,15.259l-11.946,3.378c0,0-2.295-6.066-8.68-4.348
	C271.597,133.062,272.138,139.438,272.138,139.438z"/>
<polygon fill="#FFFFFF" stroke="#F15A22" stroke-miterlimit="10" points="277.864,105.505 284.233,129.171 292.797,126.864 
	290.702,119.083 282.849,104.163 "/>
<polygon fill="#FFFFFF" stroke="#F15A22" stroke-miterlimit="10" points="259.183,110.535 262.367,122.369 276.689,118.511 
	273.672,107.301 273.507,106.681 "/>
<polygon fill="#FFFFFF" stroke="#F15A22" stroke-miterlimit="10" points="240.811,115.48 243.998,127.313 258.321,123.459 
	255.301,112.25 255.132,111.626 "/>
<polygon fill="#FFFFFF" stroke="#F15A22" stroke-miterlimit="10" points="222.127,120.511 225.312,132.343 239.633,128.486 
	236.619,117.275 236.45,116.655 "/>
<path fill="#FFFFFF" stroke="#F15A22" stroke-miterlimit="10" d="M206.63,137.37l14.638-3.938l-3.189-11.833l-9.962,2.683
	c0,0-2.136,0.743-2.624,2.044c-0.486,1.298-1.125,2.64-1.042,2.95C204.533,129.589,206.63,137.37,206.63,137.37z"/>
<path fill="#F15A22" stroke="#F15A22" stroke-miterlimit="10" d="M238.231,150.676c0.017,3.131-2.514,5.685-5.647,5.7
	c-3.133,0.012-5.684-2.516-5.697-5.651c-0.014-3.131,2.516-5.683,5.648-5.698C235.667,145.015,238.218,147.543,238.231,150.676z"/>
<path fill="#F15A22" stroke="#F15A22" stroke-miterlimit="10" d="M285.434,138.82c0.015,3.13-2.515,5.682-5.648,5.698
	c-3.136,0.014-5.686-2.515-5.701-5.647c-0.014-3.135,2.516-5.686,5.646-5.7C282.867,133.158,285.418,135.685,285.434,138.82z"/>
<path fill="none" stroke="#F15A22" stroke-width="20" stroke-linecap="round" stroke-linejoin="round" stroke-miterlimit="10" d="
	M135.658,489.234l28.943-12.834l25.629-17.121c0,0,46.046-30.982,49.382-65.107c3.337-34.123-60.165-35.322-60.165-35.322
	l-83.871-2.396c0,0-52.719-2.396-55.115-50.322c-2.396-47.925,50.322-80.276,50.322-80.276s167.609-94.297,346.201-93.277
	c178.59,1.02,279.234,33.37,311.584,52.541c32.352,19.17,53.918,57.511,53.918,57.511l-97.051,192.902c0,0,15.576-227.649,0-200.091
	c-15.576,27.557-132.994,206.083-132.994,206.083"/>
<line fill="none" stroke="#FFFFFF" stroke-width="17" stroke-linecap="round" stroke-linejoin="round" stroke-miterlimit="10" x1="106.465" y1="203.534" x2="132.549" y2="224.534"/>
<line fill="none" stroke="#F15A22" stroke-width="2" stroke-linecap="round" stroke-linejoin="round" stroke-miterlimit="10" x1="121.004" y1="209.406" x2="111.018" y2="213.302"/>
<line fill="none" stroke="#F15A22" stroke-width="2" stroke-linecap="round" stroke-linejoin="round" stroke-miterlimit="10" x1="120.066" y1="218.87" x2="129.955" y2="215.044"/>
<line fill="none" stroke="#F15A22" stroke-width="2" stroke-linecap="round" stroke-linejoin="round" stroke-miterlimit="10" x1="125.42" y1="212.407" x2="114.832" y2="216.55"/>
<line fill="none" stroke="#F15A22" stroke-width="2" stroke-linecap="round" stroke-linejoin="round" stroke-miterlimit="10" x1="116.451" y1="206.582" x2="106.465" y2="210.476"/>
</svg>
