<?xml version="1.0" encoding="utf-8"?>
<!-- Generator: Adobe Illustrator 15.1.0, SVG Export Plug-In  -->
<!DOCTYPE svg PUBLIC "-//W3C//DTD SVG 1.1//EN" "http://www.w3.org/Graphics/SVG/1.1/DTD/svg11.dtd" [
	<!ENTITY ns_flows "http://ns.adobe.com/Flows/1.0/">
]>
<svg version="1.1"
	 xmlns="http://www.w3.org/2000/svg" xmlns:xlink="http://www.w3.org/1999/xlink" xmlns:a="http://ns.adobe.com/AdobeSVGViewerExtensions/3.0/"
	 x="0px" y="0px" width="842px" height="595px" viewBox="-42.032 -51.838 842 595"
	 overflow="visible" enable-background="new -42.032 -51.838 842 595" xml:space="preserve">
<defs>
</defs>
<path fill="#FFFFFF" d="M8.459,9.287C8.171,8.315,7.487,6.839,6.767,5.615H5.075C4.067,7.127,2.916,8.531,1.8,9.575
	C1.368,9.179,0.54,8.603,0,8.279c2.016-1.728,3.995-4.715,5.184-7.667l2.771,0.936c-0.108,0.18-0.36,0.324-0.756,0.288
	c-0.252,0.612-0.576,1.188-0.9,1.8h9.936v1.98H9.179c0.612,1.044,1.152,2.231,1.439,3.023L8.459,9.287z M14.398,19.365H4.607v14.866
	H2.376V10.042h12.022V19.365z M12.166,11.698H4.607v2.16h7.559V11.698z M4.607,17.673h7.559v-2.195H4.607V17.673z M23.433,31.244
	H12.166v1.404h-2.123V21.273h13.39V31.244z M21.346,22.929h-9.18v2.52h9.18V22.929z M12.166,29.624h9.18v-2.592h-9.18V29.624z
	 M22.245,1.476C22.173,1.691,21.885,1.8,21.489,1.8c-0.288,0.612-0.576,1.224-0.936,1.835h12.778v1.98h-8.459
	c0.828,1.044,1.584,2.196,1.979,3.06l-2.124,0.72c-0.468-1.044-1.476-2.556-2.483-3.779h-3.023c-1.08,1.404-2.304,2.7-3.563,3.671
	c-0.468-0.396-1.332-0.9-1.944-1.224c2.304-1.656,4.536-4.464,5.724-7.451L22.245,1.476z M31.136,10.042v21.273
	c0,2.7-1.115,2.952-6.947,2.879c-0.071-0.612-0.432-1.583-0.756-2.195c1.26,0.036,2.448,0.072,3.312,0.072
	c1.872,0,2.088,0,2.088-0.756V19.365H18.754v-9.323H31.136z M28.832,11.698h-7.847v2.16h7.847V11.698z M20.985,17.673h7.847v-2.195
	h-7.847V17.673z"/>
<path fill="#FFFFFF" d="M69.044,25.305v2.304h-15.19v6.659H51.37v-6.659H36.468v-2.304H51.37v-3.492H39.959V7.271h3.456
	c-0.72-1.44-2.231-3.6-3.527-5.147l2.016-0.936c1.439,1.548,3.023,3.708,3.743,5.111c-0.863,0.504-1.332,0.756-1.764,0.972h8.099
	c-0.432-1.548-1.619-3.924-2.808-5.724l2.16-0.792c1.224,1.764,2.52,4.104,2.987,5.651L52.27,7.271h6.695
	c1.368-1.764,3.06-4.5,4.031-6.443l2.952,1.152c-0.145,0.216-0.396,0.324-0.792,0.324c-0.864,1.476-2.195,3.383-3.42,4.967h4.067
	v14.542h-11.95v3.492H69.044z M42.299,9.395v4.14h9.071v-4.14H42.299z M42.299,19.725h9.071v-4.211h-9.071V19.725z M63.356,13.534
	v-4.14h-9.503v4.14H63.356z M63.356,19.725v-4.211h-9.503v4.211H63.356z"/>
<path fill="#FFFFFF" d="M80.171,3.456c-0.108,0.396-0.468,0.612-1.188,0.576c-1.26,5.867-1.908,12.311-1.908,16.198
	c0,2.699,0.108,5.435,0.468,7.127c0.685-1.764,2.232-5.543,2.736-6.803l1.512,1.584c-1.477,3.635-2.556,5.687-3.06,7.307
	c-0.181,0.612-0.288,1.188-0.288,1.691c0,0.396,0.071,0.756,0.18,1.116l-2.556,0.468c-1.151-3.419-1.584-7.595-1.584-12.382
	c0-4.715,0.756-11.303,1.908-17.53L80.171,3.456z M103.1,29.768c-1.296,0.072-2.627,0.108-3.959,0.108
	c-2.556,0-4.968-0.144-6.695-0.396c-4.428-0.648-6.479-3.096-6.479-5.975c0-2.484,1.368-4.571,3.384-6.947l2.34,1.008
	c-1.8,1.872-3.06,3.6-3.06,5.651c0,4.176,6.119,4.176,9.862,4.176c1.513,0,3.132-0.072,4.644-0.18L103.1,29.768z M86.435,7.775
	c4.643-0.108,10.906-0.54,15.693-1.368l0.216,2.52c-4.463,0.756-11.698,1.224-15.838,1.332L86.435,7.775z"/>
<path fill="#FFFFFF" d="M108.468,7.775h32.648v2.124h-32.648V7.775z M113.724,34.231V22.785h22.029v11.302h-2.448v-1.476h-17.206
	v1.62H113.724z M135.284,12.814v2.052h-21.165v-2.052H135.284z M114.119,19.797v-2.052h21.165v2.052H114.119z M134.816,2.843v2.016
	h-20.157V2.843H134.816z M133.305,24.909h-17.206v5.579h17.206V24.909z"/>
<path fill="#FFFFFF" d="M148.535,14.038c5.399-1.476,12.203-2.952,14.902-2.952c5.399,0,8.567,2.879,8.567,8.207v0.288
	c-0.072,6.551-5.22,11.338-15.551,14.11c-0.323-0.612-1.08-1.583-1.619-2.196c9.215-2.195,14.434-6.515,14.434-11.986
	c0-3.456-1.655-5.939-5.939-5.939c-2.879,0-8.603,1.295-13.03,2.843c0.036,0.288-0.323,0.648-0.684,0.828L148.535,14.038z
	 M153.575,1.583c4.931,0.432,10.618,1.476,14.47,2.808l-0.756,2.52c-3.815-1.296-9.646-2.484-14.326-2.88L153.575,1.583z"/>
<path fill="#FFFFFF" d="M208.112,13.57c-0.072,0.036-0.18,0.036-0.288,0.036c-0.252,0-0.54-0.072-0.756-0.216
	c-10.69,3.131-20.373,7.847-20.337,12.67c0,3.456,3.815,4.644,9.646,4.644c5.795,0,10.223-0.432,12.742-0.828l0.216,2.628
	c-3.312,0.432-8.675,0.648-12.886,0.648c-7.127,0-12.311-1.656-12.347-6.947c-0.036-3.852,3.815-7.235,9.467-10.151
	c-1.224-2.196-1.656-6.371-1.656-14.506l3.96,0.324c-0.036,0.468-0.396,0.756-1.116,0.864c-0.036,6.299,0.181,10.223,1.188,12.167
	c3.383-1.583,7.271-3.023,11.23-4.319L208.112,13.57z"/>
<path fill="#FFFFFF" d="M249.116,5.579h-11.519v5.651h9.719v22.821h-2.448v-2.124h-24.081v2.304h-2.34V11.23h8.64V5.579h-10.655
	v-2.34h32.685V5.579z M244.868,29.66V13.498h-7.379v7.019c0,0.792,0.144,0.936,1.08,0.936h3.096c0.827,0,0.972-0.36,1.079-2.952
	c0.469,0.36,1.404,0.684,2.088,0.864c-0.288,3.42-0.899,4.248-2.879,4.248h-3.672c-2.556,0-3.132-0.648-3.132-3.06v-7.055h-5.688
	v1.584c0,3.456-1.151,7.883-5.975,10.906c-0.324-0.432-1.225-1.295-1.764-1.583c4.535-2.736,5.435-6.443,5.435-9.395v-1.512h-6.371
	V29.66H244.868z M235.149,11.23V5.579h-5.688v5.651H235.149z"/>
<path fill="#FFFFFF" d="M263.591,14.65c0.827-1.872,1.8-4.896,2.304-6.947l2.771,0.792c-0.072,0.216-0.324,0.324-0.756,0.36
	c-0.54,1.764-1.44,4.355-2.268,6.155h5.363v2.232h-18.97V15.01h12.67L263.591,14.65z M270.394,5.003v2.16h-17.422v-2.16h7.487V0.792
	l3.06,0.18c-0.036,0.252-0.252,0.432-0.72,0.504v3.527H270.394z M254.52,34.268V20.589h14.254v13.462h-2.339v-1.836h-9.611v2.052
	H254.52z M257.291,8.063c0.828,1.835,1.512,4.283,1.729,5.867l-2.124,0.504c-0.18-1.584-0.828-4.067-1.584-5.939L257.291,8.063z
	 M266.435,22.749h-9.611v7.307h9.611V22.749z M283.928,2.843l1.584,0.792c-0.036,0.18-0.18,0.288-0.324,0.36
	c-1.367,3.06-3.275,6.947-5.255,10.727c3.888,3.635,5.507,6.335,5.507,8.927c0,5.651-3.923,5.651-6.263,5.651
	c-0.54,0-1.116,0-1.656-0.036c-0.036-0.648-0.359-1.692-0.828-2.376c0.792,0.072,1.548,0.108,2.232,0.108
	c2.411,0,4.14-0.108,4.14-3.42c0-2.339-1.765-4.859-5.688-8.459c1.764-3.563,3.312-6.947,4.535-9.863h-7.163v28.977h-2.34V2.951
	h11.051L283.928,2.843z"/>
<path fill="#FFFFFF" d="M295.055,23.037l4.176-1.656l0.468,2.088c-3.743,1.728-7.739,3.419-10.259,4.5
	c0,0.288-0.144,0.504-0.396,0.612l-1.26-2.735c1.367-0.468,3.096-1.152,4.967-1.872v-11.95h-4.355V9.719h4.355V1.116l3.024,0.216
	c-0.036,0.252-0.252,0.396-0.721,0.468v7.919h4.067v2.304h-4.067V23.037z M304.486,28.796c0,1.979,0.468,2.447,2.987,2.447h9.179
	c2.16,0,2.52-1.008,2.808-5.327c0.576,0.432,1.512,0.828,2.195,0.972c-0.396,4.968-1.188,6.551-4.967,6.551h-9.287
	c-4.067,0-5.219-0.9-5.219-4.679V16.63l-3.636,1.548l-0.937-2.16l4.572-1.943V4.211l3.023,0.216
	c-0.036,0.252-0.252,0.432-0.72,0.504v8.135l5.219-2.231V0.792l2.987,0.18c-0.035,0.252-0.216,0.432-0.684,0.504v8.387l5.76-2.483
	l0.504-0.396l1.979,0.72c-0.036,0.144-0.18,0.288-0.36,0.396c0,6.839-0.107,12.526-0.396,13.895
	c-0.324,2.196-1.548,2.556-5.363,2.556c-0.108-0.684-0.288-1.584-0.576-2.16c0.9,0.072,2.16,0.072,2.556,0.072
	c0.576,0,0.972-0.18,1.152-1.044c0.216-0.9,0.287-5.363,0.287-11.411l-5.543,2.376v13.822h-2.304V13.39l-5.219,2.232V28.796z"/>
<path fill="#FFFFFF" d="M357.116,29.804v2.304h-28.725v2.196h-2.412V3.095h30.345v2.34h-27.933v24.369H357.116z M333.971,9.61
	c2.844,1.692,5.903,3.744,8.783,5.903c2.195-2.735,4.175-5.687,5.759-8.711c1.656,0.72,2.304,0.972,2.916,1.224
	c-0.108,0.252-0.468,0.36-0.9,0.288c-1.691,3.023-3.671,5.939-5.867,8.639c3.42,2.664,6.443,5.363,8.423,7.667l-1.907,1.8
	c-1.836-2.268-4.716-4.967-8.027-7.631c-3.168,3.6-6.695,6.731-10.331,9.179c-0.468-0.468-1.331-1.224-1.943-1.656
	c3.636-2.304,7.199-5.436,10.367-9.035c-2.916-2.232-6.012-4.392-8.928-6.155L333.971,9.61z"/>
<path fill="#FFFFFF" d="M368.171,3.456c-0.108,0.396-0.468,0.612-1.188,0.576c-1.26,5.867-1.908,12.311-1.908,16.198
	c0,2.699,0.108,5.435,0.468,7.127c0.685-1.764,2.232-5.543,2.736-6.803l1.512,1.584c-1.477,3.635-2.556,5.687-3.06,7.307
	c-0.181,0.612-0.288,1.188-0.288,1.691c0,0.396,0.071,0.756,0.18,1.116l-2.556,0.468c-1.151-3.419-1.584-7.595-1.584-12.382
	c0-4.715,0.756-11.303,1.908-17.53L368.171,3.456z M391.1,29.768c-1.296,0.072-2.627,0.108-3.959,0.108
	c-2.556,0-4.968-0.144-6.695-0.396c-4.428-0.648-6.479-3.096-6.479-5.975c0-2.484,1.368-4.571,3.384-6.947l2.34,1.008
	c-1.8,1.872-3.06,3.6-3.06,5.651c0,4.176,6.119,4.176,9.862,4.176c1.513,0,3.132-0.072,4.644-0.18L391.1,29.768z M374.435,7.775
	c4.643-0.108,10.906-0.54,15.693-1.368l0.216,2.52c-4.463,0.756-11.698,1.224-15.838,1.332L374.435,7.775z"/>
<path fill="#FFFFFF" d="M401.579,13.714V8.495c-1.151,1.332-2.411,2.556-3.636,3.563c-0.432-0.468-1.26-1.152-1.8-1.512
	c2.952-2.231,5.976-5.975,7.775-9.791l2.844,1.008c-0.108,0.216-0.36,0.36-0.792,0.288c-0.504,1.008-1.116,2.016-1.764,2.987h23.396
	v2.196h-3.851v6.479h5.255v2.196h-5.255v6.551h4.715v2.196h-31.46v-2.196h4.571V15.91h-5.111v-2.196H401.579z M403.091,26.96
	c-0.936,2.7-2.627,5.579-4.644,7.307l-2.231-0.972c1.943-1.512,3.672-4.283,4.607-6.947L403.091,26.96z M403.811,7.235v6.479h4.32
	V7.235H403.811z M403.811,15.91v6.551h4.32V15.91H403.811z M407.914,33.908c-0.035-1.692-0.323-4.5-0.756-6.659l2.196-0.216
	c0.504,2.124,0.899,4.896,0.936,6.515L407.914,33.908z M414.754,7.235h-4.5v6.479h4.5V7.235z M414.754,15.91h-4.5v6.551h4.5V15.91z
	 M416.877,33.943c-0.323-1.728-1.296-4.571-2.268-6.695l2.268-0.432c1.008,2.088,2.017,4.896,2.376,6.587L416.877,33.943z
	 M421.484,13.714V7.235h-4.607v6.479H421.484z M421.484,22.461V15.91h-4.607v6.551H421.484z M426.992,34.304
	c-0.9-1.944-3.023-5.076-4.859-7.307l2.231-0.792c1.872,2.196,4.031,5.219,5.004,7.199L426.992,34.304z"/>
<path fill="#FFFFFF" d="M441.251,15.73v1.764c1.26,1.008,5.075,4.644,5.939,5.543l-1.477,1.979
	c-0.756-1.116-2.879-3.456-4.463-5.075v14.254h-2.34V19.438c-1.62,3.779-3.779,7.631-5.831,9.898
	c-0.252-0.684-0.864-1.728-1.296-2.304c2.411-2.52,5.147-7.163,6.623-11.302h-6.155v-2.304h6.659V0.792l3.023,0.216
	c-0.036,0.252-0.216,0.396-0.684,0.468v11.951h6.371v2.304H441.251z M434.483,3.312c1.188,2.448,2.232,5.651,2.556,7.739
	l-2.052,0.576c-0.323-2.088-1.296-5.328-2.411-7.775L434.483,3.312z M448.126,4.067c-0.108,0.216-0.36,0.36-0.72,0.36
	c-0.828,2.196-2.232,5.471-3.348,7.487c-0.396-0.144-1.332-0.576-1.692-0.684c1.044-2.124,2.376-5.651,3.024-8.099L448.126,4.067z
	 M465.548,23.649l-4.932,0.864v9.719h-2.376v-9.287l-10.475,1.872l-0.432-2.268l10.906-1.908V0.864l3.096,0.216
	c-0.036,0.252-0.216,0.432-0.72,0.504v20.625l4.535-0.792L465.548,23.649z M450.43,12.886c2.268,1.476,4.896,3.708,6.155,5.292
	c-1.439,1.152-1.584,1.332-1.764,1.512c-1.224-1.584-3.815-3.888-6.083-5.436L450.43,12.886z M451.365,3.312
	c2.088,1.512,4.464,3.708,5.544,5.255l-1.8,1.439c-1.044-1.583-3.384-3.852-5.472-5.399L451.365,3.312z"/>
<path fill="#FFFFFF" d="M469.655,5.651c2.7-0.108,24.873-1.691,29.553-1.728l0.036,2.7c-0.468-0.036-0.9-0.036-1.332-0.036
	c-2.088,0-3.852,0.36-6.155,1.836c-5.399,3.239-10.618,9.035-10.618,13.678c0,5.04,3.527,8.027,12.454,9.179l-1.188,2.52
	c-10.223-1.476-14.039-5.291-14.039-11.698c0-5.075,5.004-11.23,11.591-15.37c-3.959,0.288-14.578,1.08-19.222,1.512
	c-0.107,0.288-0.504,0.54-0.792,0.576L469.655,5.651z M492.98,12.742c1.729,1.296,3.78,3.419,4.896,4.967l-1.367,1.116
	c-1.008-1.583-3.204-3.815-4.752-5.003L492.98,12.742z M496.868,9.575c1.764,1.296,3.852,3.383,4.896,4.967l-1.368,1.08
	c-0.972-1.44-3.06-3.672-4.751-4.968L496.868,9.575z"/>
<path fill="#FFFFFF" d="M515.051,1.979c-0.072,0.18-0.36,0.324-0.792,0.252c-2.088,2.628-5.831,6.047-9.035,8.315
	c-0.288-0.54-0.972-1.476-1.403-1.944c3.023-1.979,6.587-5.183,8.423-7.811L515.051,1.979z M509.543,34.231V18.394
	c-1.367,1.512-2.735,2.916-4.104,4.104c-0.323-0.468-1.079-1.44-1.548-1.872c3.42-2.843,7.38-7.559,9.863-12.058l2.808,1.152
	c-0.108,0.216-0.396,0.36-0.828,0.288c-1.08,1.8-2.34,3.636-3.707,5.399l0.647,0.216c-0.072,0.216-0.288,0.396-0.72,0.468v18.142
	H509.543z M537.368,13.534v2.34h-5.724V31.1c0,3.023-1.152,3.095-8.423,3.095c-0.108-0.684-0.432-1.656-0.792-2.375
	c1.584,0.036,3.06,0.072,4.176,0.072c2.339,0,2.591,0,2.591-0.828v-15.19H516.67v-2.34H537.368z M536,3.06v2.304h-17.962V3.06H536z"
	/>
<path fill="#FFFFFF" d="M562.677,33.943c-3.635-4.247-9.251-9.575-14.11-13.39c-1.8-1.44-2.447-2.448-2.447-3.744
	c0-1.044,0.576-2.052,1.908-3.275c3.275-3.024,9.431-8.855,12.886-12.382l3.06,2.016c-0.071,0.072-0.323,0.36-0.792,0.36
	c-0.144,0-0.287-0.036-0.432-0.072c-3.6,3.456-9.215,8.351-12.166,11.123c-0.864,0.828-1.548,1.548-1.548,2.124
	c0,0.612,0.647,1.332,1.907,2.268c4.752,3.672,9.827,8.315,14.219,13.066L562.677,33.943z"/>
<path fill="#FFFFFF" d="M604.688,30.524c-3.168,0.576-7.343,0.828-10.942,0.828c-3.024,0-5.651-0.18-7.056-0.468
	c-4.355-0.972-6.227-3.708-6.227-6.875c0-2.771,1.547-5.543,3.671-7.703l2.088,1.08c-2.016,2.087-3.168,4.391-3.168,6.407
	c0,2.087,1.404,3.995,4.5,4.679c1.26,0.288,3.384,0.432,5.867,0.432c3.491,0,7.667-0.288,11.087-0.972L604.688,30.524z
	 M588.526,12.346c1.872-1.44,4.428-3.204,6.371-4.175V8.135c-2.735,0.324-8.999,0.468-12.994,0.432c0-0.684,0-1.872-0.036-2.52
	c0.792,0.036,14.614,0.252,20.518-1.152l0.288,2.664c-4.284,0.504-9.791,4.248-12.095,6.083L588.526,12.346z"/>
<path fill="#FFFFFF" d="M640.112,13.57c-0.072,0.036-0.18,0.036-0.288,0.036c-0.252,0-0.54-0.072-0.756-0.216
	c-10.69,3.131-20.373,7.847-20.337,12.67c0,3.456,3.815,4.644,9.646,4.644c5.795,0,10.223-0.432,12.742-0.828l0.216,2.628
	c-3.312,0.432-8.675,0.648-12.886,0.648c-7.127,0-12.311-1.656-12.347-6.947c-0.036-3.852,3.815-7.235,9.467-10.151
	c-1.224-2.196-1.656-6.371-1.656-14.506l3.96,0.324c-0.036,0.468-0.396,0.756-1.116,0.864c-0.036,6.299,0.181,10.223,1.188,12.167
	c3.383-1.583,7.271-3.023,11.23-4.319L640.112,13.57z"/>
<path fill="#FFFFFF" d="M661.931,2.52c-0.072,0.432-0.505,0.612-1.188,0.648c-0.396,2.016-1.044,5.507-1.476,7.667
	c1.62-0.18,3.096-0.324,3.995-0.324c5.472-0.072,7.344,3.564,7.344,8.963c0,2.7-0.504,5.903-1.225,8.063
	c-1.115,3.672-3.419,5.436-6.407,5.436c-1.476,0-3.419-0.612-6.515-3.132c0.396-0.648,0.684-1.439,0.972-2.195
	c2.88,2.231,4.392,2.735,5.508,2.735c2.052,0,3.275-1.296,3.995-3.6c0.756-2.231,1.151-5.543,1.151-7.379
	c-0.035-4.104-1.367-6.551-4.967-6.515c-1.08,0-2.556,0.144-4.392,0.36c-1.8,7.343-3.924,13.642-7.379,19.438l-2.376-1.152
	c3.492-5.579,5.472-11.159,7.163-17.998c-1.836,0.216-4.463,0.54-6.407,0.864l-0.216-2.52c1.764-0.216,4.716-0.54,7.127-0.828
	c0.54-2.627,1.116-5.867,1.548-9.035L661.931,2.52z M670.281,1.404c1.728,1.332,3.779,3.491,4.823,5.039l-1.403,1.008
	c-1.009-1.548-3.168-3.815-4.752-5.003L670.281,1.404z M678.344,22.353c-1.188-5.184-4.031-9.539-7.343-12.274l2.088-1.404
	c3.563,2.987,6.659,7.487,7.847,12.706L678.344,22.353z M675.717,0c1.764,1.295,3.815,3.456,4.859,5.003l-1.404,1.044
	c-1.008-1.548-3.167-3.852-4.751-5.039L675.717,0z"/>
<path fill="#FFFFFF" d="M717.008,3.383v2.448h-4.571v24.765c0,1.836-0.468,2.7-1.8,3.132c-1.404,0.432-3.924,0.432-7.487,0.432
	c-0.18-0.72-0.684-1.908-1.044-2.628c1.656,0.072,3.275,0.108,4.571,0.108c3.132,0,3.276,0,3.276-1.08V5.831H684.54V3.383H717.008z
	 M703.149,24.945h-12.778v2.987h-2.376V11.446h15.154V24.945z M700.738,13.75h-10.367v8.891h10.367V13.75z"/>
<path fill="#FFFFFF" d="M729.251,1.583c-0.108,0.252-0.36,0.36-0.792,0.396c-0.864,2.124-2.124,4.932-3.348,7.199
	c2.556-0.072,5.399-0.18,8.279-0.288c-0.828-1.368-1.764-2.771-2.7-3.996l1.979-0.828c2.017,2.483,4.104,5.831,4.968,8.063
	l-2.088,0.972c-0.252-0.648-0.576-1.404-1.008-2.196c-5.039,0.36-10.223,0.612-13.534,0.756c-0.036,0.288-0.288,0.432-0.54,0.504
	l-0.792-2.843l2.952-0.072c1.331-2.448,2.844-5.939,3.671-8.459L729.251,1.583z M735.082,14.542v16.882
	c0,2.7-1.439,2.808-6.011,2.808c-0.145-0.648-0.505-1.62-0.864-2.268c1.08,0.036,2.052,0.072,2.771,0.072
	c1.548,0,1.728,0,1.728-0.648v-3.959h-8.207v6.911h-2.268V14.542H735.082z M732.706,16.63h-8.207v3.347h8.207V16.63z
	 M724.499,25.484h8.207v-3.563h-8.207V25.484z M749.156,14.506c1.476,0,1.728-0.612,1.872-4.319c0.54,0.432,1.512,0.792,2.231,0.972
	c-0.324,4.392-1.044,5.58-3.888,5.58h-6.515c-3.348,0-4.248-0.756-4.248-3.563V0.828l3.096,0.18
	c-0.036,0.252-0.216,0.432-0.684,0.504v5.615c3.239-1.08,6.659-2.412,8.782-3.528l1.836,1.98c-0.071,0.072-0.216,0.108-0.359,0.108
	c-0.108,0-0.216,0-0.324-0.036c-2.447,1.116-6.371,2.412-9.935,3.456v4.032c0,1.152,0.288,1.368,2.016,1.368H749.156z
	 M740.985,30.272c0,1.224,0.36,1.44,2.16,1.44h6.335c1.619,0,1.871-0.72,2.016-4.896c0.576,0.396,1.548,0.756,2.195,0.936
	c-0.288,4.859-1.008,6.119-4.031,6.119h-6.731c-3.383,0-4.319-0.72-4.319-3.563V17.817l3.096,0.18
	c-0.036,0.252-0.216,0.432-0.72,0.504v5.255c3.455-1.044,7.163-2.52,9.323-3.888l1.8,2.016c-0.108,0.072-0.217,0.108-0.396,0.108
	c-0.072,0-0.18,0-0.288-0.036c-2.411,1.368-6.659,2.808-10.438,3.852V30.272z"/>
<path fill="#FFFFFF" stroke="#FFFFFF" stroke-miterlimit="10" d="M157.151,243.911c-0.027,4.161,3.324,7.548,7.484,7.571
	c4.156,0.025,7.544-3.326,7.57-7.482c0.023-4.159-3.328-7.548-7.484-7.572C160.563,236.406,157.171,239.753,157.151,243.911z"/>
<path fill="#FFFFFF" stroke="#FFFFFF" stroke-miterlimit="10" d="M122.194,243.708c-0.026,4.159,3.326,7.548,7.482,7.573
	c4.157,0.021,7.547-3.326,7.569-7.485c0.026-4.156-3.327-7.547-7.485-7.571C125.606,236.2,122.216,239.551,122.194,243.708z"/>
<path fill="#FFFFFF" stroke="#FFFFFF" stroke-miterlimit="10" d="M154.811,244.33l-15.401-0.091c0,0,0.145-10.38-9.631-10.524
	c-9.777-0.143-9.748,9.981-9.748,9.981l-2.942-0.018c0,0-3.107-1.575-3.01-3.48c0.099-1.9,0.642-5.791,2.05-10.195
	c1.409-4.409,3.6-8.634,4.907-10.444c1.309-1.808,8.009-8.604,14.419-9.349c6.406-0.74,13.68-1.477,17.646,0.795
	c3.967,2.275,6.459,4.799,7.836,6.795c1.371,2,3.34,5.732,3.34,5.732l9.432,0.141c0,0,5.963,0.986,7.669,5.669
	c1.702,4.682,1.758,10.134,1.758,10.134s-1.233,4.146-4.612,4.559c-3.377,0.413-3.982,0.409-3.982,0.409s-0.287-10.209-9.805-10.441
	C155.217,233.776,154.811,244.33,154.811,244.33z"/>
<path fill="#58595B" stroke="#FFFFFF" stroke-miterlimit="10" d="M157.263,224.183l-16.877,1.113l0.063-11.077l5.276,0.032
	c0,0,5.275,0.983,7.254,2.984C154.956,219.237,157.263,224.183,157.263,224.183z"/>
<path fill="#58595B" stroke="#FFFFFF" stroke-miterlimit="10" d="M135.341,214.969l-0.062,10.729l-11.855-0.068
	c0,0,2.109-5.354,4.017-6.639C129.353,217.702,132.132,215.558,135.341,214.969z"/>
<circle fill="#FFFFFF" cx="356.184" cy="109.836" r="47.987"/>
<circle fill="#FFFFFF" cx="207.461" cy="309.319" r="47.987"/>
<circle fill="#FFFFFF" cx="497.218" cy="311.227" r="47.987"/>
<path fill="#58595B" d="M324.408,94.318c-0.847,2.153-2.062,4.085-3.479,5.465l-1.067-0.699c1.325-1.27,2.595-3.036,3.331-5.208
	L324.408,94.318z M328.327,91.447v8.759c0,2.061-1.619,2.042-4.361,2.006c-0.073-0.331-0.221-0.847-0.404-1.214
	c0.423,0.018,2.484,0,2.687,0c0.516,0,0.755-0.332,0.755-0.773v-8.778h-6.257v-1.233h6.257v-3.772l1.748,0.092
	c-0.019,0.184-0.147,0.332-0.424,0.35v3.331h6.22v1.233H328.327z M331.621,93.766c1.344,1.491,2.89,3.644,3.883,5.355l-1.178,0.681
	c-0.901-1.693-2.521-4.048-3.754-5.447L331.621,93.766z"/>
<path fill="#58595B" d="M338.28,93.361h15.365v1.307h-14.666c-0.11,0.184-0.35,0.313-0.589,0.35L338.28,93.361z"/>
<path fill="#58595B" d="M371.272,101.863c-0.276-0.625-0.607-1.288-0.976-1.951c-3.827,0.405-10.121,0.792-12.937,0.938
	c-0.055,0.184-0.184,0.331-0.35,0.368l-0.497-1.656c0.553-0.019,1.215-0.037,1.933-0.074c1.215-3.533,2.963-9.035,3.975-12.716
	l1.785,0.479c-0.073,0.166-0.258,0.258-0.533,0.258c-1.013,3.386-2.595,8.317-3.865,11.924c3.055-0.129,7.416-0.441,9.846-0.663
	c-0.957-1.583-2.172-3.257-3.275-4.49l1.104-0.626c1.933,2.116,4.141,5.613,5.079,7.619L371.272,101.863z"/>
<path fill="#58595B" d="M337.452,127.602c1.398-1.472,4.306-4.711,5.355-5.833c0.478-0.479,0.956-0.699,1.435-0.699
	c0.497,0,0.994,0.257,1.491,0.699c2.374,2.171,6.201,6.422,8.979,10.029l-1.104,1.012c-2.613-3.625-6.459-7.986-8.521-9.9
	c-0.312-0.294-0.552-0.46-0.791-0.46s-0.46,0.184-0.755,0.46c-0.864,0.938-3.552,4.03-4.784,5.355
	c0.019,0.037,0.019,0.092,0.019,0.129c0,0.147-0.074,0.294-0.185,0.387L337.452,127.602z M351.401,118.272
	c1.122,0,2.042,0.92,2.042,2.061s-0.92,2.061-2.042,2.061c-1.16,0-2.08-0.92-2.08-2.061
	C349.321,119.155,350.278,118.272,351.401,118.272z M352.836,120.333c0-0.81-0.644-1.472-1.435-1.472
	c-0.811,0-1.473,0.663-1.473,1.472c0,0.792,0.662,1.454,1.473,1.454C352.229,121.787,352.836,121.087,352.836,120.333z"/>
<path fill="#58595B" d="M356.68,125.559h15.366v1.307h-14.667c-0.11,0.184-0.35,0.313-0.589,0.35L356.68,125.559z"/>
<path fill="#58595B" d="M375.815,123.866c1.656,0.368,3.717,1.067,4.95,1.656l-0.553,1.159c-1.214-0.589-3.33-1.325-4.95-1.693
	L375.815,123.866z M376.919,132.865c5.907-1.987,10.085-5.226,12.514-10.71c0.276,0.239,0.828,0.644,1.123,0.828
	c-2.467,5.429-6.827,8.888-12.385,10.857c0.055,0.166-0.056,0.386-0.203,0.46L376.919,132.865z M377.84,119.303
	c1.655,0.441,3.68,1.178,4.932,1.803l-0.607,1.123c-1.307-0.663-3.221-1.398-4.877-1.859L377.84,119.303z M386.451,118.695
	c0.755,0.644,1.804,1.785,2.374,2.668l-0.718,0.534c-0.515-0.792-1.582-2.024-2.337-2.687L386.451,118.695z M389.01,117.573
	c0.754,0.644,1.803,1.803,2.392,2.65l-0.718,0.534c-0.552-0.81-1.582-1.987-2.337-2.65L389.01,117.573z"/>
<path fill="#58595B" d="M188.858,311.035h-6.79c1.729,2.43,4.618,4.803,7.231,5.963c-0.312,0.258-0.699,0.736-0.92,1.066
	c-2.558-1.27-5.3-3.68-7.14-6.238v7.361h-1.288v-7.213c-1.822,2.557-4.527,4.857-7.03,6.146c-0.221-0.332-0.625-0.811-0.901-1.068
	c2.613-1.178,5.466-3.533,7.177-6.018h-6.717v-1.232h7.472v-3.387h-6.146v-1.214h6.146v-3.092l1.674,0.093
	c-0.018,0.129-0.128,0.221-0.386,0.258v2.741h6.349v1.214h-6.349v3.387h7.618V311.035z"/>
<path fill="#58595B" d="M207.313,311.569h-6.699c1.73,2.337,4.564,4.618,7.122,5.741c-0.295,0.239-0.699,0.736-0.901,1.086
	c-2.559-1.27-5.337-3.662-7.177-6.201v6.975h-1.288v-6.865c-1.841,2.504-4.564,4.767-7.085,6.018
	c-0.203-0.312-0.589-0.791-0.902-1.049c2.559-1.104,5.355-3.367,7.085-5.704h-6.698v-1.178h7.601v-4.821h-6.699v-1.196h6.699v-2.282
	l1.655,0.111c-0.018,0.129-0.11,0.221-0.367,0.258v1.913h6.863v1.196h-6.863v4.821h7.655V311.569z M194.965,310.152
	c-0.257-0.976-0.993-2.503-1.729-3.625l1.086-0.405c0.754,1.104,1.546,2.577,1.821,3.552L194.965,310.152z M205.418,306.564
	c-0.074,0.109-0.203,0.165-0.424,0.165c-0.497,1.03-1.343,2.521-2.024,3.497c0-0.02-1.049-0.461-1.049-0.461
	c0.663-0.994,1.51-2.631,1.97-3.771L205.418,306.564z"/>
<path fill="#58595B" d="M225.657,308.771h-7.195c1.196,4.398,3.57,7.785,7.49,9.238c-0.313,0.276-0.718,0.791-0.921,1.16
	c-3.846-1.583-6.183-4.84-7.545-9.275c-0.846,3.644-2.852,7.25-7.6,9.293c-0.185-0.331-0.57-0.772-0.884-1.049
	c4.858-1.969,6.681-5.649,7.38-9.367h-7.104v-1.27h7.306c0.239-1.914,0.221-3.791,0.239-5.392l1.729,0.093
	c-0.018,0.165-0.165,0.258-0.404,0.312c-0.019,1.453-0.037,3.184-0.258,4.986h7.766V308.771z"/>
<path fill="#58595B" d="M236.457,317.365h7.729v1.215H227.55v-1.215h7.637v-4.932h-5.612v-1.195h5.612v-4.251h-4.508
	c-0.645,1.325-1.398,2.521-2.209,3.404c-0.239-0.221-0.718-0.571-1.03-0.755c1.509-1.601,2.815-4.398,3.57-7.213l1.601,0.441
	c-0.055,0.129-0.184,0.202-0.423,0.202c-0.276,0.901-0.589,1.821-0.957,2.705h3.956v-3.681l1.656,0.092
	c-0.019,0.129-0.129,0.221-0.386,0.258v3.331h6.863v1.215h-6.863v4.251h6.183v1.195h-6.183V317.365z"/>
<path fill="#58595B" d="M489.048,306.466h7.25v1.178h-14.225v3.68c0,2.834-0.239,6.975-1.821,9.79
	c-0.221-0.221-0.773-0.57-1.067-0.718c1.509-2.668,1.656-6.404,1.656-9.072v-4.857h6.938V304l1.638,0.111
	c-0.019,0.129-0.11,0.221-0.368,0.258V306.466z M490.023,308.177c-0.019,0.129-0.11,0.221-0.368,0.258v1.95h6.386v1.122h-6.386
	v2.816h5.098v6.754h-1.252v-0.699h-8.392v0.754h-1.214v-6.809h4.526v-6.257L490.023,308.177z M493.501,319.255v-3.81h-8.392v3.81
	H493.501z"/>
<path fill="#58595B" d="M514.809,307.773h-4.251v2.078h3.569v9.92c0,1.251-0.589,1.324-2.484,1.324
	c-0.055-0.295-0.221-0.791-0.367-1.104c0.681,0.018,1.27,0.018,1.453,0.018c0.185,0,0.258-0.055,0.258-0.258v-2.668h-2.429v3.883
	h-1.142v-3.883h-2.3v3.994h-1.104v-11.227h3.404v-2.078h-4.048v-0.111l-0.736,0.847c-0.607-0.864-1.822-2.116-2.963-3.091
	c-0.791,1.379-1.914,3.018-3.386,4.379c-0.185-0.275-0.57-0.662-0.847-0.828c1.693-1.509,2.944-3.479,3.644-4.986l1.509,0.238
	c-0.036,0.129-0.146,0.221-0.368,0.24c1.16,0.92,2.484,2.171,3.147,3.072v-0.901h4.048v-2.649l1.491,0.092
	c-0.019,0.129-0.11,0.221-0.35,0.258v2.3h4.251V307.773z M502.203,310.625v1.877h3.091v1.049h-7.471v-1.049h3.22v-1.877h-2.392
	v-1.049h2.392v-1.932l1.527,0.109c-0.018,0.111-0.128,0.203-0.367,0.24v1.582h2.373v1.049H502.203z M498.67,320.875v-5.943h6.017
	v5.631h-1.141v-0.626h-3.772v0.938H498.67z M503.546,315.961h-3.772v2.926h3.772V315.961z M509.416,310.937h-2.3v1.988h2.3V310.937z
	 M507.116,316.035h2.3v-2.043h-2.3V316.035z M512.986,310.937h-2.429v1.988h2.429V310.937z M510.558,316.035h2.429v-2.043h-2.429
	V316.035z M512.011,303.982c0.938,0.423,2.062,1.122,2.632,1.656l-0.699,0.717c-0.57-0.552-1.693-1.27-2.613-1.748L512.011,303.982z
	"/>
<g>
	<line fill="#FFFFFF" x1="314.401" y1="132.735" x2="225.812" y2="263.241"/>
	<g>
		
			<line fill="none" stroke="#FFFFFF" stroke-width="3" stroke-miterlimit="10" x1="314.401" y1="132.735" x2="237.904" y2="245.428"/>
		<g>
			<polygon fill="#FFFFFF" points="228.056,233.453 225.88,263.287 252.807,250.254 			"/>
		</g>
	</g>
</g>
<g>
	<line fill="#FFFFFF" x1="486.047" y1="268.81" x2="395.212" y2="140.008"/>
	<g>
		
			<line fill="none" stroke="#FFFFFF" stroke-width="3" stroke-miterlimit="10" x1="486.047" y1="268.81" x2="407.619" y2="157.602"/>
		<g>
			<polygon fill="#FFFFFF" points="422.298,152.606 395.145,140.055 397.851,169.847 			"/>
		</g>
	</g>
</g>
<g>
	<line fill="#FFFFFF" x1="250.695" y1="311.227" x2="447.392" y2="311.227"/>
	<g>
		
			<line fill="none" stroke="#FFFFFF" stroke-width="3" stroke-miterlimit="10" x1="250.695" y1="311.227" x2="425.862" y2="311.227"/>
		<g>
			<polygon fill="#FFFFFF" points="421.485,326.101 447.392,311.145 421.485,296.186 			"/>
		</g>
	</g>
</g>
<path fill="#FFFFFF" d="M322.147,336.449c-0.092,0.11-0.258,0.129-0.404,0.092c-1.473,0.773-3.754,1.546-5.613,2.024
	c-0.184-0.258-0.589-0.681-0.846-0.901c1.858-0.405,4.158-1.123,5.538-1.896L322.147,336.449z M316.479,322.316h14.372v4.085
	h-14.372V322.316z M317.64,323.31v2.079h3.183v-2.079H317.64z M317.676,327.523h12.091v7.969h-12.091V327.523z M318.872,328.407
	v1.472h9.661v-1.472H318.872z M318.872,330.744v1.49h9.661v-1.49H318.872z M318.872,333.099v1.49h9.661v-1.49H318.872z
	 M321.908,323.31v2.079h3.294v-2.079H321.908z M330.76,338.565c-1.251-0.607-3.367-1.417-5.502-2.079l0.976-0.682
	c2.116,0.626,4.397,1.436,5.814,2.062L330.76,338.565z M326.288,323.31v2.079h3.367v-2.079H326.288z"/>
<path fill="#FFFFFF" d="M336.591,323.917c-0.037,0.165-0.239,0.275-0.497,0.294c-0.221,1.38-0.35,3.036-0.35,4.582
	c0,0.681,0.037,1.343,0.073,1.933c0.221,3.128,1.491,5.023,2.908,5.005c0.735,0,1.692-1.877,2.355-3.938
	c0.258,0.258,0.754,0.607,1.067,0.791c-0.847,2.484-1.914,4.51-3.441,4.546c-2.337,0.037-3.957-2.797-4.214-6.33
	c-0.056-0.699-0.074-1.472-0.074-2.3c0-1.62,0.092-3.387,0.276-4.951L336.591,323.917z M348.791,332.474
	c-0.515-3.221-2.153-5.539-4.637-6.92l0.81-0.993c2.687,1.435,4.655,4.085,5.189,7.489L348.791,332.474z"/>
<path fill="#FFFFFF" d="M359.057,331.646l-2.595,0.57v6.312h-1.214v-6.036c-1.013,0.221-1.933,0.424-2.669,0.57
	c-0.019,0.129-0.11,0.24-0.239,0.277l-0.479-1.418c0.921-0.146,2.099-0.367,3.387-0.625v-4.748h-1.822
	c-0.184,1.104-0.404,2.116-0.681,2.889c-0.239-0.165-0.645-0.387-0.92-0.515c0.515-1.491,0.791-4.067,0.975-6.478l1.436,0.312
	c-0.036,0.129-0.165,0.184-0.387,0.203c-0.055,0.772-0.146,1.601-0.238,2.392h1.638v-3.901l1.563,0.092
	c-0.018,0.129-0.11,0.221-0.35,0.258v3.552h2.337v1.196h-2.337v4.527l2.484-0.498L359.057,331.646z M367.835,325.058l0.662,0.055
	c0,0.11-0.019,0.295-0.037,0.424c-0.35,8.611-0.662,11.445-1.361,12.311c-0.35,0.497-0.736,0.699-1.95,0.699
	c-0.405,0-0.865-0.019-1.325-0.037c-0.019-0.367-0.147-0.901-0.35-1.232c0.828,0.055,1.564,0.073,1.896,0.073
	c0.312,0,0.479-0.056,0.662-0.312c0.534-0.626,0.901-3.312,1.196-10.802h-1.436c-0.533,4.453-1.804,9.697-3.772,12.311
	c-0.258-0.202-0.718-0.479-1.067-0.607c2.024-2.429,3.258-7.361,3.81-11.703h-1.583c-0.699,3.771-2.116,8.244-3.956,10.525
	c-0.276-0.221-0.736-0.46-1.104-0.607c1.858-2.098,3.275-6.238,3.975-9.918h-1.472c-0.479,1.564-1.086,2.98-1.804,4.048
	c-0.202-0.202-0.662-0.515-0.938-0.699c1.271-1.821,2.153-5.005,2.632-8.207l1.527,0.331c-0.037,0.129-0.166,0.203-0.405,0.203
	c-0.184,1.066-0.404,2.134-0.681,3.164h6.588L367.835,325.058z"/>
<path fill="#FFFFFF" d="M466.179,185.94v14.28c0,0.957-0.258,1.38-0.938,1.601c-0.682,0.221-1.914,0.239-3.92,0.221
	c-0.092-0.35-0.331-0.938-0.534-1.306c0.884,0.037,1.73,0.055,2.393,0.055c1.602,0,1.712,0,1.712-0.571v-4.104h-9.109
	c-0.479,2.153-1.436,4.325-3.386,5.962c-0.185-0.276-0.645-0.736-0.92-0.92c3.165-2.687,3.478-6.496,3.478-9.55v-5.668H466.179z
	 M456.204,191.608c0,0.938-0.036,2.098-0.202,3.312h8.889v-3.312H456.204z M464.891,187.154h-8.687v3.276h8.687V187.154z"/>
<path fill="#FFFFFF" d="M472.58,191.553c-0.699,1.104-1.454,2.116-2.228,2.962c-0.11-0.294-0.441-0.865-0.644-1.159
	c1.804-1.914,3.606-5.097,4.711-8.281l1.454,0.497c-0.056,0.129-0.185,0.184-0.424,0.166c-0.497,1.344-1.104,2.668-1.767,3.938
	l0.46,0.129c-0.019,0.129-0.11,0.203-0.35,0.239v12.035h-1.214V191.553z M487.265,186.786v1.196h-1.417v12.256
	c0,0.938-0.239,1.325-0.901,1.527c-0.663,0.221-1.877,0.239-3.736,0.239c-0.055-0.368-0.258-0.902-0.46-1.288
	c0.847,0.037,1.656,0.037,2.282,0.037c1.527,0,1.601,0,1.601-0.515v-12.256h-8.998v-1.196H487.265z M482.02,197.128h-4.637v1.325
	h-1.142v-7.71h5.778V197.128z M480.879,191.847h-3.496v4.177h3.496V191.847z"/>
<path fill="#FFFFFF" d="M505.425,192.307v1.251h-7.747v8.501h-1.307v-8.501h-7.637v-1.251h7.637v-4.564
	c-2.043,0.294-4.196,0.552-6.202,0.736c-0.055-0.313-0.221-0.828-0.367-1.123c4.489-0.442,9.771-1.215,12.66-2.153l1.067,1.141
	c-0.056,0.037-0.129,0.055-0.221,0.055c-0.056,0-0.11,0-0.185-0.019c-1.38,0.405-3.201,0.792-5.188,1.123h0.11
	c-0.019,0.147-0.11,0.239-0.368,0.276v4.527H505.425z"/>
<path fill="#FFFFFF" d="M523.18,186.234v14.096c0,1.601-0.699,1.693-4.122,1.693c-0.073-0.35-0.294-0.902-0.479-1.251
	c0.663,0.019,1.289,0.037,1.804,0.037c1.454,0,1.564,0,1.564-0.479v-5.999h-12.845v7.729h-1.233v-15.826H523.18z M509.103,187.449
	v5.649h5.705v-5.649H509.103z M516.04,193.098h5.907v-5.649h-5.907V193.098z"/>
<path fill="#FFFFFF" d="M526.177,187.431c1.38-0.056,12.716-0.865,15.108-0.883l0.019,1.38c-0.239-0.019-0.46-0.019-0.681-0.019
	c-1.067,0-1.97,0.184-3.147,0.939c-2.76,1.656-5.429,4.619-5.429,6.993c0,2.576,1.804,4.104,6.367,4.692l-0.607,1.288
	c-5.226-0.754-7.177-2.705-7.177-5.98c0-2.595,2.559-5.742,5.926-7.858c-2.024,0.147-7.453,0.552-9.826,0.773
	c-0.056,0.147-0.258,0.276-0.405,0.294L526.177,187.431z M538.102,191.056c0.883,0.663,1.933,1.748,2.503,2.54l-0.699,0.57
	c-0.516-0.81-1.638-1.951-2.43-2.558L538.102,191.056z M540.089,189.437c0.901,0.662,1.969,1.729,2.503,2.539l-0.699,0.552
	c-0.497-0.736-1.564-1.877-2.43-2.54L540.089,189.437z"/>
<path fill="#FFFFFF" d="M550.741,185.59l0.865,0.441c-0.056,0.092-0.129,0.147-0.203,0.184c-1.288,3.294-4.158,5.981-6.9,7.379
	c-0.166-0.276-0.497-0.681-0.755-0.902c2.301-1.067,4.858-3.368,6.109-5.98h-5.097v-1.049h5.76L550.741,185.59z M555.286,197.607
	l1.381,0.479c-0.037,0.11-0.185,0.166-0.368,0.166c-0.313,0.644-0.792,1.564-1.233,2.282h5.355v1.067h-16.268v-1.067h5.171
	c-0.221-0.773-0.681-1.785-1.141-2.54l1.049-0.331c0.57,0.865,1.104,2.006,1.307,2.779l-0.258,0.092h3.588
	c0.46-0.792,1.067-2.042,1.362-2.926h-8.005v-4.711h10.157v4.711H555.286z M545.294,187.541c0.938,0.534,2.024,1.362,2.54,1.969
	l-0.7,0.792c-0.515-0.644-1.582-1.491-2.521-2.08L545.294,187.541z M548.423,193.945v2.613h7.71v-2.613H548.423z M548.79,191.405
	v-1.086h6.901v1.086H548.79z M558.562,186.014c-0.073,0.092-0.239,0.11-0.386,0.092c-0.663,0.625-1.748,1.491-2.65,2.116
	c0.424,0.534,0.865,1.049,1.344,1.527c0.883-0.681,1.932-1.656,2.539-2.374l1.142,0.81c-0.074,0.092-0.222,0.129-0.387,0.11
	c-0.663,0.625-1.693,1.491-2.558,2.135c0.993,0.865,2.079,1.583,3.22,2.061c-0.275,0.239-0.644,0.699-0.847,1.012
	c-3.146-1.509-5.906-4.637-7.397-8.188l1.049-0.332c0.35,0.847,0.81,1.656,1.325,2.448c0.865-0.681,1.858-1.583,2.466-2.245
	L558.562,186.014z"/>
<path fill="#FFFFFF" d="M569.343,199.686c0.938-0.589,2.208-1.435,3.441-2.263l0.35,0.92c-1.215,0.938-2.466,1.859-3.312,2.466
	c0,0.147-0.073,0.276-0.166,0.332l-0.717-1.215l0.257-0.147v-0.019c-2.355,0.442-4.821,0.883-6.385,1.159
	c-0.019,0.129-0.129,0.221-0.258,0.258l-0.424-1.38c0.884-0.111,2.006-0.294,3.221-0.479v-5.41h-3.018v-1.104h3.018v-2.116h-1.969
	v-0.386c-0.185,0.221-0.368,0.423-0.57,0.625c-0.185-0.276-0.589-0.644-0.865-0.81c1.601-1.583,2.815-3.644,3.496-5.189l1.491,0.239
	c-0.019,0.129-0.129,0.221-0.368,0.221l-0.037,0.074c1.141,0.957,2.484,2.208,3.146,3.036l-0.754,0.976
	c-0.607-0.81-1.822-2.024-2.926-3c-0.534,0.994-1.196,2.079-2.024,3.128h4.637v1.085h-2.135v2.116h2.742v1.104h-2.742v5.244
	l2.816-0.46L569.343,199.686z M563.602,198.545c-0.056-0.938-0.387-2.374-0.791-3.497l0.883-0.221
	c0.441,1.104,0.773,2.54,0.865,3.459L563.602,198.545z M569.251,195.123c-0.056,0.092-0.185,0.166-0.387,0.166
	c-0.221,0.883-0.625,2.245-0.976,3.11l-0.81-0.312c0.313-0.902,0.736-2.411,0.921-3.405L569.251,195.123z M574.698,192.473v0.515
	c0.515,2.558,1.767,5.668,4.747,7.122c-0.257,0.239-0.606,0.736-0.791,1.049c-2.006-1.122-3.221-3.018-3.956-4.876v4.417
	c0,1.288-0.607,1.343-2.705,1.343c-0.037-0.312-0.185-0.772-0.332-1.104c0.736,0.019,1.399,0.019,1.602,0.019
	c0.221-0.019,0.275-0.074,0.275-0.276v-8.208h-4.397v-1.104h7.343v-1.804h-6.11v-1.03h6.11v-1.73h-6.46v-1.085h7.619v5.649h1.546
	v1.104H574.698z M571.68,196.815c-0.35-0.699-1.196-1.748-1.95-2.502l0.865-0.552c0.772,0.718,1.619,1.748,2.005,2.429
	L571.68,196.815z M579.206,194.331c-0.055,0.11-0.239,0.129-0.386,0.11c-0.516,0.7-1.398,1.711-2.062,2.374
	c-0.019-0.019-0.791-0.589-0.81-0.589c0.681-0.699,1.601-1.877,2.098-2.687L579.206,194.331z"/>
<path fill="#FFFFFF" d="M589.619,187.982c-0.019-0.405-0.073-2.411-0.11-2.871l1.896,0.074c-0.019,0.147-0.147,0.331-0.479,0.386
	c0,0.221,0,0.442,0.037,2.374c2.264-0.074,4.637-0.129,6.018-0.147v1.27c-1.564-0.037-3.791,0-5.981,0.073
	c0.037,1.436,0.074,2.761,0.129,3.772c0.185,0.607,0.221,1.16,0.221,1.933c0,0.589-0.055,1.27-0.184,1.785
	c-0.479,2.153-2.061,4.049-5.3,5.337c-0.239-0.313-0.644-0.773-0.938-1.049c2.815-1.012,4.324-2.539,4.784-4.288h-0.018
	c-0.387,0.552-1.067,0.976-1.896,0.976c-1.638,0-3.092-1.343-3.092-3.221c-0.019-1.95,1.564-3.441,3.312-3.441
	c0.662,0,1.343,0.239,1.711,0.57c0-0.312-0.036-1.546-0.073-2.337c-1.914,0.037-7.729,0.239-8.483,0.276l-0.037-1.214l4.196-0.11
	L589.619,187.982z M589.969,194.441c0-0.717,0-2.392-1.877-2.392c-1.27,0.019-2.171,0.994-2.189,2.337
	c0,1.289,0.975,2.135,2.042,2.135C589.251,196.521,589.969,195.509,589.969,194.441z"/>
<path fill="#FFFFFF" d="M605.185,193.025c1.215-0.626,3.11-1.067,4.564-1.067c2.926,0,4.766,1.711,4.766,4.417
	c0,3.331-2.926,5.171-6.625,5.171c-2.392,0-4.029-0.957-4.029-2.576c0-1.362,1.343-2.466,3.018-2.466
	c2.079,0,3.478,1.656,3.754,3.331c1.473-0.552,2.539-1.73,2.539-3.441c0-1.987-1.472-3.257-3.79-3.257
	c-2.761,0-5.466,1.233-6.681,2.411c-0.552,0.515-1.27,1.288-1.767,1.858l-0.938-0.938c1.656-1.729,6.92-6.753,9.422-9.091
	c-1.067,0.147-4.747,0.295-6.846,0.368c-0.055,0.129-0.239,0.239-0.386,0.276l-0.147-1.564c2.484-0.019,7.232-0.202,8.575-0.405
	l0.276-0.129l0.976,1.196c-0.093,0.074-0.258,0.147-0.442,0.166c-1.307,1.067-4.803,4.343-6.238,5.723V193.025z M607.725,200.386
	c0.552,0,1.196-0.074,1.674-0.184c-0.202-1.417-1.251-2.613-2.612-2.613c-0.957,0-1.804,0.515-1.804,1.362
	C604.982,200.073,606.51,200.386,607.725,200.386z"/>
<path fill="#FFFFFF" d="M622.462,199.465c0,1.417-1.159,2.576-2.576,2.576s-2.576-1.159-2.576-2.576s1.159-2.576,2.576-2.576
	C621.339,196.889,622.462,198.085,622.462,199.465z M621.799,199.465c0-1.067-0.846-1.914-1.913-1.914
	c-1.049,0-1.896,0.846-1.896,1.914c0,1.049,0.847,1.896,1.896,1.896C620.989,201.361,621.799,200.478,621.799,199.465z"/>
<path fill="#FFFFFF" d="M40.681,188.7c0,1.638-0.312,3.625-1.067,4.803c-0.681-0.405-0.791-0.46-0.92-0.515
	c0.662-1.012,0.957-2.889,0.994-4.435L40.681,188.7z M41.398,184.928l1.564,0.11c-0.019,0.129-0.11,0.221-0.35,0.239v16.728h-1.215
	V184.928z M44.232,190.89c-0.258-0.699-0.828-1.859-1.325-2.705l0.847-0.423c0.533,0.828,1.123,1.914,1.361,2.595L44.232,190.89z
	 M50.691,191.129h5.135v1.049H44.435v-1.049h4.969v-1.343h-3.588v-0.957h3.588v-1.251h-4.324v-0.994h4.324v-1.656l1.656,0.11
	c-0.019,0.129-0.11,0.221-0.368,0.258v1.288h4.49v0.994h-4.49v1.251h3.735v0.957h-3.735V191.129z M54.17,193.411v7.306
	c0,1.196-0.479,1.325-3.037,1.325c-0.055-0.312-0.221-0.754-0.386-1.067c0.515,0.018,0.993,0.037,1.343,0.037
	c0.755,0,0.847,0,0.847-0.294v-1.638h-5.723v2.926h-1.196v-8.594H54.17z M52.937,194.423h-5.723v1.38h5.723V194.423z
	 M47.214,198.141h5.723v-1.399h-5.723V198.141z"/>
<path fill="#FFFFFF" d="M62.062,187.891v2.061h3.698v1.085h-8.538v-1.085h3.681v-2.061h-2.944v-1.067h2.944v-1.859l1.509,0.092
	c-0.019,0.129-0.11,0.221-0.35,0.239v1.527h2.926v1.067H62.062z M62.374,193.981c0.387-0.736,0.865-1.951,1.104-2.742l1.307,0.441
	c-0.056,0.111-0.185,0.166-0.387,0.166c-0.295,0.644-0.755,1.619-1.178,2.282h2.208v1.085h-3.386v2.135h3.146v1.086h-3.146v3.625
	h-1.159v-3.625h-3.165v-1.086h3.165v-2.135h-3.404v-1.085h5.226L62.374,193.981z M59.356,194.019
	c-0.092-0.663-0.441-1.73-0.847-2.54l0.957-0.258c0.404,0.792,0.772,1.84,0.883,2.484L59.356,194.019z M72.863,192.804l0.773,0.276
	c-0.037,0.11-0.074,0.166-0.129,0.239c-0.332,1.95-1.013,3.883-2.024,5.539c0.81,0.92,1.748,1.656,2.797,2.116
	c-0.294,0.257-0.681,0.736-0.865,1.067c-0.993-0.515-1.877-1.251-2.649-2.153c-0.626,0.773-1.325,1.454-2.153,2.006
	c-0.202-0.276-0.552-0.625-0.847-0.828c0.865-0.57,1.62-1.307,2.245-2.171c-0.901-1.27-1.601-2.779-2.079-4.361l0.994-0.258
	c0.404,1.27,1.012,2.503,1.748,3.57c0.681-1.196,1.159-2.54,1.453-3.901h-4.692v8.115h-1.178v-16.249h7.158v4.619
	c0,1.325-0.662,1.325-3.165,1.325c-0.036-0.313-0.221-0.754-0.368-1.067c0.479,0,0.938,0.019,1.288,0.019
	c1.013,0,1.086,0,1.086-0.294v-3.459h-4.821v5.907h5.208L72.863,192.804z"/>
<path fill="#FFFFFF" d="M89.938,191.479c-0.036,0.018-0.092,0.018-0.146,0.018c-0.129,0-0.276-0.037-0.387-0.11
	c-5.466,1.601-10.416,4.012-10.397,6.478c0,1.767,1.951,2.374,4.932,2.374c2.963,0,5.227-0.221,6.515-0.423l0.11,1.343
	c-1.693,0.221-4.435,0.332-6.588,0.332c-3.644,0-6.294-0.847-6.312-3.552c-0.019-1.969,1.95-3.699,4.839-5.189
	c-0.625-1.123-0.846-3.257-0.846-7.416l2.023,0.166c-0.018,0.239-0.202,0.387-0.57,0.442c-0.019,3.22,0.093,5.226,0.607,6.22
	c1.729-0.81,3.718-1.545,5.741-2.208L89.938,191.479z"/>
<path fill="#FFFFFF" d="M99.78,192.602c0.645,1.638,1.564,3.055,2.761,4.251c1.195-1.178,2.116-2.613,2.76-4.361l1.546,0.515
	c-0.037,0.11-0.202,0.184-0.423,0.166c-0.718,1.803-1.712,3.275-2.944,4.509c1.969,1.601,4.526,2.668,7.655,3.183
	c-0.276,0.276-0.645,0.828-0.828,1.178c-3.202-0.625-5.778-1.767-7.803-3.496c-2.043,1.674-4.656,2.797-7.784,3.551
	c-0.147-0.312-0.479-0.846-0.718-1.122c3.055-0.663,5.612-1.693,7.601-3.276c-1.271-1.307-2.264-2.889-3-4.729L99.78,192.602z
	 M100.664,189.915c-0.056,0.147-0.222,0.166-0.405,0.147c-1.27,1.638-3.275,3.294-5.079,4.379c-0.202-0.276-0.644-0.717-0.92-0.938
	c1.748-0.938,3.772-2.558,4.932-4.214L100.664,189.915z M110.674,187.431v1.214H94.333v-1.214h7.509v-2.503l1.619,0.092
	c-0.019,0.129-0.11,0.221-0.368,0.258v2.153H110.674z M109.754,194.276c-0.993-1.233-3.165-3.036-4.969-4.288l1.013-0.736
	c1.767,1.178,3.975,2.926,5.042,4.159L109.754,194.276z"/>
<path fill="#FFFFFF" d="M116.357,192.307v6.054c1.417,2.19,4.03,2.19,7.527,2.19c2.006,0,4.361-0.037,5.796-0.129
	c-0.146,0.276-0.331,0.847-0.404,1.214c-1.252,0.037-3.239,0.074-5.079,0.074c-4.03,0-6.551,0-8.373-2.3
	c-0.976,0.847-1.987,1.656-2.815,2.282c0,0.166-0.037,0.239-0.166,0.294l-0.699-1.325c0.902-0.589,2.024-1.398,3.019-2.208v-4.968
	h-2.779v-1.178H116.357z M113.579,185.37c1.196,0.846,2.576,2.116,3.165,3.055l-0.92,0.846c-0.589-0.938-1.933-2.263-3.128-3.146
	L113.579,185.37z M123.921,189.62c-1.159-0.57-2.576-1.196-3.772-1.638l0.81-0.718c0.811,0.294,1.749,0.663,2.65,1.067
	c0.976-0.441,2.006-1.012,2.797-1.583h-8.06v-1.012h9.329l0.203-0.055l0.938,0.607c-0.056,0.074-0.185,0.129-0.295,0.147
	c-0.938,0.81-2.355,1.73-3.772,2.411c0.57,0.257,1.086,0.533,1.509,0.772h2.374v8.373c0,1.215-0.386,1.343-3.128,1.343
	c-0.056-0.331-0.202-0.754-0.35-1.049c0.533,0.019,1.049,0.037,1.417,0.037c0.791,0,0.883,0,0.883-0.332v-1.877h-3.459v3.11h-1.123
	v-3.11h-3.331v3.184h-1.178v-9.68H123.921z M122.872,190.614h-3.331v1.748h3.331V190.614z M119.541,195.141h3.331v-1.822h-3.331
	V195.141z M127.454,192.362v-1.748h-3.459v1.748H127.454z M123.995,195.141h3.459v-1.822h-3.459V195.141z"/>
<path fill="#FFFFFF" d="M147.73,194.994v1.214h-7.784v4.104c0,0.938-0.275,1.307-0.938,1.509c-0.681,0.221-1.877,0.239-3.864,0.221
	c-0.092-0.35-0.331-0.883-0.533-1.233c0.883,0.037,1.729,0.037,2.374,0.037c1.563,0,1.692,0,1.692-0.534v-4.104h-7.747v-1.214h7.747
	v-3.11h-6.515v-1.178h6.515v-2.981c-2.024,0.239-4.159,0.423-6.128,0.534c-0.036-0.313-0.184-0.792-0.331-1.067
	c4.453-0.294,9.809-0.883,12.532-1.859l1.067,1.049c-0.056,0.037-0.11,0.055-0.222,0.055c-0.036,0-0.092,0-0.165-0.018
	c-1.325,0.441-3.129,0.791-5.116,1.085c-0.036,0.129-0.129,0.184-0.368,0.221v2.981h6.735v1.178h-6.735v3.11H147.73z"/>
<path fill="#FFFFFF" d="M151.758,197.607c1.564-0.276,3.331-0.607,5.061-0.92l0.074,1.067c-1.767,0.368-3.607,0.736-5.135,1.031
	v3.257h-1.178v-3.018l-0.791,0.166c-0.019,0.129-0.129,0.221-0.239,0.258l-0.497-1.399l1.527-0.239V186.4l0.921,0.313
	c1.601-0.497,3.33-1.141,4.306-1.767l1.196,0.957c-0.092,0.073-0.221,0.092-0.368,0.055c-1.178,0.607-3.11,1.27-4.877,1.748v2.208
	h4.417v1.178h-4.417v2.411h4.582v1.16h-4.582V197.607z M164.456,193.172l0.81,0.35c-0.037,0.092-0.093,0.147-0.166,0.184
	c-0.626,2.042-1.675,3.717-3.018,5.042c1.196,0.994,2.631,1.73,4.287,2.19c-0.275,0.276-0.625,0.754-0.81,1.086
	c-1.692-0.534-3.165-1.362-4.397-2.466c-1.362,1.123-2.981,1.95-4.675,2.502c-0.147-0.313-0.441-0.81-0.699-1.085
	c1.619-0.46,3.184-1.215,4.527-2.264c-1.031-1.159-1.841-2.521-2.411-4.085l0.902-0.257h-1.675v-1.141h7.103L164.456,193.172z
	 M159.395,186.842v1.693c0,1.527-0.35,3.386-2.152,4.619c-0.166-0.257-0.589-0.699-0.847-0.846c1.619-1.086,1.84-2.54,1.84-3.791
	v-2.779h5.466v4.619c0,0.589,0.019,0.718,0.423,0.718h0.589c0.663,0,0.663-0.074,0.718-2.08c0.221,0.203,0.645,0.386,0.957,0.479
	c-0.037,0.736-0.092,1.564-0.184,1.84c-0.185,0.479-0.57,0.772-1.381,0.772h-0.938c-1.361,0-1.361-0.81-1.361-1.84v-3.404H159.395z
	 M159.009,194.368c0.515,1.343,1.251,2.54,2.189,3.551c1.013-0.994,1.822-2.171,2.374-3.551H159.009z"/>
<path fill="#FFFFFF" d="M183.775,192.822c-0.037,0.019-0.074,0.037-0.11,0.037c-0.11,0-0.203-0.055-0.276-0.11
	c-1.398,0.46-3.441,1.215-4.969,1.877c0.037,0.423,0.056,0.902,0.056,1.436c0,0.589-0.019,1.251-0.056,1.969l-1.343,0.073
	c0.055-0.662,0.092-1.509,0.092-2.227c0-0.276,0-0.534-0.019-0.736c-2.079,1.012-3.772,2.245-3.772,3.349
	c0,1.067,1.27,1.583,3.81,1.583c1.785,0,3.44-0.037,4.618-0.184l0.019,1.233c-1.086,0.11-2.741,0.147-4.637,0.147
	c-3.533,0-5.098-0.847-5.098-2.724c0-1.62,2.135-3.184,4.895-4.564c-0.11-1.159-0.625-1.729-1.361-1.729
	c-1.344,0-2.742,0.754-4.398,2.595c-0.515,0.57-1.232,1.288-2.024,2.006l-0.901-0.902c1.84-1.62,3.57-3.165,4.638-6.791l-1.03,0.019
	h-3.073v-1.196c1.122,0.019,2.429,0.019,3.184,0.019l1.251-0.019c0.202-0.846,0.368-1.638,0.497-2.631l1.803,0.221
	c-0.036,0.184-0.184,0.294-0.46,0.332c-0.129,0.736-0.294,1.38-0.46,2.042c1.252-0.019,3.938-0.313,6.33-1.067l0.222,1.233
	c-2.301,0.718-5.079,0.975-6.901,1.03c-0.441,1.38-0.901,2.484-1.325,3.11h0.019c0.81-0.718,2.024-1.196,2.963-1.196
	c1.251,0,2.043,0.902,2.282,2.392c1.546-0.699,3.496-1.454,4.969-2.024L183.775,192.822z"/>
<path fill="#FFFFFF" d="M192.2,194.147l-2.189,0.81v5.539c0,1.417-0.681,1.564-3.036,1.527c-0.037-0.313-0.221-0.847-0.387-1.196
	c0.516,0.019,0.976,0.037,1.344,0.037c0.791,0,0.883,0,0.883-0.368v-5.116c-0.865,0.312-1.656,0.589-2.3,0.81
	c0,0.147-0.093,0.257-0.221,0.313l-0.461-1.436c0.811-0.239,1.841-0.552,2.981-0.938v-4.251h-2.778v-1.159h2.778v-3.772l1.546,0.092
	c-0.019,0.147-0.11,0.221-0.35,0.258v3.423h2.116v1.159h-2.116v3.864l2.024-0.662L192.2,194.147z M198.089,200.349
	c0.589,0.092,1.215,0.129,1.877,0.129h3.276c-0.166,0.276-0.332,0.792-0.387,1.104h-2.944c-2.65,0-4.582-0.515-5.834-2.834
	c-0.496,1.362-1.178,2.54-2.061,3.331c-0.202-0.203-0.607-0.515-0.901-0.663c1.453-1.251,2.263-3.57,2.595-6.238l1.472,0.258
	c-0.037,0.147-0.147,0.202-0.368,0.221c-0.073,0.57-0.184,1.123-0.312,1.656c0.533,1.454,1.361,2.263,2.393,2.687v-5.576h-4.38
	v-1.104h10.544v1.104h-4.969v2.263h4.104v1.067h-4.104V200.349z M201.936,185.608v6.312h-8.558v-6.312H201.936z M200.739,188.277
	v-1.693h-6.22v1.693H200.739z M200.739,190.945v-1.73h-6.22v1.73H200.739z"/>
<path fill="#FFFFFF" d="M206.846,191.442c-0.699,1.16-1.472,2.19-2.245,3.073c-0.129-0.294-0.441-0.865-0.644-1.159
	c1.767-1.914,3.533-5.097,4.601-8.281l1.472,0.497c-0.073,0.129-0.202,0.184-0.423,0.166c-0.479,1.288-1.049,2.577-1.693,3.81
	l0.497,0.128c-0.037,0.111-0.129,0.203-0.368,0.221v12.2h-1.196V191.442z M214.28,197.938c-0.055,0.11-0.202,0.166-0.404,0.147
	c-0.957,1.472-2.484,3.036-3.92,4.011c-0.221-0.239-0.663-0.607-0.957-0.81c1.38-0.883,2.889-2.392,3.772-3.901L214.28,197.938z
	 M218.494,195.27h3.055v1.196h-12.513v-1.196h2.999v-4.95h-2.429v-1.159h2.429v-3.883l1.583,0.092
	c-0.019,0.128-0.129,0.221-0.368,0.257v3.533h4.012v-3.883l1.582,0.092c-0.018,0.128-0.11,0.221-0.35,0.257v3.533h2.761v1.159
	h-2.761V195.27z M213.25,190.319v4.95h4.012v-4.95H213.25z M220.15,202.097c-0.662-1.141-2.189-2.907-3.496-4.159l1.067-0.57
	c1.307,1.214,2.853,2.944,3.57,4.067L220.15,202.097z"/>
<path fill="#FFFFFF" d="M231.852,187.982c-0.019-0.405-0.073-2.411-0.11-2.871l1.896,0.074c-0.019,0.147-0.147,0.331-0.479,0.386
	c0,0.221,0,0.442,0.037,2.374c2.264-0.074,4.637-0.129,6.018-0.147v1.27c-1.564-0.037-3.791,0-5.981,0.073
	c0.037,1.436,0.074,2.761,0.129,3.772c0.185,0.607,0.222,1.16,0.222,1.933c0,0.589-0.056,1.27-0.185,1.785
	c-0.479,2.153-2.061,4.049-5.3,5.337c-0.239-0.313-0.644-0.773-0.938-1.049c2.815-1.012,4.324-2.539,4.784-4.288h-0.018
	c-0.387,0.552-1.067,0.976-1.896,0.976c-1.638,0-3.092-1.343-3.092-3.221c-0.019-1.95,1.564-3.441,3.312-3.441
	c0.662,0,1.343,0.239,1.711,0.57c0-0.312-0.036-1.546-0.073-2.337c-1.914,0.037-7.729,0.239-8.483,0.276l-0.037-1.214l4.196-0.11
	L231.852,187.982z M232.201,194.441c0-0.717,0-2.392-1.877-2.392c-1.27,0.019-2.171,0.994-2.189,2.337
	c0,1.289,0.975,2.135,2.042,2.135C231.483,196.521,232.201,195.509,232.201,194.441z"/>
<path fill="#FFFFFF" d="M247.417,193.025c1.215-0.626,3.11-1.067,4.563-1.067c2.927,0,4.767,1.711,4.767,4.417
	c0,3.331-2.926,5.171-6.625,5.171c-2.392,0-4.03-0.957-4.03-2.576c0-1.362,1.344-2.466,3.019-2.466c2.079,0,3.478,1.656,3.754,3.331
	c1.472-0.552,2.539-1.73,2.539-3.441c0-1.987-1.472-3.257-3.79-3.257c-2.761,0-5.466,1.233-6.681,2.411
	c-0.552,0.515-1.27,1.288-1.767,1.858l-0.938-0.938c1.656-1.729,6.92-6.753,9.422-9.091c-1.067,0.147-4.747,0.295-6.846,0.368
	c-0.055,0.129-0.239,0.239-0.386,0.276l-0.147-1.564c2.484-0.019,7.232-0.202,8.575-0.405l0.276-0.129l0.976,1.196
	c-0.093,0.074-0.258,0.147-0.442,0.166c-1.307,1.067-4.803,4.343-6.238,5.723V193.025z M249.957,200.386
	c0.552,0,1.196-0.074,1.674-0.184c-0.202-1.417-1.251-2.613-2.612-2.613c-0.957,0-1.804,0.515-1.804,1.362
	C247.215,200.073,248.742,200.386,249.957,200.386z"/>
<path fill="#FFFFFF" d="M555.103,370.816h7.25v1.178h-14.225v3.68c0,2.834-0.239,6.975-1.821,9.79
	c-0.221-0.221-0.773-0.57-1.067-0.718c1.509-2.668,1.656-6.404,1.656-9.072v-4.857h6.938v-2.467l1.638,0.111
	c-0.019,0.129-0.11,0.221-0.368,0.258V370.816z M556.078,372.527c-0.019,0.129-0.11,0.221-0.368,0.258v1.95h6.386v1.122h-6.386
	v2.816h5.098v6.754h-1.252v-0.699h-8.392v0.754h-1.214v-6.809h4.526v-6.257L556.078,372.527z M559.556,383.605v-3.81h-8.392v3.81
	H559.556z"/>
<path fill="#FFFFFF" d="M573.41,371.699c-0.074,0.166-0.221,0.295-0.46,0.295c-0.663,5.723-2.576,10.709-5.631,10.709
	c-1.546,0-2.944-1.545-2.944-4.453c0-4.416,3.44-8.115,8.28-8.115c5.318,0,7.619,3.367,7.619,6.956c0,4.38-2.54,6.496-6.993,7.526
	c-0.166-0.295-0.479-0.791-0.773-1.122c4.233-0.81,6.404-2.871,6.404-6.349c0-3.037-1.95-5.797-6.257-5.797
	c-0.184,0-0.387,0.018-0.552,0.037L573.41,371.699z M571.644,371.459c-3.718,0.46-6.018,3.533-6.018,6.753
	c0,1.97,0.847,3.203,1.729,3.203C569.582,381.416,571.184,376.501,571.644,371.459z"/>
<path fill="#FFFFFF" d="M586.454,372.785c1.73,0.754,3.552,1.674,5.227,2.649c1.178-1.767,2.393-4.085,3.312-6.423l1.803,0.736
	c-0.073,0.166-0.331,0.258-0.662,0.221c-0.847,1.951-2.043,4.27-3.275,6.146c1.417,0.884,2.889,1.877,4.012,2.834l-0.884,1.16
	c-1.012-0.884-2.392-1.896-3.919-2.871c-1.896,2.705-4.656,5.447-7.784,7.526c-0.221-0.276-0.736-0.718-1.049-0.92
	c3.073-1.987,5.889-4.729,7.71-7.269c-1.675-0.994-3.459-1.933-5.189-2.705L586.454,372.785z"/>
<path fill="#FFFFFF" d="M604.173,379.041v-8.943l1.748,0.111c-0.019,0.165-0.147,0.294-0.441,0.331v8.501H604.173z M614.423,369.38
	c-0.019,0.184-0.147,0.275-0.441,0.312v5.852c0,3.865-1.325,7.398-6.606,9.44c-0.185-0.276-0.645-0.755-0.957-0.993
	c5.098-1.896,6.238-5.043,6.238-8.447v-6.275L614.423,369.38z"/>
<path fill="#FFFFFF" d="M622.499,373.796c0.552,1.123,1.159,2.889,1.38,3.957l-1.03,0.275c-0.221-1.066-0.792-2.742-1.344-3.92
	L622.499,373.796z M633.484,373.925c-0.036,0.166-0.221,0.203-0.386,0.184c-1.436,5.374-4.141,8.668-8.594,10.471
	c-0.147-0.221-0.479-0.644-0.718-0.846c4.397-1.73,6.919-4.748,8.263-10.232L633.484,373.925z M626.971,372.914
	c0.386,1.232,0.735,2.999,0.864,4.177l-1.085,0.202c-0.11-1.178-0.46-2.87-0.865-4.141L626.971,372.914z"/>
<path fill="#FFFFFF" d="M651.13,378.655c-1.877-1.013-4.453-2.208-6.459-2.999v9.2h-1.381v-15.991l1.859,0.11
	c-0.019,0.202-0.166,0.331-0.479,0.387v5.373l0.275-0.386c2.153,0.791,5.006,2.061,6.92,3.072L651.13,378.655z"/>
<path fill="#FFFFFF" d="M510.153,409.086c0,1.049-0.847,1.896-1.896,1.896s-1.896-0.847-1.896-1.896s0.847-1.896,1.896-1.896
	C509.344,407.191,510.153,408.074,510.153,409.086z"/>
<path fill="#FFFFFF" d="M534.883,409.492h-6.79c1.729,2.429,4.618,4.803,7.231,5.962c-0.312,0.257-0.699,0.735-0.92,1.067
	c-2.558-1.27-5.3-3.681-7.14-6.238v7.36h-1.288v-7.214c-1.822,2.559-4.527,4.858-7.03,6.146c-0.221-0.331-0.625-0.81-0.901-1.066
	c2.613-1.178,5.466-3.533,7.177-6.018h-6.717v-1.233h7.472v-3.386h-6.146v-1.215h6.146v-3.092l1.674,0.092
	c-0.018,0.129-0.128,0.221-0.386,0.258v2.742h6.349v1.215h-6.349v3.386h7.618V409.492z"/>
<path fill="#FFFFFF" d="M553.338,410.025h-6.699c1.73,2.337,4.564,4.619,7.122,5.741c-0.295,0.239-0.699,0.736-0.901,1.086
	c-2.559-1.271-5.337-3.662-7.177-6.202v6.975h-1.289v-6.863c-1.84,2.502-4.563,4.766-7.084,6.018
	c-0.203-0.313-0.589-0.791-0.902-1.049c2.559-1.104,5.355-3.368,7.085-5.705h-6.698v-1.178h7.6v-4.821h-6.698v-1.196h6.698v-2.281
	l1.656,0.109c-0.018,0.129-0.11,0.221-0.367,0.258v1.914h6.863v1.196h-6.863v4.821h7.655V410.025z M540.989,408.608
	c-0.257-0.976-0.993-2.503-1.729-3.626l1.086-0.404c0.754,1.104,1.546,2.576,1.821,3.552L540.989,408.608z M551.442,405.019
	c-0.074,0.111-0.203,0.166-0.424,0.166c-0.497,1.031-1.343,2.521-2.024,3.496c0-0.018-1.049-0.46-1.049-0.46
	c0.663-0.993,1.51-2.632,1.97-3.772L551.442,405.019z"/>
<path fill="#FFFFFF" d="M571.682,407.228h-7.195c1.196,4.398,3.57,7.783,7.49,9.237c-0.313,0.276-0.718,0.792-0.921,1.159
	c-3.846-1.582-6.183-4.84-7.545-9.274c-0.846,3.644-2.852,7.251-7.6,9.293c-0.184-0.331-0.57-0.772-0.884-1.049
	c4.858-1.969,6.681-5.649,7.38-9.366h-7.104v-1.27h7.306c0.239-1.914,0.221-3.791,0.239-5.393l1.729,0.092
	c-0.019,0.166-0.165,0.258-0.404,0.313c-0.019,1.454-0.037,3.183-0.258,4.987h7.766V407.228z"/>
<path fill="#FFFFFF" d="M582.481,415.822h7.729v1.215h-16.636v-1.215h7.637v-4.932h-5.612v-1.197h5.612v-4.25h-4.508
	c-0.645,1.324-1.399,2.521-2.209,3.404c-0.239-0.221-0.718-0.57-1.03-0.754c1.509-1.602,2.815-4.398,3.57-7.215l1.601,0.442
	c-0.055,0.128-0.184,0.202-0.423,0.202c-0.276,0.902-0.589,1.822-0.957,2.705h3.956v-3.68l1.656,0.092
	c-0.019,0.129-0.129,0.221-0.386,0.258v3.33h6.863v1.215h-6.863v4.25h6.183v1.197h-6.183V415.822z"/>
<path fill="#FFFFFF" d="M598.838,401.431c-0.037,0.221-0.258,0.312-0.607,0.331c-0.202,1.03-0.533,2.815-0.755,3.92
	c0.828-0.093,1.583-0.166,2.043-0.166c2.797-0.036,3.754,1.821,3.754,4.583c0,1.379-0.258,3.018-0.625,4.121
	c-0.571,1.877-1.749,2.779-3.276,2.779c-0.754,0-1.748-0.312-3.33-1.602c0.202-0.331,0.35-0.736,0.496-1.122
	c1.473,1.141,2.245,1.398,2.816,1.398c1.049,0,1.674-0.663,2.042-1.841c0.387-1.141,0.589-2.834,0.589-3.771
	c-0.019-2.098-0.699-3.35-2.539-3.331c-0.553,0-1.307,0.073-2.245,0.185c-0.92,3.754-2.006,6.974-3.772,9.937l-1.215-0.589
	c1.785-2.853,2.797-5.705,3.662-9.201c-0.938,0.11-2.282,0.275-3.275,0.441l-0.11-1.287c0.901-0.111,2.41-0.277,3.644-0.424
	c0.276-1.344,0.57-3,0.791-4.619L598.838,401.431z M603.107,400.861c0.883,0.681,1.932,1.785,2.466,2.576l-0.718,0.516
	c-0.516-0.792-1.619-1.951-2.43-2.559L603.107,400.861z M607.229,411.571c-0.607-2.649-2.062-4.877-3.754-6.275l1.066-0.718
	c1.822,1.527,3.405,3.828,4.012,6.496L607.229,411.571z M605.886,400.143c0.901,0.662,1.951,1.767,2.484,2.558l-0.718,0.533
	c-0.516-0.791-1.619-1.969-2.429-2.576L605.886,400.143z"/>
<path fill="#FFFFFF" d="M626.936,410.025h-6.699c1.73,2.337,4.564,4.619,7.122,5.741c-0.295,0.239-0.699,0.736-0.901,1.086
	c-2.559-1.271-5.337-3.662-7.177-6.202v6.975h-1.289v-6.863c-1.84,2.502-4.563,4.766-7.084,6.018
	c-0.203-0.313-0.589-0.791-0.902-1.049c2.559-1.104,5.355-3.368,7.085-5.705h-6.698v-1.178h7.6v-4.821h-6.698v-1.196h6.698v-2.281
	l1.656,0.109c-0.018,0.129-0.11,0.221-0.367,0.258v1.914h6.863v1.196h-6.863v4.821h7.655V410.025z M614.587,408.608
	c-0.257-0.976-0.993-2.503-1.729-3.626l1.086-0.404c0.754,1.104,1.546,2.576,1.821,3.552L614.587,408.608z M625.04,405.019
	c-0.074,0.111-0.203,0.166-0.424,0.166c-0.497,1.031-1.343,2.521-2.024,3.496c0-0.018-1.049-0.46-1.049-0.46
	c0.663-0.993,1.51-2.632,1.97-3.772L625.04,405.019z"/>
<path fill="#FFFFFF" d="M638.213,403.013h7.25v1.178h-14.225v3.681c0,2.834-0.239,6.975-1.821,9.79
	c-0.221-0.221-0.773-0.57-1.067-0.718c1.509-2.668,1.656-6.403,1.656-9.072v-4.858h6.938v-2.465l1.638,0.109
	c-0.019,0.129-0.11,0.221-0.368,0.258V403.013z M639.188,404.725c-0.019,0.129-0.11,0.221-0.368,0.257v1.951h6.386v1.123h-6.386
	v2.814h5.098v6.754h-1.252v-0.699h-8.392v0.755h-1.214v-6.81h4.526v-6.256L639.188,404.725z M642.666,415.803v-3.81h-8.392v3.81
	H642.666z"/>
<path fill="#FFFFFF" d="M656.005,403.583c-0.019-0.404-0.073-2.41-0.11-2.87l1.896,0.073c-0.019,0.147-0.147,0.332-0.479,0.387
	c0,0.221,0,0.441,0.037,2.374c2.264-0.073,4.637-0.129,6.018-0.147v1.27c-1.564-0.037-3.791,0-5.981,0.074
	c0.037,1.436,0.074,2.76,0.129,3.771c0.185,0.607,0.222,1.16,0.222,1.934c0,0.588-0.056,1.27-0.185,1.784
	c-0.479,2.153-2.061,4.049-5.3,5.337c-0.239-0.312-0.644-0.773-0.938-1.049c2.815-1.012,4.324-2.539,4.784-4.288h-0.018
	c-0.387,0.552-1.067,0.976-1.896,0.976c-1.638,0-3.092-1.344-3.092-3.221c-0.019-1.95,1.564-3.441,3.312-3.441
	c0.662,0,1.343,0.24,1.711,0.57c0-0.312-0.036-1.545-0.073-2.336c-1.914,0.036-7.729,0.238-8.483,0.275l-0.037-1.215l4.196-0.109
	L656.005,403.583z M656.354,410.042c0-0.717,0-2.392-1.877-2.392c-1.27,0.019-2.171,0.993-2.189,2.337
	c0,1.289,0.975,2.135,2.042,2.135C655.637,412.123,656.354,411.111,656.354,410.042z"/>
<path fill="#FFFFFF" d="M671.57,408.626c1.215-0.626,3.11-1.067,4.563-1.067c2.927,0,4.767,1.712,4.767,4.417
	c0,3.33-2.926,5.17-6.625,5.17c-2.392,0-4.03-0.957-4.03-2.576c0-1.361,1.344-2.465,3.019-2.465c2.079,0,3.478,1.655,3.754,3.33
	c1.472-0.553,2.539-1.73,2.539-3.441c0-1.987-1.472-3.257-3.79-3.257c-2.761,0-5.466,1.233-6.681,2.411
	c-0.552,0.515-1.27,1.287-1.767,1.857l-0.938-0.938c1.656-1.73,6.92-6.754,9.422-9.092c-1.067,0.148-4.747,0.295-6.846,0.369
	c-0.055,0.129-0.239,0.238-0.386,0.275l-0.147-1.564c2.484-0.018,7.232-0.201,8.575-0.404l0.276-0.129l0.976,1.196
	c-0.093,0.073-0.258,0.147-0.442,0.165c-1.307,1.068-4.803,4.344-6.238,5.724V408.626z M674.11,415.988
	c0.552,0,1.196-0.074,1.674-0.185c-0.202-1.417-1.251-2.613-2.612-2.613c-0.957,0-1.804,0.515-1.804,1.362
	C671.368,415.674,672.896,415.988,674.11,415.988z"/>
<polyline fill="none" stroke="#FFFFFF" stroke-miterlimit="10" points="537.696,378.362 497.217,378.362 497.217,429.879 
	511.017,429.879 695.927,429.879 695.927,378.362 660.969,378.362 "/>
<path fill="#FFFFFF" d="M78.568,377.292h-6.79c1.729,2.43,4.618,4.803,7.231,5.963c-0.312,0.258-0.699,0.736-0.92,1.066
	c-2.558-1.27-5.3-3.68-7.14-6.238v7.361h-1.288v-7.213c-1.822,2.557-4.527,4.857-7.03,6.146c-0.221-0.332-0.625-0.811-0.901-1.068
	c2.613-1.178,5.466-3.533,7.177-6.018H62.19v-1.232h7.472v-3.387h-6.146v-1.214h6.146v-3.092l1.674,0.093
	c-0.018,0.129-0.128,0.221-0.386,0.258v2.741h6.349v1.214H70.95v3.387h7.618V377.292z"/>
<path fill="#FFFFFF" d="M97.023,377.827h-6.699c1.73,2.337,4.564,4.618,7.122,5.741c-0.295,0.239-0.699,0.736-0.901,1.086
	c-2.559-1.27-5.337-3.662-7.177-6.201v6.975h-1.289v-6.865c-1.84,2.504-4.563,4.767-7.084,6.018
	c-0.203-0.312-0.589-0.791-0.902-1.049c2.559-1.104,5.355-3.367,7.085-5.704h-6.698v-1.178h7.6v-4.821h-6.698v-1.196h6.698v-2.282
	l1.656,0.111c-0.018,0.129-0.11,0.221-0.367,0.258v1.913h6.863v1.196h-6.863v4.821h7.655V377.827z M84.675,376.41
	c-0.257-0.976-0.993-2.503-1.729-3.625l1.086-0.405c0.754,1.104,1.546,2.577,1.821,3.552L84.675,376.41z M95.128,372.822
	c-0.074,0.109-0.203,0.165-0.424,0.165c-0.497,1.03-1.343,2.521-2.024,3.497c0-0.02-1.049-0.461-1.049-0.461
	c0.663-0.994,1.51-2.631,1.97-3.771L95.128,372.822z"/>
<path fill="#FFFFFF" d="M115.367,375.029h-7.195c1.196,4.398,3.57,7.785,7.49,9.238c-0.313,0.276-0.718,0.791-0.921,1.16
	c-3.846-1.583-6.183-4.84-7.545-9.275c-0.846,3.644-2.852,7.25-7.6,9.293c-0.184-0.331-0.57-0.772-0.884-1.049
	c4.858-1.969,6.681-5.649,7.38-9.367h-7.104v-1.27h7.306c0.239-1.914,0.221-3.791,0.239-5.392l1.729,0.093
	c-0.019,0.165-0.165,0.258-0.404,0.312c-0.019,1.453-0.037,3.184-0.258,4.986h7.766V375.029z"/>
<path fill="#FFFFFF" d="M126.167,383.623h7.729v1.215H117.26v-1.215h7.637v-4.932h-5.612v-1.195h5.612v-4.251h-4.508
	c-0.645,1.325-1.399,2.521-2.209,3.404c-0.239-0.221-0.718-0.571-1.03-0.755c1.509-1.601,2.815-4.398,3.57-7.213l1.601,0.441
	c-0.055,0.129-0.184,0.202-0.423,0.202c-0.276,0.901-0.589,1.821-0.957,2.705h3.956v-3.681l1.656,0.092
	c-0.019,0.129-0.129,0.221-0.386,0.258v3.331h6.863v1.215h-6.863v4.251h6.183v1.195h-6.183V383.623z"/>
<path fill="#FFFFFF" d="M145.008,371.699c-0.074,0.166-0.221,0.295-0.46,0.295c-0.663,5.723-2.576,10.709-5.631,10.709
	c-1.546,0-2.944-1.545-2.944-4.453c0-4.416,3.44-8.115,8.28-8.115c5.318,0,7.619,3.367,7.619,6.956c0,4.38-2.54,6.496-6.993,7.526
	c-0.166-0.295-0.479-0.791-0.773-1.122c4.233-0.81,6.404-2.871,6.404-6.349c0-3.037-1.95-5.797-6.257-5.797
	c-0.184,0-0.387,0.018-0.552,0.037L145.008,371.699z M143.241,371.459c-3.718,0.46-6.018,3.533-6.018,6.753
	c0,1.97,0.847,3.203,1.729,3.203C141.18,381.416,142.781,376.501,143.241,371.459z"/>
<path fill="#FFFFFF" d="M158.052,372.785c1.73,0.754,3.552,1.674,5.227,2.649c1.178-1.767,2.393-4.085,3.312-6.423l1.803,0.736
	c-0.073,0.166-0.331,0.258-0.662,0.221c-0.847,1.951-2.043,4.27-3.275,6.146c1.417,0.884,2.889,1.877,4.012,2.834l-0.884,1.16
	c-1.012-0.884-2.392-1.896-3.919-2.871c-1.896,2.705-4.656,5.447-7.784,7.526c-0.221-0.276-0.736-0.718-1.049-0.92
	c3.073-1.987,5.889-4.729,7.71-7.269c-1.675-0.994-3.459-1.933-5.189-2.705L158.052,372.785z"/>
<path fill="#FFFFFF" d="M175.771,379.041v-8.943l1.748,0.111c-0.019,0.165-0.147,0.294-0.441,0.331v8.501H175.771z M186.021,369.38
	c-0.019,0.184-0.147,0.275-0.441,0.312v5.852c0,3.865-1.325,7.398-6.606,9.44c-0.185-0.276-0.645-0.755-0.957-0.993
	c5.098-1.896,6.238-5.043,6.238-8.447v-6.275L186.021,369.38z"/>
<path fill="#FFFFFF" d="M194.097,373.796c0.552,1.123,1.159,2.889,1.38,3.957l-1.03,0.275c-0.221-1.066-0.792-2.742-1.344-3.92
	L194.097,373.796z M205.082,373.925c-0.036,0.166-0.221,0.203-0.386,0.184c-1.436,5.374-4.141,8.668-8.594,10.471
	c-0.147-0.221-0.479-0.644-0.718-0.846c4.397-1.73,6.919-4.748,8.263-10.232L205.082,373.925z M198.568,372.914
	c0.386,1.232,0.735,2.999,0.864,4.177l-1.085,0.202c-0.11-1.178-0.46-2.87-0.865-4.141L198.568,372.914z"/>
<path fill="#FFFFFF" d="M222.728,378.655c-1.877-1.013-4.453-2.208-6.459-2.999v9.2h-1.381v-15.991l1.859,0.11
	c-0.019,0.202-0.166,0.331-0.479,0.387v5.373l0.275-0.386c2.153,0.791,5.006,2.061,6.92,3.072L222.728,378.655z"/>
<path fill="#FFFFFF" d="M43.701,409.086c0,1.049-0.847,1.896-1.896,1.896s-1.896-0.847-1.896-1.896s0.847-1.896,1.896-1.896
	C42.892,407.191,43.701,408.074,43.701,409.086z"/>
<path fill="#FFFFFF" d="M54.519,407.154v-2.668c-0.589,0.681-1.232,1.307-1.858,1.822c-0.221-0.24-0.645-0.59-0.92-0.773
	c1.509-1.141,3.055-3.055,3.975-5.006l1.454,0.516c-0.056,0.11-0.185,0.184-0.405,0.147c-0.258,0.515-0.57,1.03-0.901,1.527h11.961
	v1.122h-1.969v3.312h2.687v1.123h-2.687v3.35h2.41v1.122H52.182v-1.122h2.337v-3.35h-2.613v-1.123H54.519z M55.292,413.926
	c-0.479,1.38-1.344,2.853-2.374,3.735l-1.142-0.496c0.994-0.773,1.877-2.19,2.355-3.553L55.292,413.926z M55.659,403.841v3.312
	h2.209v-3.312H55.659z M55.659,408.277v3.35h2.209v-3.35H55.659z M57.758,417.478c-0.019-0.865-0.166-2.301-0.387-3.404l1.122-0.111
	c0.258,1.086,0.461,2.503,0.479,3.331L57.758,417.478z M61.254,403.841h-2.3v3.312h2.3V403.841z M61.254,408.277h-2.3v3.35h2.3
	V408.277z M62.34,417.496c-0.166-0.883-0.663-2.336-1.159-3.422l1.159-0.221c0.515,1.066,1.03,2.502,1.214,3.367L62.34,417.496z
	 M64.695,407.154v-3.312H62.34v3.312H64.695z M64.695,411.626v-3.35H62.34v3.35H64.695z M67.511,417.68
	c-0.46-0.993-1.546-2.595-2.484-3.735l1.141-0.405c0.957,1.122,2.062,2.669,2.559,3.681L67.511,417.68z"/>
<path fill="#FFFFFF" d="M74.795,408.185v0.901c0.645,0.515,2.595,2.374,3.036,2.834l-0.754,1.012
	c-0.387-0.57-1.473-1.767-2.282-2.595v7.287h-1.196v-7.545c-0.828,1.933-1.932,3.902-2.98,5.061
	c-0.129-0.35-0.442-0.883-0.663-1.178c1.233-1.287,2.632-3.662,3.387-5.777h-3.147v-1.178h3.404v-6.459l1.546,0.109
	c-0.019,0.129-0.11,0.203-0.35,0.24v6.109h3.258v1.178H74.795z M71.336,401.835c0.606,1.252,1.141,2.89,1.306,3.957l-1.049,0.295
	c-0.165-1.068-0.662-2.725-1.232-3.976L71.336,401.835z M78.31,402.222c-0.055,0.11-0.184,0.184-0.367,0.184
	c-0.424,1.123-1.142,2.798-1.712,3.828c-0.202-0.074-0.681-0.295-0.865-0.35c0.534-1.086,1.215-2.889,1.546-4.141L78.31,402.222z
	 M87.217,412.233l-2.521,0.442v4.968H83.48v-4.747l-5.354,0.957l-0.221-1.16l5.575-0.975v-11.134l1.583,0.11
	c-0.019,0.129-0.11,0.221-0.368,0.258v10.545l2.318-0.405L87.217,412.233z M79.487,406.731c1.16,0.755,2.503,1.896,3.147,2.705
	c-0.736,0.589-0.81,0.681-0.902,0.772c-0.625-0.81-1.95-1.987-3.109-2.778L79.487,406.731z M79.966,401.835
	c1.067,0.773,2.282,1.896,2.834,2.688l-0.92,0.736c-0.533-0.811-1.729-1.97-2.797-2.761L79.966,401.835z"/>
<path fill="#FFFFFF" d="M89.312,403.033c1.38-0.057,12.716-0.865,15.108-0.884l0.019,1.38c-0.239-0.019-0.46-0.019-0.681-0.019
	c-1.067,0-1.97,0.185-3.147,0.938c-2.76,1.656-5.429,4.619-5.429,6.993c0,2.576,1.804,4.104,6.367,4.692l-0.607,1.288
	c-5.226-0.755-7.177-2.705-7.177-5.98c0-2.595,2.559-5.741,5.926-7.858c-2.024,0.148-7.453,0.553-9.826,0.773
	c-0.056,0.147-0.258,0.275-0.405,0.295L89.312,403.033z M101.236,406.658c0.883,0.662,1.933,1.748,2.503,2.539l-0.699,0.57
	c-0.516-0.81-1.638-1.951-2.43-2.558L101.236,406.658z M103.224,405.039c0.901,0.662,1.969,1.729,2.503,2.539l-0.699,0.552
	c-0.497-0.735-1.564-1.877-2.43-2.54L103.224,405.039z"/>
<path fill="#FFFFFF" d="M123.795,402.996h-5.889v2.889h4.968v11.667h-1.251v-1.086h-12.311v1.178h-1.196v-11.759h4.416v-2.889
	h-5.447v-1.197h16.71V402.996z M121.623,415.306v-8.263h-3.772v3.589c0,0.404,0.073,0.479,0.552,0.479h1.583
	c0.423,0,0.497-0.184,0.552-1.51c0.239,0.185,0.718,0.35,1.067,0.441c-0.147,1.749-0.46,2.172-1.472,2.172h-1.877
	c-1.307,0-1.602-0.331-1.602-1.564v-3.606h-2.907v0.81c0,1.768-0.589,4.03-3.055,5.576c-0.166-0.221-0.626-0.662-0.901-0.81
	c2.318-1.399,2.778-3.294,2.778-4.804v-0.772h-3.257v8.263H121.623z M116.654,405.884v-2.889h-2.907v2.889H116.654z"/>
<path fill="#FFFFFF" d="M131.189,407.632c0.423-0.957,0.92-2.502,1.178-3.551l1.417,0.404c-0.037,0.11-0.166,0.166-0.387,0.184
	c-0.275,0.902-0.735,2.227-1.159,3.146h2.742v1.142h-9.698v-1.142h6.478L131.189,407.632z M134.668,402.701v1.104h-8.907v-1.104
	h3.828v-2.152l1.563,0.092c-0.018,0.129-0.129,0.221-0.368,0.258v1.803H134.668z M126.552,417.662v-6.992h7.288v6.882h-1.196v-0.938
	h-4.914v1.049H126.552z M127.969,404.265c0.424,0.938,0.773,2.189,0.884,3l-1.086,0.257c-0.092-0.81-0.423-2.079-0.81-3.036
	L127.969,404.265z M132.644,411.773h-4.914v3.736h4.914V411.773z M141.587,401.597l0.81,0.404c-0.019,0.092-0.092,0.147-0.166,0.184
	c-0.699,1.564-1.674,3.553-2.687,5.484c1.987,1.858,2.815,3.238,2.815,4.563c0,2.89-2.006,2.89-3.202,2.89
	c-0.275,0-0.57,0-0.846-0.019c-0.019-0.331-0.185-0.865-0.424-1.215c0.405,0.037,0.791,0.056,1.141,0.056
	c1.233,0,2.117-0.056,2.117-1.748c0-1.197-0.902-2.484-2.908-4.325c0.902-1.821,1.693-3.552,2.319-5.042h-3.662v14.813h-1.196
	v-15.991h5.649L141.587,401.597z"/>
<path fill="#FFFFFF" d="M147.271,411.92l2.135-0.847l0.239,1.067c-1.914,0.884-3.957,1.748-5.245,2.3
	c0,0.147-0.073,0.258-0.202,0.312l-0.645-1.398c0.699-0.238,1.583-0.588,2.54-0.957v-6.109h-2.227v-1.178h2.227v-4.397l1.546,0.11
	c-0.019,0.129-0.129,0.203-0.368,0.239v4.048h2.079v1.178h-2.079V411.92z M152.092,414.865c0,1.012,0.239,1.251,1.527,1.251h4.692
	c1.104,0,1.288-0.515,1.436-2.724c0.294,0.221,0.772,0.424,1.122,0.497c-0.202,2.54-0.607,3.349-2.539,3.349h-4.748
	c-2.079,0-2.668-0.459-2.668-2.392v-6.202l-1.858,0.792l-0.479-1.104l2.337-0.994v-5.041l1.546,0.109
	c-0.019,0.129-0.129,0.221-0.368,0.258v4.159l2.668-1.141v-5.134l1.527,0.092c-0.019,0.129-0.11,0.221-0.35,0.258v4.287l2.944-1.27
	l0.258-0.203l1.012,0.369c-0.018,0.072-0.092,0.146-0.184,0.201c0,3.497-0.056,6.404-0.202,7.104
	c-0.166,1.123-0.792,1.307-2.742,1.307c-0.056-0.35-0.147-0.81-0.295-1.104c0.461,0.037,1.104,0.037,1.307,0.037
	c0.295,0,0.497-0.093,0.589-0.534c0.11-0.46,0.147-2.742,0.147-5.833l-2.834,1.214v7.066h-1.178v-6.552l-2.668,1.142V414.865z"/>
<path fill="#FFFFFF" d="M178.993,415.38v1.178h-14.686v1.122h-1.232v-15.954h15.513v1.195h-14.28v12.459H178.993z M167.16,405.056
	c1.454,0.865,3.018,1.914,4.49,3.018c1.122-1.398,2.135-2.907,2.944-4.453c0.847,0.368,1.178,0.497,1.49,0.626
	c-0.055,0.129-0.239,0.185-0.46,0.147c-0.864,1.545-1.877,3.036-2.999,4.416c1.748,1.361,3.294,2.742,4.306,3.92l-0.976,0.92
	c-0.938-1.159-2.41-2.539-4.104-3.9c-1.619,1.84-3.423,3.44-5.281,4.691c-0.239-0.238-0.681-0.625-0.993-0.846
	c1.858-1.178,3.68-2.779,5.3-4.619c-1.491-1.141-3.073-2.245-4.564-3.146L167.16,405.056z"/>
<path fill="#FFFFFF" d="M180.462,409.326c0.773-0.736,2.669-2.742,3.644-3.791c1.417-1.564,2.116-1.914,3.037-1.914
	c1.104,0,1.896,0.699,3.533,2.65c1.307,1.582,4.324,4.949,6.938,7.342l-0.976,1.141c-2.521-2.281-5.521-5.723-6.625-7.103
	c-1.563-1.913-2.135-2.649-2.889-2.649c-0.736,0-1.307,0.607-2.43,1.877c-0.625,0.717-2.116,2.355-2.907,3.238
	c0.019,0.239-0.055,0.424-0.202,0.516L180.462,409.326z"/>
<path fill="#FFFFFF" d="M141.051,433.353c-0.036,0.092-0.184,0.166-0.404,0.129c-1.067,1.344-2.981,3.092-4.619,4.251
	c-0.147-0.276-0.497-0.755-0.718-0.993c1.546-1.013,3.368-2.65,4.307-3.994L141.051,433.353z M138.235,449.841v-8.097
	c-0.699,0.772-1.398,1.491-2.098,2.098c-0.165-0.239-0.552-0.735-0.791-0.956c1.748-1.455,3.772-3.865,5.042-6.166l1.436,0.59
	c-0.056,0.109-0.202,0.184-0.424,0.146c-0.552,0.92-1.195,1.859-1.895,2.761l0.331,0.11c-0.037,0.11-0.147,0.203-0.368,0.239v9.274
	H138.235z M152.461,439.26v1.196h-2.927v7.784c0,1.546-0.589,1.583-4.306,1.583c-0.056-0.35-0.221-0.848-0.405-1.215
	c0.811,0.018,1.564,0.037,2.135,0.037c1.196,0,1.325,0,1.325-0.424v-7.766h-6.404v-1.196H152.461z M151.761,433.906v1.178h-9.183
	v-1.178H151.761z"/>
<path fill="#FFFFFF" d="M169.59,439.333c-1.656,0.57-3.662,0.92-5.558,1.141c0.571,0.994,1.693,2.375,3.037,2.89l-0.736,1.05
	c-0.258-0.129-0.736-0.35-1.067-0.553c-0.405-0.146-1.307-0.275-2.172-0.275c-0.257,0-0.515,0.018-0.754,0.036l-0.258-1.013
	c0.626-0.036,1.527,0,2.062,0.074c-0.497-0.533-1.086-1.324-1.454-2.08c-1.233,0.129-2.595,0.185-4.932,0.185
	c-0.902,0-1.914,0-2.742-0.019l-0.019-1.159c0.828,0.019,1.896,0.037,2.815,0.037c1.509,0,3,0,4.49-0.129
	c-0.202-0.571-0.497-1.62-0.718-2.448c-0.735,0.074-1.563,0.111-2.318,0.111c-0.994,0-2.264,0-3.128-0.037v-1.141
	c1.104,0.055,2.318,0.055,3.109,0.055c0.663,0,1.417-0.037,2.116-0.092c-0.165-0.847-0.35-1.858-0.497-2.889l1.896,0.018
	c0,0.221-0.165,0.35-0.496,0.405c0.11,0.792,0.238,1.638,0.386,2.355c1.73-0.165,3.589-0.534,4.932-1.067l0.313,1.141
	c-1.344,0.497-3.165,0.847-5.006,1.049c0.239,0.976,0.479,1.841,0.699,2.411c1.951-0.202,4.067-0.626,5.742-1.214L169.59,439.333z
	 M166.352,449.069c-1.013,0.073-2.227,0.11-4.049,0.11c-2.981-0.019-5.3-0.976-5.263-3.055c0.019-1.086,0.976-2.245,2.171-2.908
	l0.828,0.848c-1.067,0.57-1.692,1.343-1.692,2.042c0,1.307,1.619,1.877,3.956,1.896c1.38,0,2.834-0.074,4.085-0.166L166.352,449.069
	z"/>
<path fill="#FFFFFF" d="M189.021,442.223h-6.699c1.73,2.337,4.564,4.618,7.122,5.741c-0.295,0.239-0.699,0.736-0.901,1.086
	c-2.559-1.27-5.337-3.662-7.177-6.201v6.975h-1.288v-6.865c-1.841,2.504-4.564,4.767-7.085,6.018
	c-0.203-0.312-0.589-0.791-0.902-1.049c2.559-1.104,5.355-3.367,7.085-5.704h-6.698v-1.178h7.601v-4.821h-6.699v-1.196h6.699v-2.282
	l1.655,0.111c-0.018,0.129-0.11,0.221-0.367,0.258v1.913h6.863v1.196h-6.863v4.821h7.655V442.223z M176.672,440.806
	c-0.257-0.976-0.993-2.503-1.729-3.625l1.086-0.405c0.754,1.104,1.546,2.577,1.821,3.552L176.672,440.806z M187.125,437.218
	c-0.074,0.109-0.203,0.165-0.424,0.165c-0.497,1.03-1.343,2.521-2.024,3.497c0-0.02-1.049-0.461-1.049-0.461
	c0.663-0.994,1.51-2.631,1.97-3.771L187.125,437.218z"/>
<path fill="#FFFFFF" d="M191.446,435.23c1.38-0.055,12.716-0.865,15.108-0.883l0.019,1.38c-0.239-0.019-0.46-0.019-0.681-0.019
	c-1.067,0-1.97,0.184-3.147,0.939c-2.76,1.655-5.429,4.618-5.429,6.992c0,2.576,1.804,4.104,6.367,4.692l-0.607,1.288
	c-5.226-0.754-7.177-2.705-7.177-5.98c0-2.595,2.559-5.742,5.926-7.857c-2.024,0.146-7.453,0.552-9.826,0.772
	c-0.056,0.147-0.258,0.276-0.405,0.294L191.446,435.23z M203.371,438.855c0.883,0.663,1.933,1.748,2.503,2.54l-0.699,0.57
	c-0.516-0.81-1.638-1.95-2.43-2.558L203.371,438.855z M205.358,437.236c0.901,0.662,1.969,1.73,2.503,2.539l-0.699,0.553
	c-0.497-0.736-1.564-1.877-2.43-2.539L205.358,437.236z"/>
<path fill="#FFFFFF" d="M224.788,439.333c-1.656,0.57-3.662,0.92-5.557,1.141c0.57,0.994,1.692,2.375,3.036,2.89l-0.736,1.05
	c-0.258-0.129-0.736-0.35-1.067-0.553c-0.405-0.146-1.307-0.275-2.172-0.275c-0.257,0-0.515,0.018-0.754,0.036l-0.258-1.013
	c0.626-0.036,1.527,0,2.062,0.074c-0.497-0.533-1.086-1.324-1.454-2.08c-1.233,0.129-2.595,0.185-4.932,0.185
	c-0.902,0-1.914,0-2.742-0.019l-0.019-1.159c0.828,0.019,1.896,0.037,2.815,0.037c1.51,0,3,0,4.49-0.129
	c-0.202-0.571-0.497-1.62-0.718-2.448c-0.735,0.074-1.563,0.111-2.318,0.111c-0.994,0-2.264,0-3.128-0.037v-1.141
	c1.104,0.055,2.318,0.055,3.109,0.055c0.662,0,1.417-0.037,2.116-0.092c-0.165-0.847-0.35-1.858-0.497-2.889l1.896,0.018
	c0,0.221-0.165,0.35-0.497,0.405c0.111,0.792,0.239,1.638,0.387,2.355c1.73-0.165,3.589-0.534,4.932-1.067l0.313,1.141
	c-1.344,0.497-3.165,0.847-5.006,1.049c0.239,0.976,0.479,1.841,0.699,2.411c1.951-0.202,4.067-0.626,5.741-1.214L224.788,439.333z
	 M221.55,449.069c-1.013,0.073-2.227,0.11-4.049,0.11c-2.98-0.019-5.3-0.976-5.263-3.055c0.019-1.086,0.976-2.245,2.171-2.908
	l0.828,0.848c-1.067,0.57-1.692,1.343-1.692,2.042c0,1.307,1.619,1.877,3.956,1.896c1.38,0,2.834-0.074,4.086-0.166L221.55,449.069z
	"/>
<path fill="#FFFFFF" d="M233.655,440.825c1.215-0.626,3.11-1.067,4.564-1.067c2.926,0,4.766,1.711,4.766,4.416
	c0,3.331-2.926,5.172-6.625,5.172c-2.392,0-4.029-0.957-4.029-2.576c0-1.362,1.343-2.467,3.018-2.467
	c2.079,0,3.478,1.656,3.754,3.331c1.473-0.552,2.539-1.729,2.539-3.441c0-1.987-1.472-3.257-3.79-3.257
	c-2.761,0-5.466,1.232-6.681,2.41c-0.552,0.516-1.27,1.289-1.767,1.859l-0.938-0.939c1.656-1.729,6.92-6.753,9.422-9.09
	c-1.067,0.146-4.747,0.295-6.846,0.367c-0.055,0.129-0.239,0.24-0.386,0.277l-0.147-1.564c2.484-0.02,7.232-0.203,8.575-0.405
	l0.276-0.129l0.976,1.196c-0.093,0.074-0.258,0.146-0.442,0.166c-1.307,1.066-4.803,4.342-6.238,5.723V440.825z M236.195,448.185
	c0.552,0,1.196-0.073,1.674-0.184c-0.202-1.417-1.251-2.613-2.612-2.613c-0.957,0-1.804,0.516-1.804,1.361
	C233.453,447.873,234.98,448.185,236.195,448.185z"/>
<polyline fill="none" stroke="#FFFFFF" stroke-miterlimit="10" points="50.344,378.362 27.104,378.362 27.104,460.237 
	43.979,460.237 270.106,460.237 270.106,378.362 247.329,378.362 "/>
</svg>
