<?xml version="1.0" encoding="utf-8"?>
<!-- Generator: Adobe Illustrator 15.1.0, SVG Export Plug-In  -->
<!DOCTYPE svg PUBLIC "-//W3C//DTD SVG 1.1//EN" "http://www.w3.org/Graphics/SVG/1.1/DTD/svg11.dtd" [
	<!ENTITY ns_flows "http://ns.adobe.com/Flows/1.0/">
]>
<svg version="1.1"
	 xmlns="http://www.w3.org/2000/svg" xmlns:xlink="http://www.w3.org/1999/xlink" xmlns:a="http://ns.adobe.com/AdobeSVGViewerExtensions/3.0/"
	 x="0px" y="0px" width="996px" height="968px" viewBox="-23.718 -18.865 996 968"
	 overflow="visible" enable-background="new -23.718 -18.865 996 968" xml:space="preserve">
<defs>
</defs>
<circle fill="none" stroke="#EC008C" stroke-width="4" stroke-miterlimit="10" cx="468.782" cy="464.635" r="389.5"/>
<g>
	<g>
		<path fill="none" stroke="#EC008C" stroke-width="6" stroke-miterlimit="10" d="M474.978,272.409
			c104.153,0,188.586,84.433,188.586,188.587c0,104.152-84.433,188.586-188.586,188.586c-89.436,0-164.33-62.257-183.71-145.797"/>
		<g>
			<polygon fill="#EC008C" points="322.682,508.456 286.229,461.018 263.369,516.308 			"/>
		</g>
	</g>
</g>
<circle fill="#FFFFFF" cx="473" cy="105.5" r="105.5"/>
<path stroke="#FFFFFF" stroke-width="2" stroke-miterlimit="10" d="M395.722,157.708l63.815,0.033c0,0-1.159-46.057-31.908-48.106
	C396.881,107.586,395.722,157.708,395.722,157.708z"/>
<circle stroke="#FFFFFF" stroke-width="2" stroke-miterlimit="10" cx="426.47" cy="93.554" r="20.305"/>
<path fill="#FFFFFF" stroke="#FFFFFF" stroke-width="2" d="M408.098,147.782v-17.359h8.748v1.595h-6.857v6.174h6.311v1.572h-6.311
	v8.019H408.098z"/>
<path fill="#FFFFFF" stroke="#FFFFFF" stroke-width="2" d="M431.878,140.811c0,5.217-2.688,7.245-6.15,7.245
	c-3.235,0-5.81-1.891-5.81-7.131v-10.479h1.891v10.502c0,3.941,1.731,5.536,4.01,5.536c2.506,0,4.169-1.686,4.169-5.536v-10.502
	h1.891V140.811z"/>
<path fill="#FFFFFF" stroke="#FFFFFF" stroke-width="2" d="M447.979,147.782h-1.891l-5.536-9.135
	c-1.162-1.937-2.278-3.873-3.121-5.787l-0.091,0.023c0.159,2.209,0.182,4.237,0.182,7.245v7.654h-1.776v-17.359h1.981l5.604,9.135
	c1.23,2.073,2.232,3.873,3.03,5.672l0.045-0.022c-0.182-2.415-0.228-4.488-0.228-7.222v-7.563h1.8V147.782z"/>
<path fill="none" stroke="#000000" stroke-width="2" stroke-miterlimit="10" d="M555.661,91.609
	c0,22.434-18.187,40.622-40.623,40.622c-6.65,0-12.929-1.6-18.47-4.434c-4.398-2.249-18.862,3.899-22.15,0.277
	c-1.627-1.793,7.434-12.91,6.144-14.974c-3.893-6.234-6.144-13.6-6.144-21.491c0-22.435,18.187-40.622,40.62-40.622
	C537.475,50.987,555.661,69.174,555.661,91.609z"/>
<path d="M496.648,80.097h-3.838v1.883h3.238v7.604h-0.815v-0.708h-8.023v0.768h-0.78v-7.664h2.879v-1.883h-3.55v-0.779h10.89V80.097
	z M495.233,88.12v-5.385h-2.459v2.339c0,0.264,0.048,0.312,0.359,0.312h1.032c0.275,0,0.323-0.12,0.359-0.983
	c0.156,0.12,0.468,0.228,0.695,0.288c-0.096,1.139-0.3,1.415-0.959,1.415h-1.224c-0.852,0-1.043-0.216-1.043-1.02v-2.351H490.1
	v0.528c0,1.151-0.384,2.626-1.99,3.634c-0.108-0.144-0.408-0.432-0.588-0.528c1.511-0.911,1.811-2.146,1.811-3.13v-0.503h-2.122
	v5.385H495.233z M491.995,81.979v-1.883H490.1v1.883H491.995z"/>
<path d="M501.477,83.119c0.275-0.624,0.6-1.631,0.768-2.315l0.923,0.264c-0.023,0.072-0.107,0.108-0.252,0.12
	c-0.18,0.588-0.479,1.451-0.755,2.051h1.787v0.744h-6.321v-0.744h4.222L501.477,83.119z M503.743,79.905v0.72h-5.805v-0.72h2.494
	v-1.403l1.02,0.06c-0.012,0.084-0.084,0.144-0.24,0.168v1.175H503.743z M498.454,89.655v-4.557h4.749v4.485h-0.779v-0.612h-3.202
	v0.684H498.454z M499.377,80.924c0.276,0.612,0.504,1.427,0.576,1.955l-0.708,0.167c-0.06-0.527-0.275-1.355-0.527-1.979
	L499.377,80.924z M502.424,85.817h-3.202v2.435h3.202V85.817z M508.253,79.185l0.527,0.264c-0.012,0.06-0.06,0.096-0.108,0.12
	c-0.455,1.02-1.091,2.315-1.751,3.574c1.296,1.211,1.835,2.111,1.835,2.974c0,1.883-1.307,1.883-2.087,1.883
	c-0.18,0-0.371,0-0.551-0.012c-0.013-0.216-0.12-0.563-0.276-0.792c0.264,0.024,0.516,0.036,0.743,0.036
	c0.804,0,1.38-0.036,1.38-1.14c0-0.779-0.588-1.619-1.896-2.818c0.588-1.188,1.104-2.314,1.512-3.286h-2.387v9.655h-0.779V79.221
	h3.682L508.253,79.185z"/>
<path d="M511.965,85.914l1.392-0.552l0.156,0.696c-1.248,0.576-2.579,1.139-3.419,1.499c0,0.096-0.048,0.168-0.132,0.204
	l-0.42-0.912c0.456-0.156,1.032-0.384,1.655-0.624v-3.982h-1.451v-0.768h1.451v-2.867l1.008,0.072
	c-0.012,0.084-0.084,0.132-0.24,0.156v2.639h1.355v0.768h-1.355V85.914z M515.107,87.833c0,0.66,0.156,0.815,0.995,0.815h3.059
	c0.72,0,0.84-0.336,0.936-1.775c0.191,0.144,0.504,0.276,0.731,0.324c-0.132,1.655-0.396,2.183-1.655,2.183h-3.094
	c-1.355,0-1.739-0.3-1.739-1.559v-4.042l-1.211,0.516l-0.312-0.72l1.523-0.647v-3.286l1.008,0.072
	c-0.013,0.084-0.084,0.144-0.24,0.168v2.71l1.739-0.744v-3.346l0.995,0.06c-0.012,0.084-0.072,0.144-0.228,0.168v2.794l1.919-0.828
	l0.168-0.132l0.659,0.24c-0.012,0.048-0.06,0.096-0.12,0.132c0,2.279-0.036,4.174-0.132,4.63c-0.107,0.731-0.516,0.851-1.787,0.851
	c-0.036-0.228-0.096-0.527-0.191-0.719c0.3,0.024,0.72,0.024,0.852,0.024c0.191,0,0.323-0.06,0.384-0.348
	c0.071-0.3,0.096-1.787,0.096-3.802l-1.847,0.792v4.605h-0.768v-4.27l-1.739,0.744V87.833z"/>
<path d="M532.648,88.168v0.768h-9.571v0.731h-0.803V79.269h10.11v0.78h-9.308v8.12H532.648z M524.937,81.44
	c0.947,0.564,1.967,1.248,2.927,1.967c0.731-0.911,1.391-1.895,1.919-2.902c0.552,0.24,0.768,0.324,0.971,0.408
	c-0.035,0.084-0.155,0.12-0.3,0.096c-0.563,1.007-1.223,1.979-1.954,2.878c1.139,0.887,2.146,1.787,2.806,2.555l-0.636,0.6
	c-0.611-0.756-1.57-1.655-2.674-2.543c-1.056,1.2-2.231,2.243-3.442,3.059c-0.156-0.156-0.443-0.408-0.647-0.552
	c1.211-0.768,2.398-1.811,3.454-3.01c-0.972-0.744-2.003-1.463-2.975-2.051L524.937,81.44z"/>
<path d="M536.337,79.389c-0.036,0.132-0.156,0.204-0.396,0.192c-0.42,1.955-0.636,4.102-0.636,5.397
	c0,0.899,0.036,1.811,0.155,2.375c0.229-0.587,0.744-1.847,0.912-2.267l0.504,0.528c-0.492,1.211-0.852,1.895-1.02,2.435
	c-0.061,0.204-0.097,0.396-0.097,0.563c0,0.132,0.024,0.252,0.061,0.372l-0.852,0.156c-0.384-1.139-0.527-2.53-0.527-4.125
	c0-1.571,0.251-3.766,0.635-5.841L536.337,79.389z M543.977,88.156c-0.432,0.024-0.875,0.036-1.319,0.036
	c-0.852,0-1.655-0.048-2.23-0.132c-1.476-0.216-2.159-1.032-2.159-1.991c0-0.828,0.456-1.523,1.128-2.314l0.779,0.335
	c-0.6,0.624-1.02,1.2-1.02,1.883c0,1.391,2.039,1.391,3.286,1.391c0.504,0,1.044-0.024,1.547-0.06L543.977,88.156z M538.424,80.828
	c1.547-0.036,3.634-0.18,5.229-0.456l0.071,0.839c-1.487,0.252-3.897,0.408-5.277,0.444L538.424,80.828z"/>
<path d="M489.296,99.897c-0.023,0.06-0.119,0.108-0.264,0.084c-0.695,0.875-1.942,2.015-3.01,2.771
	c-0.097-0.18-0.324-0.492-0.468-0.648c1.007-0.66,2.194-1.727,2.807-2.603L489.296,99.897z M487.461,110.644v-5.277
	c-0.455,0.504-0.911,0.972-1.367,1.367c-0.107-0.156-0.359-0.479-0.516-0.624c1.14-0.947,2.459-2.519,3.286-4.018l0.936,0.384
	c-0.036,0.072-0.132,0.12-0.275,0.096c-0.36,0.6-0.779,1.211-1.235,1.799l0.216,0.072c-0.024,0.072-0.096,0.132-0.24,0.156v6.045
	H487.461z M496.732,103.747v0.78h-1.907v5.073c0,1.007-0.384,1.031-2.807,1.031c-0.036-0.228-0.144-0.552-0.264-0.792
	c0.527,0.012,1.02,0.024,1.392,0.024c0.779,0,0.863,0,0.863-0.276v-5.061h-4.174v-0.78H496.732z M496.276,100.257v0.768h-5.984
	v-0.768H496.276z"/>
<path d="M507.173,109.408c-1.055,0.192-2.446,0.276-3.646,0.276c-1.008,0-1.883-0.06-2.351-0.156
	c-1.451-0.324-2.075-1.235-2.075-2.291c0-0.923,0.516-1.847,1.224-2.566l0.695,0.36c-0.672,0.695-1.056,1.463-1.056,2.135
	c0,0.695,0.468,1.331,1.499,1.559c0.42,0.096,1.128,0.144,1.955,0.144c1.164,0,2.555-0.096,3.694-0.324L507.173,109.408z
	 M501.788,103.352c0.624-0.48,1.476-1.067,2.123-1.391v-0.012c-0.912,0.108-2.999,0.156-4.33,0.144c0-0.228,0-0.624-0.012-0.84
	c0.264,0.012,4.869,0.084,6.836-0.384l0.097,0.888c-1.428,0.168-3.263,1.415-4.03,2.027L501.788,103.352z"/>
<path d="M511.126,103.915c1.799-0.492,4.065-0.983,4.965-0.983c1.799,0,2.854,0.959,2.854,2.734v0.096
	c-0.024,2.183-1.739,3.778-5.182,4.701c-0.107-0.204-0.359-0.527-0.539-0.731c3.07-0.731,4.81-2.171,4.81-3.994
	c0-1.151-0.552-1.979-1.979-1.979c-0.959,0-2.866,0.432-4.342,0.947c0.013,0.096-0.107,0.216-0.228,0.276L511.126,103.915z
	 M512.805,99.766c1.643,0.144,3.538,0.492,4.821,0.936l-0.252,0.839c-1.271-0.432-3.214-0.828-4.773-0.959L512.805,99.766z"/>
<path d="M526.424,108.988c0-0.432,0.336-0.779,0.743-0.779c0.408,0,0.744,0.348,0.744,0.779s-0.336,0.78-0.744,0.78
	C526.735,109.768,526.424,109.396,526.424,108.988z M526.783,107.058l-0.18-6.573h1.151l-0.18,6.573H526.783z"/>
<path d="M538.424,108.988c0-0.432,0.336-0.779,0.743-0.779c0.408,0,0.744,0.348,0.744,0.779s-0.336,0.78-0.744,0.78
	C538.735,109.768,538.424,109.396,538.424,108.988z M538.783,107.058l-0.18-6.573h1.151l-0.18,6.573H538.783z"/>
<circle fill="#FFFFFF" cx="731" cy="211" r="105.5"/>
<circle fill="#FFFFFF" cx="850" cy="464.635" r="105.5"/>
<circle fill="#FFFFFF" cx="752.782" cy="742.5" r="105.5"/>
<circle fill="#FFFFFF" cx="468.782" cy="826.5" r="105.5"/>
<circle fill="#FFFFFF" cx="211" cy="716" r="105.5"/>
<circle fill="#FFFFFF" cx="105.5" cy="469.104" r="105.5"/>
<circle fill="#FFFFFF" cx="211" cy="211" r="105.5"/>
<polyline fill="none" stroke="#7C7C80" stroke-width="3" stroke-miterlimit="10" points="695.428,232.931 776.604,232.931 
	756.458,271.89 675.282,271.89 695.428,232.931 695.428,185.054 776.604,185.054 776.604,232.931 "/>
<rect x="698.391" y="188.61" fill="#7C7C80" stroke="#7C7C80" stroke-miterlimit="10" width="75.875" height="41.533"/>
<path d="M669.981,146.965c-0.265-0.168-0.84-0.42-1.607-0.42c-1.271,0-1.751,0.78-1.751,1.439c0,0.899,0.552,1.355,1.774,1.871
	c1.476,0.624,2.231,1.379,2.231,2.687c0,1.451-1.056,2.566-3.022,2.566c-0.828,0-1.728-0.252-2.183-0.575l0.275-0.828
	c0.492,0.324,1.224,0.563,1.967,0.563c1.224,0,1.943-0.659,1.943-1.643c0-0.899-0.492-1.451-1.68-1.931
	c-1.379-0.517-2.314-1.319-2.314-2.579c0-1.391,1.128-2.41,2.795-2.41c0.863,0,1.522,0.216,1.871,0.432L669.981,146.965z"/>
<path d="M676.821,154.702c-0.372,0.18-1.056,0.407-2.051,0.407c-1.907,0-3.047-1.343-3.047-3.298c0-2.051,1.151-3.526,2.914-3.526
	c2.016,0,2.531,1.847,2.531,2.986c0,0.228-0.013,0.396-0.024,0.552h-4.449c0.012,1.812,1.043,2.495,2.219,2.495
	c0.815,0,1.308-0.168,1.715-0.336L676.821,154.702z M676.186,151.08c0.012-0.888-0.36-2.039-1.644-2.039
	c-1.199,0-1.727,1.139-1.823,2.039H676.186z"/>
<path d="M683.589,148.441l-1.739,4.629c-0.779,2.123-1.331,3.347-2.146,4.114c-0.552,0.504-1.092,0.707-1.332,0.768l-0.275-0.84
	c1.523-0.563,2.11-2.219,2.11-2.351c0-0.06-0.023-0.156-0.071-0.276l-2.315-6.044h1.092l1.427,3.97
	c0.168,0.456,0.312,0.972,0.42,1.367h0.036c0.108-0.396,0.264-0.888,0.42-1.392l1.319-3.945H683.589z"/>
<path d="M691.041,150.083c0.864,0.204,1.883,0.924,1.883,2.303c0,0.815-0.312,1.392-0.731,1.799c-0.611,0.6-1.595,0.864-2.974,0.864
	c-0.756,0-1.319-0.061-1.691-0.097v-8.982c0.504-0.108,1.224-0.192,1.967-0.192c1.127,0,1.871,0.216,2.411,0.672
	c0.432,0.372,0.684,0.899,0.684,1.583c0,0.899-0.612,1.68-1.548,2.015V150.083z M689.59,149.748c1.212,0,1.991-0.695,1.991-1.631
	v-0.012c0-1.079-0.792-1.547-2.039-1.547c-0.527,0-0.84,0.035-1.02,0.084v3.105H689.59z M688.522,154.198
	c0.229,0.048,0.552,0.06,0.972,0.06c1.26,0,2.387-0.491,2.387-1.871c0-1.367-1.188-1.871-2.398-1.871h-0.96V154.198z"/>
<path d="M700.004,151.655c0,2.435-1.606,3.466-3.058,3.466c-1.68,0-2.975-1.259-2.975-3.37c0-2.23,1.391-3.466,3.059-3.466
	C698.816,148.285,700.004,149.652,700.004,151.655z M696.994,149.064c-1.416,0-2.003,1.392-2.003,2.65
	c0,1.452,0.804,2.627,1.979,2.627c1.188,0,2.015-1.175,2.015-2.65C698.984,150.528,698.421,149.064,696.994,149.064z"/>
<path d="M707.071,151.655c0,2.435-1.606,3.466-3.058,3.466c-1.68,0-2.975-1.259-2.975-3.37c0-2.23,1.391-3.466,3.059-3.466
	C705.884,148.285,707.071,149.652,707.071,151.655z M704.062,149.064c-1.415,0-2.003,1.392-2.003,2.65
	c0,1.452,0.804,2.627,1.979,2.627c1.188,0,2.015-1.175,2.015-2.65C706.052,150.528,705.488,149.064,704.062,149.064z"/>
<path d="M713.816,154.977h-0.996v-3.862c0-1.067-0.384-2.003-1.522-2.003c-0.852,0-1.716,0.72-1.716,1.859v4.006h-0.995v-4.857
	c0-0.672-0.024-1.163-0.048-1.691h0.888l0.06,1.067h0.024c0.323-0.635,1.079-1.211,2.099-1.211c0.815,0,2.207,0.492,2.207,2.711
	V154.977z"/>
<path d="M724.46,147.038c-0.048,0.107-0.144,0.191-0.3,0.191c-0.432,3.73-1.679,6.98-3.67,6.98c-1.008,0-1.919-1.008-1.919-2.902
	c0-2.879,2.242-5.289,5.396-5.289c3.467,0,4.966,2.194,4.966,4.533c0,2.854-1.655,4.233-4.558,4.905
	c-0.108-0.191-0.312-0.516-0.504-0.731c2.759-0.527,4.174-1.871,4.174-4.138c0-1.979-1.271-3.778-4.078-3.778
	c-0.119,0-0.251,0.013-0.359,0.024L724.46,147.038z M723.309,146.881c-2.423,0.3-3.922,2.303-3.922,4.401
	c0,1.283,0.552,2.087,1.127,2.087C721.965,153.37,723.009,150.167,723.309,146.881z"/>
<path d="M733.642,150.408c-0.552,1.403-1.344,2.662-2.267,3.562l-0.696-0.455c0.864-0.828,1.691-1.979,2.171-3.395L733.642,150.408z
	 M736.196,148.537v5.709c0,1.343-1.056,1.331-2.843,1.307c-0.048-0.216-0.144-0.551-0.264-0.791c0.275,0.012,1.619,0,1.751,0
	c0.336,0,0.491-0.216,0.491-0.504v-5.721h-4.077v-0.804h4.077v-2.459l1.14,0.061c-0.012,0.12-0.096,0.216-0.275,0.228v2.171h4.054
	v0.804H736.196z M738.343,150.047c0.876,0.972,1.883,2.375,2.53,3.49l-0.768,0.444c-0.587-1.104-1.643-2.639-2.446-3.551
	L738.343,150.047z"/>
<path d="M742.691,149.784h10.014v0.852h-9.559c-0.071,0.12-0.228,0.204-0.384,0.229L742.691,149.784z"/>
<path d="M764.202,155.325c-0.181-0.407-0.396-0.84-0.636-1.271c-2.495,0.265-6.597,0.516-8.432,0.612
	c-0.036,0.119-0.12,0.216-0.228,0.239l-0.324-1.079c0.36-0.012,0.792-0.024,1.26-0.048c0.791-2.303,1.931-5.889,2.59-8.287
	l1.164,0.312c-0.048,0.107-0.168,0.168-0.348,0.168c-0.66,2.207-1.691,5.421-2.52,7.771c1.991-0.084,4.834-0.288,6.417-0.432
	c-0.624-1.031-1.415-2.123-2.135-2.927l0.72-0.407c1.259,1.379,2.698,3.658,3.31,4.965L764.202,155.325z"/>
<path d="M766.151,151.115c0.911-0.959,2.807-3.07,3.49-3.802c0.312-0.312,0.623-0.455,0.936-0.455c0.323,0,0.647,0.168,0.972,0.455
	c1.547,1.415,4.041,4.186,5.853,6.537l-0.72,0.659c-1.703-2.362-4.21-5.205-5.553-6.452c-0.204-0.192-0.36-0.3-0.516-0.3
	c-0.156,0-0.3,0.119-0.492,0.3c-0.563,0.611-2.314,2.626-3.118,3.49c0.012,0.023,0.012,0.06,0.012,0.084
	c0,0.096-0.048,0.191-0.12,0.251L766.151,151.115z M775.242,145.035c0.731,0,1.331,0.6,1.331,1.343c0,0.744-0.6,1.344-1.331,1.344
	c-0.756,0-1.355-0.6-1.355-1.344C773.887,145.61,774.511,145.035,775.242,145.035z M776.178,146.377c0-0.527-0.42-0.959-0.936-0.959
	c-0.527,0-0.959,0.432-0.959,0.959c0,0.516,0.432,0.948,0.959,0.948C775.782,147.326,776.178,146.87,776.178,146.377z"/>
<path d="M778.691,149.784h10.014v0.852h-9.559c-0.071,0.12-0.228,0.204-0.384,0.229L778.691,149.784z"/>
<path d="M791.171,148.68c1.079,0.24,2.423,0.696,3.227,1.08l-0.36,0.755c-0.791-0.384-2.171-0.863-3.227-1.104L791.171,148.68z
	 M791.891,154.545c3.85-1.296,6.572-3.406,8.155-6.98c0.18,0.156,0.54,0.42,0.731,0.54c-1.607,3.538-4.449,5.793-8.071,7.076
	c0.036,0.107-0.036,0.252-0.132,0.3L791.891,154.545z M792.49,145.707c1.079,0.287,2.398,0.768,3.214,1.175l-0.396,0.731
	c-0.852-0.432-2.099-0.911-3.179-1.211L792.49,145.707z M798.103,145.31c0.492,0.42,1.176,1.164,1.548,1.739l-0.468,0.348
	c-0.336-0.516-1.031-1.319-1.523-1.751L798.103,145.31z M799.771,144.579c0.491,0.42,1.175,1.176,1.559,1.728l-0.468,0.348
	c-0.359-0.528-1.031-1.296-1.523-1.728L799.771,144.579z"/>
<path d="M665.867,167.474c0.899-0.036,8.287-0.564,9.847-0.576l0.012,0.899c-0.155-0.012-0.3-0.012-0.443-0.012
	c-0.695,0-1.283,0.12-2.051,0.611c-1.799,1.08-3.538,3.011-3.538,4.558c0,1.68,1.175,2.675,4.149,3.059l-0.396,0.84
	c-3.406-0.492-4.678-1.764-4.678-3.898c0-1.691,1.667-3.742,3.862-5.121c-1.319,0.096-4.857,0.359-6.405,0.504
	c-0.035,0.096-0.167,0.18-0.264,0.191L665.867,167.474z M673.639,169.836c0.576,0.432,1.26,1.14,1.632,1.655l-0.456,0.372
	c-0.336-0.528-1.067-1.271-1.583-1.668L673.639,169.836z M674.935,168.781c0.587,0.432,1.283,1.128,1.631,1.655l-0.456,0.36
	c-0.323-0.48-1.02-1.224-1.583-1.655L674.935,168.781z"/>
<path d="M679.942,170.652v3.922c0.936,1.428,2.65,1.428,4.81,1.428c1.295,0,2.818-0.036,3.754-0.097
	c-0.097,0.192-0.24,0.576-0.265,0.815c-0.827,0.036-2.146,0.061-3.334,0.061c-2.471,0-4.113,0-5.325-1.487
	c-0.588,0.527-1.223,1.067-1.738,1.476c0.012,0.107-0.024,0.155-0.108,0.191l-0.468-0.888c0.576-0.384,1.283-0.936,1.895-1.463
	v-3.19h-1.763v-0.768H679.942z M678.155,166.155c0.804,0.516,1.739,1.307,2.146,1.895l-0.636,0.54
	c-0.396-0.6-1.307-1.415-2.11-1.955L678.155,166.155z M688.325,171.48h-3.19c0.504,1.595,1.548,2.662,3.215,3.154
	c-0.18,0.155-0.408,0.455-0.516,0.671c-1.631-0.563-2.675-1.655-3.274-3.286c-0.348,1.128-1.211,2.314-3.238,3.238
	c-0.107-0.18-0.359-0.456-0.54-0.6c2.171-0.899,2.879-2.099,3.106-3.178h-3.214v-0.744h3.298c0.013-0.144,0.013-0.288,0.013-0.42
	v-1.379h-2.915v-0.744h4.773l-0.611-0.275c0.407-0.552,0.923-1.451,1.199-2.062l0.959,0.359c-0.035,0.084-0.119,0.108-0.264,0.12
	c-0.312,0.552-0.827,1.343-1.247,1.858h2.087v0.744h-3.179v1.379c0,0.132,0,0.276-0.012,0.42h3.55V171.48z M682.665,168.193
	c-0.156-0.551-0.612-1.402-1.092-2.015l0.684-0.288c0.492,0.601,0.972,1.416,1.127,1.968L682.665,168.193z"/>
<path d="M691.679,170.652v3.958c0.935,1.439,2.71,1.439,4.772,1.439c1.38,0,3.059-0.036,4.055-0.097
	c-0.108,0.181-0.229,0.54-0.265,0.768c-0.827,0.024-2.158,0.049-3.37,0.049c-2.674,0-4.342,0-5.528-1.487
	c-0.528,0.539-1.092,1.067-1.535,1.487c0,0.096-0.024,0.132-0.108,0.18l-0.456-0.815c0.504-0.396,1.128-0.924,1.668-1.439v-3.274
	h-1.548v-0.768H691.679z M690.083,166.142c0.731,0.576,1.547,1.416,1.896,2.027l-0.672,0.468c-0.324-0.624-1.128-1.499-1.848-2.087
	L690.083,166.142z M695.948,173.17c-1.176,0.384-2.387,0.768-3.167,1.008c-0.012,0.084-0.071,0.155-0.155,0.18l-0.348-0.84
	c0.251-0.06,0.527-0.132,0.839-0.216v-6.464l0.492,0.144c0.731-0.336,1.523-0.756,1.979-1.127l0.672,0.647
	c-0.024,0.036-0.108,0.06-0.216,0.036c-0.54,0.348-1.379,0.731-2.183,1.043v5.505c0.636-0.168,1.319-0.372,2.003-0.575
	L695.948,173.17z M697.087,167.498v8.012h-0.743v-8.719h3.55v6.309c0,0.815-0.396,0.887-1.847,0.887
	c-0.036-0.203-0.145-0.516-0.252-0.72c0.275,0.013,0.527,0.013,0.731,0.013c0.552,0,0.611,0,0.611-0.192v-5.589H697.087z"/>
<path d="M707.576,168.038c-0.048,0.107-0.144,0.191-0.3,0.191c-0.432,3.73-1.679,6.98-3.67,6.98c-1.008,0-1.919-1.008-1.919-2.902
	c0-2.879,2.242-5.289,5.396-5.289c3.467,0,4.966,2.194,4.966,4.533c0,2.854-1.655,4.233-4.558,4.905
	c-0.108-0.191-0.312-0.516-0.504-0.731c2.759-0.527,4.174-1.871,4.174-4.138c0-1.979-1.271-3.778-4.078-3.778
	c-0.119,0-0.252,0.013-0.359,0.024L707.576,168.038z M706.425,167.881c-2.423,0.3-3.922,2.303-3.922,4.401
	c0,1.283,0.552,2.087,1.127,2.087C705.081,174.37,706.125,171.167,706.425,167.881z"/>
<path d="M723.81,170.4l0.6,0.145c-0.036,0.132-1.511,2.135-2.878,3.25l-0.66-0.42c0.672-0.54,1.464-1.392,2.087-2.195h-3.478
	c-0.024,0.072-0.084,0.108-0.24,0.133v4.689c0,0.516-0.132,0.755-0.54,0.887c-0.407,0.12-1.115,0.12-2.183,0.12
	c-0.048-0.228-0.191-0.552-0.312-0.779c0.516,0.012,0.995,0.023,1.367,0.023c0.779,0,0.84,0,0.84-0.264v-4.81h-4.954v-0.768h6.453
	c-1.008-0.635-2.495-1.343-3.742-1.786l0.552-0.588c0.743,0.252,1.583,0.6,2.362,0.972c0.804-0.456,1.691-1.092,2.352-1.68h-6.837
	v-0.756h7.424c0.229,0,0.252,0,0.42-0.048l0.72,0.48c-0.048,0.048-0.132,0.084-0.216,0.096c-0.779,0.756-1.967,1.655-3.059,2.314
	c0.468,0.252,0.888,0.504,1.212,0.731l-0.229,0.264h2.771L723.81,170.4z"/>
<path d="M726.935,173.002c-0.023,0.072-0.096,0.12-0.24,0.12c-0.191,1.02-0.527,2.171-0.935,2.879
	c-0.145-0.097-0.433-0.229-0.612-0.312c0.396-0.672,0.696-1.822,0.888-2.914L726.935,173.002z M728.266,166.226
	c-0.06,0.084-0.155,0.108-0.252,0.097c-0.371,0.695-0.971,1.667-1.475,2.351c0.323,0.312,0.623,0.623,0.84,0.899
	c0.587-0.815,1.15-1.667,1.547-2.363l0.863,0.408c-0.036,0.072-0.132,0.096-0.264,0.096c-0.672,1.044-1.728,2.459-2.663,3.502
	c0.768-0.012,1.596-0.023,2.435-0.048c-0.239-0.396-0.516-0.804-0.791-1.139c0.336-0.181,0.468-0.24,0.588-0.312
	c0.611,0.756,1.259,1.764,1.511,2.423l-0.623,0.359c-0.084-0.203-0.192-0.443-0.336-0.707l-1.392,0.072v5.133h-0.756v-5.098
	c-0.743,0.024-1.415,0.061-1.942,0.072c-0.024,0.096-0.097,0.144-0.18,0.156l-0.217-0.899h0.9c0.287-0.324,0.587-0.684,0.887-1.08
	c-0.384-0.516-1.067-1.188-1.654-1.667l0.396-0.516c0.12,0.096,0.239,0.192,0.372,0.288c0.468-0.695,1.019-1.691,1.331-2.398
	L728.266,166.226z M729.693,175.377c-0.132-0.647-0.516-1.655-0.888-2.411l0.647-0.228c0.384,0.756,0.779,1.739,0.936,2.387
	L729.693,175.377z M735.714,168.122l0.432,0.048c0,0.072-0.012,0.18-0.023,0.264c-0.192,5.625-0.384,7.508-0.864,8.096
	c-0.323,0.396-0.647,0.468-1.475,0.468c-0.408,0-0.899-0.012-1.38-0.048c-0.023-0.229-0.107-0.552-0.264-0.768
	c0.828,0.071,1.583,0.084,1.883,0.084c0.24,0,0.396-0.036,0.528-0.192c0.396-0.42,0.6-2.278,0.779-7.16h-3.766
	c-0.324,0.744-0.696,1.416-1.08,1.932c-0.155-0.12-0.455-0.324-0.659-0.433c0.804-1.043,1.499-2.83,1.919-4.569l1.008,0.265
	c-0.024,0.107-0.133,0.144-0.265,0.132c-0.168,0.636-0.371,1.271-0.611,1.895h3.658L735.714,168.122z M731.792,170.772
	c0.695,0.875,1.439,2.039,1.728,2.818l-0.708,0.384c-0.276-0.768-0.995-1.979-1.679-2.866L731.792,170.772z"/>
<path fill="#7C7D81" stroke="#7C7D81" stroke-miterlimit="10" d="M870.995,505.92c-0.06,9.113,7.277,16.529,16.386,16.58
	c9.102,0.053,16.52-7.283,16.577-16.387c0.051-9.105-7.287-16.525-16.387-16.576C878.464,489.486,871.037,496.814,870.995,505.92z"
	/>
<path fill="#7C7D81" stroke="#7C7D81" stroke-miterlimit="10" d="M794.451,505.475c-0.056,9.107,7.284,16.525,16.384,16.58
	c9.104,0.051,16.526-7.281,16.574-16.387c0.058-9.102-7.283-16.525-16.389-16.576C801.923,489.035,794.499,496.375,794.451,505.475z
	"/>
<path fill="#7C7D81" stroke="#7C7D81" stroke-miterlimit="10" d="M865.869,506.84l-33.724-0.201c0,0,0.316-22.727-21.088-23.043
	c-21.408-0.314-21.344,21.852-21.344,21.852l-6.443-0.039c0,0-6.803-3.445-6.589-7.619c0.216-4.16,1.404-12.68,4.487-22.322
	c3.086-9.654,7.882-18.904,10.747-22.867c2.864-3.961,17.534-18.844,31.57-20.473c14.027-1.619,29.951-3.233,38.638,1.742
	c8.686,4.98,14.145,10.508,17.157,14.877c3.003,4.379,7.315,12.553,7.315,12.553l20.649,0.307c0,0,13.057,2.16,16.793,12.414
	c3.728,10.252,3.849,22.191,3.849,22.191s-2.7,9.076-10.1,9.979c-7.394,0.906-8.719,0.896-8.719,0.896s-0.629-22.352-21.471-22.859
	C866.759,483.729,865.869,506.84,865.869,506.84z"/>
<path fill="#FFFFFF" stroke="#7C7D81" stroke-miterlimit="10" d="M871.238,462.723l-36.954,2.438l0.139-24.252l11.555,0.068
	c0,0,11.551,2.154,15.883,6.533C866.187,451.895,871.238,462.723,871.238,462.723z"/>
<path fill="#FFFFFF" stroke="#7C7D81" stroke-miterlimit="10" d="M823.237,442.549l-0.137,23.492l-25.958-0.15
	c0,0,4.619-11.719,8.794-14.535C810.127,448.533,816.212,443.838,823.237,442.549z"/>
<path d="M805.384,409.282h-3.838v1.883h3.238v7.604h-0.815v-0.708h-8.023v0.768h-0.78v-7.664h2.879v-1.883h-3.551v-0.779h10.891
	V409.282z M803.969,417.306v-5.385h-2.459v2.339c0,0.264,0.048,0.312,0.359,0.312h1.032c0.275,0,0.323-0.12,0.359-0.983
	c0.156,0.12,0.468,0.228,0.695,0.288c-0.096,1.139-0.3,1.415-0.959,1.415h-1.224c-0.852,0-1.043-0.216-1.043-1.02v-2.351h-1.896
	v0.527c0,1.151-0.384,2.627-1.99,3.634c-0.108-0.144-0.408-0.432-0.588-0.527c1.511-0.911,1.811-2.146,1.811-3.13v-0.504h-2.122
	v5.385H803.969z M800.73,411.165v-1.883h-1.896v1.883H800.73z"/>
<path d="M810.212,412.305c0.275-0.624,0.6-1.631,0.768-2.314l0.923,0.264c-0.023,0.072-0.107,0.107-0.252,0.12
	c-0.18,0.587-0.479,1.451-0.755,2.051h1.787v0.743h-6.321v-0.743h4.222L810.212,412.305z M812.479,409.091v0.719h-5.805v-0.719
	h2.494v-1.403l1.02,0.06c-0.012,0.084-0.084,0.144-0.239,0.168v1.176H812.479z M807.189,418.841v-4.558h4.749v4.486h-0.779v-0.612
	h-3.202v0.684H807.189z M808.112,410.109c0.276,0.612,0.504,1.428,0.576,1.955l-0.708,0.168c-0.06-0.527-0.275-1.355-0.527-1.979
	L808.112,410.109z M811.159,415.003h-3.202v2.435h3.202V415.003z M816.988,408.371l0.527,0.264c-0.012,0.06-0.06,0.096-0.108,0.12
	c-0.455,1.02-1.091,2.314-1.751,3.573c1.296,1.212,1.835,2.111,1.835,2.975c0,1.883-1.307,1.883-2.087,1.883
	c-0.18,0-0.371,0-0.551-0.012c-0.013-0.216-0.12-0.563-0.276-0.791c0.264,0.023,0.516,0.035,0.744,0.035
	c0.803,0,1.379-0.035,1.379-1.139c0-0.78-0.588-1.619-1.896-2.818c0.588-1.188,1.104-2.315,1.512-3.287h-2.387v9.655h-0.779v-10.423
	h3.682L816.988,408.371z"/>
<path d="M820.7,415.099l1.392-0.552l0.156,0.696c-1.248,0.575-2.579,1.14-3.419,1.499c0,0.096-0.048,0.168-0.132,0.204l-0.42-0.912
	c0.456-0.155,1.032-0.384,1.655-0.623v-3.982h-1.451v-0.768h1.451v-2.866l1.008,0.072c-0.012,0.084-0.084,0.132-0.24,0.156v2.638
	h1.355v0.768H820.7V415.099z M823.843,417.018c0,0.66,0.156,0.816,0.995,0.816h3.059c0.72,0,0.84-0.336,0.936-1.775
	c0.191,0.144,0.504,0.275,0.731,0.324c-0.132,1.654-0.396,2.183-1.655,2.183h-3.094c-1.355,0-1.739-0.3-1.739-1.56v-4.042
	l-1.211,0.516l-0.312-0.719l1.523-0.648v-3.286l1.008,0.072c-0.013,0.084-0.084,0.144-0.24,0.168v2.711l1.739-0.744v-3.346
	l0.995,0.06c-0.012,0.084-0.072,0.144-0.228,0.168v2.794l1.919-0.827l0.168-0.132l0.659,0.24c-0.012,0.048-0.06,0.096-0.12,0.132
	c0,2.278-0.036,4.174-0.132,4.629c-0.107,0.731-0.516,0.852-1.787,0.852c-0.036-0.228-0.096-0.527-0.191-0.72
	c0.3,0.024,0.72,0.024,0.852,0.024c0.191,0,0.323-0.06,0.384-0.348c0.071-0.3,0.096-1.787,0.096-3.802l-1.847,0.791v4.605h-0.768
	v-4.27l-1.739,0.744V417.018z"/>
<path d="M841.384,417.354v0.768h-9.571v0.731h-0.803v-10.397h10.11v0.779h-9.308v8.119H841.384z M833.672,410.626
	c0.947,0.563,1.967,1.247,2.927,1.967c0.731-0.912,1.391-1.896,1.919-2.902c0.552,0.239,0.768,0.323,0.971,0.407
	c-0.035,0.084-0.155,0.12-0.3,0.096c-0.563,1.008-1.223,1.979-1.954,2.879c1.139,0.888,2.146,1.787,2.806,2.555l-0.636,0.6
	c-0.611-0.756-1.57-1.655-2.674-2.543c-1.056,1.199-2.231,2.243-3.442,3.059c-0.156-0.156-0.443-0.408-0.647-0.552
	c1.211-0.768,2.398-1.811,3.454-3.011c-0.972-0.743-2.003-1.463-2.975-2.051L833.672,410.626z"/>
<path d="M842.35,413.408c0.504-0.479,1.739-1.787,2.375-2.471c0.923-1.02,1.379-1.247,1.979-1.247c0.72,0,1.235,0.455,2.303,1.727
	c0.852,1.031,2.818,3.227,4.521,4.785l-0.636,0.744c-1.643-1.487-3.598-3.73-4.317-4.63c-1.02-1.247-1.392-1.727-1.883-1.727
	c-0.479,0-0.852,0.396-1.583,1.223c-0.408,0.468-1.38,1.535-1.896,2.111c0.013,0.156-0.035,0.275-0.132,0.336L842.35,413.408z"/>
<path d="M864.45,417.438c-0.492,0.192-1.451,0.468-2.603,0.468c-3.587,0-4.438-2.674-4.438-4.605c0-2.782,1.811-4.713,4.677-4.713
	c0.876,0,1.655,0.168,2.111,0.384l-0.264,0.827c-0.444-0.204-1.02-0.372-1.871-0.372c-2.159,0-3.61,1.392-3.61,3.814
	c0,2.471,1.379,3.85,3.466,3.85c0.768,0,1.283-0.12,1.548-0.264v-2.927h-1.848v-0.804h2.831V417.438z"/>
<path d="M873.521,413.156c0,3.214-1.799,4.797-3.958,4.797c-2.267,0-3.873-1.787-3.873-4.641c0-2.975,1.69-4.786,3.981-4.786
	C872.011,408.526,873.521,410.397,873.521,413.156z M866.733,413.288c0,1.943,1.008,3.838,2.866,3.838
	c1.883,0,2.879-1.835,2.879-3.922c0-1.835-0.899-3.85-2.854-3.85C867.609,409.354,866.733,411.345,866.733,413.288z"/>
<circle stroke="#FFFFFF" stroke-width="2" stroke-miterlimit="10" cx="809.39" cy="703.137" r="7.803"/>
<path stroke="#FFFFFF" stroke-width="2" stroke-miterlimit="10" d="M780.827,722.25l16.179,1.574l11.024-9.449l3.723-1.574h4.296
	l4.438,3.723l1.288,29.494l-1.432,3.294l-2.147,1.573l-16.895,0.718l-1.289,18.756c0,0-1.576,3.721-3.724,3.721
	c-2.146,0-4.008-3.865-4.008-3.865l-1.718-21.906l-0.144-4.009l1.432-2.863l2.147-1.002l13.028-0.43l-0.285-13.029l-6.301,3.723
	c0,0-1.574,1.146-3.006,1.146s-3.437-0.859-3.437-0.859l-8.019-1.575l-6.299-1.718c0,0-2.147-0.286-2.147-2.435
	c0-2.146,0.716-2.291,0.716-2.291s-9.308-16.894-14.604-22.047c-5.297-5.155-8.878-8.306-14.316-10.167
	c-5.441-1.86-8.162-2.863-12.743-0.716c-4.583,2.148-5.727,3.293-5.727,3.293s-1.862,0,0-1.574c1.86-1.575,6.013-3.598,6.013-3.598
	s6.299-2.882,12.6,0c6.3,2.882,14.317,8.036,17.753,13.048c3.437,5.01,9.594,12.741,9.594,12.741L780.827,722.25z"/>
<path stroke="#FFFFFF" stroke-miterlimit="10" d="M730.032,696.623l-23.227,82.039c0,0-2.625,1.861-1.742-0.86
	c0.882-2.72,22.789-81.179,22.789-81.179S729.634,692.756,730.032,696.623z"/>
<rect x="804.451" y="753.178" stroke="#FFFFFF" stroke-width="2" stroke-miterlimit="10" width="21.739" height="3.577"/>
<path stroke="#FFFFFF" stroke-width="2" stroke-miterlimit="10" d="M823.426,773.673c-0.688,0.71-1.821,0.727-2.532,0.039
	l-13.638-13.21c-0.71-0.688-0.728-1.819-0.041-2.53l0,0c0.688-0.71,1.821-0.728,2.532-0.04l13.639,13.21
	C824.097,771.828,824.112,772.962,823.426,773.673L823.426,773.673z"/>
<path stroke="#FFFFFF" stroke-width="2" stroke-miterlimit="10" d="M823.623,758.182c0.669,0.729,0.623,1.859-0.104,2.53
	l-13.972,12.855c-0.728,0.669-1.86,0.622-2.529-0.104l0,0c-0.67-0.728-0.623-1.861,0.105-2.53l13.972-12.855
	C821.822,757.407,822.955,757.455,823.623,758.182L823.623,758.182z"/>
<circle stroke="#FFFFFF" stroke-width="2" stroke-miterlimit="10" cx="784.791" cy="720.917" r="7.803"/>
<path stroke="#FFFFFF" stroke-width="2" stroke-miterlimit="10" d="M756.228,740.03l16.179,1.575l11.024-9.449l3.723-1.575h4.296
	l4.438,3.723l1.288,29.494l-1.432,3.294l-2.146,1.574l-16.896,0.717l-1.289,18.756c0,0-1.575,3.721-3.723,3.721
	s-4.009-3.865-4.009-3.865l-1.718-21.905l-0.144-4.009l1.432-2.864l2.147-1.001l13.028-0.431l-0.285-13.029l-6.301,3.723
	c0,0-1.574,1.146-3.006,1.146s-3.437-0.858-3.437-0.858l-8.019-1.576l-6.298-1.717c0,0-2.148-0.287-2.148-2.435
	s0.716-2.292,0.716-2.292s-9.307-16.894-14.604-22.047c-5.297-5.155-8.876-8.306-14.316-10.167
	c-5.441-1.86-8.161-2.862-12.743-0.716c-4.583,2.148-5.726,3.293-5.726,3.293s-1.862,0,0-1.573c1.859-1.576,6.012-3.599,6.012-3.599
	s6.3-2.881,12.6,0c6.3,2.883,14.317,8.037,17.753,13.048c3.437,5.01,9.594,12.741,9.594,12.741L756.228,740.03z"/>
<path stroke="#FFFFFF" stroke-miterlimit="10" d="M705.433,714.403l-23.227,82.039c0,0-2.625,1.861-1.742-0.859
	c0.883-2.72,22.789-81.18,22.789-81.18S705.035,710.536,705.433,714.403z"/>
<rect x="779.852" y="770.958" stroke="#FFFFFF" stroke-width="2" stroke-miterlimit="10" width="21.74" height="3.577"/>
<path stroke="#FFFFFF" stroke-width="2" stroke-miterlimit="10" d="M798.826,791.453c-0.688,0.71-1.82,0.728-2.531,0.039
	l-13.639-13.21c-0.709-0.688-0.728-1.819-0.04-2.53l0,0c0.688-0.71,1.82-0.728,2.531-0.04l13.639,13.21
	C799.496,789.609,799.514,790.742,798.826,791.453L798.826,791.453z"/>
<path stroke="#FFFFFF" stroke-width="2" stroke-miterlimit="10" d="M799.024,775.962c0.669,0.729,0.622,1.86-0.104,2.53
	l-13.973,12.855c-0.728,0.669-1.86,0.623-2.53-0.104l0,0c-0.669-0.728-0.621-1.86,0.106-2.529l13.972-12.856
	C797.223,775.188,798.355,775.235,799.024,775.962L799.024,775.962z"/>
<path d="M744.394,673.684h-4.233c1.067,1.115,2.794,2.062,4.449,2.519c-0.18,0.168-0.42,0.468-0.539,0.684
	c-1.716-0.563-3.551-1.667-4.689-2.975v3.238h-0.815v-3.286c-1.128,1.343-2.987,2.507-4.63,3.106
	c-0.132-0.204-0.372-0.516-0.552-0.672c1.571-0.504,3.298-1.487,4.365-2.614h-4.138v-0.72h4.954v-1.067l1.055,0.06
	c-0.012,0.096-0.084,0.156-0.239,0.168v0.84h5.013V673.684z M733.456,671.429c0.72-0.36,1.774-0.972,2.83-1.571l0.228,0.672
	c-0.899,0.539-1.847,1.104-2.446,1.451c0,0.096-0.048,0.18-0.12,0.216L733.456,671.429z M734.415,666.751
	c0.744,0.527,1.571,1.331,1.931,1.919l-0.611,0.527c-0.336-0.6-1.14-1.427-1.883-1.99L734.415,666.751z M741.264,667.243v4.593
	h-4.498v-4.593h1.535c0.132-0.396,0.276-0.888,0.36-1.248l0.995,0.229c-0.023,0.071-0.107,0.12-0.24,0.12
	c-0.083,0.251-0.203,0.587-0.335,0.899H741.264z M740.472,669.21v-1.308h-2.938v1.308H740.472z M740.472,671.177v-1.331h-2.938
	v1.331H740.472z M741.839,669.689c0.947,0.479,2.159,1.235,2.759,1.763l-0.492,0.612c-0.587-0.54-1.774-1.319-2.746-1.835
	L741.839,669.689z M741.516,668.694c0.623-0.54,1.463-1.428,1.942-2.075l0.828,0.516c-0.036,0.06-0.12,0.096-0.265,0.072
	c-0.491,0.588-1.283,1.367-1.906,1.906L741.516,668.694z"/>
<path d="M749.354,666.523c-0.023,0.144-0.132,0.228-0.372,0.264c-0.096,1.392-0.216,4.569-0.216,6.345
	c0,1.787,0.888,2.65,2.399,2.65c1.463,0,2.95-0.731,4.317-2.279c0.12,0.192,0.396,0.576,0.539,0.708
	c-1.402,1.595-3.105,2.435-4.869,2.435c-2.183,0-3.298-1.259-3.298-3.526c0-1.511,0.107-5.229,0.191-6.704L749.354,666.523z"/>
<path d="M762.169,666.487c-0.012,0.132-0.12,0.204-0.336,0.252c-0.012,0.455-0.048,0.911-0.071,1.391
	c0.983-0.096,1.895-0.275,2.603-0.491l0.132,0.804c-0.684,0.204-1.691,0.384-2.795,0.468c-0.084,1.02-0.18,1.967-0.239,2.555
	c0.023,0.132,0.023,0.264,0.023,0.407c0,0.66-0.204,1.392-0.563,1.859c-0.24,0.479-0.359,0.863-0.359,1.163
	c0,0.888,0.995,0.995,2.29,0.995c2.435,0,3.502-0.335,3.502-1.57c0-0.612-0.323-1.403-1.104-2.339
	c0.229-0.084,0.517-0.192,0.732-0.324c0.863,1.067,1.271,2.039,1.271,2.83c0,0.936-0.563,1.619-1.606,1.896
	c-0.324,0.084-1.199,0.275-2.747,0.275c-1.007,0-3.166,0-3.166-1.522c0-0.276,0.072-0.588,0.228-0.924
	c-0.18,0.072-0.371,0.108-0.563,0.108c-0.731,0-1.438-0.576-1.438-1.739c0-1.428,0.947-2.255,1.942-2.255
	c0.324,0,0.624,0.132,0.815,0.348l0.132-1.727c-0.972,0.048-2.555,0.023-2.566,0.023v-0.768c0.468,0.012,2.314,0,2.603-0.012
	c0.048-0.66,0.072-1.296,0.072-1.812L762.169,666.487z M760.706,671.98c0-0.552-0.252-1.008-0.779-1.008
	c-0.828,0-1.271,0.695-1.271,1.535c0,0.672,0.348,1.104,0.888,1.104C760.562,673.611,760.706,672.232,760.706,671.98z
	 M768.238,670.505c-0.9-0.479-2.171-0.791-3.335-0.947l0.181-0.744c1.175,0.133,2.506,0.444,3.418,0.9L768.238,670.505z"/>
<rect x="420.38" y="826.71" stroke="#FFFFFF" stroke-miterlimit="10" width="99.722" height="68.993"/>
<polygon points="470.953,778.963 399.936,830.175 538.752,830.175 "/>
<rect x="431.942" y="832.4" fill="none" stroke="#FFFFFF" stroke-width="4" stroke-miterlimit="10" width="47.655" height="41.253"/>
<rect x="438.629" y="838.091" fill="#FFFFFF" width="12.751" height="12.091"/>
<rect x="458.783" y="838.091" fill="#FFFFFF" width="12.749" height="12.091"/>
<rect x="438.629" y="855.16" fill="#FFFFFF" width="12.751" height="12.093"/>
<rect x="458.783" y="855.16" fill="#FFFFFF" width="12.749" height="12.093"/>
<path fill="#FFFFFF" d="M490.029,891.436v-13.514c0,0-1.858-16.358,8.81-16.714c10.67-0.356,9.959,15.113,9.959,15.113l0.009,15.114
	H490.029z"/>
<path d="M440.83,768.858c0.647,0.659,1.344,1.583,1.632,2.219l-0.636,0.384c-0.084-0.181-0.192-0.396-0.336-0.624
	c-1.248,0.348-2.531,0.708-3.382,0.911c0,0.097-0.061,0.156-0.133,0.192l-0.396-0.876l0.888-0.191v-6.213
	c-0.132,0.132-0.264,0.264-0.408,0.396c-0.144-0.168-0.407-0.407-0.588-0.516c1.164-0.972,2.016-2.255,2.507-3.238l0.972,0.156
	c-0.023,0.084-0.084,0.132-0.216,0.156c0.779,0.552,1.691,1.343,2.146,1.871l-0.575,0.551c-0.408-0.503-1.212-1.247-1.943-1.822
	c-0.443,0.72-1.02,1.535-1.738,2.29h1.379v-1.175l0.936,0.06c-0.012,0.084-0.084,0.132-0.229,0.156v0.959h1.535v3.91h-3.021v2.279
	c0.587-0.133,1.235-0.288,1.87-0.444c-0.264-0.372-0.575-0.743-0.863-1.056L440.83,768.858z M441.502,765.14h-2.278v0.983h2.278
	V765.14z M439.224,767.778h2.278v-1.031h-2.278V767.778z M445.951,764.265v1.439c-0.012,0.923,0.36,4.413,2.879,6.057
	c-0.156,0.18-0.396,0.503-0.516,0.707c-2.015-1.367-2.639-3.958-2.747-4.953h-0.012c-0.12,1.008-0.791,3.526-2.962,4.941
	c-0.097-0.168-0.336-0.492-0.48-0.647c2.699-1.703,3.047-5.134,3.047-6.104v-1.439h-0.888c-0.288,1.007-0.659,1.919-1.104,2.578
	c-0.156-0.132-0.468-0.323-0.659-0.432c0.768-1.115,1.283-3.106,1.57-5.097l1.032,0.203c-0.036,0.097-0.12,0.145-0.265,0.145
	c-0.096,0.623-0.228,1.247-0.371,1.858h3.586l0.479,0.024c0,0.24-0.359,2.303-0.791,3.406l-0.612-0.324
	c0.192-0.6,0.384-1.523,0.516-2.362H445.951z"/>
<path d="M455.876,761.314c-0.023,0.084-0.12,0.144-0.239,0.168c1.187,1.391,3.357,2.842,5.192,3.573
	c-0.18,0.192-0.371,0.48-0.503,0.708c-1.859-0.84-4.019-2.339-5.205-3.73c-1.032,1.308-3.047,2.831-5.098,3.814
	c-0.108-0.18-0.312-0.479-0.468-0.647c2.087-0.936,4.162-2.531,5.146-3.946L455.876,761.314z M455.385,768.93
	c0.3,0.468,0.684,0.876,1.139,1.235c0.936-0.504,2.111-1.235,2.807-1.799l0.744,0.563c-0.061,0.061-0.156,0.084-0.265,0.061
	c-0.695,0.491-1.763,1.115-2.687,1.583c0.972,0.588,2.171,0.972,3.551,1.175c-0.18,0.168-0.396,0.492-0.504,0.708
	c-2.591-0.468-4.569-1.607-5.613-3.526h-1.906v2.471c0.983-0.084,2.074-0.191,3.142-0.288v0.684
	c-1.835,0.204-3.802,0.408-4.989,0.517c-0.023,0.096-0.084,0.155-0.18,0.167l-0.3-0.887l1.535-0.132v-6.633h2.854v-1.463l1.056,0.06
	c-0.013,0.084-0.072,0.144-0.24,0.168v1.235h2.95v4.102H455.385z M457.675,765.488h-5.024v1.055h5.024V765.488z M452.65,767.167
	v1.104h5.024v-1.104H452.65z"/>
<path d="M467.924,762.921h4.726v0.768h-9.271v2.399c0,1.847-0.156,4.545-1.188,6.38c-0.144-0.144-0.504-0.372-0.695-0.468
	c0.983-1.739,1.079-4.174,1.079-5.912v-3.167h4.521v-1.606l1.067,0.071c-0.012,0.084-0.072,0.145-0.24,0.168V762.921z
	 M468.56,764.036c-0.012,0.084-0.071,0.145-0.239,0.168v1.271h4.161v0.731h-4.161v1.835h3.322v4.402h-0.816v-0.456h-5.469v0.491
	h-0.791v-4.438h2.95v-4.077L468.56,764.036z M470.826,771.257v-2.482h-5.469v2.482H470.826z"/>
<path d="M476.326,762.201c-0.036,0.133-0.156,0.204-0.396,0.192c-0.42,1.955-0.636,4.102-0.636,5.397
	c0,0.899,0.036,1.811,0.155,2.374c0.229-0.588,0.744-1.847,0.912-2.267l0.504,0.527c-0.492,1.212-0.852,1.896-1.02,2.436
	c-0.061,0.203-0.097,0.396-0.097,0.563c0,0.132,0.024,0.252,0.061,0.371l-0.852,0.156c-0.384-1.14-0.527-2.53-0.527-4.126
	c0-1.57,0.251-3.766,0.635-5.841L476.326,762.201z M483.966,770.969c-0.432,0.024-0.875,0.036-1.319,0.036
	c-0.852,0-1.655-0.048-2.23-0.132c-1.476-0.216-2.159-1.031-2.159-1.991c0-0.827,0.456-1.523,1.128-2.314l0.779,0.336
	c-0.6,0.623-1.02,1.199-1.02,1.883c0,1.391,2.039,1.391,3.286,1.391c0.504,0,1.044-0.023,1.547-0.06L483.966,770.969z
	 M478.413,763.641c1.547-0.036,3.634-0.18,5.229-0.455l0.071,0.839c-1.487,0.252-3.897,0.408-5.277,0.444L478.413,763.641z"/>
<path d="M496.613,767.095v0.731h-1.942v3.683c0,0.936-0.384,0.936-2.435,0.936c-0.036-0.216-0.156-0.516-0.265-0.744
	c0.78,0.024,1.439,0.024,1.655,0.024c0.192-0.013,0.24-0.072,0.24-0.229v-3.67h-8.132v-0.731h8.779
	c-0.888-0.479-2.507-1.067-3.861-1.427c-0.636,0.671-1.691,1.115-3.515,1.391c-0.06-0.18-0.24-0.479-0.372-0.623
	c2.027-0.264,3.022-0.708,3.538-1.535h-2.902v-0.672h3.19c0.084-0.275,0.144-0.576,0.18-0.924l0.972,0.084
	c-0.012,0.084-0.096,0.132-0.228,0.156c-0.036,0.24-0.084,0.468-0.132,0.684h3.525v0.672h-3.766l-0.107,0.228
	c1.379,0.336,3.046,0.936,3.957,1.403l-0.384,0.563H496.613z M486.935,763.173v1.367h-0.755v-2.087h4.569v-1.151l1.043,0.061
	c-0.012,0.096-0.084,0.144-0.239,0.168v0.923h4.629v2.087h-0.791v-1.367H486.935z M491.924,768.582v2.543h-3.766v0.527h-0.756v-3.07
	H491.924z M491.169,769.229h-3.011v1.247h3.011V769.229z"/>
<path d="M501.682,766.579c0.791-0.407,2.026-0.695,2.975-0.695c1.906,0,3.105,1.115,3.105,2.878c0,2.171-1.906,3.37-4.317,3.37
	c-1.559,0-2.626-0.623-2.626-1.679c0-0.888,0.875-1.607,1.967-1.607c1.354,0,2.267,1.08,2.446,2.171
	c0.96-0.359,1.655-1.127,1.655-2.242c0-1.296-0.96-2.123-2.471-2.123c-1.799,0-3.562,0.804-4.354,1.571
	c-0.36,0.336-0.828,0.839-1.151,1.211l-0.612-0.611c1.08-1.128,4.51-4.402,6.141-5.925c-0.695,0.096-3.094,0.191-4.461,0.239
	c-0.036,0.084-0.156,0.156-0.252,0.181l-0.096-1.02c1.619-0.013,4.713-0.132,5.589-0.265l0.18-0.083l0.636,0.779
	c-0.061,0.048-0.168,0.096-0.288,0.107c-0.852,0.696-3.13,2.831-4.065,3.73V766.579z M503.337,771.377
	c0.359,0,0.779-0.049,1.091-0.12c-0.132-0.924-0.815-1.703-1.703-1.703c-0.623,0-1.175,0.336-1.175,0.888
	C501.55,771.173,502.545,771.377,503.337,771.377z"/>
<path d="M152.397,668.166c1.799-0.491,4.066-0.983,4.965-0.983c1.799,0,2.854,0.96,2.854,2.734v0.096
	c-0.024,2.184-1.739,3.778-5.181,4.702c-0.108-0.204-0.36-0.528-0.54-0.731c3.07-0.732,4.809-2.171,4.809-3.994
	c0-1.151-0.552-1.979-1.979-1.979c-0.959,0-2.866,0.433-4.341,0.948c0.012,0.096-0.108,0.216-0.228,0.275L152.397,668.166z
	 M154.077,664.017c1.643,0.144,3.538,0.491,4.821,0.936l-0.252,0.839c-1.271-0.432-3.214-0.827-4.773-0.959L154.077,664.017z"/>
<path d="M163.846,665.611c0.744,0.048,1.739,0.048,2.555,0.048c0.54,0,1.151-0.012,1.655-0.023
	c-0.012-0.576-0.024-1.247-0.024-1.667l1.211,0.06c-0.012,0.144-0.12,0.216-0.324,0.252c-0.012,0.191,0,1.115,0,1.319
	c1.403-0.072,2.794-0.192,3.982-0.468l0.108,0.792c-1.175,0.264-2.566,0.384-4.09,0.455c0.012,0.72,0.024,1.464,0.048,2.207
	c1.164-0.072,2.411-0.228,3.382-0.468l0.096,0.779c-1.008,0.216-2.267,0.36-3.466,0.42l0.096,2.003
	c1.104,0.36,2.279,0.983,3.526,1.871l-0.528,0.731c-1.08-0.852-2.099-1.427-2.974-1.763c0,0.191,0.012,0.407,0.012,0.563
	c-0.012,1.14-0.695,1.799-2.146,1.799c-1.523,0-2.639-0.623-2.639-1.751c0-1.151,1.307-1.787,2.65-1.787
	c0.396,0,0.815,0.036,1.259,0.145c-0.012-0.517-0.036-1.14-0.048-1.787c-0.384,0.012-0.815,0.023-1.164,0.023
	c-2.051,0-2.626-0.323-2.626-1.02c0-0.455,0.348-0.827,1.115-1.319l0.576,0.372c-0.54,0.3-0.827,0.563-0.827,0.804
	c0,0.359,0.563,0.432,2.087,0.432c0.264,0,0.54,0,0.803-0.012l-0.072-2.219c-0.516,0.023-1.115,0.023-1.655,0.023
	c-0.768,0-1.859,0-2.579-0.023V665.611z M168.283,671.86c-0.479-0.132-0.923-0.192-1.343-0.192c-0.911,0-1.835,0.372-1.835,1.092
	c0,0.707,0.84,1.056,1.883,1.056c0.947,0,1.307-0.42,1.307-1.26L168.283,671.86z"/>
<path d="M180.811,665.731c-0.012-0.264-0.048-1.571-0.072-1.871l1.235,0.048c-0.012,0.097-0.096,0.216-0.312,0.252
	c0,0.145,0,0.288,0.024,1.547c1.475-0.048,3.022-0.083,3.922-0.096v0.828c-1.02-0.024-2.471,0-3.898,0.048
	c0.024,0.936,0.048,1.799,0.084,2.458c0.12,0.396,0.144,0.756,0.144,1.26c0,0.384-0.036,0.827-0.12,1.163
	c-0.312,1.403-1.343,2.639-3.454,3.479c-0.156-0.204-0.419-0.504-0.611-0.684c1.835-0.66,2.818-1.655,3.118-2.795h-0.012
	c-0.251,0.36-0.695,0.636-1.235,0.636c-1.067,0-2.015-0.875-2.015-2.099c-0.012-1.271,1.02-2.243,2.159-2.243
	c0.432,0,0.875,0.156,1.116,0.372c0-0.204-0.024-1.008-0.048-1.523c-1.247,0.024-5.037,0.156-5.529,0.181l-0.024-0.792l2.734-0.072
	L180.811,665.731z M181.039,669.941c0-0.468,0-1.56-1.224-1.56c-0.827,0.012-1.415,0.647-1.427,1.523
	c0,0.84,0.636,1.392,1.332,1.392C180.571,671.297,181.039,670.637,181.039,669.941z"/>
<path d="M197.057,668.07c-1.079,0.359-2.375,0.6-3.598,0.731c0.36,0.66,1.056,1.535,1.931,1.871l-0.479,0.707l-0.672-0.359
	c-0.288-0.107-0.839-0.191-1.403-0.191c-0.168,0-0.335,0.012-0.503,0.023l-0.168-0.659c0.132-0.013,0.288-0.013,0.432-0.013
	c0.312,0,0.624,0.013,0.852,0.049c-0.324-0.349-0.66-0.84-0.888-1.332c-1.559,0.145-3.646,0.145-4.941,0.12v-0.743
	c0.743,0.012,1.763,0.012,2.458,0.012c0.624,0,1.403-0.036,2.207-0.096c-0.12-0.372-0.288-0.899-0.443-1.56
	c-0.48,0.036-1.02,0.072-2.363,0.072c-0.42,0-0.84-0.012-1.164-0.024v-0.743c0.576,0.023,1.14,0.036,1.607,0.036
	c0.587,0,1.175,0,1.763-0.048c-0.108-0.552-0.216-1.176-0.312-1.859h1.247c0,0.144-0.12,0.228-0.312,0.275
	c0.06,0.517,0.144,1.032,0.24,1.512c1.127-0.12,2.219-0.348,3.082-0.695l0.168,0.731c-0.828,0.323-1.979,0.563-3.106,0.684
	c0.156,0.636,0.3,1.163,0.444,1.547c1.248-0.132,2.603-0.384,3.754-0.792L197.057,668.07z M195.006,674.45
	c-0.576,0.036-1.247,0.072-2.183,0.072s-3.886,0-3.886-1.99c0.012-0.636,0.528-1.248,1.224-1.764l0.563,0.516
	c-0.587,0.432-0.923,0.852-0.936,1.235c0,1.235,2.111,1.235,2.867,1.235c0.803,0,1.643-0.048,2.375-0.096L195.006,674.45z
	 M195.582,663.98c0.504,0.443,1.115,1.188,1.403,1.679l-0.492,0.348c-0.264-0.503-0.875-1.223-1.355-1.69L195.582,663.98z
	 M196.949,663.369c0.504,0.443,1.115,1.187,1.403,1.69l-0.492,0.348c-0.276-0.503-0.875-1.235-1.367-1.69L196.949,663.369z"/>
<path d="M202.964,669.018c0.792-0.407,2.027-0.695,2.974-0.695c1.907,0,3.106,1.115,3.106,2.878c0,2.171-1.907,3.37-4.318,3.37
	c-1.559,0-2.626-0.623-2.626-1.679c0-0.888,0.875-1.607,1.967-1.607c1.355,0,2.267,1.08,2.447,2.171
	c0.959-0.359,1.655-1.127,1.655-2.242c0-1.296-0.959-2.123-2.471-2.123c-1.799,0-3.562,0.804-4.354,1.571
	c-0.36,0.336-0.828,0.839-1.151,1.211l-0.612-0.611c1.08-1.128,4.509-4.402,6.141-5.925c-0.696,0.096-3.094,0.191-4.461,0.239
	c-0.036,0.084-0.156,0.156-0.252,0.181l-0.096-1.02c1.619-0.013,4.713-0.132,5.589-0.265l0.18-0.083l0.636,0.779
	c-0.06,0.048-0.168,0.096-0.288,0.107c-0.852,0.696-3.13,2.831-4.065,3.73V669.018z M204.619,673.815c0.36,0,0.78-0.049,1.091-0.12
	c-0.132-0.924-0.815-1.703-1.703-1.703c-0.624,0-1.175,0.336-1.175,0.888C202.832,673.611,203.828,673.815,204.619,673.815z"/>
<path d="M212.146,668.49c0.216-0.048,0.66-0.168,1.067-0.288c1.487-0.443,3.227-0.852,4.342-0.852c1.619,0,3.07,0.863,3.07,2.818
	c0,2.639-2.615,3.61-5.817,3.862c-0.048-0.181-0.168-0.588-0.24-0.731c2.818-0.204,5.205-1.02,5.205-3.083
	c0-1.499-1.067-2.146-2.339-2.135c-0.959,0.012-2.506,0.36-4.018,0.876c-0.276,0.096-0.576,0.203-0.768,0.264
	c-0.024,0.096-0.108,0.18-0.192,0.204L212.146,668.49z"/>
<path d="M225.213,669.317c0,0.42-0.335,0.756-0.755,0.756s-0.756-0.336-0.756-0.756s0.336-0.756,0.756-0.756
	C224.901,668.562,225.213,668.922,225.213,669.317z M229.207,669.317c0,0.42-0.336,0.756-0.756,0.756
	c-0.419,0-0.755-0.336-0.755-0.756s0.336-0.756,0.755-0.756C228.895,668.562,229.207,668.922,229.207,669.317z M233.201,669.317
	c0,0.42-0.336,0.756-0.755,0.756c-0.42,0-0.756-0.336-0.756-0.756s0.336-0.756,0.756-0.756
	C232.889,668.562,233.201,668.922,233.201,669.317z"/>
<path d="M239.696,673.239c0-0.432,0.336-0.779,0.744-0.779s0.744,0.348,0.744,0.779s-0.336,0.779-0.744,0.779
	C240.007,674.019,239.696,673.647,239.696,673.239z M240.056,671.309l-0.18-6.572h1.151l-0.18,6.572H240.056z"/>
<circle stroke="#FFFFFF" stroke-width="2" stroke-miterlimit="10" cx="242.08" cy="693.562" r="8.249"/>
<path stroke="#FFFFFF" stroke-width="2" stroke-miterlimit="10" d="M165.116,679.711c-4.845,2.271-6.053,3.481-6.053,3.481"/>
<path stroke="#FFFFFF" stroke-width="2" stroke-miterlimit="10" d="M228.198,700.449l0.195,9.528l12.249-4.536l3.936-1.665h4.541
	l4.692,3.936l1.361,31.18l-1.513,3.481l-2.27,1.664l-17.86,0.758l-1.363,19.827c0,0-1.666,3.935-3.936,3.935
	c-2.27,0-4.237-4.087-4.237-4.087l-1.816-23.157l-0.151-4.237l1.513-3.027l2.271-1.059l13.772-0.455l-0.301-13.774l-6.661,3.936
	c0,0,8.174-3.936,6.661-3.936s-5.449,0.138-5.449,0.138h-4.443h-4.161c0,0-3.27-0.199-3.27-2.47c0-2.27-1.783-14.619-1.783-14.619"
	/>
<rect x="236.858" y="746.46" stroke="#FFFFFF" stroke-width="2" stroke-miterlimit="10" width="22.981" height="3.782"/>
<path stroke="#FFFFFF" stroke-width="2" stroke-miterlimit="10" d="M256.917,768.126c-0.727,0.751-1.925,0.769-2.677,0.042
	l-14.417-13.965c-0.75-0.728-0.769-1.924-0.042-2.675l0,0c0.728-0.751,1.925-0.769,2.676-0.043l14.417,13.965
	C257.625,766.177,257.643,767.375,256.917,768.126L256.917,768.126z"/>
<path stroke="#FFFFFF" stroke-width="2" stroke-miterlimit="10" d="M257.126,751.75c0.708,0.77,0.658,1.967-0.111,2.675
	l-14.77,13.59c-0.769,0.707-1.967,0.658-2.674-0.11l0,0c-0.708-0.77-0.657-1.967,0.111-2.674l14.771-13.591
	C255.222,750.932,256.419,750.982,257.126,751.75L257.126,751.75z"/>
<circle stroke="#FFFFFF" stroke-width="2" stroke-miterlimit="10" cx="224.038" cy="697.477" r="3.864"/>
<line fill="none" stroke="#000000" stroke-width="2" stroke-miterlimit="10" x1="214.825" y1="766.426" x2="214.825" y2="718.897"/>
<line fill="none" stroke="#000000" stroke-width="2" stroke-miterlimit="10" x1="167.274" y1="766.426" x2="167.274" y2="718.897"/>
<line fill="none" stroke="#000000" stroke-width="2" stroke-miterlimit="10" x1="150.455" y1="718.897" x2="232.062" y2="718.897"/>
<line stroke="#000000" stroke-width="4" stroke-miterlimit="10" x1="144.895" y1="767.81" x2="278.662" y2="767.81"/>
<path fill="#7C7D81" stroke="#7C7D81" stroke-miterlimit="10" d="M92.661,503.725c0.041,6.253-4.993,11.341-11.243,11.376
	c-6.245,0.036-11.334-4.998-11.374-11.243c-0.035-6.247,5-11.339,11.243-11.374C87.536,492.449,92.632,497.478,92.661,503.725z"/>
<path fill="#7C7D81" stroke="#7C7D81" stroke-miterlimit="10" d="M145.178,503.419c0.039,6.249-4.998,11.339-11.241,11.376
	c-6.246,0.034-11.339-4.996-11.372-11.243c-0.04-6.244,4.997-11.338,11.245-11.373C140.052,492.14,145.146,497.176,145.178,503.419z
	"/>
<path fill="#7C7D81" stroke="#7C7D81" stroke-miterlimit="10" d="M96.178,504.356l23.138-0.139c0,0-0.217-15.593,14.469-15.81
	c14.688-0.216,14.644,14.992,14.644,14.992l4.421-0.026c0,0,4.667-2.364,4.521-5.228c-0.148-2.854-0.963-8.7-3.079-15.316
	c-2.117-6.623-5.408-12.971-7.374-15.689c-1.965-2.717-12.031-12.928-21.661-14.047c-9.624-1.111-20.55-2.218-26.51,1.195
	c-5.959,3.418-9.705,7.211-11.771,10.207c-2.061,3.005-5.02,8.613-5.02,8.613l-14.167,0.211c0,0-8.958,1.482-11.522,8.518
	c-2.558,7.034-2.641,15.225-2.641,15.225s1.853,6.228,6.93,6.848c5.073,0.621,5.982,0.615,5.982,0.615s0.431-15.336,14.731-15.686
	C95.567,488.499,96.178,504.356,96.178,504.356z"/>
<path fill="#FFFFFF" stroke="#7C7D81" stroke-miterlimit="10" d="M92.494,474.087l25.355,1.672l-0.095-16.64l-7.928,0.047
	c0,0-7.925,1.479-10.897,4.482C95.96,466.657,92.494,474.087,92.494,474.087z"/>
<path fill="#FFFFFF" stroke="#7C7D81" stroke-miterlimit="10" d="M125.428,460.245l0.094,16.118l17.811-0.103
	c0,0-3.169-8.042-6.034-9.974C134.423,464.351,130.248,461.129,125.428,460.245z"/>
<path d="M65.536,425.983c0.744,0.048,1.739,0.048,2.555,0.048c0.54,0,1.151-0.012,1.655-0.024c-0.012-0.576-0.024-1.248-0.024-1.667
	l1.211,0.06c-0.012,0.144-0.12,0.216-0.324,0.252c-0.012,0.192,0,1.115,0,1.319c1.403-0.072,2.794-0.192,3.982-0.468l0.108,0.792
	c-1.175,0.264-2.566,0.384-4.09,0.456c0.012,0.72,0.024,1.463,0.048,2.207c1.164-0.072,2.411-0.228,3.382-0.468l0.096,0.78
	c-1.008,0.216-2.267,0.359-3.466,0.419l0.096,2.003c1.103,0.36,2.278,0.983,3.526,1.871l-0.528,0.731
	c-1.079-0.852-2.099-1.427-2.974-1.763c0,0.192,0.012,0.408,0.012,0.563c-0.012,1.139-0.695,1.799-2.147,1.799
	c-1.523,0-2.638-0.624-2.638-1.751c0-1.151,1.307-1.787,2.65-1.787c0.396,0,0.815,0.036,1.259,0.144
	c-0.012-0.516-0.036-1.139-0.048-1.787c-0.384,0.012-0.815,0.024-1.164,0.024c-2.051,0-2.626-0.324-2.626-1.019
	c0-0.456,0.348-0.828,1.115-1.319l0.576,0.372c-0.54,0.3-0.827,0.564-0.827,0.804c0,0.36,0.563,0.432,2.086,0.432
	c0.264,0,0.54,0,0.804-0.012l-0.072-2.219c-0.516,0.024-1.116,0.024-1.655,0.024c-0.768,0-1.859,0-2.579-0.024V425.983z
	 M69.974,432.232c-0.479-0.132-0.923-0.192-1.343-0.192c-0.911,0-1.835,0.372-1.835,1.092c0,0.708,0.84,1.055,1.883,1.055
	c0.947,0,1.307-0.419,1.307-1.259L69.974,432.232z"/>
<path d="M83.976,426.751c-1.02,0.36-2.375,0.588-3.682,0.684c-0.504,2.747-1.235,5.481-2.195,7.496l-0.864-0.324
	c0.983-1.931,1.703-4.414,2.171-7.136c-0.24,0.012-1.847,0.024-2.207,0.012l-0.012-0.816c0.192,0.012,0.444,0.012,0.72,0.012
	c0.108,0,1.307,0,1.619-0.012c0.12-0.768,0.24-1.607,0.312-2.338l1.235,0.12c-0.012,0.132-0.18,0.228-0.348,0.24
	c-0.072,0.527-0.192,1.175-0.3,1.907c1.175-0.108,2.363-0.312,3.358-0.671L83.976,426.751z M87.166,434.739
	c-0.36,0.012-0.731,0.024-1.104,0.024c-1.127,0-2.195-0.084-2.842-0.264c-0.852-0.24-1.343-0.864-1.332-1.655
	c0.012-0.528,0.24-1.127,0.744-1.739l0.72,0.312c-0.42,0.492-0.624,0.959-0.624,1.332c0,0.947,0.912,1.187,3.094,1.187
	c0.444,0,0.899-0.012,1.343-0.048V434.739z M82.489,428.958c1.235-0.396,2.938-0.647,4.354-0.612v0.816
	c-1.355-0.036-2.926,0.156-4.15,0.54L82.489,428.958z"/>
<path d="M99.537,430.301h-4.365c1.127,1.523,2.974,3.01,4.641,3.742c-0.192,0.156-0.456,0.48-0.587,0.708
	c-1.667-0.828-3.478-2.387-4.678-4.042v4.545h-0.839v-4.474c-1.199,1.631-2.975,3.106-4.618,3.922
	c-0.132-0.204-0.384-0.516-0.587-0.684c1.667-0.719,3.49-2.195,4.617-3.718h-4.365v-0.768h4.953v-3.142h-4.366v-0.78h4.366v-1.487
	l1.08,0.072c-0.012,0.084-0.072,0.144-0.24,0.167v1.248h4.474v0.78h-4.474v3.142h4.989V430.301z M91.489,429.378
	c-0.168-0.636-0.647-1.631-1.127-2.363l0.708-0.264c0.492,0.72,1.008,1.679,1.188,2.315L91.489,429.378z M98.301,427.039
	c-0.048,0.072-0.132,0.108-0.276,0.108c-0.324,0.671-0.875,1.643-1.319,2.279c0-0.012-0.684-0.3-0.684-0.3
	c0.432-0.648,0.983-1.715,1.283-2.459L98.301,427.039z"/>
<path d="M110.157,434.187c-1.032-0.815-2.339-1.595-3.598-2.003c0.024,0.468-0.06,1.08-0.156,1.391
	c-0.096,0.996-1.02,1.379-2.123,1.379c-1.547,0-2.771-0.755-2.782-1.967c-0.024-1.211,1.247-1.955,2.758-1.967
	c0.42,0,0.959,0.024,1.403,0.108c0-0.324-0.06-0.6-0.072-0.875c-0.108-1.571-0.204-4.09-0.216-5.817l1.248,0.072
	c0,0.12-0.108,0.228-0.312,0.252c-0.012,0.324,0,1.907,0,2.267c0.78,0,2.531-0.132,3.982-0.384l0.084,0.852
	c-1.367,0.216-3.143,0.336-4.054,0.348c0,0.684,0.024,0.959,0.204,3.442c1.547,0.456,3.01,1.271,4.186,2.135L110.157,434.187z
	 M104.232,431.74c-1.151,0.024-1.955,0.504-1.955,1.188c0,0.875,0.948,1.259,1.907,1.259c0.839,0,1.535-0.3,1.535-1.151
	c0-0.276,0-0.768-0.024-1.115C105.215,431.776,104.688,431.74,104.232,431.74z"/>
<path d="M114.084,428.538c1.799-0.492,4.066-0.983,4.965-0.983c1.799,0,2.854,0.959,2.854,2.734v0.096
	c-0.024,2.183-1.739,3.778-5.181,4.701c-0.108-0.204-0.36-0.527-0.54-0.731c3.07-0.731,4.809-2.171,4.809-3.994
	c0-1.151-0.552-1.979-1.979-1.979c-0.959,0-2.866,0.432-4.341,0.947c0.012,0.096-0.108,0.216-0.228,0.276L114.084,428.538z
	 M115.763,424.389c1.643,0.144,3.538,0.492,4.821,0.936l-0.252,0.839c-1.271-0.432-3.214-0.828-4.773-0.959L115.763,424.389z"/>
<path d="M126.898,429.689c0,0.42-0.335,0.756-0.755,0.756s-0.755-0.336-0.755-0.756c0-0.419,0.335-0.755,0.755-0.755
	C126.587,428.934,126.898,429.294,126.898,429.689z M130.893,429.689c0,0.42-0.336,0.756-0.756,0.756
	c-0.419,0-0.755-0.336-0.755-0.756c0-0.419,0.336-0.755,0.755-0.755C130.581,428.934,130.893,429.294,130.893,429.689z
	 M134.886,429.689c0,0.42-0.336,0.756-0.755,0.756c-0.42,0-0.756-0.336-0.756-0.756c0-0.419,0.336-0.755,0.756-0.755
	C134.574,428.934,134.886,429.294,134.886,429.689z"/>
<path stroke="#FFFFFF" stroke-width="2" stroke-miterlimit="10" d="M162.438,253.412l47.434,0.024c0,0-0.862-34.233-23.718-35.757
	C163.3,216.157,162.438,253.412,162.438,253.412z"/>
<circle stroke="#FFFFFF" stroke-width="2" stroke-miterlimit="10" cx="185.293" cy="205.728" r="15.093"/>
<path stroke="#FFFFFF" stroke-width="2" stroke-miterlimit="10" d="M205.225,264.771l47.434,0.024c0,0-0.862-34.234-23.718-35.757
	C206.087,227.516,205.225,264.771,205.225,264.771z"/>
<circle stroke="#FFFFFF" stroke-width="2" stroke-miterlimit="10" cx="228.08" cy="217.086" r="15.093"/>
<path stroke="#FFFFFF" stroke-width="2" stroke-miterlimit="10" d="M181.508,288.725l47.434,0.024c0,0-0.862-34.234-23.718-35.757
	C182.37,251.47,181.508,288.725,181.508,288.725z"/>
<circle stroke="#FFFFFF" stroke-width="2" stroke-miterlimit="10" cx="204.363" cy="241.04" r="15.093"/>
<path d="M218.691,181.061c-0.077,0.141-0.153,0.281-0.239,0.406c1.93,0.934,2.32,2.415,1.935,3.776
	c-0.52,1.835-2.403,2.498-5.38,2.003c0-0.175-0.062-0.567-0.115-0.781c2.453,0.446,4.225,0.05,4.646-1.438l0.023-0.081
	c0.32-1.355-0.394-2.268-1.569-2.825c-0.865,1.163-2.051,2.136-3.257,2.741c0.011,0.266,0.057,0.502,0.123,0.708l-0.802,0.234
	c-0.059-0.191-0.095-0.413-0.114-0.656c-1.115,0.419-1.906,0.395-2.426,0.248c-0.923-0.261-1.203-1.077-0.961-1.931
	c0.451-1.592,2.126-2.488,3.989-2.684c0.146-0.607,0.333-1.265,0.538-1.942c-1.95-0.553-2.158-0.612-2.532-0.743l0.192-0.768
	c0.58,0.201,1.583,0.485,2.575,0.767c0.162-0.527,0.368-1.167,0.545-1.703l1.131,0.408c-0.045,0.112-0.185,0.171-0.365,0.146
	c-0.155,0.417-0.329,0.941-0.485,1.358c1.269,0.322,3.516,0.797,4.766,0.827l-0.119,0.814c-1.308-0.047-3.567-0.562-4.894-0.901
	c-0.192,0.594-0.368,1.167-0.509,1.713c0.878-0.025,1.609,0.17,1.806,0.226c0.173,0.049,0.323,0.092,0.469,0.145
	c0.1-0.171,0.183-0.334,0.27-0.509L218.691,181.061z M213.93,184.361c0.018-0.768,0.174-1.709,0.431-2.795
	c-1.415,0.197-2.667,0.877-2.983,1.996c-0.193,0.681,0.121,1.02,0.545,1.114C212.467,184.819,213.178,184.684,213.93,184.361z
	 M217.215,181.789c-0.182-0.064-1.076-0.342-2.029-0.276c-0.241,0.942-0.386,1.76-0.409,2.452
	C215.669,183.458,216.558,182.7,217.215,181.789z"/>
<path d="M229.307,182.249c-0.075,0.091-0.189,0.146-0.34,0.103c-1.433,3.471-3.519,6.257-5.435,5.715
	c-0.97-0.275-1.571-1.492-1.055-3.315c0.785-2.77,3.6-4.478,6.634-3.618c3.336,0.945,4.18,3.466,3.542,5.716
	c-0.778,2.746-2.747,3.622-5.722,3.477c-0.053-0.213-0.159-0.581-0.286-0.841c2.798,0.245,4.525-0.662,5.144-2.843
	c0.54-1.904-0.192-3.981-2.894-4.747c-0.114-0.032-0.246-0.057-0.353-0.075L229.307,182.249z M228.242,181.785
	c-2.413-0.372-4.401,1.146-4.974,3.165c-0.35,1.235-0.038,2.159,0.515,2.316C225.18,187.662,227.058,184.865,228.242,181.785z"/>
<path d="M241.066,184.983l4.547,1.289l-0.209,0.738l-8.919-2.528l-0.654,2.308c-0.504,1.777-1.39,4.331-2.882,5.815
	c-0.1-0.178-0.385-0.495-0.542-0.64c1.421-1.405,2.176-3.721,2.65-5.394l0.863-3.046l4.351,1.232l0.438-1.547l1.007,0.361
	c-0.034,0.077-0.109,0.118-0.277,0.096L241.066,184.983z M241.375,186.229c-0.035,0.078-0.108,0.119-0.276,0.097l-0.347,1.223
	l4.004,1.135l-0.2,0.704l-4.004-1.134l-0.5,1.765l3.196,0.906l-1.2,4.235l-0.785-0.223l0.125-0.438l-5.262-1.491l-0.135,0.474
	l-0.761-0.216l1.21-4.27l2.838,0.804l1.112-3.923L241.375,186.229z M241.587,193.794l0.677-2.389l-5.262-1.491l-0.677,2.39
	L241.587,193.794z"/>
<path d="M253.445,197.28c-0.77-1.066-1.814-2.173-2.915-2.909c-0.104,0.457-0.353,1.022-0.529,1.296
	c-0.363,0.932-1.357,1.049-2.419,0.749c-1.488-0.422-2.459-1.482-2.141-2.651c0.307-1.172,1.733-1.541,3.189-1.141
	c0.404,0.115,0.918,0.285,1.321,0.487c0.089-0.312,0.106-0.594,0.171-0.862c0.323-1.541,0.917-3.99,1.378-5.655l1.181,0.409
	c-0.033,0.115-0.167,0.19-0.369,0.157c-0.101,0.309-0.52,1.835-0.618,2.181c0.749,0.213,2.47,0.563,3.936,0.717l-0.151,0.842
	c-1.374-0.165-3.115-0.533-3.995-0.77c-0.187,0.658-0.239,0.929-0.742,3.367c1.363,0.86,2.55,2.043,3.445,3.195L253.445,197.28z
	 M248.412,193.31c-1.113-0.29-2.018-0.048-2.204,0.61c-0.239,0.842,0.567,1.47,1.491,1.732c0.807,0.229,1.559,0.13,1.791-0.689
	c0.075-0.266,0.209-0.739,0.28-1.08C249.349,193.613,248.851,193.434,248.412,193.31z"/>
<path d="M262.823,190.077c-0.062,0.131-0.217,0.15-0.438,0.1c-0.311,0.61-0.836,1.671-1.171,2.323
	c0.536,0.089,1.022,0.178,1.311,0.259c1.761,0.474,2.03,1.81,1.54,3.541c-0.245,0.865-0.697,1.847-1.125,2.474
	c-0.691,1.076-1.591,1.431-2.548,1.16c-0.473-0.134-1.041-0.507-1.805-1.596c0.187-0.172,0.351-0.399,0.513-0.615
	c0.719,0.977,1.158,1.275,1.516,1.377c0.658,0.187,1.168-0.118,1.608-0.792c0.445-0.646,0.873-1.671,1.04-2.26
	c0.36-1.319,0.156-2.224-1.001-2.54c-0.346-0.098-0.833-0.187-1.44-0.283c-1.244,2.19-2.497,4.017-4.132,5.561l-0.656-0.585
	c1.626-1.472,2.767-3.081,3.931-5.119c-0.608-0.098-1.479-0.232-2.132-0.305l0.159-0.828c0.585,0.091,1.562,0.255,2.36,0.382
	c0.412-0.794,0.89-1.779,1.317-2.756L262.823,190.077z M266.593,197.141c0.108-1.79-0.583-3.531-1.477-4.682l0.76-0.308
	c0.978,1.212,1.737,3.148,1.64,4.902L266.593,197.141z"/>
<path d="M269.98,196.431c0.221,0.012,0.681,0.019,1.105,0.014c1.552-0.021,3.336,0.061,4.409,0.365
	c1.557,0.441,2.719,1.667,2.186,3.548c-0.719,2.539-3.5,2.761-6.649,2.13c0.003-0.186-0.002-0.611-0.032-0.769
	c2.769,0.572,5.287,0.438,5.85-1.546c0.408-1.442-0.442-2.356-1.668-2.692c-0.927-0.25-2.511-0.337-4.104-0.253
	c-0.292,0.018-0.609,0.04-0.811,0.045c-0.05,0.086-0.152,0.144-0.24,0.144L269.98,196.431z"/>
<path d="M288.009,199.346c-1.078,0.068-2.445-0.082-3.729-0.347c-1.233,2.505-2.684,4.937-4.155,6.614l-0.742-0.547
	c1.473-1.59,2.842-3.782,4.034-6.274c-0.234-0.054-1.784-0.48-2.127-0.59l0.211-0.789c0.181,0.064,0.423,0.133,0.688,0.208
	c0.104,0.03,1.258,0.357,1.562,0.43c0.324-0.706,0.67-1.48,0.938-2.165l1.155,0.452c-0.049,0.124-0.235,0.17-0.401,0.136
	c-0.212,0.488-0.504,1.078-0.808,1.752c1.16,0.217,2.358,0.344,3.414,0.27L288.009,199.346z M288.9,207.9
	c-0.349-0.086-0.71-0.177-1.067-0.277c-1.085-0.308-2.089-0.68-2.663-1.029c-0.754-0.463-1.058-1.197-0.83-1.955
	c0.156-0.505,0.538-1.02,1.189-1.47l0.608,0.496c-0.538,0.358-0.862,0.753-0.964,1.111c-0.258,0.911,0.554,1.391,2.654,1.985
	c0.426,0.121,0.868,0.234,1.305,0.32L288.9,207.9z M285.977,201.063c1.297-0.044,3.004,0.179,4.355,0.599l-0.223,0.784
	c-1.294-0.404-2.857-0.647-4.139-0.611L285.977,201.063z"/>
<path d="M295.191,208.511c0.118-0.415,0.536-0.658,0.928-0.547c0.394,0.111,0.622,0.538,0.504,0.953
	c-0.117,0.415-0.536,0.659-0.93,0.547C295.278,209.347,295.08,208.904,295.191,208.511z M296.063,206.752l1.619-6.373l1.108,0.314
	l-1.965,6.274L296.063,206.752z"/>
<path d="M143.562,186.647c0.872,0.265,1.911,0.767,2.438,1.212l-0.414,0.693c-0.507-0.463-1.531-0.994-2.415-1.294L143.562,186.647z
	 M144.127,191.388c0.569-0.569,1.378-1.482,2.19-2.383l0.429,0.565c-0.684,0.795-1.405,1.631-1.864,2.15
	c0.03,0.091,0.011,0.185-0.046,0.242L144.127,191.388z M155.218,190.079l-4.018,1.335c1.365,0.721,3.303,1.075,5.018,0.986
	c-0.118,0.216-0.251,0.576-0.297,0.819c-1.806,0.006-3.895-0.462-5.389-1.343l1.021,3.072l-0.773,0.257l-1.037-3.118
	c-0.646,1.63-2.042,3.321-3.413,4.409c-0.189-0.153-0.516-0.372-0.735-0.463c1.333-0.975,2.661-2.452,3.318-3.858l-3.927,1.305
	l-0.227-0.684l4.7-1.562l-0.337-1.013l1.021-0.276c0.019,0.095-0.03,0.175-0.175,0.235l0.265,0.797l4.758-1.582L155.218,190.079z
	 M150.216,184.954l1.449,4.358l-4.269,1.418l-1.448-4.358l1.457-0.484c0-0.417-0.019-0.929-0.053-1.297l1.017-0.097
	c0,0.075-0.065,0.146-0.19,0.188c0,0.266-0.008,0.623-0.035,0.96L150.216,184.954z M150.085,187.069l-0.412-1.24l-2.788,0.927
	l0.412,1.24L150.085,187.069z M150.706,188.937l-0.42-1.264l-2.788,0.927l0.42,1.264L150.706,188.937z M150.913,186.251
	c0.422-0.708,0.938-1.816,1.19-2.582l0.947,0.228c-0.015,0.068-0.083,0.129-0.228,0.152c-0.281,0.712-0.786,1.703-1.209,2.41
	L150.913,186.251z M151.535,187.093c1.05,0.156,2.438,0.492,3.173,0.803l-0.272,0.736c-0.729-0.327-2.101-0.692-3.186-0.875
	L151.535,187.093z"/>
<path d="M157.667,181.719c0.022,0.144-0.054,0.258-0.27,0.367c0.348,1.351,1.237,4.404,1.797,6.089
	c0.563,1.696,1.678,2.235,3.112,1.759c1.389-0.461,2.569-1.625,3.378-3.525c0.174,0.145,0.557,0.422,0.735,0.502
	c-0.829,1.957-2.18,3.291-3.853,3.847c-2.072,0.688-3.527-0.155-4.242-2.306c-0.477-1.434-1.547-4.996-1.933-6.422L157.667,181.719z
	"/>
<path d="M167.615,179.574c0.012,0.11-0.091,0.22-0.247,0.284c0.147,0.899,0.408,1.951,0.726,2.906
	c0.14,0.422,0.299,0.824,0.442,1.181c0.78,1.889,1.955,2.8,2.827,2.498c0.455-0.151,0.661-1.509,0.647-2.919
	c0.212,0.106,0.591,0.22,0.822,0.27c-0.013,1.71-0.256,3.182-1.193,3.519c-1.438,0.503-3.022-0.917-3.908-3.049
	c-0.178-0.421-0.349-0.896-0.519-1.408c-0.333-1.002-0.639-2.113-0.847-3.118L167.615,179.574z M176.92,182.358
	c-0.981-1.886-2.471-2.983-4.291-3.326l0.296-0.782c1.957,0.335,3.72,1.57,4.75,3.566L176.92,182.358z"/>
<path d="M183.846,180.435l-2.245-6.181l1.093-0.363l1.903,6.294L183.846,180.435z M184.113,182.38
	c-0.136-0.41,0.073-0.845,0.459-0.974s0.815,0.094,0.952,0.504c0.136,0.409-0.073,0.846-0.459,0.974
	C184.655,183.021,184.242,182.767,184.113,182.38z"/>
<path d="M176.393,149.477c0.744,0.048,1.739,0.048,2.555,0.048c0.54,0,1.151-0.012,1.655-0.024
	c-0.012-0.576-0.024-1.248-0.024-1.667l1.211,0.06c-0.012,0.144-0.12,0.216-0.324,0.252c-0.012,0.192,0,1.115,0,1.319
	c1.403-0.072,2.794-0.192,3.982-0.468l0.108,0.792c-1.175,0.264-2.566,0.384-4.09,0.456c0.012,0.72,0.024,1.463,0.048,2.207
	c1.164-0.072,2.411-0.228,3.382-0.468l0.096,0.78c-1.008,0.216-2.267,0.359-3.466,0.419l0.096,2.003
	c1.104,0.36,2.279,0.983,3.526,1.871l-0.528,0.731c-1.08-0.852-2.099-1.427-2.974-1.763c0,0.192,0.012,0.408,0.012,0.563
	c-0.012,1.139-0.695,1.799-2.146,1.799c-1.523,0-2.639-0.624-2.639-1.751c0-1.151,1.307-1.787,2.65-1.787
	c0.396,0,0.815,0.036,1.259,0.144c-0.012-0.516-0.036-1.139-0.048-1.787c-0.384,0.012-0.815,0.024-1.164,0.024
	c-2.051,0-2.626-0.324-2.626-1.02c0-0.456,0.348-0.828,1.115-1.319l0.576,0.372c-0.54,0.3-0.827,0.564-0.827,0.804
	c0,0.36,0.563,0.432,2.087,0.432c0.264,0,0.54,0,0.803-0.012l-0.072-2.219c-0.516,0.024-1.115,0.024-1.655,0.024
	c-0.768,0-1.859,0-2.579-0.024V149.477z M180.831,155.725c-0.479-0.132-0.923-0.191-1.343-0.191c-0.911,0-1.835,0.372-1.835,1.091
	c0,0.708,0.84,1.055,1.883,1.055c0.947,0,1.307-0.42,1.307-1.259L180.831,155.725z"/>
<path d="M194.833,150.244c-1.019,0.36-2.375,0.588-3.682,0.684c-0.504,2.746-1.235,5.481-2.195,7.496l-0.864-0.324
	c0.983-1.931,1.703-4.414,2.171-7.136c-0.24,0.012-1.847,0.024-2.207,0.012l-0.012-0.815c0.192,0.012,0.444,0.012,0.72,0.012
	c0.108,0,1.307,0,1.619-0.012c0.12-0.768,0.24-1.607,0.312-2.339l1.235,0.12c-0.012,0.132-0.18,0.228-0.348,0.24
	c-0.072,0.527-0.192,1.175-0.3,1.907c1.175-0.108,2.363-0.312,3.358-0.671L194.833,150.244z M198.024,158.232
	c-0.36,0.012-0.731,0.024-1.104,0.024c-1.127,0-2.195-0.084-2.842-0.264c-0.852-0.24-1.343-0.864-1.332-1.655
	c0.012-0.528,0.24-1.127,0.744-1.739l0.72,0.312c-0.42,0.492-0.624,0.959-0.624,1.332c0,0.947,0.912,1.187,3.094,1.187
	c0.444,0,0.899-0.012,1.343-0.048V158.232z M193.347,152.451c1.235-0.396,2.938-0.647,4.354-0.612v0.815
	c-1.355-0.036-2.927,0.156-4.15,0.54L193.347,152.451z"/>
<path d="M203.116,148.014c-0.024,0.06-0.12,0.108-0.264,0.084c-0.696,0.875-1.943,2.015-3.011,2.771
	c-0.096-0.18-0.324-0.492-0.468-0.648c1.008-0.66,2.195-1.727,2.807-2.603L203.116,148.014z M201.281,158.76v-5.277
	c-0.456,0.504-0.912,0.972-1.367,1.367c-0.108-0.156-0.36-0.479-0.516-0.624c1.139-0.947,2.458-2.519,3.286-4.018l0.936,0.384
	c-0.036,0.072-0.132,0.12-0.276,0.096c-0.36,0.6-0.78,1.211-1.235,1.799l0.216,0.072c-0.024,0.072-0.096,0.132-0.24,0.156v6.045
	H201.281z M210.552,151.863v0.78h-1.907v5.073c0,1.007-0.384,1.031-2.806,1.031c-0.036-0.228-0.144-0.552-0.264-0.792
	c0.528,0.012,1.02,0.024,1.392,0.024c0.779,0,0.863,0,0.863-0.276v-5.061h-4.174v-0.78H210.552z M210.096,148.374v0.768h-5.984
	v-0.768H210.096z"/>
<path d="M220.993,157.524c-1.056,0.192-2.447,0.276-3.646,0.276c-1.008,0-1.883-0.06-2.351-0.156
	c-1.451-0.324-2.075-1.235-2.075-2.291c0-0.923,0.516-1.847,1.223-2.566l0.696,0.36c-0.672,0.695-1.056,1.463-1.056,2.135
	c0,0.695,0.468,1.331,1.5,1.559c0.419,0.096,1.127,0.144,1.955,0.144c1.164,0,2.555-0.096,3.694-0.324L220.993,157.524z
	 M215.607,151.468c0.624-0.48,1.475-1.067,2.123-1.391v-0.012c-0.912,0.108-2.999,0.156-4.33,0.144c0-0.228,0-0.624-0.012-0.84
	c0.264,0.012,4.869,0.084,6.836-0.384l0.096,0.888c-1.427,0.168-3.262,1.415-4.03,2.027L215.607,151.468z"/>
<path d="M224.945,152.031c1.799-0.492,4.066-0.983,4.965-0.983c1.799,0,2.854,0.959,2.854,2.734v0.096
	c-0.024,2.183-1.739,3.778-5.181,4.701c-0.108-0.204-0.36-0.527-0.54-0.731c3.07-0.731,4.809-2.171,4.809-3.994
	c0-1.151-0.552-1.979-1.979-1.979c-0.959,0-2.866,0.432-4.341,0.947c0.012,0.096-0.108,0.216-0.228,0.276L224.945,152.031z
	 M226.624,147.882c1.643,0.144,3.538,0.492,4.821,0.935l-0.252,0.84c-1.271-0.432-3.214-0.828-4.773-0.959L226.624,147.882z"/>
<path d="M240.243,157.104c0-0.432,0.336-0.779,0.744-0.779s0.744,0.348,0.744,0.779s-0.336,0.78-0.744,0.78
	C240.555,157.884,240.243,157.512,240.243,157.104z M240.603,155.174l-0.18-6.573h1.151l-0.18,6.573H240.603z"/>
</svg>
