<?xml version="1.0" encoding="utf-8"?>
<!-- Generator: Adobe Illustrator 15.1.0, SVG Export Plug-In  -->
<!DOCTYPE svg PUBLIC "-//W3C//DTD SVG 1.1//EN" "http://www.w3.org/Graphics/SVG/1.1/DTD/svg11.dtd" [
	<!ENTITY ns_flows "http://ns.adobe.com/Flows/1.0/">
]>
<svg version="1.1"
	 xmlns="http://www.w3.org/2000/svg" xmlns:xlink="http://www.w3.org/1999/xlink" xmlns:a="http://ns.adobe.com/AdobeSVGViewerExtensions/3.0/"
	 x="0px" y="0px" width="355px" height="358px" viewBox="0 0 355 358" overflow="visible" enable-background="new 0 0 355 358"
	 xml:space="preserve">
<defs>
</defs>
<circle fill="#FFFFFF" cx="173.412" cy="173.412" r="173.412"/>
<path d="M78.591,176.792c0.552,1.031,1.248,1.968,2.112,2.76c1.296-0.72,2.808-1.752,3.768-2.521l1.44,1.057
	c-0.072,0.12-0.264,0.168-0.48,0.12c-0.937,0.647-2.4,1.536-3.672,2.208c1.536,1.104,3.408,1.896,5.568,2.328
	c-0.36,0.312-0.792,0.912-0.984,1.32c-4.393-1.057-7.585-3.576-9.265-7.272h-3.096v4.776c1.728-0.24,3.648-0.528,5.497-0.792
	l0.048,1.296c-3.216,0.576-6.648,1.151-8.785,1.488c0,0.191-0.144,0.312-0.288,0.336l-0.696-1.729
	c0.768-0.096,1.704-0.24,2.712-0.384v-4.992h-3.336v-1.417h4.584v-2.712H69.95v-1.416h3.768v-2.473h-4.656v1.272
	c0,4.129-0.336,10.009-2.856,13.993c-0.312-0.24-1.032-0.672-1.416-0.816c2.448-3.864,2.665-9.265,2.665-13.177v-7.129H85.6v5.856
	h-3.648v0.024h0.408c-0.024,0.168-0.168,0.288-0.48,0.336v2.112h4.177v1.416h-4.177v2.712h5.185v1.417H78.591z M69.062,164.358
	v2.977h14.905v-2.977H69.062z M75.687,168.799c-0.024,0.168-0.144,0.288-0.456,0.336v2.112h5.137v-2.473h-5.064v0.024H75.687z
	 M75.23,172.663v2.712h5.137v-2.712H75.23z"/>
<path d="M103.311,181.832c0,0.504,0.216,0.6,1.344,0.6h3.936c0.912,0,1.08-0.239,1.176-2.328c0.336,0.24,0.96,0.456,1.392,0.553
	c-0.192,2.52-0.648,3.12-2.4,3.12h-4.224c-2.232,0-2.809-0.384-2.809-1.944v-2.017h-3.72c-0.864,2.305-2.712,3.601-8.161,4.249
	c-0.096-0.36-0.456-0.96-0.744-1.248c4.537-0.433,6.385-1.248,7.177-3.001h-3.552v-7.992h14.833v7.992h-4.248V181.832z
	 M100.311,169.663v1.08H90.23v-8.041h9.769v1.08H95.75v1.177h3.504v3.456H95.75v1.248H100.311z M94.382,163.782h-2.688v1.177h2.688
	V163.782z M97.791,167.358v-1.344h-6.097v1.344H97.791z M91.694,168.415v1.248h2.688v-1.248H91.694z M94.262,172.879v1.248h11.689
	v-1.248H94.262z M94.262,175.159v1.272h11.689v-1.272H94.262z M94.262,177.439v1.32h11.689v-1.32H94.262z M111.136,165.534h-8.017
	c-0.576,1.104-1.249,2.112-1.92,2.881c-0.288-0.265-0.84-0.624-1.176-0.816c1.248-1.344,2.424-3.624,3.097-5.881l1.824,0.528
	c-0.048,0.145-0.216,0.24-0.48,0.216c-0.192,0.576-0.432,1.177-0.696,1.753h7.369V165.534z M110.439,169.783h-8.089v-1.296h8.089
	V169.783z"/>
<path d="M125.559,161.814c-0.072,0.191-0.264,0.312-0.504,0.359c2.352,3.265,6.697,6.481,10.465,8.113
	c-0.384,0.384-0.768,0.96-1.032,1.44c-3.816-1.873-8.137-5.161-10.44-8.401c-1.992,2.977-6.001,6.385-10.201,8.497
	c-0.192-0.336-0.6-0.96-0.936-1.296c4.224-2.04,8.377-5.641,10.273-8.857L125.559,161.814z M114.158,175.52v-1.536h20.138v1.536
	H122.75l0.288,0.096c-0.072,0.168-0.264,0.24-0.576,0.265c-0.72,1.632-1.8,3.792-2.832,5.568c3.192-0.072,6.913-0.192,10.561-0.312
	c-1.081-1.248-2.329-2.544-3.528-3.601l1.368-0.743c2.256,1.943,4.681,4.584,5.809,6.408l-1.44,0.912
	c-0.312-0.504-0.696-1.08-1.176-1.681c-5.833,0.312-12.025,0.576-15.865,0.696c-0.048,0.216-0.192,0.312-0.384,0.336l-0.6-1.92
	c1.008,0,2.184-0.024,3.504-0.072c0.984-1.728,2.112-4.08,2.856-5.952H114.158z M118.262,169.327h11.641v1.512h-11.641V169.327z"/>
<path d="M149.535,166.11c-0.096,0.216-0.288,0.385-0.6,0.385c-0.864,7.464-3.36,13.969-7.345,13.969c-2.016,0-3.84-2.017-3.84-5.809
	c0-5.761,4.489-10.585,10.801-10.585c6.937,0,9.937,4.393,9.937,9.073c0,5.712-3.312,8.473-9.121,9.816
	c-0.216-0.384-0.624-1.032-1.008-1.464c5.52-1.057,8.353-3.744,8.353-8.281c0-3.96-2.544-7.561-8.161-7.561
	c-0.24,0-0.504,0.024-0.72,0.048L149.535,166.11z M147.23,165.799c-4.848,0.6-7.849,4.608-7.849,8.809
	c0,2.568,1.104,4.177,2.256,4.177C144.542,178.784,146.63,172.375,147.23,165.799z"/>
<path d="M170.966,171.271h-7.104v12.793h-1.584v-21.266h8.688V171.271z M169.43,164.118h-5.568v2.208h5.568V164.118z
	 M163.862,169.951h5.568v-2.4h-5.568V169.951z M176.583,180.607h-7.561v1.465h-1.536v-8.521h9.097V180.607z M175.047,174.943h-6.024
	v4.272h6.024V174.943z M182.151,162.799v18.985c0,1.128-0.288,1.656-1.032,1.944c-0.792,0.288-2.184,0.312-4.296,0.312
	c-0.072-0.456-0.36-1.224-0.6-1.68c0.84,0.023,1.632,0.048,2.304,0.048c1.872,0,2.016,0,2.016-0.648v-10.488h-7.296v-8.473H182.151z
	 M180.543,164.118h-5.736v2.208h5.736V164.118z M174.807,169.951h5.736v-2.4h-5.736V169.951z"/>
<path d="M191.438,177.512v3.504c2.017,0.912,4.632,1.08,7.776,1.104c1.008,0,6.889,0,8.209-0.048c-0.24,0.359-0.504,0.983-0.6,1.416
	h-7.609c-5.424,0-9.193-0.601-11.425-3.984c-0.336,1.729-0.912,3.384-1.921,4.536c-0.215-0.288-0.647-0.72-0.983-0.912
	c1.488-1.8,1.896-5.185,2.017-8.16l1.8,0.168c-0.024,0.168-0.168,0.288-0.456,0.312c-0.049,0.721-0.096,1.488-0.192,2.28
	c0.505,1.032,1.152,1.824,1.944,2.448v-6.673h-4.896v-1.296h10.969v1.296h-4.632v2.736h4.224v1.272H191.438z M194.582,162.774v7.561
	h-7.992v-7.561H194.582z M193.07,165.942v-1.944h-4.992v1.944H193.07z M193.07,169.111v-1.992h-4.992v1.992H193.07z
	 M200.512,177.943c-0.097,0.168-0.289,0.217-0.48,0.192c-1.032,1.152-2.736,2.376-4.248,3.145c-0.217-0.265-0.673-0.721-0.984-0.96
	c1.416-0.648,3.096-1.801,4.057-3.001L200.512,177.943z M196.959,166.351h2.88c0.216-0.648,0.479-1.44,0.673-2.136h-4.657v-1.248
	h11.209v1.248h-5.089c-0.191,0.647-0.455,1.439-0.744,2.136h4.633v10.657h-8.904V166.351z M204.352,169.495v-1.92h-5.904v1.92
	H204.352z M204.352,172.615v-1.944h-5.904v1.944H204.352z M204.352,175.76v-1.969h-5.904v1.969H204.352z M205.936,181.184
	c-0.84-0.912-2.305-2.136-3.601-3.072l1.08-0.672c1.393,0.96,2.977,2.16,3.913,3.097L205.936,181.184z"/>
<path d="M213.975,178.832c-0.744,1.968-2.017,4.056-3.529,5.256l-1.464-0.768c1.464-1.057,2.761-3,3.48-4.921L213.975,178.832z
	 M228.256,168.991v7.92h-16.202v-7.92h7.081v-7.273l2.111,0.12c-0.023,0.168-0.168,0.288-0.504,0.336v2.28h9.338v1.536h-9.338v3.001
	H228.256z M226.623,175.399v-4.896h-13.009v4.896H226.623z M216.998,183.776c0-1.2-0.216-3.217-0.527-4.776l1.535-0.12
	c0.361,1.56,0.601,3.528,0.625,4.681L216.998,183.776z M223.095,183.752c-0.264-1.2-0.983-3.216-1.728-4.704l1.488-0.336
	c0.744,1.488,1.535,3.432,1.8,4.656L223.095,183.752z M229.959,184.017c-0.695-1.44-2.328-3.601-3.792-5.185l1.44-0.648
	c1.464,1.536,3.145,3.648,3.864,5.089L229.959,184.017z"/>
<path d="M243.135,167.935v14.306c0,1.8-1.008,1.8-4.057,1.8c-0.072-0.384-0.312-1.008-0.527-1.392
	c0.768,0.023,1.463,0.048,1.968,0.048c1.104,0,1.224,0,1.224-0.48v-4.632h-5.832c-0.192,2.28-0.721,4.729-1.873,6.528
	c-0.239-0.216-0.863-0.601-1.176-0.744c1.656-2.592,1.824-6.217,1.824-8.953v-4.872c-0.24,0.312-0.48,0.624-0.72,0.888
	c-0.265-0.239-0.792-0.672-1.152-0.888c1.608-1.752,3.001-4.776,3.816-7.801l1.849,0.504c-0.049,0.168-0.192,0.24-0.48,0.24
	c-0.145,0.48-0.288,0.937-0.456,1.416h3.072l0.24-0.072l1.104,0.721c-0.049,0.096-0.192,0.144-0.312,0.191
	c-0.385,0.937-1.008,2.16-1.584,3.192H243.135z M238.574,167.935c0.456-0.768,0.912-1.776,1.271-2.712h-2.808
	c-0.408,0.96-0.841,1.872-1.32,2.712H238.574z M236.054,173.335v1.08c0,0.576,0,1.225-0.048,1.872h2.232v-2.952H236.054z
	 M236.054,169.23v2.833h2.185v-2.833H236.054z M239.463,169.23v2.833h2.279v-2.833H239.463z M239.463,176.287h2.279v-2.952h-2.279
	V176.287z M254.728,163.038c0,0.168-0.024,0.336-0.048,0.504c-0.217,4.081-0.408,5.593-0.936,6.169
	c-0.312,0.384-0.697,0.576-1.801,0.576c-0.553,0-1.297-0.024-2.04-0.048c-0.024-0.408-0.168-0.984-0.384-1.368
	c1.008,0.12,1.943,0.12,2.279,0.12c0.36,0,0.576-0.024,0.721-0.217c0.288-0.336,0.48-1.487,0.648-4.392h-4.129
	c-0.504,2.664-1.561,5.256-4.752,6.721c-0.192-0.337-0.601-0.864-0.937-1.129c2.688-1.128,3.72-3.216,4.177-5.592h-3.408v-1.393
	h9.457l0.312-0.023L254.728,163.038z M255.328,178.136v1.44h-4.896v4.488h-1.561v-4.488h-5.088v-1.44h5.088v-3.145h-2.76
	c-0.336,0.889-0.769,1.681-1.225,2.305c-0.264-0.217-0.768-0.576-1.104-0.769c0.936-1.224,1.607-3.36,1.992-5.473l1.775,0.433
	c-0.048,0.144-0.191,0.24-0.456,0.24c-0.144,0.6-0.288,1.224-0.479,1.848h2.256v-2.928l2.016,0.119
	c-0.023,0.168-0.144,0.288-0.455,0.337v2.472h4.008v1.416h-4.008v3.145H255.328z"/>
<path d="M257.822,168.511c1.56,0.601,3.504,1.656,4.488,2.473l-0.912,1.344c-0.961-0.816-2.881-1.92-4.441-2.592L257.822,168.511z
	 M257.605,182.648c1.2-1.896,2.929-5.161,4.177-7.921l1.248,1.008c-1.152,2.568-2.688,5.593-3.816,7.465
	c0.097,0.12,0.12,0.24,0.12,0.336s-0.023,0.192-0.072,0.288L257.605,182.648z M259.117,161.958c1.537,0.672,3.434,1.776,4.369,2.641
	l-0.936,1.32c-0.912-0.889-2.785-2.064-4.346-2.784L259.117,161.958z M279.279,174.703h-6.816c1.2,3.816,3.576,6.648,7.104,7.945
	c-0.384,0.359-0.888,0.96-1.128,1.416c-3.744-1.608-6.192-4.776-7.513-9.097c-0.696,3.479-2.567,6.696-7.368,9.12
	c-0.264-0.336-0.84-0.912-1.248-1.176c4.536-2.208,6.312-5.089,7.008-8.209h-5.904v-1.536h6.169c0.12-1.032,0.144-2.088,0.144-3.144
	v-2.736h-4.801v-1.536h4.801v-3.984l2.088,0.144c-0.023,0.168-0.168,0.288-0.479,0.336v3.505H277v7.416h2.279V174.703z
	 M271.335,167.287v2.76c0,1.057-0.024,2.088-0.144,3.12h4.224v-5.88H271.335z"/>
</svg>
