<?xml version="1.0" encoding="utf-8"?>
<!-- Generator: Adobe Illustrator 15.1.0, SVG Export Plug-In  -->
<!DOCTYPE svg PUBLIC "-//W3C//DTD SVG 1.1//EN" "http://www.w3.org/Graphics/SVG/1.1/DTD/svg11.dtd" [
	<!ENTITY ns_flows "http://ns.adobe.com/Flows/1.0/">
]>
<svg version="1.1"
	 xmlns="http://www.w3.org/2000/svg" xmlns:xlink="http://www.w3.org/1999/xlink" xmlns:a="http://ns.adobe.com/AdobeSVGViewerExtensions/3.0/"
	 x="0px" y="0px" width="441px" height="227px" viewBox="-3.5 -2.5 441 227"
	 overflow="visible" enable-background="new -3.5 -2.5 441 227" xml:space="preserve">
<defs>
</defs>
<path fill="none" stroke="#FFFFFF" stroke-width="3" stroke-miterlimit="10" d="M432.5,206.5c0,6.627-5.373,12-12,12h-407
	c-6.627,0-12-5.373-12-12v-193c0-6.627,5.373-12,12-12h407c6.627,0,12,5.373,12,12V206.5z"/>
<path fill="#FFFFFF" d="M202.411,107.611l1.872,0.768c-0.144,0.24-0.48,0.384-0.912,0.384c-0.528,0.672-1.296,1.584-2.064,2.448
	h13.489v2.352h-43.54v-2.352h13.537c-0.528-1.008-1.392-2.16-2.208-3.024l1.584-0.576h-7.921v-2.161
	c-1.152,0.672-2.352,1.296-3.6,1.776c-0.288-0.576-1.008-1.536-1.536-2.016c3.36-1.248,6.384-3.216,8.544-5.905
	c-2.736,0.336-5.328,0.625-7.152,0.816c-0.048,0.336-0.288,0.528-0.576,0.624l-1.2-3.024c0.96-0.048,2.016-0.144,3.168-0.24
	c0.912-0.96,1.872-2.112,2.832-3.312c-1.44-1.536-3.744-3.456-5.665-4.848l1.536-1.824c0.528,0.336,1.056,0.72,1.632,1.152
	c1.296-1.776,2.688-4.08,3.552-5.712l2.928,1.296c-0.144,0.288-0.528,0.384-0.96,0.336c-0.96,1.536-2.496,3.696-3.888,5.376
	c0.912,0.768,1.776,1.536,2.448,2.208c1.248-1.68,2.448-3.408,3.312-4.849l2.928,1.344c-0.144,0.288-0.48,0.384-0.96,0.384
	c-1.68,2.4-4.224,5.616-6.577,8.208l4.272-0.336c0.576-1.056,1.056-2.208,1.392-3.408l3.264,0.72
	c-0.096,0.336-0.384,0.48-0.864,0.48c-1.488,4.561-4.608,8.209-8.641,10.657h14.833v-2.928l4.032,0.24
	c-0.048,0.336-0.288,0.576-0.912,0.672v2.016h16.226v2.256H202.411z M178.409,127.628v-11.953h29.235v11.857h-3.072v-1.344h-23.186
	v1.44H178.409z M204.571,117.644h-23.186v2.352h23.186V117.644z M181.385,124.172h23.186v-2.352h-23.186V124.172z M184.169,100.218
	l2.208-0.192V84.569h13.105v10.705h-10.465v4.464c2.112-0.192,4.464-0.432,6.913-0.72c-0.768-0.816-1.584-1.536-2.4-2.208
	l1.968-1.152c2.112,1.68,4.513,4.128,5.521,5.904l-2.064,1.296c-0.288-0.528-0.72-1.152-1.248-1.824
	c-4.417,0.624-8.881,1.152-11.761,1.488c-0.048,0.384-0.288,0.576-0.576,0.672L184.169,100.218z M198.09,111.211
	c0.768-1.008,1.824-2.448,2.497-3.6h-15.122c1.056,1.008,1.968,2.352,2.352,3.36l-0.624,0.24H198.09z M196.842,86.633h-7.825v2.256
	h7.825V86.633z M189.018,93.209h7.825v-2.304h-7.825V93.209z M213.404,84.425l1.776,1.008c-0.096,0.192-0.24,0.336-0.384,0.384
	c-1.056,1.872-2.448,4.176-3.84,6.336c3.984,3.12,4.128,5.041,4.128,6c0,4.224-4.128,4.224-5.856,4.224c-0.576,0-1.2,0-1.776-0.048
	c-0.048-0.72-0.432-1.728-0.912-2.352c0.864,0.048,1.68,0.096,2.4,0.096c1.776,0,3.552,0,3.552-2.208
	c-0.048-1.536-1.392-3.168-4.417-5.329c1.2-2.016,2.256-3.84,3.121-5.521h-6.049v17.522h-2.736v-19.97h10.513L213.404,84.425z"/>
<path fill="#FFFFFF" d="M259.916,100.17c-4.32,1.488-9.553,2.4-14.497,2.977c1.488,2.592,4.417,6.192,7.921,7.537l-1.92,2.736
	c-0.672-0.336-1.92-0.912-2.784-1.44c-1.056-0.384-3.408-0.72-5.665-0.72c-0.672,0-1.344,0.048-1.968,0.096l-0.672-2.64
	c1.632-0.096,3.984,0,5.376,0.192c-1.296-1.392-2.833-3.457-3.792-5.424c-3.216,0.336-6.769,0.48-12.865,0.48
	c-2.352,0-4.992,0-7.152-0.048l-0.048-3.024c2.16,0.048,4.944,0.096,7.344,0.096c3.937,0,7.825,0,11.713-0.336
	c-0.528-1.488-1.296-4.224-1.873-6.384c-1.92,0.192-4.08,0.288-6.048,0.288c-2.592,0-5.904,0-8.161-0.096v-2.976
	c2.88,0.144,6.048,0.144,8.113,0.144c1.728,0,3.696-0.096,5.521-0.24c-0.432-2.208-0.912-4.849-1.296-7.537l4.944,0.048
	c0,0.576-0.432,0.912-1.296,1.056c0.288,2.064,0.624,4.272,1.008,6.145c4.512-0.432,9.36-1.392,12.865-2.784l0.816,2.976
	c-3.504,1.296-8.257,2.208-13.057,2.736c0.624,2.544,1.248,4.8,1.824,6.289c5.088-0.528,10.609-1.632,14.977-3.168L259.916,100.17z
	 M251.467,125.564c-2.64,0.192-5.808,0.288-10.561,0.288c-7.777-0.048-13.825-2.544-13.729-7.969
	c0.048-2.832,2.544-5.856,5.665-7.584l2.16,2.208c-2.784,1.488-4.417,3.504-4.417,5.329c0,3.408,4.225,4.896,10.321,4.944
	c3.6,0,7.393-0.192,10.657-0.432L251.467,125.564z"/>
</svg>
